<svg width="24" height="20" viewBox="0 0 24 20" fill="none" xmlns="http://www.w3.org/2000/svg">
<path d="M22.833 16.667H0.833C0.556858 16.667 0.333 16.8909 0.333 17.167V19.167C0.333 19.4431 0.556858 19.667 0.833 19.667H22.833C23.1091 19.667 23.333 19.4431 23.333 19.167V17.167C23.333 16.8909 23.1091 16.667 22.833 16.667Z" fill="#FBFBFB"/>
<path d="M22.833 8.333H0.833C0.556858 8.333 0.333 8.55686 0.333 8.833V10.833C0.333 11.1091 0.556858 11.333 0.833 11.333H22.833C23.1091 11.333 23.333 11.1091 23.333 10.833V8.833C23.333 8.55686 23.1091 8.333 22.833 8.333Z" fill="#FBFBFB"/>
<path d="M22.833 0H0.833C0.556858 0 0.333 0.223858 0.333 0.5V2.5C0.333 2.77614 0.556858 3 0.833 3H22.833C23.1091 3 23.333 2.77614 23.333 2.5V0.5C23.333 0.223858 23.1091 0 22.833 0Z" fill="#FBFBFB"/>
</svg>
