<svg xmlns="http://www.w3.org/2000/svg" style="display: none;"><symbol id="search" viewBox="0 0 52.966 52.966"><title>search</title><path d="M51.704,51.273L36.845,35.82c3.79-3.801,6.138-9.041,6.138-14.82c0-11.58-9.42-21-21-21s-21,9.42-21,21s9.42,21,21,21 c5.083,0,9.748-1.817,13.384-4.832l14.895,15.491c0.196,0.205,0.458,0.307,0.721,0.307c0.25,0,0.499-0.093,0.693-0.279 C52.074,52.304,52.086,51.671,51.704,51.273z M21.983,40c-10.477,0-19-8.523-19-19s8.523-19,19-19s19,8.523,19,19 S32.459,40,21.983,40z"/></symbol><symbol id="user" viewBox="0 0 55 55"><title>user</title><path d="M55,27.5C55,12.337,42.663,0,27.5,0S0,12.337,0,27.5c0,8.009,3.444,15.228,8.926,20.258l-0.026,0.023l0.892,0.752 c0.058,0.049,0.121,0.089,0.179,0.137c0.474,0.393,0.965,0.766,1.465,1.127c0.162,0.117,0.324,0.234,0.489,0.348 c0.534,0.368,1.082,0.717,1.642,1.048c0.122,0.072,0.245,0.142,0.368,0.212c0.613,0.349,1.239,0.678,1.88,0.98 c0.047,0.022,0.095,0.042,0.142,0.064c2.089,0.971,4.319,1.684,6.651,2.105c0.061,0.011,0.122,0.022,0.184,0.033 c0.724,0.125,1.456,0.225,2.197,0.292c0.09,0.008,0.18,0.013,0.271,0.021C25.998,54.961,26.744,55,27.5,55 c0.749,0,1.488-0.039,2.222-0.098c0.093-0.008,0.186-0.013,0.279-0.021c0.735-0.067,1.461-0.164,2.178-0.287 c0.062-0.011,0.125-0.022,0.187-0.034c2.297-0.412,4.495-1.109,6.557-2.055c0.076-0.035,0.153-0.068,0.229-0.104 c0.617-0.29,1.22-0.603,1.811-0.936c0.147-0.083,0.293-0.167,0.439-0.253c0.538-0.317,1.067-0.648,1.581-1 c0.185-0.126,0.366-0.259,0.549-0.391c0.439-0.316,0.87-0.642,1.289-0.983c0.093-0.075,0.193-0.14,0.284-0.217l0.915-0.764 l-0.027-0.023C51.523,42.802,55,35.55,55,27.5z M2,27.5C2,13.439,13.439,2,27.5,2S53,13.439,53,27.5 c0,7.577-3.325,14.389-8.589,19.063c-0.294-0.203-0.59-0.385-0.893-0.537l-8.467-4.233c-0.76-0.38-1.232-1.144-1.232-1.993v-2.957 c0.196-0.242,0.403-0.516,0.617-0.817c1.096-1.548,1.975-3.27,2.616-5.123c1.267-0.602,2.085-1.864,2.085-3.289v-3.545 c0-0.867-0.318-1.708-0.887-2.369v-4.667c0.052-0.519,0.236-3.448-1.883-5.864C34.524,9.065,31.541,8,27.5,8 s-7.024,1.065-8.867,3.168c-2.119,2.416-1.935,5.345-1.883,5.864v4.667c-0.568,0.661-0.887,1.502-0.887,2.369v3.545 c0,1.101,0.494,2.128,1.34,2.821c0.81,3.173,2.477,5.575,3.093,6.389v2.894c0,0.816-0.445,1.566-1.162,1.958l-7.907,4.313 c-0.252,0.137-0.502,0.297-0.752,0.476C5.276,41.792,2,35.022,2,27.5z M42.459,48.132c-0.35,0.254-0.706,0.5-1.067,0.735 c-0.166,0.108-0.331,0.216-0.5,0.321c-0.472,0.292-0.952,0.57-1.442,0.83c-0.108,0.057-0.217,0.111-0.326,0.167 c-1.126,0.577-2.291,1.073-3.488,1.476c-0.042,0.014-0.084,0.029-0.127,0.043c-0.627,0.208-1.262,0.393-1.904,0.552 c-0.002,0-0.004,0.001-0.006,0.001c-0.648,0.16-1.304,0.293-1.964,0.402c-0.018,0.003-0.036,0.007-0.054,0.01 c-0.621,0.101-1.247,0.174-1.875,0.229c-0.111,0.01-0.222,0.017-0.334,0.025C28.751,52.97,28.127,53,27.5,53 c-0.634,0-1.266-0.031-1.895-0.078c-0.109-0.008-0.218-0.015-0.326-0.025c-0.634-0.056-1.265-0.131-1.89-0.233 c-0.028-0.005-0.056-0.01-0.084-0.015c-1.322-0.221-2.623-0.546-3.89-0.971c-0.039-0.013-0.079-0.027-0.118-0.04 c-0.629-0.214-1.251-0.451-1.862-0.713c-0.004-0.002-0.009-0.004-0.013-0.006c-0.578-0.249-1.145-0.525-1.705-0.816 c-0.073-0.038-0.147-0.074-0.219-0.113c-0.511-0.273-1.011-0.568-1.504-0.876c-0.146-0.092-0.291-0.185-0.435-0.279 c-0.454-0.297-0.902-0.606-1.338-0.933c-0.045-0.034-0.088-0.07-0.133-0.104c0.032-0.018,0.064-0.036,0.096-0.054l7.907-4.313 c1.36-0.742,2.205-2.165,2.205-3.714l-0.001-3.602l-0.23-0.278c-0.022-0.025-2.184-2.655-3.001-6.216l-0.091-0.396l-0.341-0.221 c-0.481-0.311-0.769-0.831-0.769-1.392v-3.545c0-0.465,0.197-0.898,0.557-1.223l0.33-0.298v-5.57l-0.009-0.131 c-0.003-0.024-0.298-2.429,1.396-4.36C21.583,10.837,24.061,10,27.5,10c3.426,0,5.896,0.83,7.346,2.466 c1.692,1.911,1.415,4.361,1.413,4.381l-0.009,5.701l0.33,0.298c0.359,0.324,0.557,0.758,0.557,1.223v3.545 c0,0.713-0.485,1.36-1.181,1.575l-0.497,0.153l-0.16,0.495c-0.59,1.833-1.43,3.526-2.496,5.032c-0.262,0.37-0.517,0.698-0.736,0.949 l-0.248,0.283V39.8c0,1.612,0.896,3.062,2.338,3.782l8.467,4.233c0.054,0.027,0.107,0.055,0.16,0.083 C42.677,47.979,42.567,48.054,42.459,48.132z"/></symbol><symbol id="calendar" viewBox="0 0 60 60"><title>calendar</title><path d="M57,4h-7V1c0-0.553-0.447-1-1-1h-7c-0.553,0-1,0.447-1,1v3H19V1c0-0.553-0.447-1-1-1h-7c-0.553,0-1,0.447-1,1v3H3 C2.447,4,2,4.447,2,5v11v43c0,0.553,0.447,1,1,1h54c0.553,0,1-0.447,1-1V16V5C58,4.447,57.553,4,57,4z M43,2h5v3v3h-5V5V2z M12,2h5 v3v3h-5V5V2z M4,6h6v3c0,0.553,0.447,1,1,1h7c0.553,0,1-0.447,1-1V6h22v3c0,0.553,0.447,1,1,1h7c0.553,0,1-0.447,1-1V6h6v9H4V6z M4,58V17h52v41H4z"/><path d="M38,23h-7h-2h-7h-2h-9v9v2v7v2v9h9h2h7h2h7h2h9v-9v-2v-7v-2v-9h-9H38z M31,25h7v7h-7V25z M38,41h-7v-7h7V41z M22,34h7v7h-7 V34z M22,25h7v7h-7V25z M13,25h7v7h-7V25z M13,34h7v7h-7V34z M20,50h-7v-7h7V50z M29,50h-7v-7h7V50z M38,50h-7v-7h7V50z M47,50h-7 v-7h7V50z M47,41h-7v-7h7V41z M47,25v7h-7v-7H47z"/></symbol><symbol id="settings" viewBox="0 0 54 54"><title>settings</title><path d="M51.22,21h-5.052c-0.812,0-1.481-0.447-1.792-1.197s-0.153-1.54,0.42-2.114l3.572-3.571 c0.525-0.525,0.814-1.224,0.814-1.966c0-0.743-0.289-1.441-0.814-1.967l-4.553-4.553c-1.05-1.05-2.881-1.052-3.933,0l-3.571,3.571 c-0.574,0.573-1.366,0.733-2.114,0.421C33.447,9.313,33,8.644,33,7.832V2.78C33,1.247,31.753,0,30.22,0H23.78 C22.247,0,21,1.247,21,2.78v5.052c0,0.812-0.447,1.481-1.197,1.792c-0.748,0.313-1.54,0.152-2.114-0.421l-3.571-3.571 c-1.052-1.052-2.883-1.05-3.933,0l-4.553,4.553c-0.525,0.525-0.814,1.224-0.814,1.967c0,0.742,0.289,1.44,0.814,1.966l3.572,3.571 c0.573,0.574,0.73,1.364,0.42,2.114S8.644,21,7.832,21H2.78C1.247,21,0,22.247,0,23.78v6.439C0,31.753,1.247,33,2.78,33h5.052 c0.812,0,1.481,0.447,1.792,1.197s0.153,1.54-0.42,2.114l-3.572,3.571c-0.525,0.525-0.814,1.224-0.814,1.966 c0,0.743,0.289,1.441,0.814,1.967l4.553,4.553c1.051,1.051,2.881,1.053,3.933,0l3.571-3.572c0.574-0.573,1.363-0.731,2.114-0.42 c0.75,0.311,1.197,0.98,1.197,1.792v5.052c0,1.533,1.247,2.78,2.78,2.78h6.439c1.533,0,2.78-1.247,2.78-2.78v-5.052 c0-0.812,0.447-1.481,1.197-1.792c0.751-0.312,1.54-0.153,2.114,0.42l3.571,3.572c1.052,1.052,2.883,1.05,3.933,0l4.553-4.553 c0.525-0.525,0.814-1.224,0.814-1.967c0-0.742-0.289-1.44-0.814-1.966l-3.572-3.571c-0.573-0.574-0.73-1.364-0.42-2.114 S45.356,33,46.168,33h5.052c1.533,0,2.78-1.247,2.78-2.78V23.78C54,22.247,52.753,21,51.22,21z M52,30.22 C52,30.65,51.65,31,51.22,31h-5.052c-1.624,0-3.019,0.932-3.64,2.432c-0.622,1.5-0.295,3.146,0.854,4.294l3.572,3.571 c0.305,0.305,0.305,0.8,0,1.104l-4.553,4.553c-0.304,0.304-0.799,0.306-1.104,0l-3.571-3.572c-1.149-1.149-2.794-1.474-4.294-0.854 c-1.5,0.621-2.432,2.016-2.432,3.64v5.052C31,51.65,30.65,52,30.22,52H23.78C23.35,52,23,51.65,23,51.22v-5.052 c0-1.624-0.932-3.019-2.432-3.64c-0.503-0.209-1.021-0.311-1.533-0.311c-1.014,0-1.997,0.4-2.761,1.164l-3.571,3.572 c-0.306,0.306-0.801,0.304-1.104,0l-4.553-4.553c-0.305-0.305-0.305-0.8,0-1.104l3.572-3.571c1.148-1.148,1.476-2.794,0.854-4.294 C10.851,31.932,9.456,31,7.832,31H2.78C2.35,31,2,30.65,2,30.22V23.78C2,23.35,2.35,23,2.78,23h5.052 c1.624,0,3.019-0.932,3.64-2.432c0.622-1.5,0.295-3.146-0.854-4.294l-3.572-3.571c-0.305-0.305-0.305-0.8,0-1.104l4.553-4.553 c0.304-0.305,0.799-0.305,1.104,0l3.571,3.571c1.147,1.147,2.792,1.476,4.294,0.854C22.068,10.851,23,9.456,23,7.832V2.78 C23,2.35,23.35,2,23.78,2h6.439C30.65,2,31,2.35,31,2.78v5.052c0,1.624,0.932,3.019,2.432,3.64 c1.502,0.622,3.146,0.294,4.294-0.854l3.571-3.571c0.306-0.305,0.801-0.305,1.104,0l4.553,4.553c0.305,0.305,0.305,0.8,0,1.104 l-3.572,3.571c-1.148,1.148-1.476,2.794-0.854,4.294c0.621,1.5,2.016,2.432,3.64,2.432h5.052C51.65,23,52,23.35,52,23.78V30.22z"/><path d="M27,18c-4.963,0-9,4.037-9,9s4.037,9,9,9s9-4.037,9-9S31.963,18,27,18z M27,34c-3.859,0-7-3.141-7-7s3.141-7,7-7 s7,3.141,7,7S30.859,34,27,34z"/></symbol><symbol id="play-button" viewBox="0 0 41.999 41.999"><title>play-button</title><path d="M36.068,20.176l-29-20C6.761-0.035,6.363-0.057,6.035,0.114C5.706,0.287,5.5,0.627,5.5,0.999v40 c0,0.372,0.206,0.713,0.535,0.886c0.146,0.076,0.306,0.114,0.465,0.114c0.199,0,0.397-0.06,0.568-0.177l29-20 c0.271-0.187,0.432-0.494,0.432-0.823S36.338,20.363,36.068,20.176z M7.5,39.095V2.904l26.239,18.096L7.5,39.095z"/></symbol><symbol id="edit" viewBox="0 0 55.25 55.25"><title>edit</title><path d="M52.618,2.631c-3.51-3.508-9.219-3.508-12.729,0L3.827,38.693C3.81,38.71,3.8,38.731,3.785,38.749 c-0.021,0.024-0.039,0.05-0.058,0.076c-0.053,0.074-0.094,0.153-0.125,0.239c-0.009,0.026-0.022,0.049-0.029,0.075 c-0.003,0.01-0.009,0.02-0.012,0.03l-3.535,14.85c-0.016,0.067-0.02,0.135-0.022,0.202C0.004,54.234,0,54.246,0,54.259 c0.001,0.114,0.026,0.225,0.065,0.332c0.009,0.025,0.019,0.047,0.03,0.071c0.049,0.107,0.11,0.21,0.196,0.296 c0.095,0.095,0.207,0.168,0.328,0.218c0.121,0.05,0.25,0.075,0.379,0.075c0.077,0,0.155-0.009,0.231-0.027l14.85-3.535 c0.027-0.006,0.051-0.021,0.077-0.03c0.034-0.011,0.066-0.024,0.099-0.039c0.072-0.033,0.139-0.074,0.201-0.123 c0.024-0.019,0.049-0.033,0.072-0.054c0.008-0.008,0.018-0.012,0.026-0.02l36.063-36.063C56.127,11.85,56.127,6.14,52.618,2.631z M51.204,4.045c2.488,2.489,2.7,6.397,0.65,9.137l-9.787-9.787C44.808,1.345,48.716,1.557,51.204,4.045z M46.254,18.895l-9.9-9.9 l1.414-1.414l9.9,9.9L46.254,18.895z M4.961,50.288c-0.391-0.391-1.023-0.391-1.414,0L2.79,51.045l2.554-10.728l4.422-0.491 l-0.569,5.122c-0.004,0.038,0.01,0.073,0.01,0.11c0,0.038-0.014,0.072-0.01,0.11c0.004,0.033,0.021,0.06,0.028,0.092 c0.012,0.058,0.029,0.111,0.05,0.165c0.026,0.065,0.057,0.124,0.095,0.181c0.031,0.046,0.062,0.087,0.1,0.127 c0.048,0.051,0.1,0.094,0.157,0.134c0.045,0.031,0.088,0.06,0.138,0.084C9.831,45.982,9.9,46,9.972,46.017 c0.038,0.009,0.069,0.03,0.108,0.035c0.036,0.004,0.072,0.006,0.109,0.006c0,0,0.001,0,0.001,0c0,0,0.001,0,0.001,0h0.001 c0,0,0.001,0,0.001,0c0.036,0,0.073-0.002,0.109-0.006l5.122-0.569l-0.491,4.422L4.204,52.459l0.757-0.757 C5.351,51.312,5.351,50.679,4.961,50.288z M17.511,44.809L39.889,22.43c0.391-0.391,0.391-1.023,0-1.414s-1.023-0.391-1.414,0 L16.097,43.395l-4.773,0.53l0.53-4.773l22.38-22.378c0.391-0.391,0.391-1.023,0-1.414s-1.023-0.391-1.414,0L10.44,37.738 l-3.183,0.354L34.94,10.409l9.9,9.9L17.157,47.992L17.511,44.809z M49.082,16.067l-9.9-9.9l1.415-1.415l9.9,9.9L49.082,16.067z"/></symbol><symbol id="plus" viewBox="0 0 52 52"><title>plus</title><path d="M26,0C11.664,0,0,11.663,0,26s11.664,26,26,26s26-11.663,26-26S40.336,0,26,0z M26,50C12.767,50,2,39.233,2,26 S12.767,2,26,2s24,10.767,24,24S39.233,50,26,50z"/><path d="M38.5,25H27V14c0-0.553-0.448-1-1-1s-1,0.447-1,1v11H13.5c-0.552,0-1,0.447-1,1s0.448,1,1,1H25v12c0,0.553,0.448,1,1,1 s1-0.447,1-1V27h11.5c0.552,0,1-0.447,1-1S39.052,25,38.5,25z"/></symbol><symbol id="error" viewBox="0 0 52 52"><title>error</title><path d="M26,0C11.664,0,0,11.663,0,26s11.664,26,26,26s26-11.663,26-26S40.336,0,26,0z M26,50C12.767,50,2,39.233,2,26 S12.767,2,26,2s24,10.767,24,24S39.233,50,26,50z"/><path d="M35.707,16.293c-0.391-0.391-1.023-0.391-1.414,0L26,24.586l-8.293-8.293c-0.391-0.391-1.023-0.391-1.414,0 s-0.391,1.023,0,1.414L24.586,26l-8.293,8.293c-0.391,0.391-0.391,1.023,0,1.414C16.488,35.902,16.744,36,17,36 s0.512-0.098,0.707-0.293L26,27.414l8.293,8.293C34.488,35.902,34.744,36,35,36s0.512-0.098,0.707-0.293 c0.391-0.391,0.391-1.023,0-1.414L27.414,26l8.293-8.293C36.098,17.316,36.098,16.684,35.707,16.293z"/></symbol><symbol id="star" viewBox="0 0 49.94 49.94"><title>star</title><path d="M48.856,22.731c0.983-0.958,1.33-2.364,0.906-3.671c-0.425-1.307-1.532-2.24-2.892-2.438l-12.092-1.757 c-0.515-0.075-0.96-0.398-1.19-0.865L28.182,3.043c-0.607-1.231-1.839-1.996-3.212-1.996c-1.372,0-2.604,0.765-3.211,1.996 L16.352,14c-0.23,0.467-0.676,0.79-1.191,0.865L3.069,16.623C1.71,16.82,0.603,17.753,0.178,19.06 c-0.424,1.307-0.077,2.713,0.906,3.671l8.749,8.528c0.373,0.364,0.544,0.888,0.456,1.4L8.224,44.702 c-0.232,1.353,0.313,2.694,1.424,3.502c1.11,0.809,2.555,0.914,3.772,0.273l10.814-5.686c0.461-0.242,1.011-0.242,1.472,0 l10.815,5.686c0.528,0.278,1.1,0.415,1.669,0.415c0.739,0,1.475-0.231,2.103-0.688c1.111-0.808,1.656-2.149,1.424-3.502 L39.651,32.66c-0.088-0.513,0.083-1.036,0.456-1.4L48.856,22.731z M37.681,32.998l2.065,12.042c0.104,0.606-0.131,1.185-0.629,1.547 c-0.499,0.361-1.12,0.405-1.665,0.121l-10.815-5.687c-0.521-0.273-1.095-0.411-1.667-0.411s-1.145,0.138-1.667,0.412l-10.813,5.686 c-0.547,0.284-1.168,0.24-1.666-0.121c-0.498-0.362-0.732-0.94-0.629-1.547l2.065-12.042c0.199-1.162-0.186-2.348-1.03-3.17 L2.48,21.299c-0.441-0.43-0.591-1.036-0.4-1.621c0.19-0.586,0.667-0.988,1.276-1.077l12.091-1.757 c1.167-0.169,2.176-0.901,2.697-1.959l5.407-10.957c0.272-0.552,0.803-0.881,1.418-0.881c0.616,0,1.146,0.329,1.419,0.881 l5.407,10.957c0.521,1.058,1.529,1.79,2.696,1.959l12.092,1.757c0.609,0.089,1.086,0.491,1.276,1.077 c0.19,0.585,0.041,1.191-0.4,1.621l-8.749,8.528C37.866,30.65,37.481,31.835,37.681,32.998z"/></symbol><symbol id="user-1" viewBox="0 0 60 60"><title>user-1</title><path d="M48.014,42.889l-9.553-4.776C37.56,37.662,37,36.756,37,35.748v-3.381c0.229-0.28,0.47-0.599,0.719-0.951 c1.239-1.75,2.232-3.698,2.954-5.799C42.084,24.97,43,23.575,43,22v-4c0-0.963-0.36-1.896-1-2.625v-5.319 c0.056-0.55,0.276-3.824-2.092-6.525C37.854,1.188,34.521,0,30,0s-7.854,1.188-9.908,3.53C17.724,6.231,17.944,9.506,18,10.056 v5.319c-0.64,0.729-1,1.662-1,2.625v4c0,1.217,0.553,2.352,1.497,3.109c0.916,3.627,2.833,6.36,3.503,7.237v3.309 c0,0.968-0.528,1.856-1.377,2.32l-8.921,4.866C8.801,44.424,7,47.458,7,50.762V54c0,4.746,15.045,6,23,6s23-1.254,23-6v-3.043 C53,47.519,51.089,44.427,48.014,42.889z M51,54c0,1.357-7.412,4-21,4S9,55.357,9,54v-3.238c0-2.571,1.402-4.934,3.659-6.164 l8.921-4.866C23.073,38.917,24,37.354,24,35.655v-4.019l-0.233-0.278c-0.024-0.029-2.475-2.994-3.41-7.065l-0.091-0.396l-0.341-0.22 C19.346,23.303,19,22.676,19,22v-4c0-0.561,0.238-1.084,0.67-1.475L20,16.228V10l-0.009-0.131c-0.003-0.027-0.343-2.799,1.605-5.021 C23.253,2.958,26.081,2,30,2c3.905,0,6.727,0.951,8.386,2.828c1.947,2.201,1.625,5.017,1.623,5.041L40,16.228l0.33,0.298 C40.762,16.916,41,17.439,41,18v4c0,0.873-0.572,1.637-1.422,1.899l-0.498,0.153l-0.16,0.495c-0.669,2.081-1.622,4.003-2.834,5.713 c-0.297,0.421-0.586,0.794-0.837,1.079L35,31.623v4.125c0,1.77,0.983,3.361,2.566,4.153l9.553,4.776 C49.513,45.874,51,48.28,51,50.957V54z"/></symbol><symbol id="home" viewBox="0 0 58.365 58.365"><title>home</title><path d="M57.863,26.632l-8.681-8.061V5.365h-10v3.921L29.182,0L0.502,26.632c-0.404,0.376-0.428,1.009-0.052,1.414 c0.375,0.404,1.008,0.427,1.414,0.052l3.319-3.082v33.349h16h16h16V25.015l3.319,3.082c0.192,0.179,0.437,0.267,0.681,0.267 c0.269,0,0.536-0.107,0.732-0.319C58.291,27.641,58.267,27.008,57.863,26.632z M41.182,7.365h6v9.349l-6-5.571V7.365z M23.182,56.365V35.302c0-0.517,0.42-0.937,0.937-0.937h10.126c0.517,0,0.937,0.42,0.937,0.937v21.063H23.182z M51.182,56.365h-14 V35.302c0-1.62-1.317-2.937-2.937-2.937H24.119c-1.62,0-2.937,1.317-2.937,2.937v21.063h-14V23.158l22-20.429l14.28,13.26 l5.72,5.311v0l2,1.857V56.365z"/></symbol><symbol id="map-location" viewBox="0 0 55.017 55.017"><title>map-location</title><path d="M51.688,23.013H40.789c-0.553,0-1,0.447-1,1s0.447,1,1,1h9.102l2.899,27H2.268l3.403-27h9.118c0.553,0,1-0.447,1-1 s-0.447-1-1-1H3.907L0,54.013h55.017L51.688,23.013z"/><path d="M26.654,38.968c-0.147,0.087-0.304,0.164-0.445,0.255c-0.22,0.142-0.435,0.291-0.646,0.445 c-0.445,0.327-0.541,0.953-0.215,1.398c0.196,0.267,0.5,0.408,0.808,0.408c0.205,0,0.412-0.063,0.591-0.193 c0.178-0.131,0.359-0.257,0.548-0.379c0.321-0.208,0.662-0.403,1.014-0.581c0.468-0.237,0.658-0.791,0.462-1.269 c0.008-0.008,0.018-0.014,0.025-0.022c1.809-1.916,7.905-9.096,10.429-21.058c0.512-2.426,0.627-4.754,0.342-6.919 c-0.86-6.575-4.945-10.051-11.813-10.051c-6.866,0-10.951,3.476-11.813,10.051c-0.284,2.166-0.169,4.494,0.343,6.919 C18.783,29.818,24.783,36.97,26.654,38.968z M17.924,11.314c0.733-5.592,3.949-8.311,9.831-8.311c5.883,0,9.098,2.719,9.83,8.311 c0.255,1.94,0.148,4.043-0.316,6.247C35,28.314,29.59,35.137,27.755,37.207c-1.837-2.072-7.246-8.898-9.514-19.646 C17.776,15.357,17.67,13.255,17.924,11.314z"/><path d="M27.755,19.925c4.051,0,7.346-3.295,7.346-7.346s-3.295-7.346-7.346-7.346s-7.346,3.295-7.346,7.346 S23.704,19.925,27.755,19.925z M27.755,7.234c2.947,0,5.346,2.398,5.346,5.346s-2.398,5.346-5.346,5.346s-5.346-2.398-5.346-5.346 S24.808,7.234,27.755,7.234z"/><path d="M31.428,37.17c-0.54,0.114-0.884,0.646-0.769,1.187c0.1,0.47,0.515,0.791,0.977,0.791c0.069,0,0.14-0.007,0.21-0.022 c0.586-0.124,1.221-0.229,1.886-0.313c0.548-0.067,0.938-0.567,0.869-1.115c-0.068-0.549-0.563-0.945-1.115-0.869 C32.763,36.918,32.07,37.033,31.428,37.17z"/><path d="M36.599,37.576c0.022,0.537,0.466,0.957,0.998,0.957c0.015,0,0.029,0,0.044-0.001l2.001-0.083 c0.551-0.025,0.979-0.493,0.953-1.044c-0.025-0.553-0.539-0.984-1.044-0.954l-1.996,0.083 C37.003,36.557,36.575,37.023,36.599,37.576z"/><path d="M22.433,42.177c-0.514,0.388-1.045,0.761-1.58,1.107c-0.463,0.301-0.595,0.92-0.294,1.384 c0.191,0.295,0.513,0.455,0.84,0.455c0.187,0,0.375-0.052,0.544-0.161c0.573-0.372,1.144-0.772,1.695-1.188 c0.44-0.333,0.528-0.96,0.196-1.401C23.501,41.936,22.876,41.844,22.433,42.177z"/><path d="M44.72,35.583c-0.338,0.237-0.777,0.409-1.346,0.526c-0.541,0.111-0.889,0.641-0.777,1.182 c0.098,0.473,0.514,0.798,0.979,0.798c0.067,0,0.135-0.007,0.203-0.021c0.842-0.174,1.526-0.452,2.096-0.853l0.134-0.098 c0.44-0.334,0.527-0.961,0.194-1.401c-0.334-0.44-0.96-0.526-1.401-0.194L44.72,35.583z"/><path d="M8.86,43.402c0.145-0.533-0.171-1.082-0.704-1.226c-0.529-0.149-1.082,0.169-1.226,0.704 c-0.126,0.464-0.201,0.938-0.225,1.405C6.7,44.4,6.697,44.516,6.697,44.638c0.001,0.196,0.01,0.392,0.029,0.587 c0.053,0.515,0.487,0.898,0.994,0.898c0.033,0,0.067-0.002,0.103-0.005c0.549-0.057,0.949-0.547,0.894-1.097 c-0.014-0.131-0.019-0.264-0.02-0.39c0-0.083,0.003-0.166,0.007-0.248C8.72,44.059,8.772,43.728,8.86,43.402z"/><path d="M44.698,27.81c-0.794-0.106-1.604-0.041-2.386,0.181c-0.532,0.149-0.841,0.702-0.69,1.233 c0.124,0.441,0.525,0.729,0.961,0.729c0.091,0,0.182-0.012,0.272-0.038c0.52-0.146,1.055-0.192,1.575-0.122 c0.562,0.07,1.052-0.311,1.125-0.857C45.629,28.387,45.245,27.884,44.698,27.81z"/><path d="M46.688,32.764c-0.163,0.527,0.133,1.088,0.66,1.25c0.099,0.031,0.197,0.045,0.295,0.045c0.428,0,0.823-0.275,0.955-0.705 c0.099-0.318,0.16-0.641,0.183-0.963c0.005-0.083,0.008-0.167,0.008-0.25c0-0.468-0.086-0.937-0.255-1.392 c-0.192-0.519-0.771-0.781-1.285-0.59c-0.519,0.192-0.782,0.768-0.59,1.285c0.086,0.232,0.13,0.467,0.13,0.696l-0.003,0.117 C46.774,32.423,46.742,32.589,46.688,32.764z"/><path d="M17.481,45.164c-0.586,0.275-1.183,0.53-1.774,0.759c-0.515,0.198-0.771,0.777-0.572,1.293 c0.153,0.396,0.531,0.64,0.933,0.64c0.12,0,0.242-0.021,0.36-0.067c0.635-0.245,1.275-0.519,1.903-0.813 c0.5-0.234,0.715-0.83,0.48-1.33C18.578,45.145,17.984,44.928,17.481,45.164z"/><path d="M10.201,41.001c0.161,0,0.325-0.039,0.478-0.122c0.288-0.157,0.595-0.255,0.911-0.289c0.135-0.016,0.273-0.016,0.406,0.002 c0.563,0.073,1.05-0.313,1.122-0.86c0.072-0.548-0.313-1.05-0.86-1.122c-0.298-0.039-0.601-0.041-0.891-0.008 c-0.574,0.063-1.128,0.239-1.646,0.521c-0.485,0.265-0.664,0.871-0.399,1.356C9.504,40.813,9.847,41.001,10.201,41.001z"/><path d="M9.993,48.842c0.216,0.056,0.436,0.098,0.654,0.124c0.256,0.031,0.512,0.047,0.769,0.047c0.313,0,0.627-0.022,0.94-0.062 c0.548-0.069,0.937-0.569,0.867-1.117s-0.567-0.934-1.117-0.867c-0.404,0.052-0.812,0.064-1.216,0.015 c-0.132-0.017-0.264-0.042-0.394-0.075c-0.535-0.143-1.08,0.181-1.22,0.716C9.139,48.158,9.459,48.704,9.993,48.842z"/></symbol><symbol id="picture" viewBox="0 0 58 58"><title>picture</title><path d="M57,6H1C0.448,6,0,6.447,0,7v44c0,0.553,0.448,1,1,1h56c0.552,0,1-0.447,1-1V7C58,6.447,57.552,6,57,6z M56,50H2V8h54V50z"/><path d="M16,28.138c3.071,0,5.569-2.498,5.569-5.568C21.569,19.498,19.071,17,16,17s-5.569,2.498-5.569,5.569 C10.431,25.64,12.929,28.138,16,28.138z M16,19c1.968,0,3.569,1.602,3.569,3.569S17.968,26.138,16,26.138s-3.569-1.601-3.569-3.568 S14.032,19,16,19z"/><path d="M7,46c0.234,0,0.47-0.082,0.66-0.249l16.313-14.362l10.302,10.301c0.391,0.391,1.023,0.391,1.414,0s0.391-1.023,0-1.414 l-4.807-4.807l9.181-10.054l11.261,10.323c0.407,0.373,1.04,0.345,1.413-0.062c0.373-0.407,0.346-1.04-0.062-1.413l-12-11 c-0.196-0.179-0.457-0.268-0.72-0.262c-0.265,0.012-0.515,0.129-0.694,0.325l-9.794,10.727l-4.743-4.743 c-0.374-0.373-0.972-0.392-1.368-0.044L6.339,44.249c-0.415,0.365-0.455,0.997-0.09,1.412C6.447,45.886,6.723,46,7,46z"/></symbol><symbol id="database" viewBox="0 0 55 55"><title>database</title><path d="M52.354,8.51C51.196,4.22,42.577,0,27.5,0C12.423,0,3.803,4.22,2.646,8.51C2.562,8.657,2.5,8.818,2.5,9v0.5V21v0.5V22v11 v0.5V34v12c0,0.162,0.043,0.315,0.117,0.451C3.798,51.346,14.364,55,27.5,55c13.106,0,23.655-3.639,24.875-8.516 C52.455,46.341,52.5,46.176,52.5,46V34v-0.5V33V22v-0.5V21V9.5V9C52.5,8.818,52.438,8.657,52.354,8.51z M50.421,33.985 c-0.028,0.121-0.067,0.241-0.116,0.363c-0.04,0.099-0.089,0.198-0.143,0.297c-0.067,0.123-0.142,0.246-0.231,0.369 c-0.066,0.093-0.141,0.185-0.219,0.277c-0.111,0.131-0.229,0.262-0.363,0.392c-0.081,0.079-0.17,0.157-0.26,0.236 c-0.164,0.143-0.335,0.285-0.526,0.426c-0.082,0.061-0.17,0.12-0.257,0.18c-0.226,0.156-0.462,0.311-0.721,0.463 c-0.068,0.041-0.141,0.08-0.212,0.12c-0.298,0.168-0.609,0.335-0.945,0.497c-0.043,0.021-0.088,0.041-0.132,0.061 c-0.375,0.177-0.767,0.351-1.186,0.519c-0.012,0.005-0.024,0.009-0.036,0.014c-2.271,0.907-5.176,1.67-8.561,2.17 c-0.017,0.002-0.034,0.004-0.051,0.007c-0.658,0.097-1.333,0.183-2.026,0.259c-0.113,0.012-0.232,0.02-0.346,0.032 c-0.605,0.063-1.217,0.121-1.847,0.167c-0.288,0.021-0.59,0.031-0.883,0.049c-0.474,0.028-0.943,0.059-1.429,0.076 C29.137,40.984,28.327,41,27.5,41s-1.637-0.016-2.432-0.044c-0.486-0.017-0.955-0.049-1.429-0.076 c-0.293-0.017-0.595-0.028-0.883-0.049c-0.63-0.046-1.242-0.104-1.847-0.167c-0.114-0.012-0.233-0.02-0.346-0.032 c-0.693-0.076-1.368-0.163-2.026-0.259c-0.017-0.002-0.034-0.004-0.051-0.007c-3.385-0.5-6.29-1.263-8.561-2.17 c-0.012-0.004-0.024-0.009-0.036-0.014c-0.419-0.168-0.812-0.342-1.186-0.519c-0.043-0.021-0.089-0.041-0.132-0.061 c-0.336-0.162-0.647-0.328-0.945-0.497c-0.07-0.04-0.144-0.079-0.212-0.12c-0.259-0.152-0.495-0.307-0.721-0.463 c-0.086-0.06-0.175-0.119-0.257-0.18c-0.191-0.141-0.362-0.283-0.526-0.426c-0.089-0.078-0.179-0.156-0.26-0.236 c-0.134-0.13-0.252-0.26-0.363-0.392c-0.078-0.092-0.153-0.184-0.219-0.277c-0.088-0.123-0.163-0.246-0.231-0.369 c-0.054-0.099-0.102-0.198-0.143-0.297c-0.049-0.121-0.088-0.242-0.116-0.363C4.541,33.823,4.5,33.661,4.5,33.5 c0-0.113,0.013-0.226,0.031-0.338c0.025-0.151,0.011-0.302-0.031-0.445v-7.424c0.028,0.026,0.063,0.051,0.092,0.077 c0.218,0.192,0.44,0.383,0.69,0.567C9.049,28.786,16.582,31,27.5,31c10.872,0,18.386-2.196,22.169-5.028 c0.302-0.22,0.574-0.447,0.83-0.678l0.001-0.001v7.424c-0.042,0.143-0.056,0.294-0.031,0.445c0.019,0.112,0.031,0.225,0.031,0.338 C50.5,33.661,50.459,33.823,50.421,33.985z M50.5,13.293v7.424c-0.042,0.143-0.056,0.294-0.031,0.445 c0.019,0.112,0.031,0.225,0.031,0.338c0,0.161-0.041,0.323-0.079,0.485c-0.028,0.121-0.067,0.241-0.116,0.363 c-0.04,0.099-0.089,0.198-0.143,0.297c-0.067,0.123-0.142,0.246-0.231,0.369c-0.066,0.093-0.141,0.185-0.219,0.277 c-0.111,0.131-0.229,0.262-0.363,0.392c-0.081,0.079-0.17,0.157-0.26,0.236c-0.164,0.143-0.335,0.285-0.526,0.426 c-0.082,0.061-0.17,0.12-0.257,0.18c-0.226,0.156-0.462,0.311-0.721,0.463c-0.068,0.041-0.141,0.08-0.212,0.12 c-0.298,0.168-0.609,0.335-0.945,0.497c-0.043,0.021-0.088,0.041-0.132,0.061c-0.375,0.177-0.767,0.351-1.186,0.519 c-0.012,0.005-0.024,0.009-0.036,0.014c-2.271,0.907-5.176,1.67-8.561,2.17c-0.017,0.002-0.034,0.004-0.051,0.007 c-0.658,0.097-1.333,0.183-2.026,0.259c-0.113,0.012-0.232,0.02-0.346,0.032c-0.605,0.063-1.217,0.121-1.847,0.167 c-0.288,0.021-0.59,0.031-0.883,0.049c-0.474,0.028-0.943,0.059-1.429,0.076C29.137,28.984,28.327,29,27.5,29 s-1.637-0.016-2.432-0.044c-0.486-0.017-0.955-0.049-1.429-0.076c-0.293-0.017-0.595-0.028-0.883-0.049 c-0.63-0.046-1.242-0.104-1.847-0.167c-0.114-0.012-0.233-0.02-0.346-0.032c-0.693-0.076-1.368-0.163-2.026-0.259 c-0.017-0.002-0.034-0.004-0.051-0.007c-3.385-0.5-6.29-1.263-8.561-2.17c-0.012-0.004-0.024-0.009-0.036-0.014 c-0.419-0.168-0.812-0.342-1.186-0.519c-0.043-0.021-0.089-0.041-0.132-0.061c-0.336-0.162-0.647-0.328-0.945-0.497 c-0.07-0.04-0.144-0.079-0.212-0.12c-0.259-0.152-0.495-0.307-0.721-0.463c-0.086-0.06-0.175-0.119-0.257-0.18 c-0.191-0.141-0.362-0.283-0.526-0.426c-0.089-0.078-0.179-0.156-0.26-0.236c-0.134-0.13-0.252-0.26-0.363-0.392 c-0.078-0.092-0.153-0.184-0.219-0.277c-0.088-0.123-0.163-0.246-0.231-0.369c-0.054-0.099-0.102-0.198-0.143-0.297 c-0.049-0.121-0.088-0.242-0.116-0.363C4.541,21.823,4.5,21.661,4.5,21.5c0-0.113,0.013-0.226,0.031-0.338 c0.025-0.151,0.011-0.302-0.031-0.445v-7.424c0.12,0.109,0.257,0.216,0.387,0.324c0.072,0.06,0.139,0.12,0.215,0.18 c0.3,0.236,0.624,0.469,0.975,0.696c0.073,0.047,0.155,0.093,0.231,0.14c0.294,0.183,0.605,0.362,0.932,0.538 c0.121,0.065,0.242,0.129,0.367,0.193c0.365,0.186,0.748,0.367,1.151,0.542c0.066,0.029,0.126,0.059,0.193,0.087 c0.469,0.199,0.967,0.389,1.485,0.573c0.143,0.051,0.293,0.099,0.44,0.149c0.412,0.139,0.838,0.272,1.279,0.401 c0.159,0.046,0.315,0.094,0.478,0.138c0.585,0.162,1.189,0.316,1.823,0.458c0.087,0.02,0.181,0.036,0.269,0.055 c0.559,0.122,1.139,0.235,1.735,0.341c0.202,0.036,0.407,0.07,0.613,0.104c0.567,0.093,1.151,0.178,1.75,0.256 c0.154,0.02,0.301,0.043,0.457,0.062c0.744,0.09,1.514,0.167,2.305,0.233c0.195,0.016,0.398,0.028,0.596,0.042 c0.633,0.046,1.28,0.084,1.942,0.114c0.241,0.011,0.481,0.022,0.727,0.031C25.712,18.979,26.59,19,27.5,19s1.788-0.021,2.65-0.05 c0.245-0.009,0.485-0.02,0.727-0.031c0.662-0.03,1.309-0.068,1.942-0.114c0.198-0.015,0.4-0.026,0.596-0.042 c0.791-0.065,1.561-0.143,2.305-0.233c0.156-0.019,0.303-0.042,0.457-0.062c0.599-0.078,1.182-0.163,1.75-0.256 c0.206-0.034,0.411-0.068,0.613-0.104c0.596-0.106,1.176-0.219,1.735-0.341c0.088-0.019,0.182-0.036,0.269-0.055 c0.634-0.142,1.238-0.297,1.823-0.458c0.163-0.045,0.319-0.092,0.478-0.138c0.441-0.129,0.867-0.262,1.279-0.401 c0.147-0.05,0.297-0.098,0.44-0.149c0.518-0.184,1.017-0.374,1.485-0.573c0.067-0.028,0.127-0.058,0.193-0.087 c0.403-0.176,0.786-0.356,1.151-0.542c0.125-0.064,0.247-0.128,0.367-0.193c0.327-0.175,0.638-0.354,0.932-0.538 c0.076-0.047,0.158-0.093,0.231-0.14c0.351-0.227,0.675-0.459,0.975-0.696c0.075-0.06,0.142-0.12,0.215-0.18 C50.243,13.509,50.38,13.402,50.5,13.293z M27.5,2c13.555,0,23,3.952,23,7.5s-9.445,7.5-23,7.5s-23-3.952-23-7.5S13.945,2,27.5,2z M50.5,45.703c-0.014,0.044-0.024,0.089-0.032,0.135C49.901,49.297,40.536,53,27.5,53S5.099,49.297,4.532,45.838 c-0.008-0.045-0.019-0.089-0.032-0.131v-8.414c0.028,0.026,0.063,0.051,0.092,0.077c0.218,0.192,0.44,0.383,0.69,0.567 C9.049,40.786,16.582,43,27.5,43c10.872,0,18.386-2.196,22.169-5.028c0.302-0.22,0.574-0.447,0.83-0.678l0.001-0.001V45.703z"/></symbol><symbol id="video-player" viewBox="0 0 58 58"><title>video-player</title><path d="M36.537,28.156l-11-7c-0.308-0.195-0.698-0.208-1.019-0.033C24.199,21.299,24,21.635,24,22v14 c0,0.365,0.199,0.701,0.519,0.877C24.669,36.959,24.834,37,25,37c0.187,0,0.374-0.053,0.537-0.156l11-7 C36.825,29.66,37,29.342,37,29S36.825,28.34,36.537,28.156z M26,34.179V23.821L34.137,29L26,34.179z"/><path d="M57,6H47H11H1C0.448,6,0,6.447,0,7v11v11v11v11c0,0.553,0.448,1,1,1h10h36h10c0.552,0,1-0.447,1-1V40V29V18V7 C58,6.447,57.552,6,57,6z M10,28H2v-9h8V28z M2,30h8v9H2V30z M12,40V29V18V8h34v10v11v11v10H12V40z M56,28h-8v-9h8V28z M48,30h8v9 h-8V30z M56,8v9h-8V8H56z M2,8h8v9H2V8z M2,50v-9h8v9H2z M56,50h-8v-9h8V50z"/></symbol><symbol id="placeholder" viewBox="0 0 61.168 61.168"><title>placeholder</title><path d="M30.938,26.584c3.859,0,7-3.141,7-7s-3.141-7-7-7s-7,3.141-7,7S27.078,26.584,30.938,26.584z M30.938,14.584 c2.757,0,5,2.243,5,5s-2.243,5-5,5s-5-2.243-5-5S28.181,14.584,30.938,14.584z"/><path d="M50.216,37.584h-7.161l3.047-4.4c5.755-7.671,4.922-20.28-1.781-26.982c-3.621-3.622-8.437-5.617-13.56-5.617 c-5.122,0-9.938,1.995-13.56,5.617c-6.703,6.702-7.536,19.312-1.804,26.952l3.068,4.431h-7.513L0,60.584h61.168L50.216,37.584z M17.02,31.984c-5.199-6.933-4.454-18.32,1.596-24.369c3.244-3.244,7.558-5.031,12.146-5.031s8.901,1.787,12.146,5.031 c6.05,6.049,6.795,17.437,1.573,24.399L30.761,51.827l-9.863-14.243h0L17.02,31.984z M12.216,39.584h7.634l10.911,15.757 l10.91-15.757h7.281l9.048,19H3.168L12.216,39.584z"/></symbol></svg>