
<svg xmlns="http://www.w3.org/2000/svg" width="24" height="24"><g fill="none" fill-rule="evenodd"><path d="M0 0h24v24H0z"/><g fill="#666" fill-rule="nonzero"><path d="M7 4.67a.2.2 0 0 0-.2.2v1.985c0 .11.09.2.2.2h3a.2.2 0 0 0 .2-.2V4.87a.2.2 0 0 0-.2-.2H7zm0-.8h3a1 1 0 0 1 1 1v1.985a1 1 0 0 1-1 1H7a1 1 0 0 1-1-1V4.87a1 1 0 0 1 1-1zm0 6.539a.2.2 0 0 0-.2.2v1.985c0 .11.09.2.2.2h3a.2.2 0 0 0 .2-.2V10.61a.2.2 0 0 0-.2-.2H7zm0-.8h3a1 1 0 0 1 1 1v1.985a1 1 0 0 1-1 1H7a1 1 0 0 1-1-1V10.61a1 1 0 0 1 1-1zm7-4.939a.2.2 0 0 0-.2.2v1.985c0 .11.09.2.2.2h3a.2.2 0 0 0 .2-.2V4.87a.2.2 0 0 0-.2-.2h-3zm0-.8h3a1 1 0 0 1 1 1v1.985a1 1 0 0 1-1 1h-3a1 1 0 0 1-1-1V4.87a1 1 0 0 1 1-1zm0 6.539a.2.2 0 0 0-.2.2v1.985c0 .11.09.2.2.2h3a.2.2 0 0 0 .2-.2V10.61a.2.2 0 0 0-.2-.2h-3zm0-.8h3a1 1 0 0 1 1 1v1.985a1 1 0 0 1-1 1h-3a1 1 0 0 1-1-1V10.61a1 1 0 0 1 1-1z"/><path d="M3 1.8a.2.2 0 0 0-.2.2v20c0 .11.09.2.2.2h18a.2.2 0 0 0 .2-.2V2a.2.2 0 0 0-.2-.2H3zM3 1h18a1 1 0 0 1 1 1v20a1 1 0 0 1-1 1H3a1 1 0 0 1-1-1V2a1 1 0 0 1 1-1z"/><path d="M16.2 22.2v-4.896a.2.2 0 0 0-.2-.2H8a.2.2 0 0 0-.2.2V22.2h8.4zM8 16.304h8a1 1 0 0 1 1 1V23H7v-5.696a1 1 0 0 1 1-1z"/><path d="M11.6 16.383v6.06h.8v-6.06z"/></g></g></svg>