
<svg xmlns="http://www.w3.org/2000/svg" width="24" height="24"><g fill="none" fill-rule="evenodd"><path d="M0 0h24v24H0z"/><path fill="#666" fill-rule="nonzero" stroke="#666" stroke-width=".1" d="M22.006 18.356l-3.822-1.91a1.052 1.052 0 0 1-.584-.947v-1.352a7.18 7.18 0 0 0 .288-.38c.495-.7.892-1.48 1.181-2.32.565-.259.931-.817.931-1.447V8.4c0-.385-.144-.758-.4-1.05V5.222c.022-.22.11-1.53-.837-2.61C17.942 1.675 16.608 1.2 14.8 1.2c-1.808 0-3.142.475-3.963 1.412a3.474 3.474 0 0 0-.826 1.922C9.326 4.18 8.518 4 7.6 4 3.444 4 3.202 7.542 3.2 7.6v1.832c-.26.282-.4.608-.4.932v1.381c0 .432.193.834.524 1.106.33 1.244 1.142 2.184 1.458 2.514v1.097a.869.869 0 0 1-.468.766l-2.662 1.67A3.17 3.17 0 0 0 0 21.68v1.52h24v-1.617a3.59 3.59 0 0 0-1.994-3.227zM5.6 21.505v.895H.8v-.719c0-.868.474-1.665 1.256-2.093l2.661-1.67c.533-.29.865-.848.865-1.456v-1.436l-.128-.119c-.01-.01-1.073-1.013-1.387-2.382l-.036-.158-.137-.088a.636.636 0 0 1-.294-.534v-1.381c0-.144.098-.316.268-.47L4 9.775V7.623c.006-.115.215-2.823 3.6-2.823.957 0 1.763.221 2.4.658V7.35c-.256.292-.4.665-.4 1.05V10c0 .122.014.241.04.357.011.047.033.089.048.134.022.067.04.136.07.2l.001.002c.103.211.252.4.44.55l.006.022c.024.092.05.183.077.272l.032.105.018.055.042.129c.024.07.05.142.079.22.012.034.026.063.039.096.032.083.065.164.1.244.008.02.015.04.024.059l.022.05.032.067c.039.086.077.168.117.248l.019.04a8.724 8.724 0 0 0 .43.76l.035.055c.097.15.18.271.25.366l.05.068.029.039v1.324c0 .387-.212.742-.551.928l-1.059.577-.184-.017-.075.158-2.25 1.228A3.609 3.609 0 0 0 5.6 21.505zm17.6.895H6.4v-.895c0-1.029.56-1.974 1.464-2.466l3.568-1.946c.597-.326.968-.951.968-1.631v-1.607l-.078-.093-.015-.018c0-.002-.025-.032-.066-.084a3.801 3.801 0 0 1-.082-.11l-.001-.002a7.267 7.267 0 0 1-.218-.32l-.005-.01a7.795 7.795 0 0 1-.123-.198l-.01-.016a8.187 8.187 0 0 1-.282-.513v-.001a8.095 8.095 0 0 1-.152-.32l-.02-.047a8.051 8.051 0 0 1-.067-.157l-.024-.06c-.02-.052-.042-.105-.064-.165a6.604 6.604 0 0 1-.116-.34l-.022-.071-.008-.024a6.26 6.26 0 0 1-.104-.389l-.036-.158-.137-.088A.798.798 0 0 1 10.4 10V8.4a.79.79 0 0 1 .268-.59l.132-.119V5.058l-.01-.008c-.014-.289.003-1.174.648-1.91C12.101 2.383 13.232 2 14.8 2c1.562 0 2.69.38 3.354 1.131.78.88.65 2.007.65 2.017L18.8 7.69l.132.12a.788.788 0 0 1 .268.589V10c0 .35-.229.655-.569.76l-.199.06-.064.199a8.374 8.374 0 0 1-1.134 2.285 5.263 5.263 0 0 1-.334.432l-.1.113v1.65c0 .708.393 1.345 1.026 1.661l3.822 1.91a2.793 2.793 0 0 1 1.552 2.513v.817z"/></g></svg>