
<svg width="32" height="32" xmlns="http://www.w3.org/2000/svg"><path d="M16.339 1.76c-.938.145-1.868.313-2.795.505-.613.125-1.226.242-1.831.388-.559.136-1.132.256-1.679.423-.529.16-1.05.326-1.569.517a10.15 10.15 0 0 0-2.79 1.573c-.508.41-.982.853-1.38 1.366a9.61 9.61 0 0 0-.74 1.147c-.212.381-.358.832-.362 1.27-.007 1.284.843 2.36 1.821 3.158.321.261.664.501 1.01.731a24.289 24.289 0 0 0 3.288 1.803 99.383 99.383 0 0 0 3.554 1.542c1.13.462 2.287.853 3.455 1.225l1.01.319c1.058.338 2.138.65 3.189 1.014.653.227 1.35.44 2.003.723.678.294 1.383.588 1.981 1.011.401.278.748.627 1.003 1.032.252.4.41.858.42 1.326.015.45-.12.886-.372 1.266-.657.984-1.799 1.656-2.9 2.104a48.703 48.703 0 0 1-5.047 1.726c-.977.275-1.955.548-2.94.794-.989.247-1.996.507-2.995.747-.997.24-1.993.457-2.992.664-.573.117-1.15.233-1.719.347-.343.066-.678.135-1.021.207-.715.15-1.43.297-2.149.445-.817.172-1.635.34-2.452.512-.237.05-.474.11-.711.162-.212.046-1.004.222-.416.189.817-.044 2.999-.226 7.661-.825 1.69-.268 3.386-.499 5.08-.764a93.654 93.654 0 0 0 6.282-1.191 53.566 53.566 0 0 0 1.776-.434c.39-.104.778-.212 1.16-.327 1.635-.486 4.258-1.344 4.879-1.603 2.371-.996 3.849-1.746 4.619-3.531.262-.634.386-1.344.306-2.024a4.473 4.473 0 0 0-.638-1.791c-.325-.517-.77-.96-1.234-1.367-.864-.755-1.835-1.366-2.87-1.883a18.459 18.459 0 0 0-.895-.418 27.44 27.44 0 0 0-2.755-1.053c-1.422-.466-2.867-.884-4.297-1.331a31.136 31.136 0 0 1-2.394-.846 18.91 18.91 0 0 1-.981-.424c-.38-.176-.748-.37-1.113-.576-.449-.26-1.182-.707-.978-1.314.143-.434.635-.602 1.037-.758a9.81 9.81 0 0 1 1.152-.342c1.183-.291 2.39-.488 3.583-.732.35-.07.7-.144 1.051-.222.93-.209 1.89-.366 2.776-.703.763-.287 1.74-.747 2.026-1.548.408-1.167-.055-2.43-.723-3.414-.24-.353-.489-.7-.744-1.046-.35-.47-.738-.912-1.117-1.36-.171-.203-.38-.188-.554-.135-.234.076-.873.792-5.969 1.726" fill="#fff" fill-rule="evenodd"/></svg>
