<!-- Generated by IcoMoon.io -->
<svg version="1.1" xmlns="http://www.w3.org/2000/svg" width="96" height="96" viewBox="0 0 96 96">
<title>500px</title>
<path d="M23.719 63.075c0.019 0.056 0.525 1.425 0.806 2.119 1.575 3.731 3.844 7.106 6.731 9.994s6.244 5.156 9.994 6.731c3.881 1.631 7.988 2.475 12.225 2.475s8.363-0.825 12.225-2.475c3.75-1.575 7.106-3.844 9.994-6.731s5.156-6.244 6.731-9.994c1.631-3.881 2.475-7.987 2.475-12.225s-0.825-8.362-2.475-12.225c-1.575-3.75-3.844-7.106-6.731-9.994s-6.244-5.156-9.994-6.731c-3.881-1.631-7.987-2.475-12.225-2.475-4.294 0-8.587 0.862-12.394 2.475-3.056 1.294-8.231 4.613-11.25 7.744l-0.019 0.019v-25.875h43.444c1.575-0.019 1.575-2.231 1.575-2.944 0-0.731 0-2.925-1.594-2.944h-46.969c-1.275 0-2.063 1.069-2.063 2.044v36.394c0 1.181 1.463 2.025 2.831 2.306 2.662 0.563 3.262-0.281 3.919-1.181l0.094-0.113c0.994-1.481 4.088-4.594 4.125-4.631 4.837-4.838 11.306-7.5 18.225-7.5 6.881 0 13.331 2.662 18.169 7.5 4.856 4.856 7.537 11.288 7.537 18.112 0 6.844-2.662 13.294-7.5 18.113-4.763 4.762-11.438 7.5-18.281 7.5-4.631 0-9.113-1.238-12.956-3.581l0.019-22.125c0-2.944 1.275-6.169 3.431-8.587 2.456-2.775 5.831-4.294 9.525-4.294 3.563 0 6.9 1.35 9.394 3.806 2.456 2.438 3.825 5.7 3.825 9.169 0 7.387-5.813 13.181-13.237 13.181-1.425 0-4.031-0.637-4.144-0.656-1.5-0.45-2.138 1.631-2.344 2.325-0.806 2.644 0.412 3.169 0.656 3.244 2.381 0.75 3.956 0.881 6.019 0.881 10.481 0 19.012-8.531 19.012-19.013 0-10.406-8.531-18.862-18.994-18.862-5.137 0-9.956 1.969-13.575 5.512-3.45 3.394-5.419 7.913-5.419 12.413v0.113c-0.019 0.563-0.019 13.838-0.038 18.188l-0.019-0.019c-1.969-2.175-3.919-5.513-5.212-8.925-0.506-1.331-1.65-1.106-3.206-0.619-0.75 0.206-2.813 0.844-2.344 2.363v0zM46.050 57.881c0 0.638 0.581 1.2 0.938 1.519l0.112 0.112c0.6 0.581 1.163 0.881 1.688 0.881 0.431 0 0.694-0.206 0.788-0.3 0.262-0.244 3.225-3.262 3.525-3.544l3.319 3.3c0.3 0.338 0.637 0.525 1.031 0.525 0.525 0 1.106-0.319 1.706-0.938 1.425-1.463 0.713-2.25 0.375-2.625l-3.356-3.356 3.506-3.525c0.769-0.825 0.094-1.706-0.581-2.381-0.975-0.975-1.931-1.237-2.531-0.675l-3.487 3.487-3.525-3.525c-0.188-0.188-0.431-0.281-0.675-0.281-0.469 0-1.031 0.319-1.65 0.938-1.088 1.087-1.313 1.837-0.75 2.438l3.525 3.506-3.506 3.506c-0.319 0.3-0.469 0.619-0.45 0.938zM53.719 10.294c-5.625 0-11.625 1.144-16.013 3.037-0.469 0.188-0.75 0.563-0.806 1.088-0.056 0.506 0.075 1.162 0.412 2.025 0.281 0.694 0.994 2.55 2.4 2.006 4.5-1.725 9.487-2.663 14.006-2.663 5.137 0 10.125 1.012 14.813 2.981 3.731 1.575 7.238 3.863 11.063 7.163 0.281 0.244 0.581 0.356 0.881 0.356 0.75 0 1.463-0.731 2.081-1.425 1.012-1.144 1.725-2.1 0.713-3.056-3.656-3.45-7.65-6.038-12.6-8.137-5.362-2.231-11.081-3.375-16.95-3.375zM84.037 79.8v0c-0.675-0.675-1.256-1.069-1.762-1.219s-0.975-0.038-1.331 0.319l-0.338 0.338c-3.487 3.487-7.556 6.225-12.075 8.137-4.688 1.988-9.656 2.981-14.775 2.981-5.137 0-10.106-1.012-14.775-2.981-4.519-1.912-8.588-4.65-12.075-8.137-3.637-3.638-6.375-7.706-8.137-12.075-1.725-4.275-2.288-7.481-2.475-8.531-0.019-0.094-0.037-0.169-0.037-0.225-0.244-1.238-1.388-1.331-3.019-1.069-0.675 0.113-2.756 0.431-2.569 1.913v0.037c0.544 3.469 1.519 6.862 2.888 10.088 2.194 5.194 5.344 9.862 9.356 13.875s8.681 7.144 13.875 9.356c5.381 2.269 11.1 3.431 16.987 3.431s11.606-1.162 16.987-3.431c5.194-2.194 9.863-5.344 13.875-9.356 0 0 0.225-0.225 0.356-0.356 0.412-0.506 0.806-1.35-0.956-3.094z"></path>
</svg>
