<!-- Generated by IcoMoon.io -->
<svg version="1.1" xmlns="http://www.w3.org/2000/svg" width="96" height="96" viewBox="0 0 96 96">
<title>address-book</title>
<path d="M18 0v96h72v-96h-72zM54 24.031c6.61 0 11.969 5.359 11.969 11.969s-5.359 11.969-11.969 11.969-11.969-5.359-11.969-11.969 5.359-11.969 11.969-11.969v0zM72 72h-36v-6c0-6.628 5.372-12 12-12v0h12c6.628 0 12 5.372 12 12v6z"></path>
<path d="M6 6h9v18h-9v-18z"></path>
<path d="M6 30h9v18h-9v-18z"></path>
<path d="M6 54h9v18h-9v-18z"></path>
<path d="M6 78h9v18h-9v-18z"></path>
</svg>
