<!-- Generated by IcoMoon.io -->
<svg version="1.1" xmlns="http://www.w3.org/2000/svg" width="96" height="96" viewBox="0 0 96 96">
<title>alarm</title>
<path d="M48 12c-23.196 0-42 18.804-42 42s18.804 42 42 42 42-18.804 42-42-18.804-42-42-42zM48 87.75c-18.64 0-33.75-15.11-33.75-33.75s15.11-33.75 33.75-33.75c18.64 0 33.75 15.11 33.75 33.75s-15.11 33.75-33.75 33.75zM87.636 26.923c1.504-2.63 2.364-5.676 2.364-8.923 0-9.941-8.059-18-18-18-5.795 0-10.95 2.74-14.242 6.993 12.364 2.553 22.988 9.862 29.879 19.929v0zM38.242 6.993c-3.292-4.254-8.447-6.993-14.242-6.993-9.941 0-18 8.059-18 18 0 3.247 0.86 6.293 2.364 8.923 6.891-10.067 17.515-17.376 29.878-19.929z"></path>
<path d="M48 54v-24h-6v30h24v-6z"></path>
</svg>
