<!-- Generated by IcoMoon.io -->
<svg version="1.1" xmlns="http://www.w3.org/2000/svg" width="96" height="96" viewBox="0 0 96 96">
<title>amazon</title>
<path d="M86.775 82.988c-10.519 7.762-25.744 11.887-38.869 11.887-18.394 0-34.95-6.787-47.475-18.113-0.975-0.881-0.113-2.1 1.069-1.406 13.519 7.875 30.244 12.6 47.513 12.6 11.644 0 24.45-2.419 36.244-7.425 1.763-0.75 3.263 1.181 1.519 2.456z"></path>
<path d="M91.144 78c-1.35-1.725-8.888-0.825-12.281-0.412-1.031 0.112-1.181-0.769-0.263-1.425 6.019-4.219 15.881-3 17.025-1.594 1.162 1.425-0.3 11.306-5.944 16.031-0.862 0.731-1.688 0.338-1.313-0.619 1.294-3.169 4.125-10.256 2.775-11.981z"></path>
<path d="M66.319 71.025l0.019 0.019c2.325-2.044 6.506-5.7 8.869-7.669 0.938-0.75 0.769-2.006 0.037-3.056-2.119-2.925-4.369-5.306-4.369-10.706v-18c0-7.631 0.525-14.625-5.081-19.875-4.425-4.238-11.775-5.738-17.4-5.738-10.988 0-23.25 4.106-25.819 17.681-0.281 1.444 0.788 2.213 1.725 2.419l11.194 1.219c1.050-0.056 1.8-1.087 2.006-2.137 0.956-4.669 4.875-6.938 9.281-6.938 2.381 0 5.081 0.863 6.488 3 1.612 2.381 1.406 5.625 1.406 8.381v1.5c-6.694 0.75-15.45 1.237-21.713 3.994-7.237 3.131-12.319 9.506-12.319 18.881 0 12 7.556 18 17.288 18 8.213 0 12.694-1.931 19.031-8.419 2.1 3.038 2.775 4.519 6.619 7.706 0.881 0.469 1.969 0.431 2.737-0.263zM54.675 42.862c0 4.5 0.113 8.25-2.156 12.244-1.837 3.262-4.744 5.25-7.987 5.25-4.425 0-7.013-3.375-7.013-8.363 0-9.844 8.831-11.625 17.175-11.625v2.494z"></path>
</svg>
