<!-- Generated by IcoMoon.io -->
<svg version="1.1" xmlns="http://www.w3.org/2000/svg" width="96" height="96" viewBox="0 0 96 96">
<title>android</title>
<path d="M84 36c-3.3 0-6 2.7-6 6v24c0 3.3 2.7 6 6 6s6-2.7 6-6v-24c0-3.3-2.7-6-6-6zM12 36c-3.3 0-6 2.7-6 6v24c0 3.3 2.7 6 6 6s6-2.7 6-6v-24c0-3.3-2.7-6-6-6zM21 69c0 4.971 4.029 9 9 9v0 12c0 3.3 2.7 6 6 6s6-2.7 6-6v-12h12v12c0 3.3 2.7 6 6 6s6-2.7 6-6v-12c4.971 0 9-4.029 9-9v-33h-54v33z"></path>
<path d="M74.833 30c-0.911-8.239-5.532-15.356-12.152-19.654l3.002-6.004c0.741-1.482 0.14-3.284-1.342-4.025s-3.284-0.14-4.025 1.342l-3.013 6.027-0.783-0.311c-2.678-0.891-5.543-1.374-8.521-1.374s-5.842 0.484-8.521 1.374l-0.783 0.311-3.013-6.026c-0.741-1.482-2.543-2.082-4.025-1.342s-2.083 2.543-1.342 4.025l3.002 6.004c-6.62 4.299-11.241 11.415-12.152 19.654v3h53.833v-3h-0.167zM39 24c-1.657 0-3-1.343-3-3 0-1.654 1.34-2.996 2.993-3 0.003 0 0.006 0 0.009 0 0.002 0 0.003-0 0.005-0 1.654 0.004 2.993 1.345 2.993 3 0 1.657-1.343 3-3 3zM57 24c-1.657 0-3-1.343-3-3 0-1.654 1.339-2.996 2.993-3 0.001 0 0.003 0 0.005 0 0.003 0 0.006-0 0.009-0 1.654 0.004 2.993 1.345 2.993 3 0 1.657-1.343 3-3 3z"></path>
</svg>
