<!-- Generated by IcoMoon.io -->
<svg version="1.1" xmlns="http://www.w3.org/2000/svg" width="96" height="96" viewBox="0 0 96 96">
<title>angry</title>
<path d="M48 96c26.51 0 48-21.49 48-48s-21.49-48-48-48-48 21.49-48 48 21.49 48 48 48zM48 9c21.539 0 39 17.461 39 39s-17.461 39-39 39-39-17.461-39-39 17.461-39 39-39zM66.009 73.194c-3.673-6.108-10.364-10.194-18.009-10.194s-14.337 4.087-18.009 10.194l-7.718-4.631c5.246-8.725 14.805-14.564 25.727-14.564s20.481 5.838 25.727 14.564l-7.718 4.631zM71.91 26.273c0.402 1.607-0.576 3.236-2.183 3.638-1.652 0.417-3.611 1.136-5.338 2.002 0.998 1.072 1.61 2.508 1.61 4.088 0 3.314-2.686 6-6 6s-6-2.686-6-6c0-0.11 0.003-0.218 0.009-0.327 0.191-4.449 4.239-7.401 7.649-9.107 3.257-1.628 6.478-2.443 6.614-2.477 1.607-0.402 3.236 0.575 3.638 2.183zM24.090 26.273c0.402-1.607 2.031-2.585 3.638-2.183 0.136 0.034 3.357 0.849 6.614 2.477 3.411 1.706 7.459 4.658 7.649 9.107 0.006 0.108 0.009 0.217 0.009 0.327 0 3.314-2.686 6-6 6s-6-2.686-6-6c0-1.58 0.612-3.017 1.61-4.088-1.726-0.865-3.685-1.584-5.338-2.002-1.607-0.402-2.584-2.031-2.183-3.638z"></path>
</svg>
