<!-- Generated by IcoMoon.io -->
<svg version="1.1" xmlns="http://www.w3.org/2000/svg" width="96" height="96" viewBox="0 0 96 96">
<title>appleinc</title>
<path d="M74.203 51.009c-0.121-12.158 9.915-17.988 10.363-18.278-5.639-8.252-14.423-9.382-17.554-9.513-7.476-0.757-14.587 4.401-18.381 4.401-3.785 0-9.639-4.289-15.839-4.177-8.148 0.121-15.662 4.738-19.857 12.036-8.466 14.69-2.168 36.454 6.083 48.368 4.032 5.832 8.84 12.382 15.152 12.148 6.079-0.243 8.378-3.934 15.727-3.934s9.415 3.934 15.848 3.813c6.541-0.121 10.686-5.944 14.69-11.793 4.63-6.766 6.537-13.316 6.649-13.652-0.145-0.066-12.756-4.897-12.882-19.419zM62.115 15.33c3.35-4.065 5.612-9.704 4.995-15.33-4.826 0.197-10.676 3.215-14.138 7.27-3.107 3.598-5.826 9.34-5.098 14.853 5.387 0.42 10.887-2.738 14.241-6.793z"></path>
</svg>
