<!-- Generated by IcoMoon.io -->
<svg version="1.1" xmlns="http://www.w3.org/2000/svg" width="96" height="96" viewBox="0 0 96 96">
<title>attachment</title>
<path d="M62.422 30.661l-6.089-6.086-30.451 30.445c-5.045 5.043-5.045 13.223 0 18.267s13.224 5.043 18.269 0l36.541-36.535c8.411-8.406 8.411-22.037 0-30.443-8.406-8.41-22.042-8.41-30.448 0l-38.365 38.36c-0.027 0.028-0.057 0.054-0.082 0.079-11.728 11.728-11.728 30.736 0 42.46 11.724 11.724 30.738 11.724 42.468 0 0.026-0.026 0.048-0.053 0.077-0.082l0.003 0.003 26.187-26.184-6.092-6.086-26.187 26.181c-0.028 0.025-0.053 0.053-0.079 0.079-8.351 8.349-21.936 8.349-30.288 0-8.35-8.348-8.35-21.93 0-30.279 0.029-0.028 0.057-0.055 0.083-0.079l-0.004-0.006 38.37-38.359c5.035-5.038 13.232-5.038 18.271 0 5.035 5.038 5.035 13.233 0 18.266l-36.541 36.534c-1.681 1.68-4.411 1.68-6.091 0-1.678-1.677-1.678-4.409 0-6.086l30.451-30.448z"></path>
</svg>
