<!-- Generated by IcoMoon.io -->
<svg version="1.1" xmlns="http://www.w3.org/2000/svg" width="96" height="96" viewBox="0 0 96 96">
<title>baffled</title>
<path d="M48 96c26.51 0 48-21.49 48-48s-21.49-48-48-48-48 21.49-48 48 21.49 48 48 48zM48 9c21.539 0 39 17.461 39 39s-17.461 39-39 39-39-17.461-39-39 17.461-39 39-39z"></path>
<path d="M36 39c0 1.657-1.343 3-3 3s-3-1.343-3-3c0-1.657 1.343-3 3-3s3 1.343 3 3z"></path>
<path d="M33 30c4.971 0 9 4.029 9 9s-4.029 9-9 9-9-4.029-9-9 4.029-9 9-9zM33 24c-8.271 0-15 6.729-15 15s6.729 15 15 15 15-6.729 15-15-6.729-15-15-15v0z"></path>
<path d="M66 39c0 1.657-1.343 3-3 3s-3-1.343-3-3c0-1.657 1.343-3 3-3s3 1.343 3 3z"></path>
<path d="M63 30c4.971 0 9 4.029 9 9s-4.029 9-9 9-9-4.029-9-9 4.029-9 9-9zM63 24c-8.271 0-15 6.729-15 15s6.729 15 15 15 15-6.729 15-15-6.729-15-15-15v0z"></path>
<path d="M36 66h24v6h-24v-6z"></path>
</svg>
