<!-- Generated by IcoMoon.io -->
<svg version="1.1" xmlns="http://www.w3.org/2000/svg" width="96" height="96" viewBox="0 0 96 96">
<title>basecamp</title>
<path d="M48 9.994c-17.513 0-31.013 14.663-38.662 29.025-4.313 8.081-7.331 16.931-8.719 25.988-0.15 1.031-0.3 2.063-0.413 3.112-0.056 0.563-0.112 1.125-0.15 1.688-0.056 0.713-0.019 0.938 0.356 1.538 1.125 1.819 2.456 3.506 3.956 5.025 3.075 3.15 6.806 5.569 10.763 7.444 9.019 4.256 19.2 5.794 29.1 6.131 10.219 0.338 20.719-0.506 30.487-3.694 8.344-2.719 16.387-7.463 21.019-15.131 0.506-0.825 0.15-2.044 0.056-3-0.112-1.144-0.262-2.269-0.45-3.394-0.338-2.213-0.788-4.387-1.331-6.563-1.087-4.425-2.569-8.775-4.369-12.956-6.525-15.15-18.6-31.313-35.775-34.65-1.931-0.375-3.9-0.563-5.869-0.563zM48.6 83.456c-10.706 0-22.369-0.956-32.006-6.113-3.75-2.006-7.575-4.912-9.375-8.906-0.525-1.162-0.337-1.613-0.094-2.981 0.169-0.881 0.244-1.744 0.637-2.569 0.544-1.144 1.106-2.269 1.688-3.394 1.969-3.806 4.088-7.575 6.544-11.119 1.219-1.744 2.513-3.469 4.012-4.969 1.050-1.050 2.325-2.175 3.806-2.531 4.538-1.088 8.006 4.162 10.762 6.806 1.331 1.275 3.112 2.719 5.1 2.475 1.369-0.169 2.587-1.238 3.563-2.119 3.319-2.981 5.981-6.675 8.737-10.144 1.369-1.706 2.719-3.431 4.2-5.063 0.994-1.106 2.081-2.362 3.412-3.075 2.381-1.294 5.419 1.369 7.069 2.738 2.813 2.344 5.306 5.081 7.688 7.856 2.269 2.644 4.463 5.325 6.394 8.231 2.981 4.5 5.569 9.3 7.931 14.156 0.506 1.050 0.675 1.762 0.863 2.925 0.113 0.638 0.356 1.369 0.262 2.025-0.131 0.919-0.769 1.912-1.237 2.662-1.125 1.781-2.644 3.319-4.313 4.613-6.994 5.419-16.463 7.219-25.069 8.025-3.525 0.337-7.050 0.469-10.575 0.469z"></path>
</svg>
