<!-- Generated by IcoMoon.io -->
<svg version="1.1" xmlns="http://www.w3.org/2000/svg" width="96" height="96" viewBox="0 0 96 96">
<title>behance2</title>
<path d="M37.894 42.056c1.219-0.881 1.8-2.344 1.8-4.369 0-1.125-0.188-2.044-0.581-2.756-0.412-0.713-0.938-1.275-1.631-1.669-0.675-0.413-1.444-0.694-2.325-0.844-0.862-0.169-1.781-0.244-2.719-0.244h-9.881v11.212h10.688c1.875 0.019 3.431-0.431 4.65-1.331z"></path>
<path d="M39.563 52.181c-1.388-1.050-3.225-1.575-5.513-1.575h-11.494v13.219h11.269c1.050 0 2.025-0.094 2.962-0.3s1.781-0.525 2.494-1.013c0.712-0.469 1.294-1.106 1.725-1.912s0.638-1.856 0.638-3.113c0-2.475-0.694-4.238-2.081-5.306z"></path>
<path d="M87 0h-78c-4.95 0-9 4.050-9 9v78c0 4.95 4.050 9 9 9h78c4.95 0 9-4.050 9-9v-78c0-4.95-4.050-9-9-9zM62.925 25.256h19.444v4.744h-19.444v-4.744zM50.775 64.35c-0.938 1.781-2.213 3.225-3.788 4.35-1.594 1.125-3.413 1.95-5.456 2.494-2.025 0.544-4.125 0.806-6.263 0.806h-23.269v-47.981h22.612c2.288 0 4.369 0.206 6.263 0.6 1.875 0.394 3.487 1.069 4.837 1.987 1.331 0.919 2.381 2.138 3.131 3.656 0.731 1.5 1.106 3.394 1.106 5.625 0 2.419-0.544 4.425-1.65 6.038s-2.719 2.925-4.894 3.956c2.962 0.844 5.137 2.344 6.581 4.462 1.462 2.138 2.175 4.706 2.175 7.706 0.019 2.456-0.45 4.556-1.387 6.3zM89.944 56.925h-25.069c0 2.738 0.938 5.344 2.363 6.75 1.425 1.387 3.487 2.1 6.169 2.1 1.931 0 3.581-0.488 4.988-1.463 1.387-0.975 2.231-2.006 2.55-3.075h8.4c-1.35 4.181-3.394 7.163-6.188 8.962-2.756 1.8-6.131 2.7-10.050 2.7-2.737 0-5.194-0.45-7.406-1.313-2.212-0.881-4.050-2.119-5.606-3.731-1.519-1.612-2.681-3.544-3.525-5.794-0.825-2.231-1.256-4.725-1.256-7.406 0-2.606 0.431-5.025 1.275-7.275 0.863-2.25 2.063-4.2 3.637-5.813 1.575-1.631 3.45-2.925 5.625-3.881 2.175-0.938 4.575-1.406 7.237-1.406 2.944 0 5.513 0.563 7.725 1.725 2.194 1.144 3.994 2.681 5.419 4.612s2.419 4.125 3.056 6.6c0.619 2.438 0.825 5.006 0.656 7.706z"></path>
<path d="M72.806 43.481c-1.519 0-2.794 0.263-3.787 0.787s-1.8 1.163-2.419 1.913c-0.619 0.769-1.031 1.575-1.275 2.456-0.244 0.844-0.394 1.613-0.431 2.288h15.525c-0.225-2.438-1.069-4.238-2.194-5.494-1.162-1.275-3.075-1.95-5.419-1.95z"></path>
</svg>
