<!-- Generated by IcoMoon.io -->
<svg version="1.1" xmlns="http://www.w3.org/2000/svg" width="96" height="96" viewBox="0 0 96 96">
<title>behance</title>
<path d="M27.844 19.237c2.831 0 5.381 0.244 7.706 0.75 2.325 0.488 4.294 1.313 5.963 2.438 1.65 1.125 2.925 2.625 3.862 4.5 0.9 1.856 1.35 4.181 1.35 6.938 0 2.981-0.675 5.456-2.025 7.444-1.369 1.987-3.356 3.6-6.019 4.875 3.637 1.050 6.319 2.887 8.119 5.494 1.8 2.625 2.662 5.775 2.662 9.488 0 3-0.581 5.569-1.725 7.744-1.163 2.194-2.738 3.975-4.669 5.344-1.95 1.387-4.2 2.4-6.712 3.056-2.494 0.656-5.063 0.994-7.725 0.994h-28.631v-59.063h27.844zM26.156 43.088c2.306 0 4.219-0.544 5.719-1.65 1.5-1.088 2.213-2.888 2.213-5.362 0-1.369-0.244-2.513-0.731-3.394-0.506-0.881-1.163-1.575-2.006-2.063-0.825-0.506-1.762-0.844-2.869-1.031-1.069-0.206-2.194-0.3-3.338-0.3h-12.15v13.8h13.163zM26.869 68.231c1.275 0 2.494-0.112 3.637-0.375 1.163-0.262 2.194-0.656 3.056-1.256 0.862-0.581 1.594-1.35 2.119-2.362 0.525-0.994 0.769-2.269 0.769-3.825 0-3.037-0.862-5.212-2.569-6.525-1.706-1.294-3.975-1.931-6.787-1.931h-14.1v16.256h13.875z"></path>
<path d="M67.988 68.025c1.762 1.725 4.294 2.588 7.594 2.588 2.362 0 4.425-0.6 6.131-1.8s2.737-2.475 3.131-3.787h10.35c-1.669 5.156-4.181 8.813-7.631 11.025-3.394 2.212-7.556 3.337-12.375 3.337-3.375 0-6.394-0.544-9.113-1.612-2.719-1.088-4.987-2.606-6.9-4.594-1.856-1.988-3.319-4.35-4.35-7.125-1.012-2.756-1.538-5.813-1.538-9.113 0-3.206 0.525-6.188 1.575-8.944 1.069-2.775 2.531-5.156 4.481-7.162s4.238-3.6 6.938-4.763c2.681-1.163 5.644-1.744 8.925-1.744 3.619 0 6.787 0.694 9.506 2.119 2.7 1.406 4.931 3.3 6.675 5.662s2.981 5.081 3.75 8.119c0.769 3.038 1.031 6.206 0.825 9.525h-30.881c0 3.356 1.125 6.563 2.906 8.269zM81.469 45.563c-1.387-1.537-3.769-2.381-6.637-2.381-1.875 0-3.431 0.319-4.669 0.956-1.219 0.638-2.213 1.425-2.981 2.362-0.75 0.938-1.275 1.95-1.575 3.019-0.3 1.031-0.488 1.988-0.544 2.813h19.125c-0.281-3-1.313-5.212-2.719-6.769z"></path>
<path d="M62.662 24h23.944v5.831h-23.944v-5.831z"></path>
</svg>
