<!-- Generated by IcoMoon.io -->
<svg version="1.1" xmlns="http://www.w3.org/2000/svg" width="96" height="96" viewBox="0 0 96 96">
<title>bell</title>
<path d="M96.141 75c0-27-24-21-24-42 0-1.74-0.168-3.227-0.473-4.493-1.578-10.595-8.64-19.099-17.791-21.69 0.081-0.37 0.124-0.753 0.124-1.145 0-3.12-2.7-5.672-6-5.672s-6 2.552-6 5.672c0 0.392 0.043 0.775 0.124 1.145-10.263 2.906-17.898 13.247-18.118 25.635-0.004 0.18-0.006 0.362-0.006 0.548 0 21-24 15-24 42 0 7.146 15.993 13.125 37.403 14.633 2.018 3.788 6.005 6.367 10.597 6.367s8.579-2.58 10.597-6.367c21.411-1.508 37.403-7.486 37.403-14.633 0-0.021-0.002-0.043-0.003-0.064l0.143 0.064zM77.461 80.072c-5.084 1.357-11.077 2.332-17.51 2.873-0.535-6.133-5.68-10.945-11.951-10.945s-11.416 4.812-11.951 10.945c-6.432-0.541-12.425-1.517-17.509-2.873-6.997-1.867-10.342-3.955-11.566-5.072 1.224-1.116 4.569-3.205 11.566-5.072 8.135-2.171 18.597-3.366 29.461-3.366s21.326 1.195 29.461 3.366c6.997 1.867 10.342 3.955 11.566 5.072-1.224 1.116-4.569 3.205-11.566 5.072z"></path>
</svg>
