<!-- Generated by IcoMoon.io -->
<svg version="1.1" xmlns="http://www.w3.org/2000/svg" width="96" height="96" viewBox="0 0 96 96">
<title>binoculars</title>
<path d="M6 0h36v6h-36zM54 0h36v6h-36zM89.25 30h-5.25v-24h-24v24h-24v-24h-24v24h-5.25c-3.713 0-6.75 3.037-6.75 6.75v52.5c0 3.713 3.037 6.75 6.75 6.75h28.5c3.713 0 6.75-3.037 6.75-6.75v-35.25h12v35.25c0 3.713 3.037 6.75 6.75 6.75h28.5c3.713 0 6.75-3.037 6.75-6.75v-52.5c0-3.713-3.037-6.75-6.75-6.75zM32.625 90h-23.25c-1.856 0-3.375-1.35-3.375-3s1.519-3 3.375-3h23.25c1.856 0 3.375 1.35 3.375 3s-1.519 3-3.375 3zM51 48h-6c-1.65 0-3-1.35-3-3s1.35-3 3-3h6c1.65 0 3 1.35 3 3s-1.35 3-3 3zM86.625 90h-23.25c-1.856 0-3.375-1.35-3.375-3s1.519-3 3.375-3h23.25c1.856 0 3.375 1.35 3.375 3s-1.519 3-3.375 3z"></path>
</svg>
