<!-- Generated by IcoMoon.io -->
<svg version="1.1" xmlns="http://www.w3.org/2000/svg" width="96" height="96" viewBox="0 0 96 96">
<title>blocked</title>
<path d="M81.941 14.059c-9.066-9.066-21.12-14.059-33.941-14.059s-24.875 4.993-33.941 14.059c-9.066 9.066-14.059 21.12-14.059 33.941s4.993 24.875 14.059 33.941c9.066 9.066 21.12 14.059 33.941 14.059s24.875-4.993 33.941-14.059c9.066-9.066 14.059-21.12 14.059-33.941s-4.993-24.875-14.059-33.941zM84 48c0 7.764-2.471 14.961-6.667 20.848l-50.181-50.181c5.887-4.196 13.084-6.667 20.848-6.667 19.85 0 36 16.15 36 36zM12 48c0-7.764 2.471-14.961 6.667-20.848l50.182 50.181c-5.887 4.196-13.084 6.667-20.848 6.667-19.85 0-36-16.15-36-36z"></path>
</svg>
