<!-- Generated by IcoMoon.io -->
<svg version="1.1" xmlns="http://www.w3.org/2000/svg" width="96" height="96" viewBox="0 0 96 96">
<title>blog</title>
<path d="M36 0v9c6.889 0 13.567 1.347 19.848 4.004 6.072 2.568 11.527 6.247 16.214 10.933s8.365 10.142 10.933 16.214c2.657 6.282 4.004 12.96 4.004 19.849h9c0-33.137-26.863-60-60-60z"></path>
<path d="M36 18v9c8.815 0 17.102 3.433 23.334 9.665s9.666 14.52 9.666 23.335h9c0-23.196-18.804-42-42-42z"></path>
<path d="M45 36l-6 6-21 6-18 39 2.379 2.379 21.825-21.825c-0.132-0.496-0.204-1.016-0.204-1.553 0-3.314 2.686-6 6-6s6 2.686 6 6-2.686 6-6 6c-0.537 0-1.058-0.072-1.553-0.204l-21.825 21.825 2.379 2.379 39-18 6-21 6-6-15-15z"></path>
</svg>
