<!-- Generated by IcoMoon.io -->
<svg version="1.1" xmlns="http://www.w3.org/2000/svg" width="96" height="96" viewBox="0 0 96 96">
<title>blogger</title>
<path d="M89.793 36h-5.382c-3.297 0-6.186-2.788-6.412-6v0c0-17.125-13.805-30-31.049-30h-15.733c-17.232 0-31.205 13.875-31.217 31v34.012c0 17.124 13.985 30.988 31.217 30.988h33.602c17.245 0 31.181-13.864 31.181-30.988v-21.973c0-3.422-2.76-7.039-6.207-7.039zM30 24h18c3.3 0 6 2.7 6 6s-2.7 6-6 6h-18c-3.3 0-6-2.7-6-6s2.7-6 6-6zM66 72h-36c-3.3 0-6-2.7-6-6s2.7-6 6-6h36c3.3 0 6 2.7 6 6s-2.7 6-6 6z"></path>
</svg>
