<!-- Generated by IcoMoon.io -->
<svg version="1.1" xmlns="http://www.w3.org/2000/svg" width="96" height="96" viewBox="0 0 96 96">
<title>blogger2</title>
<path d="M87 0h-78c-4.95 0-9 4.050-9 9v78c0 4.95 4.050 9 9 9h78c4.95 0 9-4.050 9-9v-78c0-4.95-4.050-9-9-9zM84 60.75c0 12.844-10.444 23.25-23.381 23.25h-25.2c-12.938 0-23.419-10.406-23.419-23.25v-25.5c0-12.844 10.481-23.25 23.419-23.25h11.794c12.938 0 23.287 9.656 23.287 22.5 0.169 2.4 2.344 4.5 4.8 4.5h4.031c2.587 0 4.65 2.719 4.65 5.287v16.463z"></path>
<path d="M66 60c0 3.3-2.7 6-6 6h-24c-3.3 0-6-2.7-6-6v0c0-3.3 2.7-6 6-6h24c3.3 0 6 2.7 6 6v0z"></path>
<path d="M54 36c0 3.3-2.7 6-6 6h-12c-3.3 0-6-2.7-6-6v0c0-3.3 2.7-6 6-6h12c3.3 0 6 2.7 6 6v0z"></path>
</svg>
