<!-- Generated by IcoMoon.io -->
<svg version="1.1" xmlns="http://www.w3.org/2000/svg" width="108" height="96" viewBox="0 0 108 96">
<title>books</title>
<path d="M21 12h-18c-1.65 0-3 1.35-3 3v66c0 1.65 1.35 3 3 3h18c1.65 0 3-1.35 3-3v-66c0-1.65-1.35-3-3-3zM18 30h-12v-6h12v6z"></path>
<path d="M51 12h-18c-1.65 0-3 1.35-3 3v66c0 1.65 1.35 3 3 3h18c1.65 0 3-1.35 3-3v-66c0-1.65-1.35-3-3-3zM48 30h-12v-6h12v6z"></path>
<path d="M71.727 16.639l-16.075 8.099c-1.473 0.742-2.072 2.555-1.329 4.029l26.998 53.583c0.742 1.474 2.555 2.072 4.029 1.329l16.075-8.099c1.473-0.742 2.072-2.556 1.329-4.029l-26.998-53.583c-0.742-1.474-2.556-2.072-4.029-1.329z"></path>
</svg>
