<!-- Generated by IcoMoon.io -->
<svg version="1.1" xmlns="http://www.w3.org/2000/svg" width="96" height="96" viewBox="0 0 96 96">
<title>briefcase</title>
<path d="M90 24h-24v-6c0-3.3-2.7-6-6-6h-24c-3.3 0-6 2.7-6 6v6h-24c-3.3 0-6 2.7-6 6v54c0 3.3 2.7 6 6 6h84c3.3 0 6-2.7 6-6v-54c0-3.3-2.7-6-6-6zM36 18.011c0.003-0.004 0.007-0.008 0.011-0.011h23.979c0.004 0.003 0.008 0.007 0.011 0.011v5.989h-24v-5.989zM90 48h-12v9c0 1.65-1.35 3-3 3h-6c-1.65 0-3-1.35-3-3v-9h-36v9c0 1.65-1.35 3-3 3h-6c-1.65 0-3-1.35-3-3v-9h-12v-6h84v6z"></path>
</svg>
