<!-- Generated by IcoMoon.io -->
<svg version="1.1" xmlns="http://www.w3.org/2000/svg" width="96" height="96" viewBox="0 0 96 96">
<title>brightness-contrast</title>
<path d="M48 24c-13.255 0-24 10.745-24 24s10.745 24 24 24 24-10.745 24-24-10.745-24-24-24zM48 63v-30c8.271 0 15 6.729 15 15s-6.729 15-15 15zM48 78c3.314 0 6 2.686 6 6v6c0 3.314-2.686 6-6 6s-6-2.686-6-6v-6c0-3.314 2.686-6 6-6zM48 18c-3.314 0-6-2.686-6-6v-6c0-3.314 2.686-6 6-6s6 2.686 6 6v6c0 3.314-2.686 6-6 6zM90 42c3.314 0 6 2.686 6 6s-2.686 6-6 6h-6c-3.314 0-6-2.686-6-6s2.686-6 6-6h6zM18 48c0 3.314-2.686 6-6 6h-6c-3.314 0-6-2.686-6-6s2.686-6 6-6h6c3.314 0 6 2.686 6 6zM77.698 69.213l4.243 4.243c2.343 2.343 2.343 6.142 0 8.485s-6.142 2.343-8.485 0l-4.243-4.243c-2.343-2.343-2.343-6.142 0-8.485s6.142-2.343 8.485 0zM18.302 26.787l-4.243-4.243c-2.343-2.343-2.343-6.142 0-8.485s6.142-2.343 8.485 0l4.243 4.243c2.343 2.343 2.343 6.142 0 8.485s-6.142 2.343-8.485 0zM77.698 26.787c-2.343 2.343-6.142 2.343-8.485 0s-2.343-6.142 0-8.485l4.243-4.243c2.343-2.343 6.142-2.343 8.485 0s2.343 6.142 0 8.485l-4.243 4.243zM18.302 69.213c2.343-2.343 6.142-2.343 8.485 0s2.343 6.142 0 8.485l-4.243 4.243c-2.343 2.343-6.142 2.343-8.485 0s-2.343-6.142 0-8.485l4.243-4.243z"></path>
</svg>
