<!-- Generated by IcoMoon.io -->
<svg version="1.1" xmlns="http://www.w3.org/2000/svg" width="108" height="96" viewBox="0 0 108 96">
<title>bubbles</title>
<path d="M102 84.484c0 4.266 2.44 7.96 6 9.767v1.494c-0.996 0.136-2.013 0.209-3.047 0.209-6.376 0-12.126-2.674-16.193-6.962-2.458 0.655-5.063 1.008-7.76 1.008-14.912 0-27-10.745-27-24s12.088-24 27-24c14.912 0 27 10.745 27 24 0 5.189-1.853 9.993-5.002 13.919-0.64 1.39-0.998 2.935-0.998 4.566zM48 0c26.105 0 47.343 16.933 47.985 38.017-4.611-2.055-9.711-3.142-14.985-3.142-8.959 0-17.42 3.136-23.825 8.829-6.642 5.904-10.3 13.822-10.3 22.296 0 4.188 0.895 8.24 2.6 11.98-0.49 0.012-0.981 0.020-1.475 0.020-2.546 0-5.045-0.163-7.483-0.473-10.31 10.31-22.617 12.159-34.517 12.431v-2.523c6.425-3.148 12-8.882 12-15.435 0-0.914-0.071-1.812-0.203-2.69-10.856-7.15-17.797-18.071-17.797-30.31 0-21.539 21.49-39 48-39z"></path>
</svg>
