<!-- Generated by IcoMoon.io -->
<svg version="1.1" xmlns="http://www.w3.org/2000/svg" width="96" height="96" viewBox="0 0 96 96">
<title>bubble2</title>
<path d="M48 18c-5.15 0-10.124 0.812-14.784 2.413-4.379 1.505-8.279 3.632-11.59 6.323-6.208 5.044-9.626 11.53-9.626 18.264 0 3.778 1.049 7.442 3.117 10.889 2.133 3.555 5.342 6.805 9.28 9.399 2.846 1.874 4.761 4.87 5.266 8.24 0.169 1.123 0.274 2.258 0.316 3.387 0.7-0.581 1.383-1.204 2.051-1.873 2.264-2.264 5.323-3.515 8.485-3.515 0.503 0 1.009 0.032 1.515 0.096 1.966 0.25 3.975 0.377 5.97 0.377 5.15 0 10.124-0.812 14.784-2.413 4.379-1.505 8.279-3.632 11.59-6.323 6.208-5.043 9.626-11.53 9.626-18.264s-3.419-13.22-9.626-18.264c-3.311-2.69-7.211-4.818-11.59-6.323-4.66-1.601-9.634-2.413-14.784-2.413zM48 6v0c26.51 0 48 17.461 48 39s-21.49 39-48 39c-2.546 0-5.045-0.163-7.483-0.473-10.31 10.31-22.617 12.159-34.517 12.431v-2.523c6.425-3.148 12-8.882 12-15.435 0-0.914-0.071-1.812-0.203-2.69-10.856-7.15-17.797-18.071-17.797-30.31 0-21.539 21.49-39 48-39z"></path>
</svg>
