<!-- Generated by IcoMoon.io -->
<svg version="1.1" xmlns="http://www.w3.org/2000/svg" width="108" height="96" viewBox="0 0 108 96">
<title>bubbles2</title>
<path d="M45 0v0c24.853 0 45 16.304 45 36.417s-20.147 36.417-45 36.417c-2.387 0-4.729-0.152-7.016-0.442-9.666 9.628-20.829 11.354-31.984 11.608v-2.356c6.024-2.939 10.875-8.294 10.875-14.413 0-0.854-0.067-1.692-0.19-2.512-10.177-6.676-16.685-16.874-16.685-28.302 0-20.113 20.147-36.417 45-36.417zM93.375 81.627c0 5.245 3.404 9.834 8.625 12.354v2.020c-9.668-0.217-18.542-1.697-26.92-9.949-1.982 0.248-4.012 0.379-6.080 0.379-8.95 0-17.195-2.415-23.776-6.472 13.563-0.047 26.368-4.393 36.078-12.251 4.895-3.961 8.756-8.609 11.476-13.814 2.884-5.519 4.347-11.398 4.347-17.476 0-0.979-0.042-1.953-0.118-2.922 6.803 5.619 10.993 13.277 10.993 21.72 0 9.796-5.64 18.536-14.46 24.259-0.107 0.703-0.165 1.421-0.165 2.153z"></path>
</svg>
