<!-- Generated by IcoMoon.io -->
<svg version="1.1" xmlns="http://www.w3.org/2000/svg" width="108" height="96" viewBox="0 0 108 96">
<title>bubbles4</title>
<path d="M45 12c-4.75 0-9.336 0.745-13.63 2.215-4.024 1.378-7.604 3.322-10.641 5.779-5.629 4.555-8.729 10.388-8.729 16.423 0 3.374 0.944 6.651 2.805 9.74 1.939 3.219 4.865 6.168 8.462 8.527 2.854 1.872 4.775 4.871 5.284 8.245 0.085 0.562 0.153 1.126 0.204 1.691 0.255-0.236 0.508-0.479 0.761-0.731 2.263-2.254 5.315-3.498 8.468-3.498 0.501 0 1.005 0.032 1.509 0.095 1.815 0.23 3.668 0.346 5.508 0.346 4.75 0 9.336-0.745 13.63-2.215 4.024-1.377 7.605-3.322 10.641-5.779 5.629-4.555 8.729-10.388 8.729-16.423s-3.1-11.867-8.729-16.423c-3.036-2.457-6.617-4.402-10.641-5.779-4.294-1.47-8.88-2.215-13.63-2.215zM45 0v0c24.853 0 45 16.304 45 36.417s-20.147 36.417-45 36.417c-2.387 0-4.729-0.152-7.016-0.442-9.666 9.628-20.829 11.354-31.984 11.608v-2.356c6.024-2.939 10.875-8.294 10.875-14.413 0-0.854-0.067-1.692-0.19-2.512-10.177-6.676-16.685-16.874-16.685-28.302 0-20.113 20.147-36.417 45-36.417zM93.375 81.627c0 5.245 3.404 9.834 8.625 12.354v2.020c-9.668-0.217-18.542-1.697-26.92-9.949-1.982 0.248-4.012 0.379-6.080 0.379-8.95 0-17.195-2.415-23.776-6.472 13.563-0.047 26.368-4.393 36.078-12.251 4.895-3.961 8.756-8.609 11.476-13.814 2.884-5.519 4.347-11.398 4.347-17.476 0-0.979-0.042-1.953-0.118-2.922 6.803 5.619 10.993 13.277 10.993 21.72 0 9.796-5.64 18.536-14.46 24.259-0.107 0.703-0.165 1.421-0.165 2.153z"></path>
</svg>
