<!-- Generated by IcoMoon.io -->
<svg version="1.1" xmlns="http://www.w3.org/2000/svg" width="108" height="96" viewBox="0 0 108 96">
<title>bubbles3</title>
<path d="M102 84.484c0 4.266 2.44 7.96 6 9.767v1.494c-0.996 0.136-2.013 0.209-3.047 0.209-6.376 0-12.126-2.674-16.193-6.962-2.458 0.655-5.063 1.008-7.76 1.008-14.912 0-27-10.745-27-24s12.088-24 27-24c14.912 0 27 10.745 27 24 0 5.189-1.853 9.993-5.002 13.919-0.64 1.39-0.998 2.935-0.998 4.566zM21.626 20.736c-6.208 5.044-9.626 11.53-9.626 18.264 0 3.778 1.049 7.442 3.117 10.889 2.133 3.555 5.342 6.805 9.28 9.399 2.846 1.874 4.761 4.87 5.267 8.24 0.169 1.124 0.274 2.258 0.316 3.387 0.7-0.581 1.383-1.204 2.051-1.873 2.264-2.264 5.323-3.515 8.485-3.515 0.503 0 1.009 0.031 1.515 0.096 1.964 0.25 3.97 0.377 5.962 0.377v12c-2.543-0-5.039-0.163-7.476-0.473-10.31 10.31-22.617 12.159-34.517 12.431v-2.523c6.425-3.148 12-8.882 12-15.435 0-0.914-0.071-1.812-0.203-2.69-10.856-7.15-17.797-18.071-17.797-30.31 0-21.539 21.49-39 48-39 26.105 0 47.343 16.933 47.985 38.017-3.853-1.717-8.047-2.758-12.4-3.054-1.081-5.256-4.256-10.201-9.211-14.227-3.311-2.69-7.211-4.818-11.59-6.323-4.66-1.601-9.634-2.413-14.784-2.413s-10.124 0.812-14.784 2.413c-4.379 1.505-8.279 3.632-11.59 6.323z"></path>
</svg>
