<!-- Generated by IcoMoon.io -->
<svg version="1.1" xmlns="http://www.w3.org/2000/svg" width="96" height="96" viewBox="0 0 96 96">
<title>bug</title>
<path d="M96 54v-6h-18.121c-0.55-6.814-2.98-13.034-6.719-18.023h15.182l6.568-26.273-5.821-1.455-5.432 21.727h-16.376c-0.084-0.065-0.168-0.129-0.253-0.193 0.629-1.828 0.971-3.79 0.971-5.831 0-9.915-8.059-17.953-18-17.953s-18 8.038-18 17.953c0 2.041 0.342 4.002 0.971 5.831-0.084 0.064-0.169 0.128-0.253 0.193h-16.376l-5.432-21.727-5.821 1.455 6.568 26.273h15.182c-3.739 4.99-6.169 11.209-6.719 18.023h-18.121v6h18.128c0.356 4.281 1.454 8.326 3.154 11.977h-11.624l-6.568 26.272 5.821 1.455 5.432-21.728h10.533c5.502 7.316 13.818 11.977 23.124 11.977s17.622-4.661 23.125-11.977h10.533l5.432 21.728 5.821-1.455-6.568-26.272h-11.624c1.7-3.65 2.797-7.696 3.153-11.977h18.128z"></path>
</svg>
