<!-- Generated by IcoMoon.io -->
<svg version="1.1" xmlns="http://www.w3.org/2000/svg" width="96" height="96" viewBox="0 0 96 96">
<title>bullhorn</title>
<path d="M96 40.243c0-18.837-5.512-34.119-12.326-34.24 0.027-0.001 0.054-0.003 0.082-0.003h-7.776c0 0-18.263 13.719-44.553 19.102-0.802 4.246-1.315 9.307-1.315 15.141s0.512 10.894 1.315 15.141c26.29 5.383 44.553 19.102 44.553 19.102h7.776c-0.027 0-0.054-0.002-0.082-0.003 6.815-0.121 12.326-15.403 12.326-34.24zM81.077 69.305c-0.88 0-1.831-0.913-2.32-1.458-1.184-1.319-2.324-3.371-3.299-5.937-2.18-5.74-3.381-13.435-3.381-21.668s1.201-15.927 3.381-21.668c0.974-2.566 2.115-4.619 3.299-5.937 0.489-0.545 1.44-1.458 2.32-1.458s1.832 0.914 2.32 1.458c1.184 1.318 2.325 3.371 3.299 5.937 2.18 5.74 3.381 13.435 3.381 21.668s-1.201 15.927-3.381 21.668c-0.974 2.566-2.115 4.619-3.299 5.937-0.488 0.544-1.44 1.458-2.32 1.458zM23.607 40.243c0-4.87 0.357-9.603 1.036-13.978-4.441 0.614-8.338 0.968-13.157 0.968-6.287 0-6.287 0-6.287 0l-5.2 8.877v8.266l5.199 8.877c0 0 0 0 6.287 0 4.819 0 8.716 0.354 13.157 0.968-0.678-4.375-1.036-9.107-1.036-13.978zM34.514 60.204l-12-2.298 7.673 30.145c0.397 1.559 1.945 2.347 3.439 1.749l11.115-4.449c1.495-0.598 2.093-2.247 1.331-3.664l-11.558-21.483zM81.077 51.443c-0.339 0-0.706-0.352-0.894-0.562-0.457-0.508-0.896-1.299-1.271-2.288-0.84-2.213-1.303-5.178-1.303-8.351s0.463-6.139 1.303-8.351c0.376-0.989 0.815-1.78 1.271-2.288 0.188-0.21 0.555-0.562 0.894-0.562s0.706 0.352 0.894 0.562c0.457 0.508 0.896 1.299 1.271 2.288 0.84 2.212 1.303 5.178 1.303 8.351s-0.463 6.139-1.303 8.351c-0.375 0.989-0.815 1.78-1.271 2.288-0.188 0.21-0.555 0.562-0.894 0.562z"></path>
</svg>
