<!-- Generated by IcoMoon.io -->
<svg version="1.1" xmlns="http://www.w3.org/2000/svg" width="96" height="96" viewBox="0 0 96 96">
<title>calculator</title>
<path d="M36 6h-30c-3.3 0-6 2.7-6 6v30c0 3.3 2.7 6 6 6h30c3.3 0 6-2.7 6-6v-30c0-3.3-2.7-6-6-6zM36 30h-30v-6h30v6zM84 6h-30c-3.3 0-6 2.7-6 6v78c0 3.3 2.7 6 6 6h30c3.3 0 6-2.7 6-6v-78c0-3.3-2.7-6-6-6zM84 60h-30v-6h30v6zM84 42h-30v-6h30v6zM36 54h-30c-3.3 0-6 2.7-6 6v30c0 3.3 2.7 6 6 6h30c3.3 0 6-2.7 6-6v-30c0-3.3-2.7-6-6-6zM36 78h-12v12h-6v-12h-12v-6h12v-12h6v12h12v6z"></path>
</svg>
