<!-- Generated by IcoMoon.io -->
<svg version="1.1" xmlns="http://www.w3.org/2000/svg" width="96" height="96" viewBox="0 0 96 96">
<title>camera</title>
<path d="M28.5 57c0 10.77 8.73 19.5 19.5 19.5s19.5-8.73 19.5-19.5-8.73-19.5-19.5-19.5-19.5 8.73-19.5 19.5zM90 24h-21c-1.5-6-3-12-9-12h-24c-6 0-7.5 6-9 12h-21c-3.3 0-6 2.7-6 6v54c0 3.3 2.7 6 6 6h84c3.3 0 6-2.7 6-6v-54c0-3.3-2.7-6-6-6zM48 83.625c-14.705 0-26.625-11.92-26.625-26.625s11.92-26.625 26.625-26.625c14.705 0 26.625 11.92 26.625 26.625s-11.92 26.625-26.625 26.625zM90 42h-12v-6h12v6z"></path>
</svg>
