<!-- Generated by IcoMoon.io -->
<svg version="1.1" xmlns="http://www.w3.org/2000/svg" width="96" height="96" viewBox="0 0 96 96">
<title>cart</title>
<path d="M36 87c0 4.971-4.029 9-9 9s-9-4.029-9-9c0-4.971 4.029-9 9-9s9 4.029 9 9z"></path>
<path d="M96 87c0 4.971-4.029 9-9 9s-9-4.029-9-9c0-4.971 4.029-9 9-9s9 4.029 9 9z"></path>
<path d="M96 48v-36h-72c0-3.314-2.686-6-6-6h-18v6h12l4.507 38.63c-2.746 2.199-4.507 5.578-4.507 9.37 0 6.628 5.373 12 12 12h72v-6h-72c-3.314 0-6-2.686-6-6 0-0.020 0.001-0.041 0.002-0.061l77.999-11.939z"></path>
</svg>
