<!-- Generated by IcoMoon.io -->
<svg version="1.1" xmlns="http://www.w3.org/2000/svg" width="96" height="96" viewBox="0 0 96 96">
<title>chrome</title>
<path d="M24.214 41.863l-13.737-23.794c8.795-11.012 22.334-18.069 37.524-18.069 17.572 0 32.935 9.444 41.3 23.531h-39.166c-0.703-0.061-1.415-0.094-2.134-0.094-11.426 0-21.054 7.842-23.786 18.426zM65.185 30.469h27.512c2.132 5.431 3.303 11.344 3.303 17.531 0 26.327-21.197 47.7-47.455 47.993l19.631-34.001c2.764-3.973 4.387-8.796 4.387-13.992 0-6.86-2.828-13.071-7.378-17.531zM30.563 48c0-9.615 7.822-17.438 17.438-17.438s17.438 7.822 17.438 17.438c0 9.615-7.823 17.438-17.438 17.438s-17.438-7.823-17.438-17.438zM54.58 71.666l-13.742 23.801c-23.112-3.458-40.838-23.392-40.838-47.468 0-8.552 2.239-16.579 6.159-23.533l19.597 33.943c3.925 8.354 12.42 14.153 22.244 14.153 2.278 0 4.485-0.313 6.58-0.896z"></path>
</svg>
