<!-- Generated by IcoMoon.io -->
<svg version="1.1" xmlns="http://www.w3.org/2000/svg" width="96" height="96" viewBox="0 0 96 96">
<title>clipboard</title>
<path d="M87 12h-27c0-6.627-5.372-12-12-12s-12 5.373-12 12h-27c-1.657 0-3 1.343-3 3v78c0 1.657 1.343 3 3 3h78c1.657 0 3-1.343 3-3v-78c0-1.657-1.343-3-3-3zM48 6c3.314 0 6 2.686 6 6s-2.686 6-6 6c-3.314 0-6-2.686-6-6s2.686-6 6-6zM84 90h-72v-72h12v9c0 1.657 1.343 3 3 3h42c1.657 0 3-1.343 3-3v-9h12v72z"></path>
<path d="M42 80.485l-19.243-22.243 5.485-5.485 13.757 10.757 25.757-22.757 5.486 5.485z"></path>
</svg>
