<!-- Generated by IcoMoon.io -->
<svg version="1.1" xmlns="http://www.w3.org/2000/svg" width="96" height="96" viewBox="0 0 96 96">
<title>cloud</title>
<path d="M96 61.645c0-7.696-5.314-14.147-12.468-15.889-0.304-12.066-10.168-21.756-22.3-21.756-7.105 0-13.431 3.328-17.518 8.506-2.291-2.962-5.877-4.871-9.91-4.871-6.92 0-12.529 5.613-12.529 12.536 0 0.603 0.045 1.196 0.128 1.777-1.052-0.19-2.134-0.294-3.241-0.294-10.031-0-18.162 8.136-18.162 18.173s8.131 18.173 18.162 18.173l61.525-0.001c9.013-0.017 16.313-7.332 16.313-16.354z"></path>
</svg>
