<!-- Generated by IcoMoon.io -->
<svg version="1.1" xmlns="http://www.w3.org/2000/svg" width="96" height="96" viewBox="0 0 96 96">
<title>cloud-upload</title>
<path d="M83.65 36.233c0.229-1.042 0.35-2.123 0.35-3.233 0-8.284-6.716-15-15-15-1.333 0-2.626 0.175-3.856 0.502-2.325-7.252-9.121-12.502-17.144-12.502-8.189 0-15.099 5.469-17.281 12.953-2.132-0.621-4.387-0.953-6.719-0.953-13.255 0-24 10.745-24 24s10.745 24 24 24h12v18h24v-18h21c8.284 0 15-6.716 15-15 0-7.38-5.33-13.515-12.35-14.767zM54 60v18h-12v-18h-15l21-21 21 21h-15z"></path>
</svg>
