<!-- Generated by IcoMoon.io -->
<svg version="1.1" xmlns="http://www.w3.org/2000/svg" width="96" height="96" viewBox="0 0 96 96">
<title>cloud-download</title>
<path d="M83.532 33.756c-0.304-12.065-10.168-21.756-22.3-21.756-7.105 0-13.431 3.328-17.518 8.506-2.291-2.962-5.877-4.871-9.91-4.871-6.92 0-12.529 5.613-12.529 12.536 0 0.603 0.045 1.196 0.128 1.777-1.052-0.19-2.134-0.294-3.241-0.294-10.031-0-18.162 8.136-18.162 18.173s8.131 18.173 18.162 18.173h8.603l21.235 21.985 21.235-21.985 10.451-0.001c9.013-0.017 16.313-7.332 16.313-16.354 0-7.696-5.314-14.147-12.468-15.889zM48 78l-18-18h12v-18h12v18h12l-18 18z"></path>
</svg>
