<!-- Generated by IcoMoon.io -->
<svg version="1.1" xmlns="http://www.w3.org/2000/svg" width="96" height="96" viewBox="0 0 96 96">
<title>clubs</title>
<path d="M73.766 36.822c-5.534 0-10.508 2.306-14.049 6.065-1.5 1.592-4.103 3.479-6.919 5.138 1.323-5.050 5.501-11.409 8.403-14.199 3.716-3.578 5.998-8.609 5.998-14.203 0.001-10.771-8.576-19.509-19.199-19.624-10.624 0.115-19.2 8.852-19.2 19.624 0 5.594 2.282 10.625 5.999 14.203 2.902 2.79 7.080 9.149 8.403 14.199-2.816-1.659-5.419-3.546-6.919-5.138-3.541-3.759-8.514-6.065-14.048-6.065-10.724 0-19.414 8.781-19.414 19.624 0 10.841 8.69 19.625 19.414 19.625 5.535 0 10.508-2.377 14.048-6.136 1.575-1.675 4.354-3.763 7.34-5.497-0.281 13.846-6.894 24.016-13.624 28.022v3.538h36.001v-3.538c-6.73-4.006-13.343-14.176-13.624-28.022 2.986 1.734 5.765 3.822 7.34 5.497 3.541 3.759 8.513 6.136 14.049 6.136 10.724 0 19.414-8.784 19.414-19.625-0-10.844-8.69-19.624-19.414-19.624z"></path>
</svg>
