<!-- Generated by IcoMoon.io -->
<svg version="1.1" xmlns="http://www.w3.org/2000/svg" width="96" height="96" viewBox="0 0 96 96">
<title>codepen</title>
<path d="M88.664 34.504l-42-28c-1.008-0.672-2.321-0.672-3.328 0l-42 28c-0.835 0.556-1.336 1.493-1.336 2.496v28c0 1.003 0.501 1.94 1.336 2.496l42 28c0.504 0.336 1.084 0.504 1.664 0.504s1.16-0.168 1.664-0.504l42-28c0.835-0.556 1.336-1.493 1.336-2.496v-28c0-1.003-0.501-1.94-1.336-2.496zM45 61.395l-15.592-10.395 15.592-10.394 15.592 10.394-15.592 10.395zM48 35.395v-20.789l33.592 22.395-15.592 10.394-18-12zM42 35.395l-18 12-15.592-10.394 33.592-22.395v20.789zM18.592 51l-12.592 8.395v-16.789l12.592 8.394zM24 54.605l18 12v20.789l-33.592-22.394 15.592-10.395zM48 66.605l18-12 15.592 10.395-33.592 22.394v-20.789zM71.408 51l12.592-8.394v16.789l-12.592-8.395z"></path>
</svg>
