<!-- Generated by IcoMoon.io -->
<svg version="1.1" xmlns="http://www.w3.org/2000/svg" width="96" height="96" viewBox="0 0 96 96">
<title>cog</title>
<path d="M87.543 57.211c-5.037-8.724-2.008-19.903 6.764-24.983l-9.434-16.34c-2.695 1.58-5.829 2.486-9.173 2.486-10.082 0-18.254-8.226-18.254-18.374h-18.868c0.025 3.132-0.757 6.308-2.434 9.211-5.037 8.724-16.233 11.691-25.018 6.634l-9.433 16.34c2.716 1.544 5.067 3.805 6.739 6.701 5.029 8.71 2.017 19.868-6.723 24.959l9.434 16.34c2.686-1.565 5.805-2.461 9.131-2.461 10.050 0 18.201 8.174 18.253 18.277h18.868c-0.008-3.101 0.776-6.241 2.434-9.114 5.028-8.71 16.198-11.681 24.976-6.657l9.434-16.34c-2.698-1.544-5.034-3.797-6.697-6.678zM48 67.437c-10.735 0-19.438-8.702-19.438-19.438s8.702-19.438 19.438-19.438c10.735 0 19.437 8.702 19.437 19.438s-8.702 19.438-19.437 19.438z"></path>
</svg>
