<!-- Generated by IcoMoon.io -->
<svg version="1.1" xmlns="http://www.w3.org/2000/svg" width="96" height="96" viewBox="0 0 96 96">
<title>cogs</title>
<path d="M34.099 67.692l3.872-5.42-4.243-4.243-5.42 3.872c-1.005-0.562-2.082-1.010-3.212-1.331l-1.095-6.57h-6l-1.095 6.571c-1.131 0.32-2.207 0.769-3.212 1.331l-5.42-3.872-4.243 4.243 3.872 5.42c-0.562 1.005-1.010 2.082-1.33 3.212l-6.571 1.095v6l6.571 1.095c0.32 1.131 0.769 2.207 1.331 3.212l-3.872 5.42 4.243 4.243 5.42-3.872c1.005 0.562 2.082 1.010 3.212 1.331l1.095 6.57h6l1.095-6.571c1.131-0.32 2.207-0.769 3.212-1.331l5.42 3.871 4.243-4.243-3.872-5.42c0.562-1.005 1.010-2.082 1.331-3.212l6.571-1.095v-6l-6.571-1.095c-0.32-1.131-0.769-2.207-1.331-3.212zM21 81c-3.314 0-6-2.686-6-6s2.686-6 6-6 6 2.686 6 6-2.686 6-6 6zM96 36v-6l-6.317-1.148c-0.116-0.754-0.266-1.498-0.443-2.23l5.396-3.478-2.296-5.543-6.276 1.356c-0.395-0.648-0.818-1.277-1.265-1.887l3.657-5.282-4.243-4.243-5.282 3.657c-0.611-0.447-1.239-0.87-1.887-1.265l1.356-6.276-5.543-2.296-3.478 5.396c-0.732-0.177-1.476-0.326-2.23-0.443l-1.149-6.317h-6l-1.149 6.317c-0.754 0.116-1.498 0.265-2.23 0.443l-3.478-5.396-5.543 2.296 1.356 6.276c-0.648 0.395-1.277 0.818-1.887 1.265l-5.282-3.657-4.243 4.243 3.657 5.282c-0.447 0.61-0.87 1.239-1.265 1.887l-6.276-1.356-2.296 5.543 5.396 3.478c-0.177 0.732-0.326 1.476-0.443 2.23l-6.317 1.149v6l6.317 1.148c0.116 0.754 0.266 1.498 0.443 2.23l-5.396 3.478 2.296 5.543 6.276-1.356c0.395 0.648 0.818 1.277 1.265 1.887l-3.657 5.282 4.243 4.243 5.282-3.657c0.61 0.447 1.239 0.87 1.887 1.265l-1.356 6.276 5.543 2.296 3.478-5.396c0.732 0.177 1.476 0.326 2.23 0.443l1.149 6.317h6l1.149-6.317c0.754-0.116 1.498-0.265 2.23-0.443l3.478 5.396 5.543-2.296-1.356-6.276c0.648-0.395 1.277-0.818 1.887-1.265l5.282 3.657 4.243-4.243-3.657-5.282c0.447-0.61 0.87-1.239 1.265-1.887l6.276 1.356 2.296-5.543-5.396-3.478c0.177-0.732 0.326-1.476 0.443-2.23l6.317-1.148zM63 46.050c-7.207 0-13.050-5.843-13.050-13.050s5.843-13.050 13.050-13.050 13.050 5.843 13.050 13.050c0 7.207-5.843 13.050-13.050 13.050z"></path>
</svg>
