<!-- Generated by IcoMoon.io -->
<svg version="1.1" xmlns="http://www.w3.org/2000/svg" width="96" height="96" viewBox="0 0 96 96">
<title>coin-pound</title>
<path d="M45 6c-24.853 0-45 20.147-45 45s20.147 45 45 45c24.853 0 45-20.147 45-45s-20.147-45-45-45zM45 87c-19.882 0-36-16.118-36-36s16.118-36 36-36c19.882 0 36 16.118 36 36s-16.118 36-36 36z"></path>
<path d="M57 66h-21v-12h9c1.657 0 3-1.343 3-3s-1.343-3-3-3h-9v-3c0-4.963 4.037-9 9-9 3.203 0 6.191 1.725 7.798 4.503 0.83 1.434 2.665 1.924 4.099 1.095s1.924-2.665 1.095-4.099c-2.675-4.625-7.654-7.498-12.992-7.498-8.271 0-15 6.729-15 15v3h-3c-1.657 0-3 1.343-3 3s1.343 3 3 3h3v18h27c1.657 0 3-1.343 3-3s-1.343-3-3-3z"></path>
</svg>
