<!-- Generated by IcoMoon.io -->
<svg version="1.1" xmlns="http://www.w3.org/2000/svg" width="96" height="96" viewBox="0 0 96 96">
<title>coin-yen</title>
<path d="M45 6c-24.853 0-45 20.147-45 45s20.147 45 45 45c24.853 0 45-20.147 45-45s-20.147-45-45-45zM45 87c-19.882 0-36-16.118-36-36s16.118-36 36-36c19.882 0 36 16.118 36 36s-16.118 36-36 36z"></path>
<path d="M57 54c1.657 0 3-1.343 3-3s-1.343-3-3-3h-6.394l8.89-13.336c0.919-1.379 0.547-3.241-0.832-4.16s-3.241-0.547-4.16 0.832l-9.504 14.256-9.504-14.256c-0.919-1.379-2.782-1.751-4.16-0.832s-1.751 2.782-0.832 4.16l8.891 13.336h-6.395c-1.657 0-3 1.343-3 3s1.343 3 3 3h9v6h-9c-1.657 0-3 1.343-3 3s1.343 3 3 3h9v9c0 1.657 1.343 3 3 3s3-1.343 3-3v-9h9c1.657 0 3-1.343 3-3s-1.343-3-3-3h-9v-6h9z"></path>
</svg>
