<!-- Generated by IcoMoon.io -->
<svg version="1.1" xmlns="http://www.w3.org/2000/svg" width="96" height="96" viewBox="0 0 96 96">
<title>coin-euro</title>
<path d="M45 6c-24.853 0-45 20.147-45 45s20.147 45 45 45c24.853 0 45-20.147 45-45s-20.147-45-45-45zM45 87c-19.882 0-36-16.118-36-36s16.118-36 36-36c19.882 0 36 16.118 36 36s-16.118 36-36 36z"></path>
<path d="M62.89 60.407c-1.432-0.833-3.268-0.348-4.102 1.085-1.618 2.781-4.602 4.508-7.788 4.508h-12c-3.911 0-7.246-2.508-8.484-6h14.484c1.657 0 3-1.343 3-3s-1.343-3-3-3h-15v-6h15c1.657 0 3-1.343 3-3s-1.343-3-3-3h-14.484c1.238-3.492 4.573-6 8.484-6h12c3.186 0 6.17 1.727 7.788 4.508 0.833 1.432 2.67 1.918 4.102 1.084s1.918-2.67 1.085-4.102c-2.688-4.621-7.66-7.491-12.974-7.491h-12c-7.244 0-13.304 5.162-14.698 12h-3.302c-1.657 0-3 1.343-3 3s1.343 3 3 3h3v6h-3c-1.657 0-3 1.343-3 3s1.343 3 3 3h3.302c1.394 6.838 7.454 12 14.698 12h12c5.315 0 10.286-2.871 12.974-7.492 0.833-1.432 0.348-3.269-1.085-4.102z"></path>
</svg>
