<!-- Generated by IcoMoon.io -->
<svg version="1.1" xmlns="http://www.w3.org/2000/svg" width="96" height="96" viewBox="0 0 96 96">
<title>command</title>
<path d="M69 84c-8.271 0-15-6.729-15-15v-9h-12v9c0 8.271-6.729 15-15 15s-15-6.729-15-15 6.729-15 15-15h9v-12h-9c-8.271 0-15-6.729-15-15s6.729-15 15-15 15 6.729 15 15v9h12v-9c0-8.271 6.729-15 15-15s15 6.729 15 15-6.729 15-15 15h-9v12h9c8.271 0 15 6.729 15 15s-6.729 15-15 15zM60 60v9c0 4.963 4.037 9 9 9s9-4.037 9-9-4.037-9-9-9h-9zM27 60c-4.963 0-9 4.037-9 9s4.037 9 9 9 9-4.037 9-9v-9h-9zM42 54h12v-12h-12v12zM60 36h9c4.963 0 9-4.037 9-9s-4.037-9-9-9-9 4.037-9 9v9zM27 18c-4.963 0-9 4.037-9 9s4.037 9 9 9h9v-9c0-4.963-4.037-9-9-9z"></path>
</svg>
