<!-- Generated by IcoMoon.io -->
<svg version="1.1" xmlns="http://www.w3.org/2000/svg" width="96" height="96" viewBox="0 0 96 96">
<title>compass</title>
<path d="M51.001 96c-0.215 0-0.433-0.023-0.651-0.072-1.373-0.305-2.35-1.522-2.35-2.929v-45h-45c-1.406 0-2.624-0.977-2.929-2.35s0.386-2.774 1.66-3.368l90-42c1.143-0.533 2.498-0.295 3.39 0.597s1.131 2.247 0.597 3.39l-42 90c-0.501 1.072-1.572 1.732-2.718 1.732zM16.523 42h34.477c1.657 0 3 1.343 3 3v34.477l32.793-70.27-70.27 32.793z"></path>
</svg>
