<!-- Generated by IcoMoon.io -->
<svg version="1.1" xmlns="http://www.w3.org/2000/svg" width="96" height="96" viewBox="0 0 96 96">
<title>compass2</title>
<path d="M48 0c-26.51 0-48 21.49-48 48s21.49 48 48 48 48-21.49 48-48-21.49-48-48-48zM9 48c0-21.539 17.461-39 39-39 10.273 0 19.615 3.974 26.581 10.465l-38.581 16.535-16.535 38.581c-6.491-6.966-10.465-16.309-10.465-26.581zM54.859 54.859l-24.008 10.289 10.289-24.008 13.719 13.719zM48 87c-10.273 0-19.616-3.974-26.581-10.465l38.581-16.535 16.535-38.581c6.491 6.965 10.465 16.309 10.465 26.581 0 21.539-17.461 39-39 39z"></path>
</svg>
