<!-- Generated by IcoMoon.io -->
<svg version="1.1" xmlns="http://www.w3.org/2000/svg" width="96" height="96" viewBox="0 0 96 96">
<title>confused2</title>
<path d="M48 0c-26.51 0-48 21.49-48 48s21.49 48 48 48c26.51 0 48-21.49 48-48s-21.49-48-48-48zM66 24c3.314 0 6 2.686 6 6s-2.686 6-6 6-6-2.686-6-6c0-3.314 2.686-6 6-6zM30 24c3.314 0 6 2.686 6 6s-2.686 6-6 6-6-2.686-6-6c0-3.314 2.686-6 6-6zM64.407 75.99c-7.772 2.829-16.397-1.192-19.226-8.964-1.698-4.663-6.872-7.076-11.536-5.379-4.271 1.555-6.652 6.028-5.718 10.352h-6.081c-0.867-6.798 3.042-13.55 9.746-15.99 7.772-2.829 16.397 1.192 19.226 8.964 1.698 4.663 6.872 7.076 11.536 5.378 4.271-1.555 6.652-6.028 5.718-10.352h6.081c0.866 6.797-3.043 13.55-9.746 15.99z"></path>
</svg>
