<!-- Generated by IcoMoon.io -->
<svg version="1.1" xmlns="http://www.w3.org/2000/svg" width="96" height="96" viewBox="0 0 96 96">
<title>confused</title>
<path d="M48 96c26.51 0 48-21.49 48-48s-21.49-48-48-48-48 21.49-48 48 21.49 48 48 48zM48 9c21.539 0 39 17.461 39 39s-17.461 39-39 39-39-17.461-39-39 17.461-39 39-39zM24 30c0-3.314 2.686-6 6-6s6 2.686 6 6c0 3.314-2.686 6-6 6s-6-2.686-6-6zM60 30c0-3.314 2.686-6 6-6s6 2.686 6 6c0 3.314-2.686 6-6 6s-6-2.686-6-6zM68.072 60h6.081c0.867 6.797-3.042 13.55-9.746 15.99-7.772 2.829-16.397-1.192-19.226-8.964-1.698-4.663-6.872-7.076-11.536-5.379-4.271 1.555-6.652 6.028-5.718 10.352h-6.081c-0.866-6.798 3.042-13.549 9.746-15.99 7.772-2.829 16.397 1.192 19.226 8.964 1.697 4.664 6.872 7.076 11.535 5.379 4.271-1.555 6.652-6.028 5.718-10.352z"></path>
</svg>
