<!-- Generated by IcoMoon.io -->
<svg version="1.1" xmlns="http://www.w3.org/2000/svg" width="120" height="96" viewBox="0 0 120 96">
<title>connection</title>
<path d="M60 54c9.925 0 18.925 4.037 25.444 10.556l-8.481 8.481c-4.346-4.346-10.346-7.037-16.963-7.037s-12.617 2.692-16.963 7.037l-8.481-8.481c6.519-6.519 15.519-10.556 25.444-10.556zM17.574 47.574c11.332-11.333 26.4-17.574 42.426-17.574s31.094 6.241 42.427 17.574l-8.485 8.485c-9.066-9.066-21.12-14.059-33.941-14.059s-24.875 4.993-33.941 14.059l-8.485-8.485zM92.698 12.604c10.003 4.231 18.986 10.287 26.698 18v0l-8.485 8.485c-13.599-13.599-31.68-21.088-50.912-21.088s-37.313 7.489-50.912 21.088l-8.485-8.485c7.713-7.712 16.695-13.768 26.698-17.999 10.36-4.382 21.361-6.604 32.698-6.604s22.339 2.222 32.698 6.604zM54 84c0-3.314 2.686-6 6-6s6 2.686 6 6c0 3.314-2.686 6-6 6s-6-2.686-6-6z"></path>
</svg>
