<!-- Generated by IcoMoon.io -->
<svg version="1.1" xmlns="http://www.w3.org/2000/svg" width="96" height="96" viewBox="0 0 96 96">
<title>cool2</title>
<path d="M48 0c-26.51 0-48 21.49-48 48s21.49 48 48 48c26.51 0 48-21.49 48-48s-21.49-48-48-48zM48 78c-4.543 0-8.849-1.012-12.707-2.82l3.109-5.182c2.94 1.285 6.184 2.002 9.598 2.002 8.738 0 16.385-4.67 20.582-11.651l5.145 3.088c-5.247 8.725-14.804 14.564-25.727 14.564zM78 36c0 3.3-2.7 6-6 6h-12c-3.3 0-6-2.7-6-6h-12c0 3.3-2.7 6-6 6h-12c-3.3 0-6-2.7-6-6v-9c0-1.65 1.35-3 3-3h18c1.65 0 3 1.35 3 3v3h12v-3c0-1.65 1.35-3 3-3h18c1.65 0 3 1.35 3 3v9z"></path>
</svg>
