<!-- Generated by IcoMoon.io -->
<svg version="1.1" xmlns="http://www.w3.org/2000/svg" width="96" height="96" viewBox="0 0 96 96">
<title>cool</title>
<path d="M48 96c26.51 0 48-21.49 48-48s-21.49-48-48-48-48 21.49-48 48 21.49 48 48 48zM48 9c21.539 0 39 17.461 39 39s-17.461 39-39 39-39-17.461-39-39 17.461-39 39-39zM75 24c1.65 0 3 1.35 3 3v9c0 3.3-2.7 6-6 6h-12c-3.3 0-6-2.7-6-6h-12c0 3.3-2.7 6-6 6h-12c-3.3 0-6-2.7-6-6v-9c0-1.65 1.35-3 3-3h18c1.65 0 3 1.35 3 3v3h12v-3c0-1.65 1.35-3 3-3h18zM48 72c8.738 0 16.385-4.67 20.582-11.651l5.145 3.088c-5.247 8.725-14.805 14.564-25.727 14.564-4.543 0-8.849-1.012-12.707-2.82l3.109-5.182c2.939 1.286 6.184 2.002 9.598 2.002z"></path>
</svg>
