<!-- Generated by IcoMoon.io -->
<svg version="1.1" xmlns="http://www.w3.org/2000/svg" width="96" height="96" viewBox="0 0 96 96">
<title>cross</title>
<path d="M95.125 77.124c-0-0-0.001-0.001-0.001-0.001l-29.123-29.123 29.123-29.123c0-0 0.001-0.001 0.001-0.001 0.314-0.314 0.54-0.68 0.686-1.070 0.398-1.067 0.171-2.314-0.687-3.172l-13.757-13.757c-0.858-0.857-2.105-1.084-3.171-0.686-0.39 0.145-0.757 0.372-1.070 0.685 0 0-0 0.001-0.001 0.001l-29.123 29.124-29.123-29.123c-0-0-0.001-0.001-0.001-0.001-0.314-0.313-0.68-0.54-1.070-0.685-1.067-0.398-2.314-0.171-3.172 0.686l-13.758 13.758c-0.858 0.858-1.085 2.105-0.686 3.171 0.145 0.39 0.372 0.757 0.685 1.070 0 0 0.001 0.001 0.001 0.001l29.123 29.123-29.123 29.124c-0 0-0.001 0.001-0.001 0.001-0.313 0.314-0.54 0.68-0.686 1.070-0.398 1.066-0.171 2.314 0.686 3.172l13.758 13.757c0.858 0.858 2.105 1.084 3.172 0.686 0.39-0.145 0.757-0.372 1.070-0.686 0-0 0.001-0.001 0.001-0.001l29.123-29.123 29.123 29.123c0 0 0.001 0.001 0.001 0.001 0.314 0.314 0.68 0.54 1.070 0.686 1.067 0.398 2.314 0.171 3.171-0.686l13.757-13.758c0.858-0.858 1.085-2.105 0.687-3.172-0.145-0.39-0.372-0.756-0.686-1.070z"></path>
</svg>
