<!-- Generated by IcoMoon.io -->
<svg version="1.1" xmlns="http://www.w3.org/2000/svg" width="96" height="96" viewBox="0 0 96 96">
<title>crying2</title>
<path d="M48 0c-26.51 0-48 21.49-48 48s21.49 48 48 48 48-21.49 48-48-21.49-48-48-48zM30 69c0 1.657-1.343 3-3 3s-3-1.343-3-3v-6c0-1.657 1.343-3 3-3s3 1.343 3 3v6zM30 51c0 1.657-1.343 3-3 3s-3-1.343-3-3v-6c0-1.657 1.343-3 3-3s3 1.343 3 3v6zM33 36h-12c-1.657 0-3-1.343-3-3s1.343-3 3-3h12c1.657 0 3 1.343 3 3s-1.343 3-3 3zM59.121 79.371c-0.586 0.586-1.353 0.879-2.121 0.879s-1.535-0.293-2.121-0.879c-0.43-0.43-2.758-1.371-6.879-1.371s-6.449 0.942-6.879 1.371c-1.172 1.172-3.071 1.172-4.243 0s-1.172-3.071 0-4.243c2.824-2.824 8.718-3.129 11.121-3.129s8.297 0.305 11.121 3.129c1.172 1.171 1.172 3.071 0 4.242zM72 69c0 1.657-1.343 3-3 3s-3-1.343-3-3v-6c0-1.657 1.343-3 3-3s3 1.343 3 3v6zM72 51c0 1.657-1.343 3-3 3s-3-1.343-3-3v-6c0-1.657 1.343-3 3-3s3 1.343 3 3v6zM75 36h-12c-1.657 0-3-1.343-3-3s1.343-3 3-3h12c1.657 0 3 1.343 3 3s-1.343 3-3 3z"></path>
</svg>
