<!-- Generated by IcoMoon.io -->
<svg version="1.1" xmlns="http://www.w3.org/2000/svg" width="96" height="96" viewBox="0 0 96 96">
<title>crying</title>
<path d="M48 96c26.51 0 48-21.49 48-48s-21.49-48-48-48-48 21.49-48 48 21.49 48 48 48zM48 9c21.539 0 39 17.461 39 39s-17.461 39-39 39-39-17.461-39-39 17.461-39 39-39z"></path>
<path d="M75 36h-12c-1.657 0-3-1.343-3-3s1.343-3 3-3h12c1.657 0 3 1.343 3 3s-1.343 3-3 3z"></path>
<path d="M33 36h-12c-1.657 0-3-1.343-3-3s1.343-3 3-3h12c1.657 0 3 1.343 3 3s-1.343 3-3 3z"></path>
<path d="M57 80.25c-0.768 0-1.535-0.293-2.121-0.879-0.43-0.43-2.758-1.371-6.879-1.371s-6.449 0.942-6.879 1.371c-1.172 1.172-3.071 1.172-4.243 0s-1.172-3.071 0-4.243c2.824-2.824 8.718-3.129 11.121-3.129s8.297 0.305 11.121 3.129c1.172 1.171 1.172 3.071 0 4.243-0.586 0.586-1.353 0.879-2.121 0.879z"></path>
<path d="M69 54c-1.657 0-3-1.343-3-3v-6c0-1.657 1.343-3 3-3s3 1.343 3 3v6c0 1.657-1.343 3-3 3z"></path>
<path d="M69 72c-1.657 0-3-1.343-3-3v-6c0-1.657 1.343-3 3-3s3 1.343 3 3v6c0 1.657-1.343 3-3 3z"></path>
<path d="M27 54c-1.657 0-3-1.343-3-3v-6c0-1.657 1.343-3 3-3s3 1.343 3 3v6c0 1.657-1.343 3-3 3z"></path>
<path d="M27 72c-1.657 0-3-1.343-3-3v-6c0-1.657 1.343-3 3-3s3 1.343 3 3v6c0 1.657-1.343 3-3 3z"></path>
</svg>
