<!-- Generated by IcoMoon.io -->
<svg version="1.1" xmlns="http://www.w3.org/2000/svg" width="96" height="96" viewBox="0 0 96 96">
<title>database</title>
<path d="M48 0c-26.51 0-48 6.716-48 15v12c0 8.284 21.49 15 48 15s48-6.716 48-15v-12c0-8.284-21.49-15-48-15z"></path>
<path d="M48 51c-26.51 0-48-6.716-48-15v18c0 8.284 21.49 15 48 15s48-6.716 48-15v-18c0 8.284-21.49 15-48 15z"></path>
<path d="M48 78c-26.51 0-48-6.716-48-15v18c0 8.284 21.49 15 48 15s48-6.716 48-15v-18c0 8.284-21.49 15-48 15z"></path>
</svg>
