<!-- Generated by IcoMoon.io -->
<svg version="1.1" xmlns="http://www.w3.org/2000/svg" width="96" height="96" viewBox="0 0 96 96">
<title>dice</title>
<path d="M81 18h-48c-8.25 0-15 6.75-15 15v48c0 8.25 6.75 15 15 15h48c8.25 0 15-6.75 15-15v-48c0-8.25-6.75-15-15-15zM39 84c-4.971 0-9-4.029-9-9s4.029-9 9-9 9 4.029 9 9-4.029 9-9 9zM39 48c-4.971 0-9-4.029-9-9s4.029-9 9-9 9 4.029 9 9-4.029 9-9 9zM57 66c-4.971 0-9-4.029-9-9s4.029-9 9-9 9 4.029 9 9-4.029 9-9 9zM75 84c-4.971 0-9-4.029-9-9s4.029-9 9-9 9 4.029 9 9-4.029 9-9 9zM75 48c-4.971 0-9-4.029-9-9s4.029-9 9-9 9 4.029 9 9-4.029 9-9 9zM77.696 12c-1.4-6.825-7.473-12-14.696-12h-48c-8.25 0-15 6.75-15 15v48c0 7.223 5.175 13.297 12 14.696v-59.696c0-3.3 2.7-6 6-6h59.696z"></path>
</svg>
