<!-- Generated by IcoMoon.io -->
<svg version="1.1" xmlns="http://www.w3.org/2000/svg" width="96" height="96" viewBox="0 0 96 96">
<title>dribbble</title>
<path d="M48 96c-26.475 0-48-21.525-48-48s21.525-48 48-48c26.475 0 48 21.525 48 48s-21.525 48-48 48v0zM88.481 54.563c-1.406-0.45-12.694-3.806-25.537-1.744 5.363 14.737 7.537 26.737 7.969 29.231 9.188-6.225 15.75-16.069 17.569-27.488v0zM64.012 85.8c-0.619-3.6-2.981-16.125-8.737-31.088-0.094 0.037-0.188 0.056-0.262 0.094-23.138 8.063-31.444 24.094-32.175 25.594 6.956 5.419 15.694 8.662 25.162 8.662 5.681 0 11.1-1.162 16.012-3.262v0zM17.531 75.469c0.938-1.594 12.188-20.213 33.319-27.056 0.525-0.169 1.069-0.337 1.613-0.487-1.031-2.325-2.156-4.669-3.319-6.956-20.456 6.131-40.331 5.869-42.131 5.85-0.019 0.413-0.019 0.825-0.019 1.256 0 10.519 3.994 20.137 10.538 27.394v0zM7.875 39.656c1.837 0.019 18.731 0.094 37.912-4.987-6.787-12.075-14.119-22.238-15.206-23.719-11.475 5.419-20.063 15.994-22.706 28.706v0zM38.4 8.194c1.125 1.519 8.587 11.663 15.3 24 14.587-5.456 20.756-13.762 21.488-14.812-7.238-6.431-16.762-10.331-27.188-10.331-3.3 0.019-6.525 0.413-9.6 1.144v0zM79.744 22.144c-0.863 1.163-7.744 9.975-22.894 16.163 0.956 1.95 1.875 3.938 2.719 5.944 0.3 0.713 0.6 1.406 0.881 2.119 13.65-1.706 27.206 1.031 28.556 1.313-0.094-9.675-3.563-18.563-9.263-25.538v0z"></path>
</svg>
