<!-- Generated by IcoMoon.io -->
<svg version="1.1" xmlns="http://www.w3.org/2000/svg" width="96" height="96" viewBox="0 0 96 96">
<title>droplet</title>
<path d="M81.059 44.359c-6.164-17.197-19.229-32.639-33.059-44.359-13.83 11.72-26.894 27.161-33.059 44.359-3.812 10.635-4.189 22.178 1.18 32.381 6.173 11.732 18.622 19.26 31.879 19.26s25.706-7.528 31.879-19.26c5.369-10.204 4.992-21.746 1.18-32.381zM69.259 71.152c-4.106 7.805-12.451 12.848-21.259 12.848-5.168 0-10.174-1.738-14.26-4.749 1.241 0.162 2.497 0.249 3.761 0.249 11.009 0 21.438-6.301 26.569-16.054 4.207-7.996 3.842-16.298 2.239-22.907 1.365 2.639 2.522 5.269 3.454 7.869 2.119 5.912 3.752 14.657-0.503 22.744z"></path>
</svg>
