<!-- Generated by IcoMoon.io -->
<svg version="1.1" xmlns="http://www.w3.org/2000/svg" width="96" height="96" viewBox="0 0 96 96">
<title>earth</title>
<path d="M48 0c-26.51 0-48 21.49-48 48s21.49 48 48 48 48-21.49 48-48-21.49-48-48-48zM48 90c-5.902 0-11.519-1.22-16.615-3.417l21.858-24.59c0.488-0.549 0.758-1.258 0.758-1.993v-9c0-1.657-1.343-3-3-3-10.593 0-21.769-11.012-21.879-11.121-0.563-0.563-1.326-0.879-2.121-0.879h-12c-1.657 0-3 1.343-3 3v18c0 1.136 0.642 2.175 1.658 2.683l10.342 5.171v17.614c-10.88-7.59-18-20.197-18-34.469 0-6.442 1.452-12.544 4.044-18h10.956c0.796 0 1.559-0.316 2.121-0.879l12-12c0.563-0.563 0.879-1.326 0.879-2.121v-7.257c3.803-1.132 7.83-1.743 12-1.743 6.601 0 12.844 1.524 18.401 4.237-0.388 0.328-0.766 0.672-1.129 1.035-3.4 3.4-5.272 7.92-5.272 12.728s1.872 9.328 5.272 12.728c3.416 3.416 7.989 5.275 12.716 5.274 0.297 0 0.595-0.008 0.892-0.022 1.295 4.856 3.633 17.499-0.788 34.906-0.042 0.163-0.065 0.327-0.079 0.49-7.624 7.789-18.253 12.624-30.013 12.624z"></path>
</svg>
