<!-- Generated by IcoMoon.io -->
<svg version="1.1" xmlns="http://www.w3.org/2000/svg" width="96" height="96" viewBox="0 0 96 96">
<title>edge</title>
<path d="M1.444 42.619c2.812-22.2 17.962-42.338 45.112-42.619 16.387 0.319 29.869 7.744 37.894 21.9 4.031 7.387 5.288 15.15 5.55 23.719v10.069h-60.244c0.281 24.844 36.563 24 52.181 13.050v20.231c-9.15 5.494-29.906 10.406-45.975 4.088-13.688-5.138-23.438-19.463-23.381-33.244-0.45-17.869 8.887-29.7 23.381-36.431-3.075 3.806-5.419 8.006-6.638 15.281h34.013c0 0 1.987-20.325-19.256-20.325-20.025 0.694-34.463 12.337-42.638 24.281v0z"></path>
</svg>
