<!-- Generated by IcoMoon.io -->
<svg version="1.1" xmlns="http://www.w3.org/2000/svg" width="96" height="96" viewBox="0 0 96 96">
<title>ello</title>
<path d="M48 0c-26.51 0-48 21.49-48 48s21.49 48 48 48 48-21.49 48-48-21.49-48-48-48zM77.31 55.275c-3.45 13.38-15.502 22.725-29.309 22.725s-25.861-9.346-29.311-22.727c-0.584-2.265 0.783-4.583 3.048-5.168 0.348-0.090 0.706-0.136 1.063-0.136 1.933 0 3.621 1.31 4.105 3.185 2.486 9.633 11.16 16.36 21.095 16.36s18.61-6.727 21.094-16.36c0.483-1.876 2.17-3.186 4.103-3.186 0.358 0 0.717 0.046 1.067 0.136 1.096 0.283 2.018 0.977 2.594 1.954s0.736 2.118 0.452 3.215z"></path>
</svg>
