<!-- Generated by IcoMoon.io -->
<svg version="1.1" xmlns="http://www.w3.org/2000/svg" width="96" height="96" viewBox="0 0 96 96">
<title>envelop</title>
<path d="M87 12h-78c-4.95 0-9 4.050-9 9v60c0 4.95 4.050 9 9 9h78c4.95 0 9-4.050 9-9v-60c0-4.95-4.050-9-9-9zM37.382 51.597l-25.382 19.771v-47.029l25.382 27.258zM16.536 24h62.929l-31.464 23.625-31.464-23.625zM38.371 52.659l9.629 10.341 9.629-10.341 19.739 25.341h-58.737l19.739-25.341zM58.618 51.597l25.382-27.258v47.029l-25.382-19.771z"></path>
</svg>
