<!-- Generated by IcoMoon.io -->
<svg version="1.1" xmlns="http://www.w3.org/2000/svg" width="96" height="96" viewBox="0 0 96 96">
<title>equalizer</title>
<path d="M42 12v-1.5c0-2.475-2.025-4.5-4.5-4.5h-15c-2.475 0-4.5 2.025-4.5 4.5v1.5h-18v12h18v1.5c0 2.475 2.025 4.5 4.5 4.5h15c2.475 0 4.5-2.025 4.5-4.5v-1.5h54v-12h-54zM24 24v-12h12v12h-12zM78 40.5c0-2.475-2.025-4.5-4.5-4.5h-15c-2.475 0-4.5 2.025-4.5 4.5v1.5h-54v12h54v1.5c0 2.475 2.025 4.5 4.5 4.5h15c2.475 0 4.5-2.025 4.5-4.5v-1.5h18v-12h-18v-1.5zM60 54v-12h12v12h-12zM42 70.5c0-2.475-2.025-4.5-4.5-4.5h-15c-2.475 0-4.5 2.025-4.5 4.5v1.5h-18v12h18v1.5c0 2.475 2.025 4.5 4.5 4.5h15c2.475 0 4.5-2.025 4.5-4.5v-1.5h54v-12h-54v-1.5zM24 84v-12h12v12h-12z"></path>
</svg>
