<!-- Generated by IcoMoon.io -->
<svg version="1.1" xmlns="http://www.w3.org/2000/svg" width="96" height="96" viewBox="0 0 96 96">
<title>equalizer2</title>
<path d="M84 42h1.5c2.475 0 4.5-2.025 4.5-4.5v-15c0-2.475-2.025-4.5-4.5-4.5h-1.5v-18h-12v18h-1.5c-2.475 0-4.5 2.025-4.5 4.5v15c0 2.475 2.025 4.5 4.5 4.5h1.5v54h12v-54zM72 24h12v12h-12v-12zM55.5 78c2.475 0 4.5-2.025 4.5-4.5v-15c0-2.475-2.025-4.5-4.5-4.5h-1.5v-54h-12v54h-1.5c-2.475 0-4.5 2.025-4.5 4.5v15c0 2.475 2.025 4.5 4.5 4.5h1.5v18h12v-18h1.5zM42 60h12v12h-12v-12zM25.5 42c2.475 0 4.5-2.025 4.5-4.5v-15c0-2.475-2.025-4.5-4.5-4.5h-1.5v-18h-12v18h-1.5c-2.475 0-4.5 2.025-4.5 4.5v15c0 2.475 2.025 4.5 4.5 4.5h1.5v54h12v-54h1.5zM12 24h12v12h-12v-12z"></path>
</svg>
