<!-- Generated by IcoMoon.io -->
<svg version="1.1" xmlns="http://www.w3.org/2000/svg" width="96" height="96" viewBox="0 0 96 96">
<title>evil2</title>
<path d="M96 6c0-4.267-0.893-8.325-2.499-12-3.148 7.203-9.042 12.931-16.359 15.86-8.081-6.184-18.182-9.86-29.143-9.86s-21.062 3.677-29.143 9.86c-7.317-2.929-13.211-8.657-16.359-15.86-1.606 3.675-2.499 7.733-2.499 12 0 6.898 2.33 13.25 6.243 18.317-3.972 6.988-6.243 15.070-6.243 23.683 0 26.51 21.49 48 48 48s48-21.49 48-48c0-8.613-2.27-16.695-6.243-23.683 3.913-5.067 6.243-11.419 6.243-18.317zM54.009 35.673c0.191-4.449 4.238-7.401 7.649-9.107 3.257-1.629 6.479-2.443 6.614-2.477 1.607-0.402 3.236 0.575 3.638 2.183s-0.575 3.236-2.183 3.638c-1.652 0.417-3.611 1.136-5.338 2.002 0.998 1.072 1.61 2.508 1.61 4.088 0 3.314-2.686 6-6 6s-6-2.686-6-6c0-0.11 0.004-0.219 0.009-0.327zM24.090 26.273c0.402-1.607 2.031-2.585 3.638-2.183 0.136 0.034 3.357 0.849 6.614 2.477 3.411 1.706 7.459 4.658 7.649 9.107 0.006 0.108 0.009 0.217 0.009 0.327 0 3.314-2.686 6-6 6s-6-2.686-6-6c0-1.58 0.612-3.017 1.61-4.088-1.726-0.865-3.685-1.584-5.338-2.002-1.607-0.402-2.584-2.031-2.183-3.638zM48 78c-10.923 0-20.481-5.838-25.727-14.564l7.718-4.631c3.673 6.108 10.363 10.194 18.009 10.194s14.337-4.087 18.009-10.194l7.718 4.631c-5.246 8.725-14.805 14.564-25.727 14.564z"></path>
</svg>
