<!-- Generated by IcoMoon.io -->
<svg version="1.1" xmlns="http://www.w3.org/2000/svg" width="96" height="96" viewBox="0 0 96 96">
<title>eye-plus</title>
<path d="M96 12h-12v-12h-12v12h-12v12h12v12h12v-12h12z"></path>
<path d="M80.987 41.815c1.728 1.92 3.299 3.987 4.69 6.185-3.59 5.674-8.369 10.493-14.010 14.090-7.087 4.52-15.271 6.91-23.667 6.91s-16.581-2.389-23.668-6.91c-5.64-3.597-10.419-8.416-14.009-14.090 3.59-5.674 8.369-10.493 14.009-14.090 0.367-0.234 0.738-0.461 1.112-0.684-0.934 2.562-1.445 5.327-1.445 8.212 0 13.255 10.745 24 24 24s24-10.745 24-24c0-0.065-0.002-0.129-0.002-0.194-10.245-2.638-17.84-11.872-17.994-22.904-1.971-0.223-3.974-0.339-6.004-0.339-20.936 0-39.083 12.191-48 30 8.917 17.809 27.064 30 48 30s39.082-12.191 48-30c-1.654-3.303-3.626-6.412-5.873-9.286-2.745 1.61-5.838 2.692-9.139 3.101zM39 30c4.971 0 9 4.030 9 9s-4.029 9-9 9-9-4.029-9-9 4.029-9 9-9z"></path>
</svg>
