<!-- Generated by IcoMoon.io -->
<svg version="1.1" xmlns="http://www.w3.org/2000/svg" width="96" height="96" viewBox="0 0 96 96">
<title>eye-blocked</title>
<path d="M88.682 1.318c-1.757-1.757-4.606-1.757-6.364 0l-18.953 18.953c-4.869-1.477-10.026-2.271-15.365-2.271-20.936 0-39.083 12.191-48 30 3.855 7.699 9.436 14.347 16.221 19.415l-14.903 14.903c-1.757 1.757-1.757 4.606 0 6.364 0.879 0.879 2.030 1.318 3.182 1.318s2.303-0.439 3.182-1.318l81-81c1.757-1.757 1.757-4.607 0-6.364zM39 30c3.96 0 7.32 2.559 8.524 6.112l-11.412 11.412c-3.553-1.204-6.112-4.564-6.112-8.524 0-4.971 4.029-9 9-9zM10.323 48c3.59-5.674 8.369-10.493 14.009-14.090 0.367-0.234 0.738-0.461 1.112-0.684-0.934 2.562-1.445 5.327-1.445 8.212 0 5.146 1.621 9.913 4.378 13.82l-5.712 5.712c-4.917-3.454-9.113-7.864-12.343-12.97z"></path>
<path d="M72 41.438c0-2.547-0.399-5-1.135-7.303l-30.169 30.169c2.303 0.735 4.757 1.133 7.304 1.133 13.255 0 24-10.745 24-24z"></path>
<path d="M77.815 27.185l-6.503 6.503c0.118 0.074 0.237 0.147 0.355 0.222 5.64 3.598 10.42 8.416 14.009 14.090-3.59 5.674-8.369 10.493-14.010 14.090-7.087 4.52-15.271 6.91-23.667 6.91-3.625 0-7.21-0.446-10.684-1.316l-7.209 7.209c5.599 2.012 11.62 3.107 17.893 3.107 20.935 0 39.082-12.191 48-30-4.221-8.43-10.511-15.6-18.185-20.815z"></path>
</svg>
