<!-- Generated by IcoMoon.io -->
<svg version="1.1" xmlns="http://www.w3.org/2000/svg" width="96" height="96" viewBox="0 0 96 96">
<title>eye</title>
<path d="M48 18c-20.936 0-39.083 12.191-48 30 8.917 17.809 27.064 30 48 30s39.082-12.191 48-30c-8.917-17.809-27.064-30-48-30zM71.667 33.91c5.64 3.598 10.42 8.416 14.009 14.090-3.59 5.674-8.369 10.493-14.010 14.090-7.087 4.52-15.271 6.91-23.667 6.91s-16.58-2.389-23.667-6.91c-5.64-3.597-10.419-8.416-14.009-14.090 3.59-5.674 8.369-10.493 14.009-14.090 0.367-0.234 0.738-0.461 1.112-0.684-0.934 2.562-1.445 5.327-1.445 8.212 0 13.255 10.745 24 24 24s24-10.745 24-24c0-2.885-0.511-5.65-1.445-8.212 0.373 0.223 0.744 0.45 1.112 0.685v0zM48 39c0 4.971-4.029 9-9 9s-9-4.029-9-9 4.029-9 9-9 9 4.030 9 9z"></path>
</svg>
