<!-- Generated by IcoMoon.io -->
<svg version="1.1" xmlns="http://www.w3.org/2000/svg" width="96" height="96" viewBox="0 0 96 96">
<title>eyedropper</title>
<path d="M92.485 3.515c-4.686-4.686-12.284-4.686-16.971 0l-16.136 16.136-11.379-11.379-12.728 12.728 9.977 9.977-44.261 44.261c-0.754 0.754-1.075 1.777-0.966 2.761h-0.023v15c0 1.657 1.343 3 3 3h15c0 0 0.25 0 0.375 0 0.864 0 1.727-0.33 2.386-0.989l44.261-44.261 9.977 9.977 12.728-12.728-11.379-11.379 16.136-16.136c4.686-4.686 4.686-12.284 0-16.971zM16.227 90h-10.227v-10.227l44.023-44.022 10.227 10.227-44.022 44.023z"></path>
</svg>
