<!-- Generated by IcoMoon.io -->
<svg version="1.1" xmlns="http://www.w3.org/2000/svg" width="96" height="96" viewBox="0 0 96 96">
<title>feed</title>
<path d="M36 48c0-6.627 5.373-12 12-12s12 5.373 12 12c0 6.627-5.373 12-12 12s-12-5.373-12-12zM62.283 21.612c9.361 5.077 15.717 14.99 15.717 26.388s-6.356 21.311-15.717 26.388c4.131-6.574 6.717-15.963 6.717-26.388s-2.586-19.814-6.717-26.388zM27 48c0 10.425 2.586 19.814 6.717 26.388-9.361-5.077-15.717-14.99-15.717-26.388s6.356-21.311 15.717-26.388c-4.131 6.574-6.717 15.963-6.717 26.388zM9 48c0 16.116 5.1 30.58 13.186 40.474-13.341-8.526-22.186-23.467-22.186-40.474s8.845-31.948 22.186-40.474c-8.086 9.894-13.186 24.358-13.186 40.474zM73.814 7.526c13.34 8.526 22.186 23.467 22.186 40.474s-8.845 31.948-22.186 40.474c8.085-9.894 13.186-24.358 13.186-40.474s-5.1-30.58-13.186-40.474z"></path>
</svg>
