<!-- Generated by IcoMoon.io -->
<svg version="1.1" xmlns="http://www.w3.org/2000/svg" width="96" height="96" viewBox="0 0 96 96">
<title>file-pdf</title>
<path d="M78.939 55.264c-1.28-1.261-4.117-1.928-8.435-1.985-2.923-0.032-6.441 0.225-10.141 0.743-1.657-0.956-3.365-1.996-4.705-3.249-3.606-3.367-6.616-8.041-8.492-13.181 0.122-0.48 0.226-0.902 0.323-1.332 0 0 2.031-11.537 1.494-15.437-0.074-0.535-0.12-0.69-0.263-1.106l-0.176-0.453c-0.553-1.274-1.636-2.624-3.334-2.551l-1.023-0.032c-1.894 0-3.437 0.969-3.842 2.416-1.232 4.541 0.039 11.334 2.342 20.132l-0.59 1.433c-1.649 4.020-3.715 8.068-5.539 11.64l-0.237 0.464c-1.918 3.754-3.659 6.94-5.236 9.64l-1.629 0.861c-0.119 0.063-2.91 1.539-3.565 1.935-5.555 3.317-9.237 7.082-9.847 10.070-0.194 0.953-0.050 2.174 0.939 2.739l1.576 0.793c0.684 0.342 1.404 0.516 2.143 0.516 3.957 0 8.55-4.929 14.878-15.972 7.306-2.378 15.624-4.355 22.914-5.446 5.555 3.128 12.388 5.301 16.701 5.301 0.766 0 1.426-0.073 1.962-0.215 0.827-0.219 1.524-0.691 1.949-1.331 0.837-1.259 1.006-2.994 0.779-4.77-0.068-0.527-0.488-1.179-0.944-1.624zM19.842 76.317c0.722-1.973 3.577-5.873 7.801-9.333 0.265-0.215 0.919-0.828 1.518-1.397-4.416 7.043-7.373 9.85-9.319 10.73zM44.853 18.721c1.272 0 1.995 3.206 2.055 6.211s-0.643 5.115-1.515 6.676c-0.722-2.311-1.071-5.953-1.071-8.335 0 0-0.053-4.552 0.531-4.552v0zM37.392 59.765c0.886-1.586 1.808-3.258 2.75-5.032 2.296-4.342 3.746-7.74 4.826-10.532 2.148 3.908 4.823 7.23 7.967 9.892 0.392 0.332 0.808 0.666 1.245 0.998-6.395 1.265-11.922 2.804-16.788 4.675v0zM77.71 59.405c-0.389 0.244-1.505 0.384-2.223 0.384-2.316 0-5.182-1.059-9.199-2.781 1.544-0.114 2.959-0.172 4.228-0.172 2.323 0 3.011-0.010 5.283 0.569s2.3 1.756 1.911 2v0z"></path>
<path d="M86.044 21.476c-2.082-2.84-4.985-6.159-8.173-9.347s-6.507-6.090-9.347-8.173c-4.835-3.546-7.181-3.956-8.524-3.956h-46.5c-4.136 0-7.5 3.365-7.5 7.5v81c0 4.135 3.364 7.5 7.5 7.5h69c4.135 0 7.5-3.365 7.5-7.5v-58.5c0-1.344-0.41-3.689-3.956-8.524v0zM73.629 16.371c2.878 2.878 5.137 5.475 6.804 7.629h-14.433v-14.432c2.155 1.667 4.751 3.926 7.629 6.804v0zM84 88.5c0 0.813-0.687 1.5-1.5 1.5h-69c-0.813 0-1.5-0.687-1.5-1.5v-81c0-0.813 0.687-1.5 1.5-1.5 0 0 46.496-0 46.5 0v21c0 1.657 1.343 3 3 3h21v58.5z"></path>
</svg>
