<!-- Generated by IcoMoon.io -->
<svg version="1.1" xmlns="http://www.w3.org/2000/svg" width="96" height="96" viewBox="0 0 96 96">
<title>file-music</title>
<path d="M86.044 21.476c-2.082-2.84-4.985-6.159-8.173-9.347s-6.507-6.090-9.347-8.173c-4.835-3.546-7.181-3.956-8.524-3.956h-46.5c-4.136 0-7.5 3.365-7.5 7.5v81c0 4.135 3.364 7.5 7.5 7.5h69c4.135 0 7.5-3.365 7.5-7.5v-58.5c0-1.344-0.41-3.689-3.956-8.524v0zM73.629 16.371c2.878 2.878 5.137 5.475 6.804 7.629h-14.433v-14.432c2.155 1.667 4.751 3.926 7.629 6.804v0zM84 88.5c0 0.813-0.687 1.5-1.5 1.5h-69c-0.813 0-1.5-0.687-1.5-1.5v-81c0-0.813 0.687-1.5 1.5-1.5 0 0 46.496-0 46.5 0v21c0 1.657 1.343 3 3 3h21v58.5z"></path>
<path d="M70.902 36.68c-0.695-0.57-1.609-0.798-2.49-0.622l-30 6c-1.402 0.281-2.412 1.512-2.412 2.942v22.207c-1.766-0.766-3.814-1.207-6-1.207-6.627 0-12 4.029-12 9s5.373 9 12 9 12-4.029 12-9v-21.541l24-4.8v12.548c-1.766-0.766-3.814-1.207-6-1.207-6.627 0-12 4.029-12 9s5.373 9 12 9 12-4.029 12-9v-30c0-0.899-0.403-1.75-1.098-2.32z"></path>
</svg>
