<!-- Generated by IcoMoon.io -->
<svg version="1.1" xmlns="http://www.w3.org/2000/svg" width="96" height="96" viewBox="0 0 96 96">
<title>file-zip</title>
<path d="M86.044 21.476c-2.082-2.84-4.985-6.159-8.173-9.347s-6.507-6.090-9.347-8.173c-4.835-3.546-7.181-3.956-8.524-3.956h-46.5c-4.136 0-7.5 3.365-7.5 7.5v81c0 4.135 3.364 7.5 7.5 7.5h69c4.135 0 7.5-3.365 7.5-7.5v-58.5c0-1.344-0.41-3.689-3.956-8.524v0 0zM73.629 16.371c2.878 2.878 5.137 5.475 6.804 7.629h-14.433v-14.432c2.154 1.667 4.751 3.926 7.629 6.804v0 0zM84 88.5c0 0.813-0.687 1.5-1.5 1.5h-69c-0.813 0-1.5-0.687-1.5-1.5v-81c0-0.813 0.687-1.5 1.5-1.5 0 0 46.496-0 46.5 0v21c0 1.657 1.343 3 3 3h21v58.5z"></path>
<path d="M24 6h12v6h-12v-6z"></path>
<path d="M36 12h12v6h-12v-6z"></path>
<path d="M24 18h12v6h-12v-6z"></path>
<path d="M36 24h12v6h-12v-6z"></path>
<path d="M24 30h12v6h-12v-6z"></path>
<path d="M36 36h12v6h-12v-6z"></path>
<path d="M24 42h12v6h-12v-6z"></path>
<path d="M36 48h12v6h-12v-6z"></path>
<path d="M24 79.5c0 2.475 2.025 4.5 4.5 4.5h15c2.475 0 4.5-2.025 4.5-4.5v-15c0-2.475-2.025-4.5-4.5-4.5h-7.5v-6h-12v25.5zM42 72v6h-12v-6h12z"></path>
</svg>
