<!-- Generated by IcoMoon.io -->
<svg version="1.1" xmlns="http://www.w3.org/2000/svg" width="96" height="96" viewBox="0 0 96 96">
<title>file-openoffice</title>
<path d="M64.708 44.22c-5.688-2.686-12.935-3.227-18.266 0.567 6.482-0.619 13.59 0.454 18.291 5.355 4.5-5.164 11.636-6.132 18.090-5.6-5.389-3.576-12.489-3.096-18.115-0.322v0zM62.404 56.789c-6.41-0.148-12.603 2.172-17.916 5.635-10.048-4.274-22.757-3.48-31.313 3.655 2.468-0.088 4.876-0.698 7.318-1.012 8.923-0.889 18.43 1.326 25.173 7.483 2.791-4.082 6.717-7.335 11.217-9.368 5.913-2.861 12.577-3.158 19.014-3.236-3.908-2.686-8.87-3.183-13.494-3.157z"></path>
<path d="M86.044 21.476c-2.082-2.84-4.985-6.159-8.173-9.347s-6.507-6.090-9.347-8.173c-4.835-3.546-7.181-3.956-8.524-3.956h-46.5c-4.136 0-7.5 3.365-7.5 7.5v81c0 4.135 3.364 7.5 7.5 7.5h69c4.135 0 7.5-3.365 7.5-7.5v-58.5c0-1.344-0.41-3.689-3.956-8.524v0zM73.629 16.371c2.878 2.878 5.137 5.475 6.804 7.629h-14.433v-14.432c2.155 1.667 4.751 3.926 7.629 6.804v0zM84 88.5c0 0.813-0.687 1.5-1.5 1.5h-69c-0.813 0-1.5-0.687-1.5-1.5v-81c0-0.813 0.687-1.5 1.5-1.5 0 0 46.496-0 46.5 0v21c0 1.657 1.343 3 3 3h21v58.5z"></path>
</svg>
