<!-- Generated by IcoMoon.io -->
<svg version="1.1" xmlns="http://www.w3.org/2000/svg" width="96" height="96" viewBox="0 0 96 96">
<title>files-empty</title>
<path d="M86.044 33.476c-2.082-2.84-4.985-6.159-8.173-9.347s-6.507-6.090-9.347-8.173c-4.835-3.546-7.181-3.956-8.524-3.956h-34.5c-4.136 0-7.5 3.364-7.5 7.5v69c0 4.135 3.364 7.5 7.5 7.5h57c4.135 0 7.5-3.365 7.5-7.5v-46.5c0-1.344-0.41-3.689-3.956-8.524zM73.629 28.371c2.878 2.878 5.137 5.475 6.804 7.629h-14.433v-14.432c2.155 1.667 4.751 3.926 7.629 6.804v0zM84 88.5c0 0.813-0.687 1.5-1.5 1.5h-57c-0.813 0-1.5-0.687-1.5-1.5v-69c0-0.813 0.687-1.5 1.5-1.5 0 0 34.496-0 34.5 0v21c0 1.657 1.343 3 3 3h21v46.5z"></path>
<path d="M56.524 3.956c-4.835-3.546-7.18-3.956-8.524-3.956h-34.5c-4.136 0-7.5 3.364-7.5 7.5v69c0 3.622 2.581 6.652 6 7.349v-76.349c0-0.813 0.687-1.5 1.5-1.5h45.645c-0.904-0.742-1.784-1.431-2.62-2.044z"></path>
</svg>
