<!-- Generated by IcoMoon.io -->
<svg version="1.1" xmlns="http://www.w3.org/2000/svg" width="96" height="96" viewBox="0 0 96 96">
<title>filter</title>
<path d="M48 0c-26.51 0-48 6.716-48 15v9l36 36v30c0 3.314 5.372 6 12 6s12-2.686 12-6v-30l36-36v-9c0-8.284-21.49-15-48-15zM8.848 13.015c2.245-1.28 5.398-2.496 9.12-3.514 8.245-2.257 18.91-3.5 30.032-3.5s21.787 1.243 30.032 3.5c3.721 1.019 6.875 2.234 9.12 3.514 1.481 0.844 2.28 1.559 2.653 1.985-0.372 0.427-1.172 1.141-2.653 1.985-2.245 1.28-5.398 2.496-9.12 3.514-8.245 2.257-18.91 3.5-30.032 3.5s-21.787-1.243-30.032-3.5c-3.721-1.019-6.875-2.234-9.12-3.514-1.481-0.845-2.28-1.559-2.653-1.985 0.373-0.427 1.172-1.141 2.653-1.985z"></path>
</svg>
