<!-- Generated by IcoMoon.io -->
<svg version="1.1" xmlns="http://www.w3.org/2000/svg" width="96" height="96" viewBox="0 0 96 96">
<title>finder</title>
<path d="M53.365 72.962c-0-0.004-0-0.008-0-0.012 0 0.004 0 0.008 0 0.012z"></path>
<path d="M53.493 76.363c-0.001-0.022-0.002-0.044-0.003-0.066 0.001 0.022 0.002 0.044 0.003 0.066z"></path>
<path d="M53.42 74.654c-0.001-0.017-0.001-0.033-0.002-0.050 0.001 0.017 0.001 0.034 0.002 0.050z"></path>
<path d="M90 0h-84c-3.3 0-6 2.7-6 6v84c0 3.3 2.7 6 6 6h46.297c0.004 0 0.008 0.001 0.012 0.001s0.008-0.001 0.012-0.001h37.679c3.3 0 6-2.7 6-6v-84c0-3.3-2.7-6-6-6zM18 21c0-1.657 1.343-3 3-3s3 1.343 3 3v6c0 1.657-1.343 3-3 3s-3-1.343-3-3v-6zM90 90h-35.162c-0.628-3.945-1.022-8.013-1.255-11.963 0.001 0.011 0.001 0.021 0.002 0.032-1.846 0.201-3.71 0.306-5.585 0.306-12.53 0-24.598-4.561-33.983-12.844-1.397-1.233-1.531-3.366-0.297-4.764s3.366-1.531 4.764-0.297c8.15 7.193 18.633 11.155 29.516 11.155 1.789 0 3.567-0.109 5.327-0.32-0.206-11.081 0.645-19.867 0.659-20.007 0.084-0.843-0.192-1.683-0.761-2.311s-1.376-0.987-2.224-0.987h-8.923c0.13-3.245 0.476-8.795 1.402-15.018 1.768-11.884 4.874-21.166 9.014-26.982h37.506v84z"></path>
<path d="M75 30c-1.657 0-3-1.343-3-3v-6c0-1.657 1.343-3 3-3s3 1.343 3 3v6c0 1.657-1.343 3-3 3z"></path>
<path d="M50.671 78.303c-0.342 0.018-0.684 0.031-1.027 0.043 0.343-0.011 0.685-0.025 1.027-0.043z"></path>
<path d="M48 78.375c0.44 0 0.879-0.007 1.317-0.018-0.438 0.011-0.877 0.018-1.317 0.018z"></path>
<path d="M50.538 71.55c0.074-0.004 0.147-0.008 0.221-0.012-0.073 0.005-0.147 0.008-0.221 0.012z"></path>
<path d="M49.227 71.606c0.101-0.003 0.201-0.007 0.302-0.010-0.101 0.004-0.201 0.008-0.302 0.010z"></path>
<path d="M82.28 60.767c-1.233-1.398-3.366-1.53-4.764-0.297-6.81 6.011-15.249 9.763-24.19 10.835 0.040 2.182 0.121 4.453 0.258 6.765 10.496-1.145 20.417-5.495 28.398-12.539 1.398-1.233 1.531-3.366 0.297-4.764z"></path>
<path d="M53.578 78.070c-0.432 0.047-0.865 0.088-1.298 0.124 0.434-0.036 0.867-0.077 1.298-0.124z"></path>
<path d="M52.077 78.21c-0.366 0.029-0.733 0.054-1.101 0.076 0.367-0.021 0.734-0.047 1.101-0.076z"></path>
</svg>
