<!-- Generated by IcoMoon.io -->
<svg version="1.1" xmlns="http://www.w3.org/2000/svg" width="96" height="96" viewBox="0 0 96 96">
<title>firefox</title>
<path d="M95.862 31.326l-1.112 7.132c0 0-1.589-13.205-3.537-18.142-2.986-7.565-4.314-7.504-4.323-7.493 2 5.082 1.637 7.812 1.637 7.812s-3.543-9.656-12.91-12.728c-10.377-3.401-15.991-2.472-16.64-2.296-0.098-0.001-0.193-0.001-0.284-0.001 0.077 0.006 0.151 0.014 0.227 0.020-0.003 0.002-0.008 0.004-0.008 0.005 0.042 0.051 11.466 1.997 13.492 4.781 0 0-4.852 0-9.682 1.391-0.218 0.062 17.768 2.247 21.445 20.219 0 0-1.972-4.113-4.41-4.812 1.604 4.878 1.192 14.135-0.335 18.736-0.197 0.592-0.397-2.558-3.406-3.914 0.964 6.904-0.058 17.855-4.848 20.872-0.373 0.235 3.003-10.81 0.679-6.54-13.379 20.513-29.194 9.466-36.304 4.604 3.644 0.793 10.561-0.124 13.623-2.401 0.004-0.003 0.007-0.005 0.011-0.008 3.325-2.274 5.294-3.934 7.063-3.541 1.769 0.395 2.947-1.381 1.573-2.956-1.376-1.579-4.717-3.748-9.237-2.566-3.188 0.835-7.138 4.361-13.167 0.79-4.628-2.742-5.064-5.020-5.105-6.598 0.114-0.559 0.258-1.082 0.429-1.559 0.533-1.488 2.148-1.937 3.046-2.291 1.524 0.262 2.837 0.737 4.216 1.444 0.018-0.459 0.024-1.068-0.002-1.759 0.132-0.263 0.050-1.055-0.161-2.023-0.122-0.966-0.321-1.966-0.633-2.877 0.001-0 0.002-0.001 0.003-0.001 0.005-0.002 0.010-0.004 0.015-0.007 0.007-0.004 0.014-0.011 0.020-0.018 0.001-0.002 0.003-0.003 0.004-0.005 0.008-0.012 0.014-0.026 0.019-0.044 0.096-0.433 1.127-1.268 2.411-2.166 1.151-0.804 2.503-1.659 3.569-2.321 0.943-0.586 1.661-1.020 1.814-1.134 0.058-0.044 0.127-0.095 0.203-0.153 0.014-0.011 0.028-0.022 0.043-0.033 0.009-0.007 0.018-0.014 0.027-0.021 0.507-0.404 1.264-1.167 1.423-2.773 0-0.004 0.001-0.008 0.001-0.011 0.005-0.047 0.009-0.095 0.012-0.144 0.003-0.034 0.005-0.068 0.007-0.103 0.001-0.027 0.003-0.053 0.004-0.080 0.003-0.063 0.005-0.128 0.006-0.194 0-0.004 0-0.007 0-0.011 0.002-0.155-0.001-0.317-0.010-0.488-0.005-0.095-0.012-0.181-0.028-0.259-0.001-0.004-0.002-0.009-0.003-0.013-0.002-0.008-0.003-0.015-0.005-0.023-0.003-0.014-0.007-0.027-0.011-0.040-0.001-0.002-0.001-0.003-0.002-0.004-0.005-0.015-0.011-0.029-0.016-0.043-0-0.001-0-0.001-0.001-0.002-0.164-0.385-0.78-0.53-3.323-0.574-0.002-0-0.005-0-0.007-0v0c-1.037-0.018-2.394-0.018-4.172-0.011-3.117 0.013-4.84-3.047-5.39-4.231 0.754-4.168 2.932-7.138 6.511-9.152 0.068-0.038 0.054-0.070-0.026-0.092 0.7-0.423-8.461-0.012-12.674 5.347-3.739-0.929-6.999-0.867-9.808-0.208-0.539-0.015-1.212-0.082-2.009-0.249-1.868-1.693-4.542-4.819-4.685-8.551 0 0-0.009 0.007-0.024 0.019-0.002-0.036-0.005-0.071-0.007-0.107 0 0-5.692 4.375-4.84 16.301-0.002 0.191-0.006 0.374-0.011 0.551-1.541 2.090-2.305 3.846-2.362 4.233-1.365 2.779-2.75 6.961-3.877 13.311 0 0 0.788-2.5 2.37-5.331-1.164 3.565-2.078 9.108-1.541 17.424 0 0 0.142-1.844 0.644-4.499 0.392 5.157 2.111 11.524 6.455 19.011 8.339 14.374 21.157 21.632 35.324 22.745 2.516 0.207 5.067 0.212 7.633 0.017 0.236-0.017 0.472-0.034 0.708-0.054 2.903-0.204 5.825-0.642 8.741-1.347 39.86-9.637 35.526-57.769 35.526-57.769z"></path>
</svg>
