<!-- Generated by IcoMoon.io -->
<svg version="1.1" xmlns="http://www.w3.org/2000/svg" width="96" height="96" viewBox="0 0 96 96">
<title>fire</title>
<path d="M30.094 96c-6.398-13.313-2.991-20.942 1.927-28.129 5.385-7.871 6.773-15.662 6.773-15.662s4.233 5.503 2.54 14.11c7.479-8.325 8.89-21.589 7.761-26.668 16.904 11.814 24.129 37.393 14.393 56.35 51.785-29.3 12.881-73.141 6.108-78.080 2.258 4.938 2.686 13.298-1.875 17.356-7.721-29.276-26.81-35.276-26.81-35.276 2.258 15.098-8.184 31.607-18.253 43.943-0.354-6.020-0.73-10.175-3.895-15.936-0.711 10.937-9.069 19.851-11.332 30.809-3.066 14.839 2.296 25.704 22.664 37.183z"></path>
</svg>
