<!-- Generated by IcoMoon.io -->
<svg version="1.1" xmlns="http://www.w3.org/2000/svg" width="96" height="96" viewBox="0 0 96 96">
<title>flag</title>
<path d="M0 0h12v96h-12v-96z"></path>
<path d="M78 60.281c7.746 0 14.491-1.874 18-4.641v-48c-3.509 2.767-10.254 4.641-18 4.641s-14.491-1.874-18-4.641v48c3.509 2.767 10.254 4.641 18 4.641z"></path>
<path d="M57 3.050c-4.397-1.869-10.83-3.050-18-3.050-9.037 0-16.906 1.874-21 4.641v48c4.094-2.767 11.963-4.641 21-4.641 7.17 0 13.603 1.18 18 3.050v-48z"></path>
</svg>
