<!-- Generated by IcoMoon.io -->
<svg version="1.1" xmlns="http://www.w3.org/2000/svg" width="96" height="96" viewBox="0 0 96 96">
<title>flattr</title>
<path d="M34.459 0c-22.815 0-34.459 13.14-34.459 37.674v0 51.472l22.349-22.371v-26.147c0-10.164 2.693-16.632 11.73-18.084v0c3.157-0.617 9.727-0.401 13.904-0.401v0 15.525c0 0.142 0.019 0.394 0.056 0.524v0c0.175 0.629 0.743 1.089 1.417 1.090v0c0.381 0.001 0.738-0.197 1.105-0.56v0l38.73-38.716-54.832-0.006zM73.651 29.226v26.146c0 10.164-2.694 16.633-11.73 18.084v0c-3.157 0.617-9.727 0.401-13.904 0.401v0-15.524c0-0.141-0.019-0.394-0.056-0.523v0c-0.175-0.629-0.743-1.090-1.417-1.090v0c-0.381-0.001-0.737 0.198-1.105 0.559v0l-38.73 38.716 54.832 0.006c22.814 0 34.459-13.141 34.459-37.674v0-51.471l-22.349 22.371z"></path>
</svg>
