<!-- Generated by IcoMoon.io -->
<svg version="1.1" xmlns="http://www.w3.org/2000/svg" width="96" height="96" viewBox="0 0 96 96">
<title>font</title>
<path d="M74.962 1.519c-8.487 0-13.933-1.519-22.673-1.519-28.245 0-41.418 16.086-41.418 32.425 0 9.626 4.56 12.793 13.553 12.793-0.634-1.394-1.773-2.914-1.773-9.753 0-19.126 7.219-24.699 16.466-25.079 0 0-7.586 74.379-29.604 83.301v2.313h29.681l10.127-48h18.548l4.132-12h-20.148l4.87-23.080c5.573 1.14 11.020 2.28 15.706 2.28 5.826 0 11.146-1.773 14.059-15.199-3.546 1.14-7.346 1.519-11.526 1.519z"></path>
</svg>
