<!-- Generated by IcoMoon.io -->
<svg version="1.1" xmlns="http://www.w3.org/2000/svg" width="96" height="96" viewBox="0 0 96 96">
<title>foursquare</title>
<path d="M79.834 8.446c-1.131-1.538-2.925-2.446-4.834-2.446h-57c-3.314 0-6 2.686-6 6v72c0 2.427 1.462 4.615 3.704 5.543 0.742 0.308 1.522 0.457 2.295 0.457 1.561 0 3.096-0.61 4.244-1.758l22.243-22.243h15.515c2.624 0 4.944-1.706 5.727-4.21l15-48c0.569-1.822 0.238-3.806-0.893-5.344zM63.089 30h-21.089c-3.314 0-6 2.686-6 6s2.686 6 6 6h17.339l-3.75 12h-13.589c-1.591 0-3.117 0.632-4.243 1.757l-13.757 13.757v-51.515h42.839l-3.75 12z"></path>
</svg>
