<!-- Generated by IcoMoon.io -->
<svg version="1.1" xmlns="http://www.w3.org/2000/svg" width="96" height="96" viewBox="0 0 96 96">
<title>frustrated</title>
<path d="M34.342 26.567c-3.257-1.628-6.478-2.443-6.614-2.477-1.607-0.402-3.236 0.575-3.638 2.183s0.576 3.236 2.183 3.638c1.652 0.417 3.611 1.136 5.338 2.002-0.998 1.072-1.61 2.508-1.61 4.088 0 3.314 2.686 6 6 6s6-2.686 6-6c0-0.11-0.003-0.218-0.009-0.327-0.191-4.449-4.239-7.401-7.649-9.107z"></path>
<path d="M48 0c-26.51 0-48 21.49-48 48s21.49 48 48 48 48-21.49 48-48-21.49-48-48-48zM22.172 77.219c1.004 0.499 2.133 0.781 3.328 0.781h45c1.195 0 2.325-0.282 3.328-0.782-6.879 6.086-15.921 9.782-25.828 9.782s-18.949-3.696-25.828-9.781zM24 70.5v-9c0-0.813 0.687-1.5 1.5-1.5h10.5v12h-10.5c-0.813 0-1.5-0.687-1.5-1.5zM42 72v-12h12v12h-12zM60 72v-12h10.5c0.813 0 1.5 0.687 1.5 1.5v9c0 0.813-0.687 1.5-1.5 1.5h-10.5zM77.218 73.828c0.499-1.004 0.782-2.133 0.782-3.328v-9c0-4.135-3.365-7.5-7.5-7.5h-45c-4.136 0-7.5 3.365-7.5 7.5v9c0 1.195 0.282 2.325 0.782 3.328-6.085-6.879-9.781-15.921-9.781-25.828 0-21.539 17.461-39 39-39s39 17.461 39 39c0 9.907-3.696 18.949-9.782 25.828z"></path>
<path d="M68.272 24.090c-0.136 0.034-3.357 0.849-6.614 2.477-3.41 1.706-7.459 4.658-7.649 9.107-0.006 0.108-0.009 0.217-0.009 0.327 0 3.314 2.686 6 6 6s6-2.686 6-6c0-1.58-0.612-3.017-1.61-4.088 1.726-0.865 3.685-1.584 5.338-2.002 1.607-0.402 2.584-2.031 2.183-3.638s-2.031-2.585-3.638-2.183z"></path>
</svg>
