<!-- Generated by IcoMoon.io -->
<svg version="1.1" xmlns="http://www.w3.org/2000/svg" width="96" height="96" viewBox="0 0 96 96">
<title>gift</title>
<path d="M72.33 30c1.699-1.207 3.329-2.552 4.823-4.045 3.131-3.131 5.226-6.984 5.898-10.849 0.737-4.236-0.344-8.169-2.965-10.791-2.091-2.090-4.923-3.196-8.19-3.196-4.653 0-9.555 2.233-13.449 6.128-6.232 6.232-9.865 14.835-11.82 20.974-1.447-6.169-4.332-14.498-9.939-20.105-3.009-3.009-6.854-4.553-10.486-4.553-2.968 0-5.792 1.032-7.899 3.139-4.686 4.686-4.053 12.917 1.414 18.385 1.949 1.949 4.228 3.568 6.63 4.914h-20.346v24h6v42h72v-42h6v-24h-17.67zM63.218 12.020c2.599-2.599 5.843-4.151 8.677-4.151 1.003 0 2.41 0.211 3.417 1.219 2.44 2.44 1.070 8.091-2.933 12.094-4.12 4.12-9.662 6.953-14.478 8.818h-4.751c1.741-5.395 4.88-12.793 10.067-17.98zM21.931 15.083c-0.066-0.855-0.005-2.461 1.143-3.609 0.96-0.96 2.23-1.162 3.126-1.162v0c1.993 0 4.075 0.939 5.712 2.576 3.175 3.175 5.791 8.229 7.563 14.613 0.048 0.172 0.094 0.344 0.14 0.514-0.17-0.046-0.342-0.092-0.514-0.14-6.385-1.772-11.438-4.387-14.613-7.563-1.484-1.484-2.416-3.39-2.558-5.23zM42 90h-24v-39h24v39zM42 48h-30v-12h30v12zM78 90h-24v-39h24v39zM84 48h-30v-12h30v12z"></path>
</svg>
