<!-- Generated by IcoMoon.io -->
<svg version="1.1" xmlns="http://www.w3.org/2000/svg" width="96" height="96" viewBox="0 0 96 96">
<title>git</title>
<path d="M94.19 43.724l-41.915-41.914c-2.413-2.414-6.328-2.414-8.744 0l-9.739 9.738 7.328 7.328c1.175-0.562 2.49-0.878 3.88-0.878 4.971 0 9 4.029 9 9 0 1.389-0.315 2.705-0.878 3.88l11.998 11.998c1.175-0.562 2.491-0.877 3.88-0.877 4.971 0 9 4.029 9 9s-4.029 9-9 9-9-4.029-9-9c0-1.389 0.315-2.705 0.878-3.88l-11.998-11.998c-0.285 0.136-0.579 0.257-0.88 0.363v25.028c3.495 1.236 6 4.567 6 8.486 0 4.971-4.029 9-9 9s-9-4.029-9-9c0-3.918 2.505-7.25 6-8.486v-25.028c-3.495-1.236-6-4.567-6-8.486 0-1.389 0.315-2.705 0.877-3.88l-7.328-7.328-27.74 27.738c-2.414 2.416-2.414 6.331 0 8.746l41.917 41.914c2.413 2.414 6.327 2.414 8.744 0l41.719-41.719c2.415-2.415 2.415-6.332-0-8.746z"></path>
</svg>
