<!-- Generated by IcoMoon.io -->
<svg version="1.1" xmlns="http://www.w3.org/2000/svg" width="96" height="96" viewBox="0 0 96 96">
<title>github</title>
<path d="M48.001 1.185c-26.507 0-48.001 21.489-48.001 48 0 21.208 13.754 39.2 32.825 45.547 2.399 0.444 3.28-1.042 3.28-2.309 0-1.144-0.045-4.926-0.065-8.937-13.355 2.904-16.172-5.663-16.172-5.663-2.183-5.548-5.329-7.023-5.329-7.023-4.355-2.979 0.329-2.918 0.329-2.918 4.819 0.338 7.357 4.947 7.357 4.947 4.282 7.338 11.229 5.216 13.969 3.99 0.43-3.102 1.674-5.22 3.047-6.419-10.662-1.213-21.87-5.33-21.87-23.722 0-5.24 1.875-9.523 4.946-12.884-0.498-1.209-2.143-6.091 0.464-12.703 0 0 4.032-1.289 13.204 4.921 3.828-1.064 7.935-1.597 12.014-1.616 4.078 0.019 8.188 0.552 12.024 1.616 9.163-6.21 13.187-4.921 13.187-4.921 2.613 6.612 0.97 11.494 0.472 12.703 3.077 3.361 4.94 7.644 4.94 12.884 0 18.436-11.229 22.495-21.918 23.684 1.722 1.49 3.255 4.411 3.255 8.889 0 6.423-0.056 11.592-0.056 13.173 0 1.278 0.865 2.774 3.297 2.303 19.061-6.354 32.798-24.34 32.798-45.541 0-26.511-21.491-48-47.999-48z"></path>
</svg>
