<!-- Generated by IcoMoon.io -->
<svg version="1.1" xmlns="http://www.w3.org/2000/svg" width="96" height="96" viewBox="0 0 96 96">
<title>glass</title>
<path d="M72.917 1.58c-0.523-0.973-1.538-1.58-2.643-1.58h-44.549c-1.105 0-2.12 0.607-2.643 1.58-3.325 6.189-5.083 13.424-5.083 20.92 0 9.882 3.035 19.203 8.546 26.244 4.259 5.442 9.608 9.051 15.454 10.516v30.74h-9c-1.657 0-3 1.343-3 3s1.343 3 3 3h30c1.657 0 3-1.343 3-3s-1.343-3-3-3h-9v-30.74c5.847-1.465 11.195-5.074 15.454-10.516 5.511-7.042 8.546-16.362 8.546-26.244 0-7.496-1.758-14.73-5.083-20.92zM27.572 6h40.856c2.341 4.96 3.572 10.625 3.572 16.5 0 0.503-0.010 1.003-0.028 1.5h-47.944c-0.018-0.497-0.028-0.997-0.028-1.5-0-5.875 1.231-11.54 3.572-16.5z"></path>
</svg>
