<!-- Generated by IcoMoon.io -->
<svg version="1.1" xmlns="http://www.w3.org/2000/svg" width="96" height="96" viewBox="0 0 96 96">
<title>google-plus</title>
<path d="M30.544 42.881v10.481h17.325c-0.694 4.5-5.231 13.181-17.325 13.181-10.425 0-18.938-8.644-18.938-19.294s8.513-19.294 18.938-19.294c5.944 0 9.9 2.531 12.169 4.706l8.287-7.988c-5.325-4.969-12.225-7.988-20.456-7.988-16.894 0.019-30.544 13.669-30.544 30.563s13.65 30.544 30.544 30.544c17.625 0 29.325-12.394 29.325-29.85 0-2.006-0.225-3.544-0.488-5.063h-28.837z"></path>
<path d="M96 42h-9v-9h-9v9h-9v9h9v9h9v-9h9z"></path>
</svg>
