<!-- Generated by IcoMoon.io -->
<svg version="1.1" xmlns="http://www.w3.org/2000/svg" width="96" height="96" viewBox="0 0 96 96">
<title>google3</title>
<path d="M48 0c-26.513 0-48 21.487-48 48s21.487 48 48 48 48-21.488 48-48-21.488-48-48-48zM48.713 84c-19.894 0-36-16.106-36-36s16.106-36 36-36c9.712 0 17.85 3.544 24.112 9.413l-9.769 9.413c-2.681-2.569-7.35-5.55-14.344-5.55-12.3 0-22.313 10.181-22.313 22.725s10.031 22.725 22.313 22.725c14.25 0 19.594-10.237 20.419-15.525h-20.419v-12.337h33.994c0.3 1.8 0.563 3.6 0.563 5.962 0.019 20.569-13.763 35.175-34.556 35.175z"></path>
</svg>
