<!-- Generated by IcoMoon.io -->
<svg version="1.1" xmlns="http://www.w3.org/2000/svg" width="96" height="96" viewBox="0 0 96 96">
<title>google-plus2</title>
<path d="M87 0h-78c-4.95 0-9 4.050-9 9v78c0 4.95 4.050 9 9 9h78c4.95 0 9-4.050 9-9v-78c0-4.95-4.050-9-9-9zM36 72c-13.275 0-24-10.725-24-24s10.725-24 24-24c6.487 0 11.906 2.362 16.088 6.281l-6.525 6.263c-1.781-1.706-4.894-3.694-9.563-3.694-8.194 0-14.888 6.788-14.888 15.15s6.694 15.15 14.888 15.15c9.506 0 13.069-6.825 13.613-10.35h-13.612v-8.231h22.669c0.206 1.2 0.375 2.4 0.375 3.975 0 13.725-9.188 23.456-23.044 23.456zM84 48h-6v6h-6v-6h-6v-6h6v-6h6v6h6v6z"></path>
</svg>
