<!-- Generated by IcoMoon.io -->
<svg version="1.1" xmlns="http://www.w3.org/2000/svg" width="96" height="96" viewBox="0 0 96 96">
<title>google</title>
<path d="M48.956 41.138v16.462h27.225c-1.106 7.069-8.231 20.7-27.225 20.7-16.388 0-29.756-13.575-29.756-30.3s13.369-30.3 29.756-30.3c9.319 0 15.563 3.975 19.125 7.406l13.031-12.544c-8.363-7.837-19.2-12.563-32.156-12.563-26.531 0-48 21.469-48 48s21.469 48 48 48c27.694 0 46.087-19.481 46.087-46.894 0-3.15-0.337-5.55-0.75-7.95l-45.337-0.019z"></path>
</svg>
