<!-- Generated by IcoMoon.io -->
<svg version="1.1" xmlns="http://www.w3.org/2000/svg" width="96" height="96" viewBox="0 0 96 96">
<title>grin2</title>
<path d="M48 0c-26.51 0-48 21.49-48 48s21.49 48 48 48c26.51 0 48-21.49 48-48s-21.49-48-48-48zM66 22.125c5.996 0 10.875 4.879 10.875 10.875 0 0.598-0.051 1.207-0.153 1.811-0.152 0.903-0.934 1.564-1.849 1.564s-1.698-0.661-1.849-1.565c-0.578-3.439-3.532-4.998-7.024-4.998s-6.447 1.559-7.024 4.998c-0.151 0.903-0.933 1.565-1.849 1.565-0 0 0 0-0 0-0.916 0-1.697-0.661-1.849-1.564-0.102-0.603-0.153-1.213-0.153-1.811 0-5.996 4.879-10.875 10.875-10.875zM30 22.125c5.996 0 10.875 4.879 10.875 10.875 0 0.598-0.051 1.207-0.153 1.811-0.152 0.903-0.933 1.564-1.849 1.564s-1.697-0.661-1.849-1.565c-0.578-3.439-3.532-4.998-7.024-4.998s-6.447 1.559-7.024 4.998c-0.152 0.903-0.933 1.565-1.849 1.565 0 0 0 0 0 0-0.916 0-1.697-0.661-1.849-1.564-0.101-0.603-0.153-1.213-0.153-1.811 0-5.996 4.879-10.875 10.875-10.875zM18 54h18v23.236c-10.321-2.682-18-12.105-18-23.236zM42 78v-24h12v24h-12zM60 77.236v-23.236h18c0 11.13-7.678 20.554-18 23.236z"></path>
</svg>
