<!-- Generated by IcoMoon.io -->
<svg version="1.1" xmlns="http://www.w3.org/2000/svg" width="96" height="96" viewBox="0 0 96 96">
<title>grin</title>
<path d="M48 96c26.51 0 48-21.49 48-48s-21.49-48-48-48-48 21.49-48 48 21.49 48 48 48zM48 9c21.539 0 39 17.461 39 39s-17.461 39-39 39-39-17.461-39-39 17.461-39 39-39zM18 48v6c0 13.2 10.8 24 24 24h12c13.2 0 24-10.8 24-24v-6h-60zM36 70.968c-2.488-0.887-4.774-2.327-6.707-4.261-3.413-3.413-5.293-7.926-5.293-12.707h12v16.968zM54 72h-12v-18h12v18zM66.707 66.707c-1.934 1.933-4.22 3.374-6.707 4.261v-16.968h12c0 4.781-1.88 9.294-5.293 12.707zM21.127 36c0 0 0 0 0 0 0.916 0 1.698-0.661 1.849-1.565 0.577-3.439 3.531-5.935 7.024-5.935s6.447 2.496 7.024 5.935c0.151 0.903 0.933 1.565 1.849 1.565s1.698-0.661 1.849-1.564c0.101-0.603 0.153-1.213 0.153-1.811 0-5.996-4.879-10.875-10.875-10.875s-10.875 4.879-10.875 10.875c0 0.598 0.051 1.207 0.153 1.811 0.152 0.903 0.934 1.564 1.849 1.564zM57.127 36c0 0 0 0 0 0 0.916 0 1.698-0.661 1.849-1.565 0.577-3.439 3.531-5.935 7.024-5.935s6.447 2.496 7.024 5.935c0.151 0.903 0.934 1.565 1.849 1.565s1.698-0.661 1.849-1.564c0.101-0.603 0.153-1.213 0.153-1.811 0-5.996-4.879-10.875-10.875-10.875s-10.875 4.879-10.875 10.875c0 0.598 0.051 1.207 0.152 1.811 0.152 0.903 0.934 1.564 1.85 1.564z"></path>
</svg>
