<!-- Generated by IcoMoon.io -->
<svg version="1.1" xmlns="http://www.w3.org/2000/svg" width="96" height="96" viewBox="0 0 96 96">
<title>hammer2</title>
<path d="M94.704 85.852l-51.434-46.824 2.394-2.4c1.959-1.964 3.018-4.503 3.18-7.088 0.094-0.042 0.188-0.085 0.277-0.135l9.655-6.038c1.306-1.537 1.211-3.963-0.214-5.391l-16.793-16.838c-1.424-1.428-3.844-1.525-5.376-0.214l-6.022 9.681c-0.049 0.091-0.093 0.184-0.135 0.279-2.578 0.163-5.109 1.224-7.069 3.188l-9.134 9.16c-1.959 1.965-3.017 4.502-3.18 7.088-0.094 0.042-0.188 0.086-0.278 0.136l-9.655 6.038c-1.307 1.537-1.211 3.962 0.213 5.39l16.793 16.838c1.424 1.429 3.843 1.525 5.377 0.214l6.021-9.682c0.050-0.090 0.093-0.184 0.135-0.278 2.578-0.163 5.11-1.223 7.069-3.188l2.652-2.66 46.699 51.573c1.353 1.495 3.441 1.736 4.638 0.535l4.721-4.733c1.197-1.201 0.956-3.294-0.535-4.651z"></path>
</svg>
