<!-- Generated by IcoMoon.io -->
<svg version="1.1" xmlns="http://www.w3.org/2000/svg" width="96" height="96" viewBox="0 0 96 96">
<title>happy2</title>
<path d="M48 0c-26.51 0-48 21.49-48 48s21.49 48 48 48 48-21.49 48-48-21.49-48-48-48zM66 24c3.314 0 6 4.029 6 9s-2.686 9-6 9-6-4.029-6-9 2.686-9 6-9zM30 24c3.314 0 6 4.029 6 9s-2.686 9-6 9-6-4.029-6-9 2.686-9 6-9zM48 84c-15.644 0-28.633-13.113-30-29.841 8.791 5.073 19.13 7.975 30 7.975s21.209-2.888 30-7.961c-1.366 16.729-14.356 29.828-30 29.828z"></path>
</svg>
