<!-- Generated by IcoMoon.io -->
<svg version="1.1" xmlns="http://www.w3.org/2000/svg" width="96" height="96" viewBox="0 0 96 96">
<title>headphones</title>
<path d="M27 54h-6v42h6c1.65 0 3-1.35 3-3v-36c0-1.65-1.35-3-3-3z"></path>
<path d="M69 54c-1.65 0-3 1.35-3 3v36c0 1.65 1.35 3 3 3h6v-42h-6z"></path>
<path d="M96 48c0-26.51-21.49-48-48-48s-48 21.49-48 48c0 5.757 1.015 11.277 2.874 16.392-1.826 3.113-2.874 6.738-2.874 10.608 0 10.579 7.823 19.33 18 20.786v-41.57c-2.992 0.428-5.781 1.485-8.227 3.035-0.505-2.505-0.773-5.097-0.773-7.751 0-21.539 17.461-39 39-39s39 17.461 39 39c0 2.654-0.265 5.247-0.771 7.753-2.447-1.551-5.236-2.611-8.229-3.039v41.573c10.176-1.456 18-10.207 18-20.786 0-3.869-1.048-7.494-2.873-10.607 1.859-5.116 2.873-10.636 2.873-16.394z"></path>
</svg>
