<!-- Generated by IcoMoon.io -->
<svg version="1.1" xmlns="http://www.w3.org/2000/svg" width="96" height="96" viewBox="0 0 96 96">
<title>hipster2</title>
<path d="M48 0c-26.51 0-48 21.49-48 48s21.49 48 48 48 48-21.49 48-48-21.49-48-48-48zM66 24c3.314 0 6 2.686 6 6s-2.686 6-6 6-6-2.686-6-6 2.686-6 6-6zM30 24c3.314 0 6 2.686 6 6s-2.686 6-6 6-6-2.686-6-6 2.686-6 6-6zM50.981 63.691c-0.117-0.105-0.233-0.215-0.345-0.327-1.757-1.757-2.635-4.059-2.636-6.362-0 2.303-0.879 4.605-2.636 6.362-0.113 0.113-0.228 0.222-0.345 0.327-8.112 7.36-27.018-0.173-27.018-9.691 5.813 3.75 10.355 0.917 14.636-3.364 3.515-3.515 9.213-3.515 12.728 0 1.757 1.757 2.636 4.059 2.636 6.362 0-2.303 0.879-4.605 2.636-6.362 3.515-3.515 9.213-3.515 12.728 0 4.281 4.281 8.823 7.114 14.636 3.364 0 9.519-18.907 17.052-27.019 9.691z"></path>
</svg>
