<!-- Generated by IcoMoon.io -->
<svg version="1.1" xmlns="http://www.w3.org/2000/svg" width="96" height="96" viewBox="0 0 96 96">
<title>hipster</title>
<path d="M48 96c26.51 0 48-21.49 48-48s-21.49-48-48-48-48 21.49-48 48 21.49 48 48 48zM48 9c21.539 0 39 17.461 39 39s-17.461 39-39 39-39-17.461-39-39 17.461-39 39-39zM24 30c0-3.314 2.686-6 6-6s6 2.686 6 6-2.686 6-6 6-6-2.686-6-6zM60 30c0-3.314 2.686-6 6-6s6 2.686 6 6-2.686 6-6 6-6-2.686-6-6z"></path>
<path d="M63.364 50.636c-3.515-3.515-9.213-3.515-12.728 0s-3.515 9.213 0 12.728c0.113 0.113 0.228 0.222 0.345 0.327 8.112 7.36 27.019-0.173 27.019-9.691-5.813 3.75-10.355 0.917-14.636-3.364z"></path>
<path d="M32.636 50.636c3.515-3.515 9.213-3.515 12.728 0s3.515 9.213 0 12.728c-0.113 0.113-0.228 0.222-0.345 0.327-8.112 7.36-27.019-0.173-27.019-9.691 5.813 3.75 10.355 0.917 14.636-3.364z"></path>
</svg>
