<!-- Generated by IcoMoon.io -->
<svg version="1.1" xmlns="http://www.w3.org/2000/svg" width="102" height="96" viewBox="0 0 102 96">
<title>history</title>
<path d="M60 6c23.196 0 42 18.804 42 42s-18.804 42-42 42v-9c8.815 0 17.102-3.433 23.335-9.665s9.665-14.52 9.665-23.335c0-8.815-3.433-17.102-9.665-23.335s-14.52-9.665-23.335-9.665c-8.815 0-17.102 3.433-23.335 9.665-4.794 4.794-7.93 10.804-9.122 17.335h17.457l-21 24-21-24h15.428c2.912-20.353 20.413-36 41.572-36zM78 42v12h-24v-30h12v18z"></path>
</svg>
