<!-- Generated by IcoMoon.io -->
<svg version="1.1" xmlns="http://www.w3.org/2000/svg" width="96" height="96" viewBox="0 0 96 96">
<title>hour-glass</title>
<path d="M68.343 48c12.914-8.188 21.657-23.926 21.657-42 0-2.032-0.112-4.034-0.326-6h-83.348c-0.215 1.966-0.326 3.968-0.326 6 0 18.074 8.743 33.812 21.657 42-12.914 8.188-21.657 23.926-21.657 42 0 2.032 0.112 4.034 0.326 6h83.348c0.215-1.966 0.326-3.968 0.326-6 0-18.074-8.742-33.812-21.657-42zM15 90c0-17.523 7.515-32.383 21-37.285v-9.43c-13.485-4.902-21-19.762-21-37.285v0h66c0 17.523-7.515 32.383-21 37.285v9.43c13.485 4.903 21 19.762 21 37.285h-66zM58.090 62.774c-6.718-3.81-7.088-8.753-7.090-11.753v-6.021c0-2.999 0.357-7.961 7.101-11.781 3.61-2.097 6.732-5.283 9.098-9.219h-38.398c2.369 3.94 5.495 7.129 9.109 9.226 6.718 3.81 7.088 8.753 7.090 11.753v6.021c0 2.999-0.357 7.961-7.101 11.781-6.808 3.954-11.882 11.783-13.415 21.219h47.032c-1.534-9.441-6.612-17.273-13.426-21.226z"></path>
</svg>
