<!-- Generated by IcoMoon.io -->
<svg version="1.1" xmlns="http://www.w3.org/2000/svg" width="96" height="96" viewBox="0 0 96 96">
<title>IcoMoon</title>
<path d="M24.332 48c0-6.133 4.972-11.104 11.104-11.104s11.104 4.972 11.104 11.104c0 6.133-4.972 11.104-11.104 11.104s-11.104-4.972-11.104-11.104zM48 0c-26.51 0-48 21.491-48 48s21.49 48 48 48c26.509 0 48-21.49 48-48s-21.49-48-48-48zM35.568 89.933c-14.433-8.398-24.138-24.030-24.138-41.933s9.704-33.535 24.137-41.933c14.438 8.396 24.149 24.027 24.149 41.933s-9.711 33.536-24.148 41.933z"></path>
</svg>
