<!-- Generated by IcoMoon.io -->
<svg version="1.1" xmlns="http://www.w3.org/2000/svg" width="96" height="96" viewBox="0 0 96 96">
<title>IE</title>
<path d="M68.831 58.953h22.13c0.171-1.535 0.239-3.103 0.239-4.706 0-7.521-2.019-14.575-5.543-20.65 3.645-9.685 3.515-17.905-1.365-22.818-4.64-4.62-17.090-3.87-31.164 2.362-1.041-0.079-2.092-0.119-3.154-0.119-19.317 0-35.524 13.293-40.004 31.205 6.060-7.758 12.435-13.383 20.951-17.479-0.774 0.726-5.293 5.217-6.052 5.978-22.458 22.451-29.54 51.779-21.919 59.4 5.792 5.791 16.29 4.813 28.348-1.092 5.607 2.855 11.953 4.465 18.677 4.465 18.106 0 33.45-11.655 39.008-27.886h-22.3c-3.069 5.661-9.070 9.514-15.958 9.514s-12.889-3.853-15.958-9.514c-1.364-2.557-2.148-5.489-2.148-8.593v-0.068h36.212zM32.653 48.075c0.512-9.104 8.081-16.367 17.322-16.367s16.81 7.263 17.322 16.367h-34.644zM84.091 15.357c3.143 3.176 3.064 9.020 0.376 16.315-4.606-7.023-11.299-12.557-19.199-15.716 8.447-3.622 15.319-4.102 18.823-0.598zM8.764 90.68c-4.011-4.012-2.802-12.433 2.365-22.578 3.216 9.025 9.483 16.602 17.563 21.483-8.947 4.061-16.269 4.751-19.928 1.095z"></path>
</svg>
