<!-- Generated by IcoMoon.io -->
<svg version="1.1" xmlns="http://www.w3.org/2000/svg" width="96" height="96" viewBox="0 0 96 96">
<title>image</title>
<path d="M89.989 12c0.004 0.003 0.008 0.007 0.011 0.011v71.978c-0.003 0.004-0.007 0.008-0.011 0.011h-83.978c-0.004-0.003-0.008-0.007-0.011-0.011v-71.979c0.003-0.004 0.007-0.008 0.011-0.011h83.978zM90 6h-84c-3.3 0-6 2.7-6 6v72c0 3.3 2.7 6 6 6h84c3.3 0 6-2.7 6-6v-72c0-3.3-2.7-6-6-6v0z"></path>
<path d="M78 27c0 4.971-4.029 9-9 9s-9-4.029-9-9 4.029-9 9-9 9 4.029 9 9z"></path>
<path d="M84 78h-72v-12l21-36 24 30h6l21-18z"></path>
</svg>
