<!-- Generated by IcoMoon.io -->
<svg version="1.1" xmlns="http://www.w3.org/2000/svg" width="96" height="96" viewBox="0 0 96 96">
<title>infinite</title>
<path d="M73.499 70.501c-6.010 0-11.66-2.34-15.909-6.59l-9.59-9.589-9.588 9.588c-4.25 4.25-9.9 6.591-15.91 6.591-6.011 0-11.662-2.34-15.911-6.591s-6.59-9.9-6.59-15.91 2.34-11.661 6.59-15.911c4.25-4.25 9.901-6.59 15.911-6.59s11.661 2.34 15.91 6.59l9.589 9.588 9.588-9.588c4.25-4.25 9.9-6.59 15.91-6.59s11.661 2.341 15.91 6.59c4.25 4.25 6.591 9.901 6.591 15.911s-2.34 11.661-6.591 15.91c-4.249 4.25-9.9 6.591-15.911 6.591zM63.911 57.59c2.561 2.56 5.966 3.971 9.588 3.971s7.027-1.41 9.588-3.971c2.561-2.561 3.972-5.967 3.972-9.589s-1.411-7.027-3.972-9.588c-2.561-2.561-5.966-3.972-9.588-3.972s-7.027 1.41-9.589 3.972l-9.588 9.588 9.589 9.59zM22.501 34.44c-3.622 0-7.027 1.41-9.588 3.972s-3.972 5.966-3.972 9.588c0 3.622 1.41 7.027 3.972 9.588s5.966 3.972 9.588 3.972c3.622 0 7.027-1.41 9.588-3.971l9.588-9.589-9.588-9.588c-2.561-2.561-5.966-3.972-9.588-3.972v0z"></path>
</svg>
