<!-- Generated by IcoMoon.io -->
<svg version="1.1" xmlns="http://www.w3.org/2000/svg" width="96" height="96" viewBox="0 0 96 96">
<title>info</title>
<path d="M42 28.5c0-2.475 2.025-4.5 4.5-4.5h3c2.475 0 4.5 2.025 4.5 4.5v3c0 2.475-2.025 4.5-4.5 4.5h-3c-2.475 0-4.5-2.025-4.5-4.5v-3z"></path>
<path d="M60 72h-24v-6h6v-18h-6v-6h18v24h6z"></path>
<path d="M48 0c-26.51 0-48 21.49-48 48s21.49 48 48 48 48-21.49 48-48-21.49-48-48-48zM48 87c-21.539 0-39-17.461-39-39s17.461-39 39-39 39 17.461 39 39-17.461 39-39 39z"></path>
</svg>
