<!-- Generated by IcoMoon.io -->
<svg version="1.1" xmlns="http://www.w3.org/2000/svg" width="96" height="96" viewBox="0 0 96 96">
<title>instagram</title>
<path d="M48 8.644c12.825 0 14.344 0.056 19.387 0.281 4.688 0.206 7.219 0.994 8.906 1.65 2.231 0.863 3.844 1.912 5.513 3.581 1.688 1.688 2.719 3.281 3.6 5.513 0.656 1.688 1.444 4.237 1.65 8.906 0.225 5.063 0.281 6.581 0.281 19.388s-0.056 14.344-0.281 19.388c-0.206 4.688-0.994 7.219-1.65 8.906-0.862 2.231-1.912 3.844-3.581 5.513-1.688 1.688-3.281 2.719-5.513 3.6-1.688 0.656-4.237 1.444-8.906 1.65-5.063 0.225-6.581 0.281-19.388 0.281s-14.344-0.056-19.388-0.281c-4.688-0.206-7.219-0.994-8.906-1.65-2.231-0.863-3.844-1.912-5.512-3.581-1.688-1.688-2.719-3.281-3.6-5.512-0.656-1.688-1.444-4.238-1.65-8.906-0.225-5.063-0.281-6.581-0.281-19.388s0.056-14.344 0.281-19.388c0.206-4.688 0.994-7.219 1.65-8.906 0.863-2.231 1.913-3.844 3.581-5.513 1.688-1.688 3.281-2.719 5.513-3.6 1.688-0.656 4.237-1.444 8.906-1.65 5.044-0.225 6.563-0.281 19.388-0.281zM48 0c-13.031 0-14.662 0.056-19.781 0.281-5.1 0.225-8.606 1.050-11.644 2.231-3.169 1.237-5.85 2.869-8.513 5.55-2.681 2.663-4.313 5.344-5.55 8.494-1.181 3.056-2.006 6.544-2.231 11.644-0.225 5.138-0.281 6.769-0.281 19.8s0.056 14.662 0.281 19.781c0.225 5.1 1.050 8.606 2.231 11.644 1.238 3.169 2.869 5.85 5.55 8.512 2.662 2.662 5.344 4.313 8.494 5.531 3.056 1.181 6.544 2.006 11.644 2.231 5.119 0.225 6.75 0.281 19.781 0.281s14.663-0.056 19.781-0.281c5.1-0.225 8.606-1.050 11.644-2.231 3.15-1.219 5.831-2.869 8.494-5.531s4.313-5.344 5.531-8.494c1.181-3.056 2.006-6.544 2.231-11.644 0.225-5.119 0.281-6.75 0.281-19.781s-0.056-14.663-0.281-19.781c-0.225-5.1-1.050-8.606-2.231-11.644-1.181-3.187-2.813-5.869-5.494-8.531-2.662-2.662-5.344-4.313-8.494-5.531-3.056-1.181-6.544-2.006-11.644-2.231-5.138-0.244-6.769-0.3-19.8-0.3v0z"></path>
<path d="M48 23.344c-13.612 0-24.656 11.044-24.656 24.656s11.044 24.656 24.656 24.656 24.656-11.044 24.656-24.656c0-13.612-11.044-24.656-24.656-24.656zM48 63.994c-8.831 0-15.994-7.163-15.994-15.994s7.163-15.994 15.994-15.994c8.831 0 15.994 7.163 15.994 15.994s-7.163 15.994-15.994 15.994z"></path>
<path d="M79.387 22.369c0 3.179-2.577 5.756-5.756 5.756s-5.756-2.577-5.756-5.756c0-3.179 2.577-5.756 5.756-5.756s5.756 2.577 5.756 5.756z"></path>
</svg>
