<!-- Generated by IcoMoon.io -->
<svg version="1.1" xmlns="http://www.w3.org/2000/svg" width="96" height="96" viewBox="0 0 96 96">
<title>joomla</title>
<path d="M24.938 25.939c3.078-3.079 8.063-3.079 11.138-0.003l0.734 0.738 9.478-9.483-0.738-0.739c-5.402-5.409-12.986-7.301-19.914-5.674-0.993-6.111-6.29-10.774-12.673-10.777-7.092 0-12.839 5.76-12.841 12.859 0 6.125 4.274 11.25 10 12.547-2.169 7.261-0.398 15.453 5.329 21.186l21.359 21.366 9.468-9.489-21.357-21.364c-3.064-3.068-3.070-8.074 0.017-11.165zM95.879 12.859c0.001-7.103-5.749-12.859-12.842-12.859-6.491 0-11.857 4.823-12.72 11.085-7.226-2.125-15.355-0.328-21.060 5.382l-21.36 21.366 9.478 9.485 21.353-21.361c3.088-3.091 8.061-3.085 11.127-0.017 3.075 3.078 3.075 8.073-0.003 11.152l-0.731 0.735 9.47 9.492 0.737-0.743c5.668-5.678 7.47-13.758 5.401-20.966 6.295-0.828 11.151-6.222 11.151-12.749zM84.962 70.412c1.697-6.98-0.185-14.655-5.635-20.109l-21.327-21.374-9.478 9.48 21.33 21.376c3.088 3.093 3.081 8.072 0.017 11.142-3.075 3.076-8.063 3.076-11.141-0.003l-0.728-0.73-9.468 9.492 0.725 0.724c5.767 5.774 14.027 7.541 21.316 5.296 1.184 5.876 6.369 10.294 12.587 10.294 7.088 0 12.841-5.752 12.841-12.856 0-6.488-4.798-11.855-11.038-12.732zM57.407 49.564l-21.331 21.374c-3.067 3.072-8.066 3.078-11.151-0.012-3.077-3.085-3.078-8.072-0.004-11.153l0.732-0.729-9.477-9.48-0.725 0.723c-5.509 5.513-7.365 13.297-5.573 20.342-5.662 1.337-9.877 6.434-9.877 12.515-0.002 7.101 5.75 12.856 12.842 12.856 6.103-0.003 11.211-4.258 12.519-9.973 7.003 1.739 14.719-0.122 20.189-5.602l21.327-21.371-9.47-9.489z"></path>
</svg>
