<!-- Generated by IcoMoon.io -->
<svg version="1.1" xmlns="http://www.w3.org/2000/svg" width="96" height="96" viewBox="0 0 96 96">
<title>key2</title>
<path d="M93.95 29.46l-9.479-9.479c-2.324-2.324-6.128-6.128-8.453-8.453l-9.479-9.479c-2.324-2.324-6.464-2.734-9.2-0.911l-25.916 17.277c-2.735 1.824-3.77 5.721-2.3 8.662l6.608 13.216c0.202 0.404 0.436 0.834 0.693 1.281l-33.425 33.425-3 21h18v-6h12v-12h12v-12h12v-6.674c0.6 0.357 1.175 0.676 1.706 0.942l13.216 6.608c2.941 1.47 6.838 0.435 8.662-2.3l17.278-25.916c1.824-2.735 1.414-6.875-0.911-9.199zM14.121 80.121l-4.243-4.243 29.21-29.21 4.243 4.243-29.21 29.21zM85.971 39.728l-4.243 4.243c-1.167 1.167-3.076 1.167-4.243 0l-25.456-25.456c-1.167-1.167-1.167-3.076 0-4.243l4.243-4.243c1.167-1.167 3.076-1.167 4.243 0l25.456 25.456c1.167 1.167 1.167 3.076 0 4.243z"></path>
</svg>
