<!-- Generated by IcoMoon.io -->
<svg version="1.1" xmlns="http://www.w3.org/2000/svg" width="108" height="96" viewBox="0 0 108 96">
<title>keyboard</title>
<path d="M102 12h-96c-3.3 0-6 2.7-6 6v60c0 3.3 2.7 6 6 6h96c3.3 0 6-2.7 6-6v-60c0-3.3-2.7-6-6-6zM60 24h12v12h-12v-12zM78 42v12h-12v-12h12zM42 24h12v12h-12v-12zM60 42v12h-12v-12h12zM24 24h12v12h-12v-12zM42 42v12h-12v-12h12zM12 24h6v12h-6v-12zM12 42h12v12h-12v-12zM18 72h-6v-12h6v12zM72 72h-48v-12h48v12zM96 72h-18v-12h18v12zM96 54h-12v-12h12v12zM96 36h-18v-12h18v12z"></path>
</svg>
