<!-- Generated by IcoMoon.io -->
<svg version="1.1" xmlns="http://www.w3.org/2000/svg" width="96" height="96" viewBox="0 0 96 96">
<title>lanyrd</title>
<path d="M87 0h-78c-4.95 0-9 4.050-9 9v78c0 4.95 4.050 9 9 9h78c4.95 0 9-4.050 9-9v-78c0-4.95-4.050-9-9-9zM77.1 72.075l-32.662 10.688c-7.463 2.438-8.213 2.044-11.588-8.4l-8.25-25.556c-1.969-6.056-7.969-22.369-8.981-25.5-1.875-5.813-1.875-6.131 9.094-9.694 8.587-2.813 8.944-2.719 12.056 6.975 2.512 7.8 4.125 14.1 6.712 22.069l7.031 21.75 22.462-7.35c4.425-1.463 5.906-1.387 7.162 4.069l0.9 4.125c1.050 4.781-1.369 6-3.938 6.825z"></path>
</svg>
