<!-- Generated by IcoMoon.io -->
<svg version="1.1" xmlns="http://www.w3.org/2000/svg" width="96" height="96" viewBox="0 0 96 96">
<title>lastfm2</title>
<path d="M87 0h-78c-4.95 0-9 4.050-9 9v78c0 4.95 4.050 9 9 9h78c4.95 0 9-4.050 9-9v-78c0-4.95-4.050-9-9-9zM69.994 71.325c-16.65 0-22.425-7.5-25.5-16.837l-3.075-9.619c-2.306-7.031-5.006-12.506-13.462-12.506-5.869 0-11.831 4.237-11.831 16.069 0 9.244 4.706 15.019 11.362 15.019 7.5 0 12.506-5.587 12.506-5.587l3.075 8.362c0 0-5.194 5.1-16.069 5.1-13.5 0-21-7.875-21-22.5 0-15.206 7.5-24.15 21.656-24.15 12.806 0 19.237 4.613 23.287 17.119l3.169 9.619c2.306 7.031 6.356 12.131 16.069 12.131 6.544 0 10.013-1.444 10.013-5.006 0-2.794-1.631-4.819-6.544-5.962l-6.544-1.538c-7.987-1.931-11.156-6.056-11.156-12.6 0-10.481 8.475-13.763 17.119-13.763 9.806 0 15.787 3.563 16.556 12.225l-9.619 1.162c-0.394-4.144-2.887-5.869-7.5-5.869-4.237 0-6.825 1.931-6.825 5.194 0 2.888 1.256 4.612 5.475 5.587l6.15 1.35c8.269 1.931 12.694 5.962 12.694 13.762 0 9.581-8.081 13.237-20.006 13.237z"></path>
</svg>
