<!-- Generated by IcoMoon.io -->
<svg version="1.1" xmlns="http://www.w3.org/2000/svg" width="96" height="96" viewBox="0 0 96 96">
<title>lastfm</title>
<path d="M42.338 71.831l-3.525-9.563c0 0-5.719 6.375-14.287 6.375-7.594 0-12.975-6.6-12.975-17.156 0-13.519 6.825-18.356 13.519-18.356 9.675 0 12.75 6.263 15.394 14.288l3.525 10.988c3.525 10.669 10.125 19.237 29.138 19.237 13.631 0 22.875-4.181 22.875-15.169 0-8.906-5.063-13.519-14.512-15.731l-7.031-1.537c-4.838-1.106-6.263-3.075-6.263-6.375 0-3.731 2.963-5.944 7.8-5.944 5.288 0 8.138 1.988 8.569 6.712l10.987-1.313c-0.881-9.9-7.706-13.969-18.919-13.969-9.9 0-19.575 3.731-19.575 15.731 0 7.481 3.637 12.206 12.75 14.4l7.481 1.763c5.606 1.313 7.481 3.637 7.481 6.825 0 4.069-3.956 5.719-11.438 5.719-11.1 0-15.731-5.831-18.356-13.856l-3.637-10.987c-4.594-14.306-11.962-19.575-26.588-19.575-16.163 0-24.75 10.219-24.75 27.6 0 16.706 8.569 25.725 23.981 25.725 12.413 0 18.356-5.831 18.356-5.831v0z"></path>
</svg>
