<!-- Generated by IcoMoon.io -->
<svg version="1.1" xmlns="http://www.w3.org/2000/svg" width="96" height="96" viewBox="0 0 96 96">
<title>leaf</title>
<path d="M94.812 12.609c-10.383-7.868-26.361-12.566-42.742-12.566-20.261 0-36.771 7.074-45.296 19.408-4.004 5.793-6.218 12.652-6.582 20.388-0.324 6.888 0.833 14.506 3.439 22.701 8.894-26.661 33.733-47.541 62.369-47.541 0 0-26.796 7.053-43.643 28.893-0.011 0.013-0.234 0.29-0.62 0.815-3.383 4.526-6.332 9.671-8.539 15.499-3.738 8.89-7.199 21.089-7.199 35.792h12c0 0-1.822-11.458 1.346-24.637 5.24 0.708 9.924 1.060 14.142 1.060 11.032 0 18.878-2.387 24.693-7.512 5.209-4.592 8.081-10.761 11.121-17.293 4.643-9.976 9.905-21.282 25.186-30.014 0.875-0.5 1.44-1.405 1.505-2.411s-0.379-1.976-1.182-2.585z"></path>
</svg>
