<!-- Generated by IcoMoon.io -->
<svg version="1.1" xmlns="http://www.w3.org/2000/svg" width="96" height="96" viewBox="0 0 96 96">
<title>libreoffice</title>
<path d="M50.121 2.121c-1.167-1.167-3.471-2.121-5.121-2.121h-36c-1.65 0-3 1.35-3 3v90c0 1.65 1.35 3 3 3h72c1.65 0 3-1.35 3-3v-54c0-1.65-0.955-3.955-2.121-5.121l-31.758-31.757zM78 90h-66v-84h32.921c0.273 0.045 0.788 0.258 1.013 0.42l31.646 31.646c0.161 0.225 0.375 0.74 0.42 1.013v50.921zM81 0h-18c-1.65 0-2.045 0.955-0.879 2.121l19.757 19.757c1.167 1.167 2.121 0.771 2.121-0.879v-18c0-1.65-1.35-3-3-3z"></path>
</svg>
