<!-- Generated by IcoMoon.io -->
<svg version="1.1" xmlns="http://www.w3.org/2000/svg" width="96" height="96" viewBox="0 0 96 96">
<title>lifebuoy</title>
<path d="M48 0c-26.51 0-48 21.49-48 48s21.49 48 48 48 48-21.49 48-48-21.49-48-48-48zM30 48c0-9.941 8.059-18 18-18s18 8.059 18 18-8.059 18-18 18-18-8.059-18-18zM86.811 64.076v0l-16.633-6.89c1.174-2.83 1.823-5.932 1.823-9.186s-0.649-6.356-1.823-9.186l16.633-6.89c2.054 4.952 3.189 10.381 3.189 16.076s-1.136 11.124-3.189 16.076v0zM64.076 9.189v0 0l-6.89 16.633c-2.83-1.174-5.932-1.822-9.186-1.822s-6.356 0.649-9.186 1.822l-6.89-16.633c4.952-2.053 10.381-3.189 16.076-3.189s11.124 1.136 16.076 3.189zM9.189 31.924l16.633 6.89c-1.174 2.83-1.823 5.932-1.823 9.186s0.649 6.356 1.822 9.186l-16.633 6.89c-2.054-4.952-3.189-10.381-3.189-16.076s1.136-11.124 3.189-16.076zM31.924 86.811l6.89-16.633c2.83 1.174 5.932 1.823 9.186 1.823s6.356-0.649 9.186-1.823l6.89 16.633c-4.952 2.053-10.381 3.189-16.076 3.189s-11.124-1.136-16.076-3.189z"></path>
</svg>
