<!-- Generated by IcoMoon.io -->
<svg version="1.1" xmlns="http://www.w3.org/2000/svg" width="96" height="96" viewBox="0 0 96 96">
<title>ligature2</title>
<path d="M80.187 86.011c-1.1 0-7.839-1.238-8.252-2.75-0.963-3.714-1.1-7.702-1.1-12.241v-50.716c0-7.564 1.513-11.966 1.513-11.966-0.138-0.688-0.825-2.201-1.65-2.201h-0.413c-0.413 0-5.226 3.026-9.627 3.026-3.576-0-5.802-3.164-9.928-3.164-17.354 0-25.495 14.092-25.495 34.034v1.038c0 0.413-0.275 0.825-0.688 0.825h-5.639c-0.688 0-2.063 3.851-2.063 5.639 0 0.55 0.137 0.825 0.413 0.825h7.289c0.413 0 0.688 0.55 0.688 0.963 0 12.241-0.137 24.309-0.137 24.309 0 1.926-0.137 6.189-0.963 9.627-0.413 1.513-6.739 2.75-8.389 2.75-0.688 0-0.688 3.301 0 3.989 5.639-0.275 9.352-0.688 14.991-0.688 5.227 0 9.215 0.413 14.716 0.688 0.275-0.825 0.275-3.989-0.412-3.989-1.1 0-7.84-1.238-8.252-2.75-0.963-3.714-0.963-7.702-1.1-12.241v-21.833c0-0.413 0.413-0.825 0.825-0.825h14.166c0.963-1.925 1.651-4.263 1.651-5.501 0-0.825 0-0.963-0.688-0.963h-15.266c-0.275 0-0.688-0.413-0.688-0.688v-4.952c0-12.241 5.014-23.019 13.403-23.019 5.941 0 11.125 3.849 11.125 18.555 0 0.001 0 0.001 0 0.002 0.019 0.378 0.029 0.684 0.029 0.886v40.952c0 1.926-0.138 6.189-0.963 9.627-0.413 1.513-6.739 2.75-8.39 2.75-0.688 0-0.688 3.301 0 3.989 5.639-0.275 9.353-0.688 14.992-0.688 5.226 0 9.215 0.412 14.716 0.688 0.275-0.825 0.275-3.989-0.413-3.989z"></path>
</svg>
