<!-- Generated by IcoMoon.io -->
<svg version="1.1" xmlns="http://www.w3.org/2000/svg" width="96" height="96" viewBox="0 0 96 96">
<title>ligature</title>
<path d="M72 81.733c0-0.004 0-0.007 0-0.011l-0.032-40.928-11.952 0.58h-23.618v-2.015c0-7.645 0.544-15.279 1.616-18.255 0.74-2.058 2.119-3.913 4.097-5.516 1.933-1.566 3.86-2.36 5.729-2.36 1.572 0 2.878 0.27 3.881 0.802 1.409 0.803 2.786 2.153 4.094 4.014 3.464 4.922 4.874 6.23 5.634 6.785 1.294 0.946 2.861 1.426 4.655 1.426 1.75 0 3.278-0.653 4.541-1.942 1.254-1.278 1.889-2.876 1.889-4.75 0-2.011-0.836-4.144-2.485-6.34-1.611-2.146-4.098-3.913-7.391-5.253-3.218-1.309-6.838-1.973-10.76-1.973-5.692 0-10.876 1.368-15.408 4.067-4.54 2.703-8.021 6.464-10.347 11.179-2.156 4.369-2 12.629-2.131 20.129h-11.787v6.694h11.775v30.438c0 6.719-2.054 8.532-2.833 9.499-1.072 1.331-3.052 2.729-5.667 2.729h-3.624v5.266h36.124v-5.266h-0.629c-8.545 0-10.971-0.922-10.971-11.329 0-0.002 0-0.003 0-0.005l-0.004-31.332h13.144c6.975 0 8.578 0.323 8.943 0.462 0.441 0.168 1.012 0.453 1.227 0.857 0.081 0.158 0.487 2.345 0.487 7.779v23.5c0 5.48-0.668 7.303-1.073 7.913-0.867 1.331-1.913 2.069-5.124 2.147v5.273h27.526v-5.236c-8.588 0-9.526-0.921-9.526-9.031z"></path>
</svg>
