<!-- Generated by IcoMoon.io -->
<svg version="1.1" xmlns="http://www.w3.org/2000/svg" width="96" height="96" viewBox="0 0 96 96">
<title>linkedin2</title>
<path d="M36 36h16.604v8.511h0.237c2.31-4.143 7.965-8.511 16.391-8.511 17.526 0 20.767 10.91 20.767 25.1v28.9h-17.307v-25.62c0-6.111-0.125-13.971-9.003-13.971-9.014 0-10.389 6.655-10.389 13.527v26.064h-17.301v-54z"></path>
<path d="M6 36h18v54h-18v-54z"></path>
<path d="M24 21c0 4.971-4.029 9-9 9s-9-4.029-9-9c0-4.971 4.029-9 9-9s9 4.029 9 9z"></path>
</svg>
