<!-- Generated by IcoMoon.io -->
<svg version="1.1" xmlns="http://www.w3.org/2000/svg" width="96" height="96" viewBox="0 0 96 96">
<title>link</title>
<path d="M41.272 59.603c-1.248 0-2.495-0.476-3.447-1.428-8.919-8.919-8.919-23.431 0-32.35l18-18c4.321-4.321 10.065-6.7 16.175-6.7s11.855 2.379 16.175 6.7c8.919 8.919 8.919 23.431 0 32.35l-8.228 8.228c-1.904 1.904-4.99 1.904-6.894 0s-1.904-4.99 0-6.894l8.228-8.228c5.117-5.117 5.117-13.444 0-18.562-2.479-2.479-5.775-3.844-9.281-3.844s-6.802 1.365-9.281 3.844l-18 18c-5.117 5.117-5.117 13.444 0 18.562 1.904 1.904 1.904 4.99 0 6.894-0.952 0.952-2.2 1.428-3.447 1.428z"></path>
<path d="M24 94.875c-6.11 0-11.855-2.379-16.175-6.7-8.919-8.919-8.919-23.431 0-32.35l8.228-8.228c1.904-1.904 4.991-1.904 6.894 0s1.904 4.99 0 6.894l-8.228 8.228c-5.117 5.117-5.117 13.444 0 18.562 2.479 2.479 5.775 3.844 9.281 3.844s6.802-1.365 9.281-3.844l18-18c5.117-5.117 5.117-13.444 0-18.562-1.904-1.904-1.904-4.99 0-6.894s4.99-1.904 6.894 0c8.919 8.919 8.919 23.431 0 32.35l-18 18c-4.321 4.321-10.065 6.7-16.175 6.7z"></path>
</svg>
