<!-- Generated by IcoMoon.io -->
<svg version="1.1" xmlns="http://www.w3.org/2000/svg" width="96" height="96" viewBox="0 0 96 96">
<title>linkedin</title>
<path d="M87 0h-78c-4.95 0-9 4.050-9 9v78c0 4.95 4.050 9 9 9h78c4.95 0 9-4.050 9-9v-78c0-4.95-4.050-9-9-9zM36 78h-12v-42h12v42zM30 30c-3.319 0-6-2.681-6-6s2.681-6 6-6c3.319 0 6 2.681 6 6s-2.681 6-6 6zM78 78h-12v-24c0-3.319-2.681-6-6-6s-6 2.681-6 6v24h-12v-42h12v7.444c2.475-3.394 6.262-7.444 10.5-7.444 7.463 0 13.5 6.713 13.5 15v27z"></path>
</svg>
