<!-- Generated by IcoMoon.io -->
<svg version="1.1" xmlns="http://www.w3.org/2000/svg" width="96" height="96" viewBox="0 0 96 96">
<title>location2</title>
<path d="M48 0c-16.569 0-30 13.431-30 30 0 30 30 66 30 66s30-36 30-66c0-16.569-13.432-30-30-30zM48 48.375c-10.148 0-18.375-8.227-18.375-18.375s8.227-18.375 18.375-18.375 18.375 8.227 18.375 18.375-8.227 18.375-18.375 18.375zM36.375 30c0-6.42 5.205-11.625 11.625-11.625s11.625 5.205 11.625 11.625c0 6.42-5.205 11.625-11.625 11.625s-11.625-5.205-11.625-11.625z"></path>
</svg>
