<!-- Generated by IcoMoon.io -->
<svg version="1.1" xmlns="http://www.w3.org/2000/svg" width="96" height="96" viewBox="0 0 96 96">
<title>loop2</title>
<path d="M83.407 15.592c-8.776-9.583-21.389-15.592-35.408-15.592-26.51 0-48 21.49-48 48h9c0-21.539 17.461-39 39-39 11.533 0 21.895 5.008 29.034 12.966l-14.034 14.034h33v-33l-12.593 12.592z"></path>
<path d="M87 48c0 21.539-17.461 39-39 39-11.533 0-21.895-5.008-29.034-12.966l14.034-14.034h-33v33l12.592-12.593c8.776 9.583 21.389 15.593 35.407 15.593 26.51 0 48-21.49 48-48h-9z"></path>
</svg>
