<!-- Generated by IcoMoon.io -->
<svg version="1.1" xmlns="http://www.w3.org/2000/svg" width="96" height="96" viewBox="0 0 96 96">
<title>magic-wand</title>
<path d="M24 18l-12-12h-6v6l12 12zM30 0h6v12h-6zM54 30h12v6h-12zM60 12v-6h-6l-12 12 6 6zM0 30h12v6h-12zM30 54h6v12h-6zM6 54v6h6l12-12-6-6zM94.688 82.688l-59.636-59.636c-1.75-1.75-4.614-1.75-6.364 0l-5.636 5.636c-1.75 1.75-1.75 4.614 0 6.364l59.636 59.636c1.75 1.75 4.614 1.75 6.364 0l5.636-5.636c1.75-1.75 1.75-4.614 0-6.364zM45 51l-18-18 6-6 18 18-6 6z"></path>
</svg>
