<!-- Generated by IcoMoon.io -->
<svg version="1.1" xmlns="http://www.w3.org/2000/svg" width="96" height="96" viewBox="0 0 96 96">
<title>magnet</title>
<path d="M84 0h-24l6 54c0 9.941-8.059 18-18 18s-18-8.059-18-18l6-54h-24l-6 54c0 23.196 18.804 42 42 42s42-18.804 42-42l-6-54zM72.926 78.926c-6.658 6.658-15.51 10.324-24.926 10.324s-18.268-3.667-24.925-10.324c-6.573-6.574-10.231-15.286-10.323-24.568l3.384-30.452h10.417l-3.302 29.72v0.374c0 6.611 2.574 12.826 7.249 17.501s10.89 7.249 17.501 7.249 12.826-2.574 17.501-7.249c4.675-4.675 7.249-10.89 7.249-17.501v-0.374l-0.041-0.371-3.261-29.348h10.417l3.383 30.452c-0.092 9.282-3.749 17.994-10.323 24.568z"></path>
</svg>
