<!-- Generated by IcoMoon.io -->
<svg version="1.1" xmlns="http://www.w3.org/2000/svg" width="96" height="96" viewBox="0 0 96 96">
<title>mail3</title>
<path d="M80.001 0h-63.999c-8.801 0-16.002 7.201-16.002 16.002v63.996c0 8.807 7.201 16.002 16.002 16.002h63.999c8.801 0 15.999-7.195 15.999-16.002v-63.996c0-8.801-7.198-16.002-15.999-16.002zM17.121 83.121l-7.243-7.243 24-24 2.743 2.743-19.5 28.5zM14.379 18.621l2.743-2.743 30.879 24.879 30.879-24.879 2.743 2.743-33.621 39.621-33.621-39.621zM78.879 83.121l-19.5-28.5 2.743-2.743 24 24-7.243 7.243z"></path>
</svg>
