<!-- Generated by IcoMoon.io -->
<svg version="1.1" xmlns="http://www.w3.org/2000/svg" width="96" height="96" viewBox="0 0 96 96">
<title>mail4</title>
<path d="M48 0c-26.51 0-48 21.49-48 48s21.49 48 48 48 48-21.49 48-48-21.49-48-48-48zM24 24h48c0.857 0 1.688 0.184 2.451 0.531l-26.451 30.859-26.451-30.86c0.763-0.347 1.594-0.531 2.451-0.531zM18 66v-36c0-0.126 0.005-0.251 0.013-0.375l17.593 20.526-17.4 17.4c-0.135-0.5-0.207-1.021-0.207-1.551zM72 72h-48c-0.53 0-1.050-0.071-1.551-0.207l17.074-17.074 8.477 9.89 8.477-9.89 17.073 17.074c-0.501 0.135-1.021 0.206-1.551 0.206zM78 66c0 0.53-0.071 1.050-0.207 1.551l-17.4-17.4 17.594-20.526c0.008 0.124 0.013 0.249 0.013 0.375v36z"></path>
</svg>
