<!-- Generated by IcoMoon.io -->
<svg version="1.1" xmlns="http://www.w3.org/2000/svg" width="96" height="96" viewBox="0 0 96 96">
<title>mail2</title>
<path d="M80.001 0h-63.999c-8.801 0-16.002 7.201-16.002 16.002v63.996c0 8.807 7.201 16.002 16.002 16.002h63.999c8.801 0 15.999-7.195 15.999-16.002v-63.996c0-8.801-7.198-16.002-15.999-16.002zM80.001 12c0.749 0 1.457 0.219 2.064 0.595l-34.065 28.163-34.064-28.162c0.607-0.376 1.317-0.595 2.066-0.595h63.999zM16.002 84c-0.18 0-0.358-0.014-0.533-0.038l21.152-29.341-2.743-2.743-21.879 21.878v-57.294l36 43.537 36-43.537v57.294l-21.879-21.878-2.743 2.743 21.153 29.341c-0.174 0.024-0.351 0.038-0.531 0.038h-63.999z"></path>
</svg>
