<!-- Generated by IcoMoon.io -->
<svg version="1.1" xmlns="http://www.w3.org/2000/svg" width="96" height="96" viewBox="0 0 96 96">
<title>make-group</title>
<path d="M30 12h-12c-3.3 0-6 2.7-6 6v12c0 3.3 2.7 6 6 6h12c3.3 0 6-2.7 6-6v-12c0-3.3-2.7-6-6-6z"></path>
<path d="M66 36h12c3.3 0 6-2.7 6-6v-12c0-3.3-2.7-6-6-6h-12c-3.3 0-6 2.7-6 6v12c0 3.3 2.7 6 6 6zM66 18h12v12h-12v-12z"></path>
<path d="M30 60h-12c-3.3 0-6 2.7-6 6v12c0 3.3 2.7 6 6 6h12c3.3 0 6-2.7 6-6v-12c0-3.3-2.7-6-6-6zM30 78h-12v-12h12v12z"></path>
<path d="M78 60h-12c-3.3 0-6 2.7-6 6v12c0 3.3 2.7 6 6 6h12c3.3 0 6-2.7 6-6v-12c0-3.3-2.7-6-6-6z"></path>
<path d="M84 48h-6c-8.013 0-15.547-3.121-21.213-8.787s-8.787-13.2-8.787-21.213v-6c0-6.6-5.4-12-12-12h-24c-6.6 0-12 5.4-12 12v24c0 6.6 5.4 12 12 12h6c8.013 0 15.547 3.121 21.213 8.787s8.787 13.2 8.787 21.213v6c0 6.6 5.4 12 12 12h24c6.6 0 12-5.4 12-12v-24c0-6.6-5.4-12-12-12zM90 84c0 1.589-0.628 3.092-1.768 4.232s-2.643 1.768-4.232 1.768h-24c-1.589 0-3.092-0.628-4.232-1.768s-1.768-2.643-1.768-4.232v-6c0-19.882-16.118-36-36-36h-6c-1.589 0-3.092-0.628-4.232-1.768s-1.768-2.643-1.768-4.232v-24c0-1.589 0.628-3.092 1.768-4.232s2.643-1.768 4.232-1.768h24c1.589 0 3.092 0.628 4.232 1.768s1.768 2.643 1.768 4.232v6c0 19.882 16.118 36 36 36h6c1.589 0 3.092 0.628 4.232 1.768s1.768 2.643 1.768 4.232v24z"></path>
</svg>
