<!-- Generated by IcoMoon.io -->
<svg version="1.1" xmlns="http://www.w3.org/2000/svg" width="96" height="96" viewBox="0 0 96 96">
<title>meter</title>
<path d="M48 6c26.51 0 48 21.49 48 48 0 18.074-9.992 33.812-24.751 42h-46.498c-14.759-8.188-24.751-23.926-24.751-42 0-26.51 21.49-48 48-48zM75.179 81.179c7.26-7.26 11.258-16.912 11.258-27.179h-8.438v-6h7.972c-0.658-4.219-2.005-8.264-3.99-12h-9.982v-6h6.027c-0.885-1.103-1.833-2.165-2.847-3.179-4.333-4.333-9.519-7.504-15.179-9.356v6.535h-6v-7.973c-1.967-0.306-3.971-0.465-6-0.465s-4.033 0.158-6 0.465v7.973h-6v-6.535c-5.66 1.852-10.846 5.023-15.179 9.356-1.014 1.014-1.962 2.077-2.847 3.179h6.027v6h-9.982c-1.985 3.736-3.333 7.781-3.99 12h7.973v6h-8.438c0 10.267 3.998 19.919 11.258 27.179 1.004 1.004 2.055 1.943 3.146 2.821h18.033l3.429-48h5.143l3.429 48h18.033c1.091-0.877 2.142-1.817 3.146-2.821z"></path>
</svg>
