<!-- Generated by IcoMoon.io -->
<svg version="1.1" xmlns="http://www.w3.org/2000/svg" width="96" height="96" viewBox="0 0 96 96">
<title>meter2</title>
<path d="M48 0c-26.51 0-48 21.49-48 48s21.49 48 48 48 48-21.49 48-48-21.49-48-48-48zM28.391 78.202c1.041-2.872 1.609-5.971 1.609-9.202 0-11.658-7.388-21.59-17.738-25.369 0.957-7.962 4.524-15.328 10.282-21.087 6.8-6.799 15.84-10.544 25.456-10.544s18.656 3.745 25.456 10.544c5.759 5.759 9.325 13.125 10.283 21.087-10.35 3.779-17.739 13.711-17.739 25.369 0 3.231 0.568 6.33 1.609 9.202-5.785 3.773-12.541 5.798-19.609 5.798s-13.824-2.026-19.609-5.798zM51.727 60.093c1.301 0.328 2.273 1.508 2.273 2.907v6c0 1.65-1.35 3-3 3h-6c-1.65 0-3-1.35-3-3v-6c0-1.399 0.972-2.579 2.273-2.907l2.227-42.093h3l2.227 42.093z"></path>
</svg>
