<!-- Generated by IcoMoon.io -->
<svg version="1.1" xmlns="http://www.w3.org/2000/svg" width="96" height="96" viewBox="0 0 96 96">
<title>move-down</title>
<path d="M72 66v-36h-6v36h-15l18 18 18-18z"></path>
<path d="M30 24v18h-18v-18h18zM36 18h-30v30h30v-30z"></path>
<path d="M6 60h9v6h-9v-6z"></path>
<path d="M18 60h9v6h-9v-6z"></path>
<path d="M30 60h6v9h-6v-9z"></path>
<path d="M6 81h6v9h-6v-9z"></path>
<path d="M15 84h9v6h-9v-6z"></path>
<path d="M27 84h9v6h-9v-6z"></path>
<path d="M6 69h6v9h-6v-9z"></path>
<path d="M30 72h6v9h-6v-9z"></path>
</svg>
