<!-- Generated by IcoMoon.io -->
<svg version="1.1" xmlns="http://www.w3.org/2000/svg" width="96" height="96" viewBox="0 0 96 96">
<title>move-up</title>
<path d="M66 48v36h6v-36h15l-18-18-18 18z"></path>
<path d="M6 18h9v6h-9v-6z"></path>
<path d="M18 18h9v6h-9v-6z"></path>
<path d="M30 18h6v9h-6v-9z"></path>
<path d="M6 39h6v9h-6v-9z"></path>
<path d="M15 42h9v6h-9v-6z"></path>
<path d="M27 42h9v6h-9v-6z"></path>
<path d="M6 27h6v9h-6v-9z"></path>
<path d="M30 30h6v9h-6v-9z"></path>
<path d="M30 66v18h-18v-18h18zM36 60h-30v30h30v-30z"></path>
</svg>
