<!-- Generated by IcoMoon.io -->
<svg version="1.1" xmlns="http://www.w3.org/2000/svg" width="96" height="96" viewBox="0 0 96 96">
<title>mug</title>
<path d="M90 30h-18v-9c0-8.284-16.118-15-36-15s-36 6.716-36 15v60c0 8.284 16.118 15 36 15s36-6.716 36-15v-9h18c3.314 0 6-2.686 6-6v-30c0-3.314-2.686-6-6-6zM16.505 24.225c-3.468-1.143-5.569-2.367-6.695-3.225 1.125-0.858 3.226-2.082 6.695-3.225 5.432-1.79 12.355-2.775 19.495-2.775s14.063 0.985 19.495 2.775c3.468 1.143 5.57 2.367 6.695 3.225-1.125 0.858-3.227 2.082-6.695 3.225-5.432 1.79-12.355 2.775-19.495 2.775s-14.063-0.986-19.495-2.775zM84 60h-12v-18h12v18z"></path>
</svg>
