<!-- Generated by IcoMoon.io -->
<svg version="1.1" xmlns="http://www.w3.org/2000/svg" width="96" height="96" viewBox="0 0 96 96">
<title>notification</title>
<path d="M48 9c-10.417 0-20.211 4.057-27.577 11.423s-11.423 17.16-11.423 27.577c0 10.417 4.057 20.211 11.423 27.577s17.16 11.423 27.577 11.423c10.417 0 20.211-4.057 27.577-11.423s11.423-17.16 11.423-27.577c0-10.417-4.057-20.211-11.423-27.577s-17.16-11.423-27.577-11.423zM48 0v0c26.51 0 48 21.49 48 48s-21.49 48-48 48c-26.51 0-48-21.49-48-48s21.49-48 48-48zM42 66h12v12h-12zM42 18h12v36h-12z"></path>
</svg>
