<!-- Generated by IcoMoon.io -->
<svg version="1.1" xmlns="http://www.w3.org/2000/svg" width="96" height="96" viewBox="0 0 96 96">
<title>onedrive</title>
<path d="M32.894 77.661c-5.651-1.412-8.799-5.903-8.809-12.569-0.003-2.131 0.151-3.152 0.683-4.522 1.304-3.359 4.756-5.894 9.298-6.827 2.26-0.464 2.956-0.962 2.956-2.116 0-0.362 0.269-1.44 0.598-2.396 1.494-4.341 4.259-7.96 7.214-9.441 3.093-1.549 4.654-1.899 8.395-1.879 5.313 0.029 7.964 1.181 11.672 5.075l2.039 2.141 1.827-0.632c8.841-3.060 17.654 2.148 18.364 10.852l0.194 2.381 1.741 0.623c4.972 1.782 7.309 5.522 6.885 11.021-0.277 3.596-1.958 6.467-4.622 7.892l-1.252 0.67-27.827 0.053c-21.384 0.041-28.181-0.035-29.356-0.328v0zM9.677 73.684c-3.391-0.852-6.985-4.018-8.67-7.638-0.956-2.054-1.007-2.356-1.007-5.989 0-3.456 0.082-4.010 0.843-5.726 1.604-3.617 4.678-6.231 8.534-7.257 0.814-0.217 1.579-0.563 1.7-0.768s0.255-1.328 0.298-2.493c0.269-7.237 4.762-13.614 11.035-15.662 3.389-1.106 7.835-1.209 11.522 0.349 1.169 0.494 1.038 0.6 3.51-2.826 1.462-2.026 4.229-4.171 6.647-5.454 2.61-1.385 5.324-2.024 8.57-2.015 9.072 0.024 16.891 6.021 19.782 15.173 0.924 2.924 0.878 3.743-0.212 3.767-0.476 0.011-1.838 0.287-3.027 0.615l-2.163 0.596-1.974-2.086c-5.565-5.881-14.647-7.153-22.368-3.131-3.084 1.607-5.563 3.914-7.435 6.92-1.335 2.143-3.037 6.141-3.037 7.134 0 0.704-0.539 1.056-2.844 1.855-7.134 2.473-11.298 8.183-11.295 15.489 0.001 2.66 0.649 5.913 1.549 7.777 0.339 0.703 0.528 1.371 0.42 1.485-0.276 0.291-9.151 0.193-10.378-0.115v0z"></path>
</svg>
