<!-- Generated by IcoMoon.io -->
<svg version="1.1" xmlns="http://www.w3.org/2000/svg" width="96" height="96" viewBox="0 0 96 96">
<title>opera</title>
<path d="M96 48v0 0c0 14.213-6.188 27-16.012 35.775-12.319 6-23.794 1.8-27.581-0.825 12.094-2.644 21.225-17.269 21.225-34.95s-9.131-32.306-21.225-34.969c3.806-2.625 15.281-6.825 27.581-0.825 9.825 8.794 16.012 21.581 16.012 35.794v0 0z"></path>
<path d="M32.194 20.944c-5.306 6.262-8.737 15.525-8.962 25.931 0 0.019 0 2.231 0 2.269 0.225 10.387 3.675 19.65 8.981 25.913 6.881 8.944 17.119 14.606 28.556 14.606 7.031 0 13.613-2.138 19.238-5.869-8.513 7.594-19.725 12.206-32.006 12.206-0.769 0-1.538-0.019-2.288-0.056-25.444-1.2-45.713-22.2-45.713-47.944 0-26.513 21.488-48 48-48 0.056 0 0.112 0 0.188 0 12.225 0.038 23.362 4.65 31.819 12.225-5.625-3.731-12.206-5.888-19.238-5.888-11.438 0-21.675 5.662-28.575 14.606z"></path>
</svg>
