<!-- Generated by IcoMoon.io -->
<svg version="1.1" xmlns="http://www.w3.org/2000/svg" width="96" height="96" viewBox="0 0 96 96">
<title>paste</title>
<path d="M66 12h-12v-6c0-3.3-2.7-6-6-6h-12c-3.3 0-6 2.7-6 6v6h-12v12h48v-12zM48 12h-12v-5.989c0.003-0.004 0.007-0.007 0.011-0.011h11.978c0.004 0.003 0.008 0.007 0.011 0.011v5.989zM78 30v-15c0-1.65-1.35-3-3-3h-6v6h3v12h-18l-18 18v24h-24v-54h3v-6h-6c-1.65 0-3 1.35-3 3v60c0 1.65 1.35 3 3 3h27v18h60v-66h-18zM54 38.485v9.515h-9.515l9.515-9.515zM90 90h-48v-36h18v-18h30v54z"></path>
</svg>
