<!-- Generated by IcoMoon.io -->
<svg version="1.1" xmlns="http://www.w3.org/2000/svg" width="96" height="96" viewBox="0 0 96 96">
<title>paypal</title>
<path d="M87.188 28.931c-4.481 19.894-18.319 30.394-40.125 30.394h-7.256l-5.044 32.025h-6.075l-0.319 2.063c-0.206 1.369 0.844 2.588 2.213 2.588h15.525c1.838 0 3.394-1.331 3.694-3.15l0.15-0.787 2.925-18.544 0.188-1.013c0.281-1.819 1.856-3.15 3.694-3.15h2.306c15.037 0 26.813-6.112 30.263-23.775 1.294-6.712 0.806-12.413-2.137-16.65z"></path>
<path d="M77.906 7.238c-4.444-5.063-12.488-7.238-22.762-7.238h-29.831c-2.1 0-3.9 1.519-4.219 3.6l-12.431 78.787c-0.244 1.556 0.956 2.963 2.531 2.963h18.431l4.631-29.344-0.15 0.919c0.319-2.081 2.1-3.6 4.2-3.6h8.756c17.194 0 30.656-6.975 34.594-27.188 0.113-0.6 0.225-1.181 0.3-1.744 1.162-7.462 0-12.563-4.050-17.156z"></path>
</svg>
