<!-- Generated by IcoMoon.io -->
<svg version="1.1" xmlns="http://www.w3.org/2000/svg" width="96" height="96" viewBox="0 0 96 96">
<title>pen</title>
<path d="M95.453 27.365l-26.818-26.818c-0.875-0.875-2.029-0.678-2.565 0.437l-3.596 7.491 25.050 25.050 7.491-3.596c1.116-0.535 1.313-1.69 0.437-2.565z"></path>
<path d="M57.692 12.692l-24.692 2.058c-1.641 0.203-3.008 0.553-3.477 2.695-0.001 0.002-0.001 0.004-0.002 0.006-6.696 32.163-29.521 63.548-29.521 63.548l5.379 5.379 25.499-25.499c-0.562-1.175-0.878-2.49-0.878-3.88 0-4.971 4.029-9 9-9s9 4.029 9 9-4.029 9-9 9c-1.389 0-2.705-0.315-3.88-0.877l-25.499 25.499 5.379 5.379c0 0 31.385-22.825 63.548-29.521 0.002-0.001 0.004-0.001 0.006-0.002 2.143-0.47 2.492-1.837 2.695-3.477l2.058-24.692-25.615-25.615z"></path>
</svg>
