<!-- Generated by IcoMoon.io -->
<svg version="1.1" xmlns="http://www.w3.org/2000/svg" width="96" height="96" viewBox="0 0 96 96">
<title>phone-hang-up</title>
<path d="M95.379 53.999c0.75 5.201 1.239 12.318-1.093 15.042-3.857 4.504-28.285 4.504-28.285-4.504 0-4.537 4.018-7.513 0.16-12.017-3.794-4.431-10.596-4.503-18.161-4.504-7.564 0.001-14.366 0.073-18.161 4.504-3.857 4.504 0.161 7.479 0.161 12.017 0 9.008-24.428 9.008-28.286 4.504-2.332-2.724-1.844-9.84-1.093-15.042 0.578-3.472 2.037-7.218 6.708-11.999 0-0 0-0 0-0 7.007-6.538 17.611-11.882 40.296-11.997v-0.003c0.126 0 0.25 0.001 0.375 0.001s0.249-0.001 0.375-0.001v0.003c22.686 0.115 33.29 5.459 40.296 11.997 0 0 0 0 0 0 4.671 4.781 6.13 8.527 6.708 11.999z"></path>
</svg>
