<!-- Generated by IcoMoon.io -->
<svg version="1.1" xmlns="http://www.w3.org/2000/svg" width="96" height="96" viewBox="0 0 96 96">
<title>pinterest2</title>
<path d="M48 0c-26.475 0-48 21.525-48 48s21.525 48 48 48 48-21.525 48-48-21.525-48-48-48zM48 89.588c-4.294 0-8.419-0.656-12.319-1.856 1.688-2.756 4.237-7.294 5.175-10.894 0.506-1.95 2.587-9.881 2.587-9.881 1.35 2.587 5.325 4.781 9.525 4.781 12.544 0 21.581-11.531 21.581-25.875 0-13.744-11.213-24.019-25.631-24.019-17.944 0-27.469 12.056-27.469 25.162 0 6.094 3.244 13.688 8.438 16.106 0.787 0.375 1.2 0.206 1.387-0.563 0.131-0.581 0.844-3.394 1.163-4.725 0.094-0.412 0.056-0.787-0.281-1.2-1.725-2.081-3.094-5.925-3.094-9.488 0-9.169 6.938-18.056 18.769-18.056 10.219 0 17.363 6.956 17.363 16.912 0 11.25-5.681 19.050-13.069 19.050-4.088 0-7.144-3.375-6.15-7.519 1.181-4.95 3.45-10.275 3.45-13.837 0-3.188-1.706-5.85-5.269-5.85-4.181 0-7.519 4.313-7.519 10.106 0 3.675 1.238 6.169 1.238 6.169s-4.125 17.419-4.875 20.662c-0.844 3.6-0.506 8.644-0.15 11.925-15.469-6.037-26.438-21.075-26.438-38.7 0-22.969 18.619-41.588 41.587-41.588s41.588 18.619 41.588 41.588c0 22.969-18.619 41.587-41.588 41.587z"></path>
</svg>
