<!-- Generated by IcoMoon.io -->
<svg version="1.1" xmlns="http://www.w3.org/2000/svg" width="96" height="96" viewBox="0 0 96 96">
<title>pinterest</title>
<path d="M48 6.413c-22.969 0-41.588 18.619-41.588 41.587 0 17.625 10.969 32.662 26.437 38.719-0.356-3.281-0.694-8.344 0.15-11.925 0.75-3.244 4.875-20.662 4.875-20.662s-1.237-2.494-1.237-6.169c0-5.775 3.356-10.106 7.519-10.106 3.544 0 5.269 2.663 5.269 5.85 0 3.563-2.269 8.906-3.45 13.837-0.994 4.144 2.063 7.519 6.15 7.519 7.387 0 13.069-7.8 13.069-19.050 0-9.956-7.162-16.913-17.362-16.913-11.831 0-18.769 8.869-18.769 18.056 0 3.581 1.369 7.406 3.094 9.488 0.338 0.413 0.394 0.769 0.281 1.2-0.319 1.313-1.013 4.144-1.162 4.725-0.188 0.769-0.6 0.919-1.387 0.563-5.194-2.419-8.438-10.012-8.438-16.106 0-13.125 9.525-25.163 27.469-25.163 14.419 0 25.631 10.275 25.631 24.019 0 14.325-9.038 25.875-21.581 25.875-4.219 0-8.175-2.194-9.525-4.781 0 0-2.081 7.931-2.587 9.881-0.938 3.619-3.469 8.138-5.175 10.894 3.9 1.2 8.025 1.856 12.319 1.856 22.969 0 41.588-18.619 41.588-41.587 0-22.988-18.619-41.606-41.588-41.606z"></path>
</svg>
