<!-- Generated by IcoMoon.io -->
<svg version="1.1" xmlns="http://www.w3.org/2000/svg" width="96" height="96" viewBox="0 0 96 96">
<title>podcast</title>
<path d="M96 48c0-26.51-21.49-48-48-48s-48 21.49-48 48c0 20.63 13.016 38.219 31.283 45.006l-1.283 2.994h36l-1.283-2.994c18.267-6.788 31.283-24.376 31.283-45.006zM45.637 59.515c-2.138-0.918-3.637-3.041-3.637-5.515 0-3.314 2.686-6 6-6s6 2.686 6 6c0 2.474-1.498 4.598-3.636 5.516l-2.364-5.516-2.363 5.515zM50.463 59.746c5.446-1.136 9.537-5.963 9.537-11.746 0-6.628-5.372-12-12-12s-12 5.372-12 12c0 5.784 4.093 10.605 9.54 11.74l-6.996 16.324c-8.553-3.67-14.544-12.167-14.544-22.064 0-13.255 10.745-25.125 24-25.125s24 11.87 24 25.125c0 9.897-5.991 18.394-14.544 22.064l-6.993-16.318zM64.542 92.598l-6.93-16.171c11.854-4.007 20.388-15.22 20.388-28.427 0-16.568-13.431-30-30-30s-30 13.432-30 30c0 13.207 8.534 24.42 20.388 28.427l-6.93 16.171c-14.962-6.421-25.442-21.284-25.442-38.598 0-23.187 18.797-43.109 41.984-43.109s41.984 19.922 41.984 43.109c0 17.313-10.481 32.177-25.442 38.598z"></path>
</svg>
