<!-- Generated by IcoMoon.io -->
<svg version="1.1" xmlns="http://www.w3.org/2000/svg" width="96" height="96" viewBox="0 0 96 96">
<title>point-down</title>
<path d="M90 39v15c0 4.963-4.037 9-9 9-1.603 0-3.11-0.421-4.415-1.16-1.601 2.5-4.403 4.16-7.585 4.16-2.303 0-4.407-0.87-6-2.297-1.593 1.428-3.697 2.297-6 2.297-1.051 0-2.061-0.181-3-0.514v21.514c0 4.963-4.037 9-9 9s-9-4.037-9-9v-37.001l-16.502 8.797c-1.363 0.787-2.918 1.204-4.498 1.204-4.963 0-9-4.037-9-9 0-2.472 0.982-4.777 2.764-6.49 0.023-0.022 0.046-0.044 0.070-0.066l22.422-20.444h-4.257c-1.657 0-3-1.343-3-3v-18c0-1.657 1.343-3 3-3h60c1.657 0 3 1.343 3 3v18c0 1.657-1.343 3-3 3h-4.146l6.829 13.658c0.209 0.416 0.317 0.876 0.317 1.342zM84 15c0-1.657-1.343-3-3-3s-3 1.343-3 3 1.343 3 3 3 3-1.343 3-3zM84 39.708l-7.854-15.708h-35.984l-27.264 24.86c-0.579 0.569-0.898 1.328-0.898 2.141 0 1.654 1.346 3 3 3 0.512 0 0.995-0.123 1.437-0.365 0.050-0.030 0.1-0.059 0.152-0.087l21-11.195c0.93-0.496 2.052-0.467 2.955 0.075s1.456 1.518 1.456 2.572v42c0 1.654 1.346 3 3 3s3-1.346 3-3v-30c0-1.657 1.343-3 3-3s3 1.343 3 3c0 1.654 1.346 3 3 3s3-1.346 3-3c0-1.657 1.343-3 3-3s3 1.343 3 3c0 1.654 1.346 3 3 3s3-1.346 3-3v-3c0-1.657 1.343-3 3-3s3 1.343 3 3c0 1.654 1.346 3 3 3s3-1.346 3-3v-14.292z"></path>
</svg>
