<!-- Generated by IcoMoon.io -->
<svg version="1.1" xmlns="http://www.w3.org/2000/svg" width="96" height="96" viewBox="0 0 96 96">
<title>point-left</title>
<path d="M57 90h-15c-4.963 0-9-4.037-9-9 0-1.603 0.421-3.11 1.16-4.415-2.5-1.601-4.16-4.402-4.16-7.585 0-2.303 0.87-4.407 2.297-6-1.428-1.593-2.297-3.697-2.297-6 0-1.051 0.181-2.061 0.514-3h-21.514c-4.963 0-9-4.037-9-9s4.037-9 9-9h37.001l-8.797-16.502c-0.787-1.363-1.204-2.918-1.204-4.498 0-4.963 4.037-9 9-9 2.472 0 4.777 0.982 6.49 2.764 0.022 0.023 0.044 0.046 0.066 0.070l20.445 22.422v-4.257c0-1.657 1.343-3 3-3h18c1.657 0 3 1.343 3 3v60c0 1.657-1.343 3-3 3h-18c-1.657 0-3-1.343-3-3v-4.146l-13.658 6.829c-0.416 0.208-0.876 0.317-1.342 0.317zM81 84c1.657 0 3-1.343 3-3s-1.343-3-3-3-3 1.343-3 3 1.343 3 3 3zM56.292 84l15.708-7.854v-35.984l-24.859-27.264c-0.569-0.579-1.328-0.898-2.141-0.898-1.654 0-3 1.346-3 3 0 0.512 0.123 0.995 0.365 1.437 0.030 0.050 0.059 0.1 0.087 0.152l11.195 21c0.496 0.93 0.468 2.052-0.075 2.955s-1.519 1.456-2.572 1.456h-42c-1.654 0-3 1.346-3 3s1.346 3 3 3h30c1.657 0 3 1.343 3 3s-1.343 3-3 3c-1.654 0-3 1.346-3 3s1.346 3 3 3c1.657 0 3 1.343 3 3s-1.343 3-3 3c-1.654 0-3 1.346-3 3s1.346 3 3 3h3c1.657 0 3 1.343 3 3s-1.343 3-3 3c-1.654 0-3 1.346-3 3s1.346 3 3 3h14.292z"></path>
</svg>
