<!-- Generated by IcoMoon.io -->
<svg version="1.1" xmlns="http://www.w3.org/2000/svg" width="96" height="96" viewBox="0 0 96 96">
<title>power-cord</title>
<path d="M96 26.484l-8.485-8.484-16.757 16.758-9.516-9.516 16.758-16.758-8.484-8.484-16.758 16.758-10.758-10.758-8.121 8.121 48 48 8.121-8.121-10.758-10.758 16.758-16.758z"></path>
<path d="M74.441 63.168l-41.608-41.608c-8.983 10.772-19.174 27.418-12.131 41.739l-12.398 12.398c-2.917 2.917-2.917 7.69 0 10.607l1.393 1.393c2.917 2.917 7.69 2.917 10.607 0l12.398-12.398c14.322 7.044 30.967-3.147 41.74-12.13z"></path>
</svg>
