<!-- Generated by IcoMoon.io -->
<svg version="1.1" xmlns="http://www.w3.org/2000/svg" width="120" height="96" viewBox="0 0 120 96">
<title>price-tags</title>
<path d="M115.5 0h-36c-2.475 0-5.932 1.432-7.682 3.182l-44.636 44.636c-1.75 1.75-1.75 4.614 0 6.364l38.636 38.636c1.75 1.75 4.614 1.75 6.364 0l44.636-44.636c1.75-1.75 3.182-5.207 3.182-7.682v-36c0-2.475-2.025-4.5-4.5-4.5zM93 36c-4.971 0-9-4.029-9-9s4.029-9 9-9 9 4.029 9 9-4.029 9-9 9z"></path>
<path d="M12 51l51-51h-7.5c-2.475 0-5.932 1.432-7.682 3.182l-44.636 44.636c-1.75 1.75-1.75 4.614 0 6.364l38.636 38.636c1.75 1.75 4.614 1.75 6.364 0l2.818-2.818-39-39z"></path>
</svg>
