<!-- Generated by IcoMoon.io -->
<svg version="1.1" xmlns="http://www.w3.org/2000/svg" width="96" height="96" viewBox="0 0 96 96">
<title>qrcode</title>
<path d="M30 6h-24v24h24v-24zM36 0v0 36h-36v-36h36zM12 12h12v12h-12zM90 6h-24v24h24v-24zM96 0v0 36h-36v-36h36zM72 12h12v12h-12zM30 66h-24v24h24v-24zM36 60v0 36h-36v-36h36zM12 72h12v12h-12zM42 0h6v6h-6zM48 6h6v6h-6zM42 12h6v6h-6zM48 18h6v6h-6zM42 24h6v6h-6zM48 30h6v6h-6zM42 36h6v6h-6zM42 48h6v6h-6zM48 54h6v6h-6zM42 60h6v6h-6zM48 66h6v6h-6zM42 72h6v6h-6zM48 78h6v6h-6zM42 84h6v6h-6zM48 90h6v6h-6zM90 48h6v6h-6zM6 48h6v6h-6zM12 42h6v6h-6zM0 42h6v6h-6zM24 42h6v6h-6zM30 48h6v6h-6zM36 42h6v6h-6zM54 48h6v6h-6zM60 42h6v6h-6zM66 48h6v6h-6zM72 42h6v6h-6zM78 48h6v6h-6zM84 42h6v6h-6zM90 60h6v6h-6zM54 60h6v6h-6zM60 54h6v6h-6zM66 60h6v6h-6zM78 60h6v6h-6zM84 54h6v6h-6zM90 72h6v6h-6zM54 72h6v6h-6zM60 66h6v6h-6zM72 66h6v6h-6zM78 72h6v6h-6zM84 66h6v6h-6zM90 84h6v6h-6zM60 78h6v6h-6zM66 84h6v6h-6zM72 78h6v6h-6zM78 84h6v6h-6zM60 90h6v6h-6zM72 90h6v6h-6zM84 90h6v6h-6z"></path>
</svg>
