<!-- Generated by IcoMoon.io -->
<svg version="1.1" xmlns="http://www.w3.org/2000/svg" width="96" height="96" viewBox="0 0 96 96">
<title>quotes-right</title>
<path d="M75 60c-11.598 0-21-9.402-21-21s9.402-21 21-21 21 9.402 21 21l0.094 3c0 23.196-18.804 42-42 42v-12c8.013 0 15.547-3.121 21.213-8.787 1.091-1.091 2.086-2.252 2.984-3.471-1.072 0.169-2.171 0.257-3.291 0.257zM21 60c-11.598 0-21-9.402-21-21s9.402-21 21-21 21 9.402 21 21l0.094 3c0 23.196-18.804 42-42 42v-12c8.013 0 15.547-3.121 21.213-8.787 1.091-1.091 2.086-2.252 2.984-3.471-1.072 0.169-2.171 0.257-3.291 0.257z"></path>
</svg>
