<!-- Generated by IcoMoon.io -->
<svg version="1.1" xmlns="http://www.w3.org/2000/svg" width="96" height="96" viewBox="0 0 96 96">
<title>reddit</title>
<path d="M24 60c0-3.314 2.686-6 6-6s6 2.686 6 6c0 3.314-2.686 6-6 6s-6-2.686-6-6zM60 60c0-3.314 2.686-6 6-6s6 2.686 6 6c0 3.314-2.686 6-6 6s-6-2.686-6-6zM60.292 72.823c1.545-1.217 3.785-0.952 5.003 0.594s0.952 3.785-0.594 5.003c-4.303 3.39-10.858 5.58-16.701 5.58s-12.398-2.191-16.701-5.58c-1.546-1.218-1.811-3.458-0.594-5.003s3.458-1.811 5.003-0.594c2.477 1.952 7.38 4.052 12.292 4.052s9.814-2.1 12.292-4.052zM96 48c0-6.627-5.373-12-12-12-4.511 0-8.437 2.491-10.486 6.171-6.168-3.374-13.683-5.554-21.87-6.057l7.161-16.081 13.706 3.956c1.233 3.501 4.567 6.011 8.49 6.011 4.971 0 9-4.029 9-9s-4.029-9-9-9c-3.427 0-6.407 1.916-7.927 4.736l-15.272-4.409c-1.709-0.493-3.519 0.349-4.242 1.974l-9.728 21.846c-7.982 0.562-15.306 2.721-21.341 6.022-2.050-3.68-5.978-6.169-10.489-6.169-6.627 0-12 5.373-12 12 0 4.904 2.944 9.118 7.16 10.978-0.757 2.253-1.16 4.603-1.16 7.022 0 16.568 18.804 30 42 30s42-13.432 42-30c0-2.418-0.403-4.768-1.16-7.021 4.216-1.861 7.16-6.075 7.16-10.979zM81 17.625c1.864 0 3.375 1.511 3.375 3.375s-1.511 3.375-3.375 3.375-3.375-1.511-3.375-3.375 1.511-3.375 3.375-3.375zM6 48c0-3.308 2.692-6 6-6 2.391 0 4.46 1.407 5.423 3.436-3.136 2.378-5.734 5.121-7.656 8.132-2.205-0.888-3.767-3.048-3.767-5.567zM48 88.875c-19.261 0-34.875-10.241-34.875-22.875s15.614-22.875 34.875-22.875c19.261 0 34.875 10.241 34.875 22.875s-15.614 22.875-34.875 22.875zM86.233 53.567c-1.922-3.010-4.52-5.754-7.656-8.132 0.963-2.029 3.032-3.436 5.423-3.436 3.308 0 6 2.692 6 6 0 2.519-1.561 4.679-3.767 5.567z"></path>
</svg>
