<!-- Generated by IcoMoon.io -->
<svg version="1.1" xmlns="http://www.w3.org/2000/svg" width="96" height="96" viewBox="0 0 96 96">
<title>renren</title>
<path d="M39.862 0.994c-22.612 3.806-39.862 23.475-39.862 47.175 0 11.775 4.275 22.556 11.325 30.9 16.744-8.1 28.463-26.438 28.537-47.794v-30.281z"></path>
<path d="M56.137 0.994c22.613 3.806 39.863 23.475 39.863 47.175 0 11.775-4.275 22.556-11.325 30.9-16.744-8.1-28.463-26.438-28.538-47.794v-30.281z"></path>
<path d="M47.831 60.244c-2.981 12.338-11.888 22.875-22.969 29.888 6.825 3.731 14.644 5.869 22.969 5.869s16.144-2.137 22.969-5.869c-11.081-7.012-19.988-17.55-22.969-29.888z"></path>
</svg>
