<!-- Generated by IcoMoon.io -->
<svg version="1.1" xmlns="http://www.w3.org/2000/svg" width="96" height="96" viewBox="0 0 96 96">
<title>rss</title>
<path d="M12.778 70.4c-7.050 0-12.777 5.75-12.777 12.757 0 7.046 5.728 12.731 12.777 12.731 7.075 0 12.796-5.686 12.796-12.731-0-7.007-5.721-12.757-12.796-12.757zM0.015 32.618v18.399c11.98 0 23.246 4.685 31.73 13.173 8.474 8.467 13.151 19.785 13.151 31.809h18.48c-0-34.952-28.433-63.382-63.362-63.382zM0.036 0v18.408c42.73 0 77.508 34.813 77.508 77.592h18.455c0-52.919-43.055-96-95.964-96z"></path>
</svg>
