<!-- Generated by IcoMoon.io -->
<svg version="1.1" xmlns="http://www.w3.org/2000/svg" width="96" height="96" viewBox="0 0 96 96">
<title>rss2</title>
<path d="M87 0h-78c-4.95 0-9 4.050-9 9v78c0 4.95 4.050 9 9 9h78c4.95 0 9-4.050 9-9v-78c0-4.95-4.050-9-9-9zM26.156 77.925c-4.5 0-8.156-3.619-8.156-8.119 0-4.463 3.656-8.138 8.156-8.138 4.519 0 8.156 3.675 8.156 8.138 0 4.5-3.656 8.119-8.156 8.119zM46.631 78c0-7.669-2.981-14.887-8.381-20.287-5.419-5.419-12.6-8.4-20.25-8.4v-11.737c22.275 0 40.425 18.131 40.425 40.425h-11.794zM67.463 78c0-27.281-22.181-49.5-49.444-49.5v-11.737c33.75 0 61.219 27.487 61.219 61.237h-11.775z"></path>
</svg>
