<!-- Generated by IcoMoon.io -->
<svg version="1.1" xmlns="http://www.w3.org/2000/svg" width="96" height="96" viewBox="0 0 96 96">
<title>sad</title>
<path d="M48 96c26.51 0 48-21.49 48-48s-21.49-48-48-48-48 21.49-48 48 21.49 48 48 48zM48 9c21.539 0 39 17.461 39 39s-17.461 39-39 39-39-17.461-39-39 17.461-39 39-39zM24 30c0-3.314 2.686-6 6-6s6 2.686 6 6c0 3.314-2.686 6-6 6s-6-2.686-6-6zM60 30c0-3.314 2.686-6 6-6s6 2.686 6 6c0 3.314-2.686 6-6 6s-6-2.686-6-6zM29.991 73.194l-7.718-4.631c5.246-8.725 14.805-14.564 25.727-14.564s20.481 5.838 25.727 14.564l-7.718 4.631c-3.673-6.108-10.363-10.194-18.009-10.194s-14.337 4.087-18.009 10.194z"></path>
</svg>
