<!-- Generated by IcoMoon.io -->
<svg version="1.1" xmlns="http://www.w3.org/2000/svg" width="96" height="96" viewBox="0 0 96 96">
<title>safari</title>
<path d="M48 0c-26.513 0-48 21.487-48 48s21.487 48 48 48 48-21.488 48-48-21.488-48-48-48zM89.85 44.325l-0.094-0.994c0.019 0.338 0.056 0.656 0.094 0.994zM83.287 25.2l-0.675-1.013c0.225 0.338 0.45 0.675 0.675 1.013zM80.681 21.619l-0.412-0.506c0.15 0.169 0.281 0.338 0.412 0.506zM74.869 15.712l-0.506-0.412c0.188 0.15 0.337 0.281 0.506 0.412zM71.813 13.388l-1.012-0.675c0.337 0.225 0.675 0.45 1.012 0.675zM52.669 6.262l-1.012-0.094c0.338 0.019 0.675 0.056 1.012 0.094zM44.325 6.15l-1.013 0.094c0.338-0.019 0.675-0.056 1.013-0.094zM25.2 12.712l-1.013 0.675c0.338-0.225 0.675-0.45 1.013-0.675zM21.619 15.319l-0.487 0.394c0.169-0.131 0.319-0.262 0.487-0.394zM15.712 21.131l-0.412 0.506c0.15-0.169 0.281-0.338 0.412-0.506zM13.388 24.188l-0.675 1.013c0.225-0.338 0.45-0.675 0.675-1.013zM6.262 43.331l-0.094 1.013c0.019-0.338 0.056-0.675 0.094-1.013zM6.15 51.675l0.094 1.012c-0.019-0.338-0.056-0.675-0.094-1.012zM12.712 70.781l0.675 1.012c-0.225-0.319-0.45-0.656-0.675-1.012zM13.5 71.963l7.481-5.006-0.825-1.256-7.481 5.006c-3.394-5.269-5.625-11.325-6.375-17.85l4.481-0.45-0.15-1.5-4.481 0.45c-0.075-0.862-0.112-1.744-0.131-2.625h9v-1.5h-9c0.019-0.881 0.056-1.744 0.131-2.625l4.481 0.431 0.15-1.5-4.481-0.431c0.75-6.525 3-12.581 6.394-17.85l7.481 5.006 0.825-1.256-7.5-4.969c0.506-0.712 1.013-1.425 1.556-2.1l3.469 2.85 0.956-1.163-3.469-2.85c0.563-0.675 1.162-1.313 1.762-1.95l6.356 6.356 1.069-1.069-6.356-6.356c0.638-0.6 1.275-1.2 1.931-1.763l2.85 3.487 1.163-0.956-2.85-3.469c0.694-0.544 1.387-1.069 2.1-1.575l5.006 7.481 1.256-0.825-5.006-7.481c5.269-3.394 11.325-5.625 17.85-6.375l0.45 4.481 1.5-0.15-0.45-4.481c0.862-0.075 1.744-0.112 2.625-0.131v9h1.5v-9c0.881 0.019 1.744 0.056 2.625 0.131l-0.431 4.481 1.5 0.15 0.431-4.481c6.525 0.75 12.581 3 17.85 6.394l-5.006 7.481 1.256 0.825 5.006-7.481c0.713 0.506 1.425 1.013 2.1 1.556l-2.85 3.469 1.163 0.956 2.85-3.469c0.675 0.563 1.313 1.163 1.95 1.763l-2.4 2.344-32.812 21.881-21.881 32.812-2.344 2.344c-0.6-0.637-1.2-1.275-1.762-1.931l3.469-2.85-0.956-1.162-3.469 2.85c-0.544-0.675-1.050-1.387-1.556-2.1zM15.712 74.869c-0.131-0.169-0.262-0.319-0.394-0.488l0.394 0.488zM21.131 80.287l0.487 0.394c-0.169-0.131-0.319-0.263-0.487-0.394zM24.188 82.594l1.013 0.675c-0.338-0.206-0.675-0.431-1.013-0.675zM43.331 89.738l1.013 0.094c-0.338-0.019-0.675-0.056-1.013-0.094zM51.675 89.85l0.994-0.094c-0.337 0.019-0.656 0.056-0.994 0.094zM70.8 83.287l1.012-0.675c-0.338 0.225-0.675 0.45-1.012 0.675zM74.381 80.681l0.506-0.412c-0.169 0.15-0.337 0.281-0.506 0.412zM77.662 77.738l0.075-0.075c-0.019 0.019-0.056 0.056-0.075 0.075zM80.287 74.869l0.412-0.506c-0.15 0.169-0.281 0.337-0.412 0.506zM80.944 74.063l-3.469-2.85-0.956 1.162 3.469 2.85c-0.563 0.675-1.163 1.313-1.763 1.95l-6.356-6.356-1.069 1.069 6.356 6.356c-0.637 0.6-1.275 1.2-1.931 1.763l-2.85-3.488-1.162 0.956 2.85 3.469c-0.694 0.544-1.387 1.069-2.1 1.575l-5.006-7.481-1.256 0.825 5.006 7.481c-5.269 3.394-11.325 5.625-17.85 6.375l-0.45-4.481-1.5 0.15 0.45 4.481c-0.862 0.075-1.744 0.113-2.625 0.131v-9h-1.5v9c-0.881-0.019-1.744-0.056-2.625-0.131l0.431-4.481-1.5-0.15-0.431 4.481c-6.525-0.75-12.581-3-17.85-6.394l5.006-7.481-1.256-0.825-4.969 7.481c-0.712-0.506-1.425-1.012-2.1-1.556l2.85-3.469-1.163-0.956-2.85 3.469c-0.675-0.563-1.313-1.162-1.95-1.762l2.363-2.344 32.812-21.881 21.881-32.813 2.344-2.344c0.6 0.638 1.2 1.275 1.763 1.931l-3.469 2.85 0.956 1.162 3.469-2.85c0.544 0.694 1.069 1.388 1.575 2.1l-7.481 5.006 0.825 1.256 7.481-5.006c3.394 5.269 5.625 11.325 6.375 17.85l-4.481 0.45 0.15 1.5 4.481-0.45c0.075 0.863 0.112 1.744 0.131 2.625h-9v1.5h9c-0.019 0.881-0.056 1.744-0.131 2.625l-4.481-0.431-0.15 1.5 4.481 0.431c-0.75 6.525-3 12.581-6.394 17.85l-7.481-5.006-0.825 1.256 7.481 5.006c-0.487 0.675-1.012 1.369-1.556 2.063zM89.85 51.656c-0.037 0.338-0.056 0.675-0.094 1.012l0.094-1.012zM83.287 70.8c-0.225 0.337-0.45 0.675-0.675 1.012l0.675-1.012z"></path>
<path d="M40.55 6.663l1.756 8.827-1.471 0.293-1.756-8.827 1.471-0.293z"></path>
<path d="M55.468 89.339l-1.756-8.827 1.471-0.293 1.756 8.827-1.471 0.293z"></path>
<path d="M36.528 7.583l1.307 4.306-1.435 0.436-1.307-4.306 1.435-0.436z"></path>
<path d="M59.478 88.396l-1.307-4.306 1.435-0.436 1.307 4.306-1.435 0.436z"></path>
<path d="M32.626 8.916l3.444 8.315-1.386 0.574-3.444-8.315 1.386-0.574z"></path>
<path d="M63.387 87.090l-3.444-8.315 1.386-0.574 3.444 8.315-1.386 0.574z"></path>
<path d="M27.527 11.312l1.323-0.707 2.122 3.969-1.323 0.707-2.122-3.969z"></path>
<path d="M68.447 84.683l-1.323 0.707-2.122-3.969 1.323-0.707 2.122 3.969z"></path>
<path d="M11.306 27.546l3.969 2.121-0.707 1.323-3.969-2.121 0.707-1.323z"></path>
<path d="M84.679 68.456l-3.969-2.121 0.707-1.323 3.969 2.121-0.707 1.323z"></path>
<path d="M17.232 36.058l-8.315-3.444 0.574-1.386 8.315 3.444-0.574 1.386z"></path>
<path d="M78.78 59.934l8.315 3.444-0.574 1.386-8.315-3.444 0.574-1.386z"></path>
<path d="M8.020 35.099l4.306 1.306-0.435 1.436-4.307-1.306 0.435-1.435z"></path>
<path d="M87.966 60.906l-4.306-1.306 0.435-1.436 4.306 1.306-0.435 1.436z"></path>
<path d="M6.944 39.073l8.827 1.756-0.293 1.471-8.827-1.756 0.293-1.471z"></path>
<path d="M89.038 56.929l-8.827-1.756 0.293-1.471 8.827 1.756-0.293 1.471z"></path>
<path d="M6.653 55.458l8.827-1.756 0.293 1.471-8.827 1.756-0.293-1.471z"></path>
<path d="M89.329 40.54l-8.827 1.756-0.293-1.471 8.827-1.756 0.293 1.471z"></path>
<path d="M7.591 59.486l4.306-1.307 0.436 1.435-4.306 1.307-0.436-1.435z"></path>
<path d="M88.403 36.535l-4.306 1.307-0.436-1.435 4.306-1.307 0.436 1.435z"></path>
<path d="M9.482 64.773l-0.574-1.386 8.315-3.444 0.574 1.386-8.315 3.444z"></path>
<path d="M86.512 31.24l0.574 1.386-8.315 3.443-0.574-1.386 8.315-3.443z"></path>
<path d="M11.327 68.463l-0.707-1.323 3.969-2.122 0.707 1.323-3.969 2.122z"></path>
<path d="M84.699 27.542l0.707 1.323-3.969 2.122-0.707-1.323 3.969-2.122z"></path>
<path d="M28.864 85.392l-1.323-0.707 2.121-3.969 1.323 0.707-2.121 3.969z"></path>
<path d="M67.132 10.601l1.323 0.707-2.121 3.969-1.323-0.707 2.121-3.969z"></path>
<path d="M31.244 86.512l3.444-8.315 1.386 0.574-3.444 8.315-1.386-0.574z"></path>
<path d="M64.77 9.479l-3.444 8.315-1.386-0.574 3.444-8.315 1.386 0.574z"></path>
<path d="M36.528 88.409l-1.435-0.435 1.306-4.306 1.435 0.435-1.306 4.306z"></path>
<path d="M59.47 7.583l1.436 0.435-1.305 4.306-1.435-0.435 1.305-4.307z"></path>
<path d="M40.544 89.329l-1.471-0.293 1.756-8.827 1.471 0.293-1.756 8.827z"></path>
<path d="M55.456 6.653l1.471 0.293-1.756 8.827-1.471-0.293 1.756-8.827z"></path>
</svg>
