<!-- Generated by IcoMoon.io -->
<svg version="1.1" xmlns="http://www.w3.org/2000/svg" width="96" height="96" viewBox="0 0 96 96">
<title>scissors</title>
<path d="M85.671 63.721c-6.252-9.769-16.976-14.069-23.954-9.603-0.603 0.386-1.156 0.825-1.664 1.311l-7.449-11.65 17.2-26.997c1.408-2.6 1.927-5.696 1.244-8.81-0.654-2.977-2.298-5.479-4.51-7.24l-1.151-0.732-20.388 31.886-20.388-31.886-1.151 0.732c-2.211 1.762-3.856 4.263-4.509 7.24-0.684 3.114-0.164 6.21 1.244 8.81l17.2 26.997-7.449 11.65c-0.507-0.485-1.061-0.925-1.663-1.311-6.978-4.465-17.702-0.166-23.954 9.603s-5.662 21.308 1.316 25.773c6.978 4.465 17.702 0.166 23.954-9.603l15.402-24.175 15.402 24.175c6.252 9.769 16.976 14.069 23.954 9.603s7.567-16.005 1.315-25.773zM22.017 75.040c-2.814 4.397-6.425 6.537-8.866 7.073-0 0-0 0-0 0-0.796 0.175-1.903 0.282-2.655-0.2-0.834-0.534-1.388-1.945-1.481-3.776-0.151-2.967 0.904-6.453 2.896-9.566 2.814-4.397 6.425-6.537 8.865-7.073 0.797-0.175 1.904-0.282 2.657 0.199 0.834 0.534 1.388 1.945 1.481 3.776 0.152 2.967-0.904 6.454-2.895 9.566zM45 48c-1.657 0-3-1.343-3-3s1.343-3 3-3 3 1.343 3 3-1.343 3-3 3zM80.986 78.138c-0.093 1.831-0.647 3.242-1.481 3.776-0.753 0.482-1.859 0.375-2.655 0.2 0 0 0 0-0 0-2.441-0.536-6.052-2.676-8.866-7.073-1.992-3.112-3.047-6.599-2.895-9.566 0.093-1.83 0.647-3.242 1.481-3.776 0.753-0.481 1.86-0.374 2.657-0.199 2.441 0.536 6.051 2.675 8.865 7.073 1.992 3.112 3.047 6.599 2.896 9.566z"></path>
</svg>
