<!-- Generated by IcoMoon.io -->
<svg version="1.1" xmlns="http://www.w3.org/2000/svg" width="96" height="96" viewBox="0 0 96 96">
<title>section</title>
<path d="M46.497 96c-4.628 0-8.542-1.351-11.635-4.014-3.115-2.683-4.694-5.816-4.694-9.314 0-1.7 0.619-3.165 1.84-4.355 1.24-1.211 2.792-1.851 4.486-1.851 1.688 0 3.206 0.601 4.39 1.738 1.169 1.122 1.762 2.608 1.762 4.416 0 1.061-0.173 2.233-0.515 3.482-0.339 1.235-0.41 1.869-0.41 2.184 0 0.345 0.087 0.757 0.729 1.196 1.196 0.827 2.631 1.227 4.395 1.227 2.117 0 4.005-0.737 5.773-2.252 1.742-1.495 2.589-3.030 2.589-4.693 0-1.85-0.494-3.452-1.511-4.898-1.719-2.415-4.957-5.246-9.62-8.406-7.487-5.011-12.475-9.353-15.242-13.268-2.146-3.064-3.232-6.365-3.232-9.816 0-3.475 1.138-6.933 3.384-10.278 1.923-2.864 4.763-5.449 8.459-7.7-1.978-2.128-3.459-4.131-4.415-5.971-1.207-2.321-1.819-4.722-1.819-7.136 0-4.483 1.773-8.359 5.269-11.521 3.499-3.165 7.862-4.77 12.968-4.77 4.696 0 8.644 1.32 11.736 3.924 3.124 2.633 4.708 5.709 4.708 9.144 0 1.749-0.655 3.315-1.947 4.656l-0.026 0.026c-0.748 0.743-2.12 1.628-4.411 1.628-1.795 0-3.369-0.588-4.551-1.7-1.177-1.106-1.775-2.43-1.775-3.934 0-0.65 0.16-1.633 0.502-3.092 0.167-0.69 0.25-1.326 0.25-1.898 0-0.969-0.349-1.713-1.099-2.341-0.776-0.65-1.885-0.966-3.388-0.966-2.331 0-4.245 0.709-5.851 2.167-1.612 1.463-2.395 3.196-2.395 5.298 0 1.89 0.428 3.446 1.273 4.628 1.604 2.244 4.387 4.668 8.271 7.203 7.891 5.118 13.397 9.813 16.361 13.952 2.189 3.105 3.296 6.407 3.296 9.824 0 3.431-1.114 6.89-3.311 10.282-1.894 2.923-4.755 5.557-8.52 7.848 2.079 2.2 3.545 4.129 4.458 5.863 1.133 2.153 1.707 4.505 1.707 6.988 0 4.656-1.774 8.612-5.273 11.758-3.501 3.146-7.862 4.741-12.965 4.741zM41.852 33.407c-4.521 2.714-6.723 5.83-6.723 9.498 0 2.133 0.609 4.043 1.862 5.839 1.869 2.618 5.557 5.818 10.95 9.496 2.284 1.555 4.346 3.067 6.149 4.506 4.599-2.766 6.84-5.847 6.84-9.392 0-1.931-0.763-4.010-2.269-6.18-1.576-2.268-4.955-5.231-10.043-8.804-2.656-1.834-4.927-3.5-6.766-4.962z"></path>
</svg>
