<!-- Generated by IcoMoon.io -->
<svg version="1.1" xmlns="http://www.w3.org/2000/svg" width="96" height="96" viewBox="0 0 96 96">
<title>share2</title>
<path d="M81 66c-4.234 0-8.055 1.757-10.782 4.578l-40.407-20.203c0.123-0.774 0.189-1.566 0.189-2.374s-0.066-1.601-0.189-2.374l40.407-20.203c2.727 2.821 6.549 4.578 10.782 4.578 8.284 0 15-6.716 15-15s-6.716-15-15-15-15 6.716-15 15c0 0.808 0.066 1.601 0.189 2.374l-40.407 20.204c-2.727-2.821-6.549-4.578-10.782-4.578-8.284 0-15 6.716-15 15s6.716 15 15 15c4.234 0 8.055-1.757 10.782-4.578l40.407 20.203c-0.123 0.773-0.189 1.566-0.189 2.374 0 8.284 6.716 15 15 15s15-6.716 15-15c0-8.284-6.716-15-15-15z"></path>
</svg>
