<!-- Generated by IcoMoon.io -->
<svg version="1.1" xmlns="http://www.w3.org/2000/svg" width="96" height="96" viewBox="0 0 96 96">
<title>shift</title>
<path d="M63 84h-30c-1.657 0-3-1.343-3-3v-33h-12c-1.213 0-2.307-0.731-2.772-1.852s-0.208-2.411 0.65-3.269l30-30c1.172-1.171 3.071-1.171 4.243 0l30 30c0.858 0.858 1.115 2.148 0.65 3.269s-1.558 1.852-2.772 1.852h-12v33c0 1.657-1.343 3-3 3zM36 78h24v-33c0-1.657 1.343-3 3-3h7.757l-22.757-22.757-22.757 22.757h7.757c1.657 0 3 1.343 3 3v33z"></path>
</svg>
