<!-- Generated by IcoMoon.io -->
<svg version="1.1" xmlns="http://www.w3.org/2000/svg" width="96" height="96" viewBox="0 0 96 96">
<title>shocked</title>
<path d="M48 96c26.51 0 48-21.49 48-48s-21.49-48-48-48-48 21.49-48 48 21.49 48 48 48zM48 9c21.539 0 39 17.461 39 39s-17.461 39-39 39-39-17.461-39-39 17.461-39 39-39zM36 66c0-6.627 5.373-12 12-12s12 5.373 12 12c0 6.627-5.373 12-12 12s-12-5.373-12-12zM60 33c0-4.971 2.686-9 6-9s6 4.029 6 9c0 4.971-2.686 9-6 9s-6-4.029-6-9zM24 33c0-4.971 2.686-9 6-9s6 4.029 6 9c0 4.971-2.686 9-6 9s-6-4.029-6-9z"></path>
</svg>
