<!-- Generated by IcoMoon.io -->
<svg version="1.1" xmlns="http://www.w3.org/2000/svg" width="96" height="96" viewBox="0 0 96 96">
<title>sina-weibo</title>
<path d="M40.331 84.188c-15.9 1.575-29.625-5.625-30.656-16.050-1.031-10.444 11.025-20.156 26.906-21.731 15.9-1.575 29.625 5.625 30.638 16.050 1.050 10.444-11.006 20.175-26.888 21.731zM72.113 49.556c-1.35-0.413-2.288-0.675-1.575-2.456 1.537-3.862 1.688-7.181 0.019-9.563-3.112-4.444-11.644-4.219-21.412-0.112 0 0-3.075 1.331-2.287-1.087 1.5-4.838 1.275-8.869-1.069-11.213-5.306-5.306-19.406 0.206-31.5 12.3-9.038 9.019-14.288 18.638-14.288 26.944 0 15.862 20.363 25.519 40.275 25.519 26.1 0 43.481-15.169 43.481-27.206 0-7.294-6.131-11.419-11.644-13.125z"></path>
<path d="M89.456 20.494c-6.3-6.994-15.6-9.656-24.188-7.837v0c-1.988 0.431-3.244 2.381-2.813 4.35 0.431 1.987 2.363 3.244 4.35 2.813 6.112-1.294 12.713 0.6 17.194 5.569s5.7 11.737 3.769 17.663v0c-0.619 1.931 0.431 3.994 2.362 4.631 1.931 0.619 3.994-0.431 4.631-2.363v-0.019c2.7-8.288 0.994-17.813-5.306-24.806z"></path>
<path d="M79.762 29.25c-3.075-3.412-7.612-4.706-11.775-3.806-1.706 0.356-2.794 2.063-2.438 3.769 0.375 1.706 2.063 2.794 3.75 2.419v0c2.044-0.431 4.256 0.206 5.756 1.856 1.5 1.669 1.912 3.938 1.256 5.925v0c-0.525 1.65 0.375 3.45 2.044 3.994 1.669 0.525 3.45-0.375 3.994-2.044 1.313-4.069 0.487-8.719-2.588-12.112z"></path>
<path d="M41.213 65.306c-0.563 0.956-1.781 1.406-2.738 1.012-0.956-0.375-1.237-1.463-0.694-2.381 0.563-0.919 1.744-1.369 2.681-1.012 0.938 0.337 1.275 1.406 0.75 2.381zM36.131 71.794c-1.537 2.456-4.837 3.525-7.312 2.4-2.438-1.106-3.169-3.956-1.631-6.356 1.519-2.381 4.706-3.45 7.162-2.419 2.494 1.069 3.3 3.9 1.781 6.375zM41.906 54.431c-7.556-1.969-16.106 1.8-19.388 8.456-3.356 6.788-0.112 14.344 7.519 16.819 7.912 2.55 17.25-1.369 20.494-8.681 3.206-7.181-0.787-14.55-8.625-16.594z"></path>
</svg>
