<!-- Generated by IcoMoon.io -->
<svg version="1.1" xmlns="http://www.w3.org/2000/svg" width="96" height="96" viewBox="0 0 96 96">
<title>skype</title>
<path d="M39.9 3.506c-0.15-0.094-0.319-0.169-0.469-0.244-0.169 0.038-0.319 0.056-0.488 0.094l0.956 0.15z"></path>
<path d="M3.45 39.469c-0.038 0.169-0.056 0.338-0.075 0.487 0.094 0.15 0.15 0.3 0.244 0.45l-0.169-0.938z"></path>
<path d="M92.512 56.494c0.038-0.169 0.056-0.338 0.094-0.506-0.094-0.15-0.15-0.3-0.244-0.45l0.15 0.956z"></path>
<path d="M55.5 92.156c0.15 0.094 0.319 0.169 0.469 0.244 0.169-0.037 0.338-0.056 0.506-0.075l-0.975-0.169z"></path>
<path d="M92.606 55.988c-0.037 0.169-0.056 0.337-0.094 0.506l-0.169-0.975c0.094 0.169 0.169 0.319 0.262 0.469 0.488-2.7 0.75-5.456 0.75-8.212 0-6.113-1.2-12.056-3.563-17.644-2.287-5.4-5.55-10.256-9.712-14.419s-9.019-7.425-14.4-9.712c-5.588-2.363-11.531-3.563-17.644-3.563-2.888 0-5.775 0.263-8.587 0.806 0 0-0.019 0-0.019 0 0.15 0.075 0.319 0.15 0.469 0.244l-0.956-0.15c0.169-0.038 0.319-0.056 0.487-0.094-3.862-2.044-8.194-3.15-12.581-3.15-7.163 0-13.913 2.794-18.975 7.856s-7.856 11.813-7.856 18.975c0 4.556 1.181 9.056 3.375 13.013 0.038-0.169 0.056-0.338 0.075-0.488l0.169 0.956c-0.094-0.15-0.169-0.3-0.244-0.45-0.45 2.569-0.675 5.194-0.675 7.819 0 6.112 1.2 12.056 3.563 17.644 2.288 5.4 5.55 10.238 9.712 14.4s9.019 7.425 14.419 9.713c5.587 2.363 11.531 3.563 17.644 3.563 2.662 0 5.325-0.244 7.931-0.713-0.15-0.094-0.3-0.169-0.469-0.244l0.975 0.169c-0.169 0.037-0.338 0.056-0.506 0.075 4.012 2.269 8.569 3.487 13.2 3.487 7.162 0 13.912-2.794 18.975-7.856s7.856-11.813 7.856-18.975c-0.019-4.556-1.2-9.056-3.413-13.050zM48.206 75.544c-16.106 0-23.306-7.912-23.306-13.856 0-3.037 2.25-5.175 5.344-5.175 6.9 0 5.1 9.9 17.963 9.9 6.581 0 10.219-3.581 10.219-7.237 0-2.194-1.087-4.631-5.419-5.7l-14.325-3.581c-11.531-2.888-13.631-9.131-13.631-15 0-12.169 11.456-16.744 22.219-16.744 9.919 0 21.6 5.475 21.6 12.787 0 3.131-2.719 4.95-5.813 4.95-5.888 0-4.8-8.138-16.65-8.138-5.888 0-9.131 2.663-9.131 6.469s4.65 5.025 8.681 5.944l10.613 2.362c11.606 2.588 14.55 9.375 14.55 15.75 0 9.881-7.594 17.269-22.912 17.269z"></path>
</svg>
