<!-- Generated by IcoMoon.io -->
<svg version="1.1" xmlns="http://www.w3.org/2000/svg" width="96" height="96" viewBox="0 0 96 96">
<title>sleepy</title>
<path d="M48 96c26.51 0 48-21.49 48-48s-21.49-48-48-48-48 21.49-48 48 21.49 48 48 48zM48 9c21.539 0 39 17.461 39 39s-17.461 39-39 39-39-17.461-39-39 17.461-39 39-39z"></path>
<path d="M60 63c0 8.284-5.373 15-12 15s-12-6.716-12-15c0-8.284 5.373-15 12-15s12 6.716 12 15z"></path>
<path d="M39 31.875c-0.768 0-1.535-0.293-2.121-0.879-1.813-1.812-5.945-1.812-7.757 0-1.171 1.172-3.071 1.172-4.243 0s-1.172-3.071 0-4.243c4.175-4.175 12.068-4.175 16.243 0 1.172 1.171 1.172 3.071 0 4.243-0.586 0.586-1.354 0.879-2.121 0.879z"></path>
<path d="M69 31.875c-0.768 0-1.535-0.293-2.121-0.879-1.812-1.812-5.945-1.812-7.757 0-1.171 1.172-3.071 1.172-4.243 0s-1.172-3.071 0-4.243c4.175-4.175 12.068-4.175 16.243 0 1.172 1.171 1.172 3.071 0 4.243-0.586 0.586-1.354 0.879-2.121 0.879z"></path>
</svg>
