<!-- Generated by IcoMoon.io -->
<svg version="1.1" xmlns="http://www.w3.org/2000/svg" width="96" height="96" viewBox="0 0 96 96">
<title>sleepy2</title>
<path d="M48 0c-26.51 0-48 21.49-48 48s21.49 48 48 48 48-21.49 48-48-21.49-48-48-48zM29.121 30.996c-1.172 1.172-3.071 1.172-4.243 0s-1.172-3.071 0-4.243c4.175-4.175 12.068-4.175 16.243 0 1.172 1.171 1.172 3.071 0 4.243-0.586 0.586-1.354 0.879-2.121 0.879s-1.535-0.293-2.121-0.879c-1.813-1.812-5.945-1.812-7.757 0zM48 78c-6.628 0-12-6.716-12-15s5.373-15 12-15 12 6.716 12 15-5.373 15-12 15zM71.121 30.996c-0.586 0.586-1.354 0.879-2.121 0.879s-1.535-0.293-2.121-0.879c-1.812-1.812-5.945-1.812-7.757 0-1.171 1.172-3.071 1.172-4.243 0s-1.172-3.071 0-4.243c4.175-4.175 12.068-4.175 16.243 0 1.172 1.172 1.172 3.071 0 4.243z"></path>
</svg>
