<!-- Generated by IcoMoon.io -->
<svg version="1.1" xmlns="http://www.w3.org/2000/svg" width="96" height="96" viewBox="0 0 96 96">
<title>smile2</title>
<path d="M48 0c-26.51 0-48 21.49-48 48s21.49 48 48 48 48-21.49 48-48-21.49-48-48-48zM66 24c3.314 0 6 2.686 6 6s-2.686 6-6 6-6-2.686-6-6 2.686-6 6-6zM30 24c3.314 0 6 2.686 6 6s-2.686 6-6 6-6-2.686-6-6 2.686-6 6-6zM48 78c-10.923 0-20.481-5.838-25.727-14.564l7.718-4.631c3.673 6.108 10.363 10.194 18.009 10.194s14.337-4.087 18.009-10.194l7.718 4.631c-5.246 8.725-14.805 14.564-25.727 14.564z"></path>
</svg>
