<!-- Generated by IcoMoon.io -->
<svg version="1.1" xmlns="http://www.w3.org/2000/svg" width="96" height="96" viewBox="0 0 96 96">
<title>sort-alpha-asc</title>
<path d="M30 72v-72h-12v72h-15l21 21 21-21h-15z"></path>
<path d="M87 96h-24c-1.106 0-2.123-0.609-2.645-1.584s-0.465-2.159 0.149-3.080l20.891-31.336h-18.394c-1.657 0-3-1.343-3-3s1.343-3 3-3h24c1.106 0 2.123 0.609 2.645 1.584s0.465 2.159-0.149 3.080l-20.89 31.336h18.394c1.657 0 3 1.343 3 3s-1.343 3-3 3z"></path>
<path d="M95.683 37.658l-18-36c-0.508-1.016-1.547-1.658-2.683-1.658s-2.175 0.642-2.683 1.658l-18 36c-0.741 1.482-0.14 3.284 1.342 4.025 0.431 0.215 0.888 0.317 1.34 0.317 1.1 0 2.16-0.608 2.685-1.659l5.171-10.342h20.292l5.171 10.342c0.741 1.482 2.543 2.082 4.025 1.342s2.083-2.543 1.342-4.025zM67.854 24l7.146-14.292 7.146 14.292h-14.292z"></path>
</svg>
