<!-- Generated by IcoMoon.io -->
<svg version="1.1" xmlns="http://www.w3.org/2000/svg" width="96" height="96" viewBox="0 0 96 96">
<title>sort-numberic-desc</title>
<path d="M30 72v-72h-12v72h-15l21 21 21-21h-15z"></path>
<path d="M81 96c-1.657 0-3-1.343-3-3v-33h-3c-1.657 0-3-1.343-3-3s1.343-3 3-3h6c1.657 0 3 1.343 3 3v36c0 1.657-1.343 3-3 3z"></path>
<path d="M87 0h-18c-1.657 0-3 1.343-3 3v18c0 1.657 1.343 3 3 3h15v12h-15c-1.657 0-3 1.343-3 3s1.343 3 3 3h18c1.657 0 3-1.343 3-3v-36c0-1.657-1.343-3-3-3zM72 6h12v12h-12v-12z"></path>
</svg>
