<!-- Generated by IcoMoon.io -->
<svg version="1.1" xmlns="http://www.w3.org/2000/svg" width="96" height="96" viewBox="0 0 96 96">
<title>soundcloud2</title>
<path d="M87 0h-78c-4.95 0-9 4.050-9 9v78c0 4.95 4.050 9 9 9h78c4.95 0 9-4.050 9-9v-78c0-4.95-4.050-9-9-9zM16.5 66h-3l-1.5-9 1.5-9h3l1.5 9-1.5 9zM28.5 66h-3l-1.5-12 1.5-12h3l1.5 12-1.5 12zM40.5 66h-3l-1.5-18 1.5-18h3l1.5 18-1.5 18zM77.363 66c-0.188 0-28.238-0.019-28.256-0.019-0.6-0.056-1.087-0.581-1.106-1.2v-32.362c0-0.6 0.206-0.9 0.975-1.2 1.988-0.769 4.219-1.219 6.525-1.219 9.394 0 17.1 7.2 17.925 16.406 1.219-0.506 2.55-0.787 3.938-0.787 5.625 0 10.2 4.575 10.2 10.2s-4.575 10.181-10.2 10.181z"></path>
</svg>
