<!-- Generated by IcoMoon.io -->
<svg version="1.1" xmlns="http://www.w3.org/2000/svg" width="96" height="96" viewBox="0 0 96 96">
<title>soundcloud</title>
<path d="M83.621 48.207c-1.696 0-3.314 0.33-4.787 0.924-0.985-10.721-10.34-19.131-21.75-19.131-2.792 0-5.501 0.528-7.905 1.422-0.934 0.347-1.179 0.705-1.179 1.398v37.754c0 0.728 0.585 1.334 1.324 1.406 0.032 0.003 34.082 0.020 34.302 0.020 6.835 0 12.374-5.326 12.374-11.896s-5.544-11.897-12.379-11.897zM37.5 72h3l1.5-21.021-1.5-20.979h-3l-1.5 20.979zM28.5 72h-3l-1.5-15.258 1.5-14.742h3l1.5 15zM13.5 72h3l1.5-12-1.5-12h-3l-1.5 12zM1.5 66h3l1.5-6-1.5-6h-3l-1.5 6z"></path>
</svg>
