<!-- Generated by IcoMoon.io -->
<svg version="1.1" xmlns="http://www.w3.org/2000/svg" width="96" height="96" viewBox="0 0 96 96">
<title>spell-check</title>
<path d="M12 24h12v18h6v-36c0-3.3-2.7-6-6-6h-12c-3.3 0-6 2.7-6 6v36h6v-18zM12 6h12v12h-12v-12zM90 6v-6h-18c-3.3 0-6 2.7-6 6v30c0 3.3 2.7 6 6 6h18v-6h-18v-30h18zM60 15v-9c0-3.3-2.7-6-6-6h-18v42h18c3.3 0 6-2.7 6-6v-9c0-3.3-0.825-6-4.125-6 3.3 0 4.125-2.7 4.125-6zM54 36h-12v-12h12v12zM54 18h-12v-12h12v12zM78 54l-39 42-21-27 7.688-6.563 13.313 13.875 33-28.313z"></path>
</svg>
