<!-- Generated by IcoMoon.io -->
<svg version="1.1" xmlns="http://www.w3.org/2000/svg" width="96" height="96" viewBox="0 0 96 96">
<title>sphere</title>
<path d="M45 6c-24.853 0-45 20.147-45 45s20.147 45 45 45c24.853 0 45-20.147 45-45s-20.147-45-45-45zM70.462 66c0.804-3.793 1.312-7.818 1.477-12h11.948c-0.313 4.143-1.277 8.167-2.876 12h-10.549zM19.538 36c-0.804 3.793-1.312 7.818-1.477 12h-11.948c0.313-4.143 1.277-8.167 2.876-12h10.549zM64.316 36c0.901 3.84 1.444 7.861 1.62 12h-17.936v-12h16.316zM48 30v-17.563c1.368 0.398 2.723 1.066 4.053 2.003 2.492 1.757 4.876 4.463 6.894 7.827 1.395 2.325 2.602 4.914 3.609 7.733h-14.556zM31.053 22.267c2.018-3.364 4.402-6.070 6.894-7.827 1.33-0.938 2.685-1.605 4.053-2.003v17.563h-14.556c1.007-2.819 2.214-5.407 3.609-7.733zM42 36v12h-17.936c0.176-4.139 0.719-8.16 1.62-12h16.316zM8.989 66c-1.599-3.833-2.563-7.857-2.876-12h11.948c0.165 4.182 0.673 8.207 1.477 12h-10.549zM24.064 54h17.936v12h-16.316c-0.901-3.84-1.444-7.861-1.62-12zM42 72v17.563c-1.368-0.398-2.723-1.066-4.053-2.003-2.492-1.757-4.876-4.463-6.894-7.827-1.395-2.325-2.602-4.914-3.609-7.733h14.556zM58.947 79.733c-2.018 3.363-4.402 6.070-6.894 7.827-1.33 0.937-2.685 1.605-4.053 2.003v-17.563h14.556c-1.007 2.819-2.214 5.407-3.609 7.733zM48 66v-12h17.936c-0.176 4.139-0.719 8.16-1.62 12h-16.316zM71.939 48c-0.165-4.182-0.673-8.207-1.477-12h10.549c1.599 3.833 2.564 7.857 2.876 12h-11.948zM77.874 30h-8.991c-1.747-5.509-4.16-10.34-7.061-14.196 3.988 1.907 7.599 4.464 10.754 7.619 2.014 2.014 3.784 4.213 5.297 6.577zM17.423 23.423c3.155-3.155 6.767-5.712 10.754-7.619-2.901 3.856-5.313 8.687-7.061 14.196h-8.99c1.513-2.364 3.283-4.564 5.297-6.577zM12.126 72h8.99c1.747 5.509 4.16 10.34 7.061 14.197-3.988-1.907-7.599-4.464-10.754-7.619-2.014-2.014-3.784-4.213-5.297-6.577zM72.577 78.577c-3.155 3.155-6.767 5.713-10.754 7.619 2.901-3.856 5.314-8.688 7.061-14.197h8.991c-1.513 2.364-3.283 4.564-5.297 6.577z"></path>
</svg>
