<!-- Generated by IcoMoon.io -->
<svg version="1.1" xmlns="http://www.w3.org/2000/svg" width="96" height="96" viewBox="0 0 96 96">
<title>spinner11</title>
<path d="M96 36h-36l13.456-13.456c-6.8-6.799-15.84-10.544-25.456-10.544s-18.656 3.745-25.456 10.544c-6.799 6.8-10.544 15.84-10.544 25.456s3.745 18.656 10.544 25.456c6.8 6.799 15.84 10.544 25.456 10.544s18.656-3.745 25.456-10.544c0.568-0.568 1.112-1.152 1.637-1.75l9.030 7.901c-8.798 10.047-21.718 16.393-36.122 16.393-26.51 0-48-21.49-48-48s21.49-48 48-48c13.255 0 25.253 5.374 33.939 14.061l14.061-14.061v36z"></path>
</svg>
