<!-- Generated by IcoMoon.io -->
<svg version="1.1" xmlns="http://www.w3.org/2000/svg" width="96" height="96" viewBox="0 0 96 96">
<title>spinner2</title>
<path d="M96 48c-0.12-6.268-1.48-12.517-3.992-18.231-2.504-5.719-6.137-10.899-10.598-15.18-4.458-4.284-9.745-7.671-15.467-9.905-5.719-2.243-11.868-3.314-17.944-3.184-6.076 0.12-12.125 1.441-17.656 3.877-5.536 2.428-10.551 5.95-14.694 10.273-4.146 4.32-7.421 9.441-9.58 14.981-2.167 5.537-3.2 11.486-3.070 17.369 0.121 5.884 1.403 11.733 3.763 17.082 2.352 5.353 5.763 10.203 9.948 14.208 4.182 4.008 9.138 7.172 14.495 9.255 5.355 2.091 11.104 3.085 16.795 2.956 5.691-0.121 11.34-1.364 16.507-3.648 5.17-2.276 9.855-5.576 13.722-9.623 3.87-4.044 6.923-8.835 8.93-14.009 1.222-3.137 2.051-6.413 2.488-9.731 0.117 0.007 0.234 0.011 0.353 0.011 3.314 0 6-2.686 6-6 0-0.168-0.009-0.335-0.022-0.5h0.022zM86.466 63.933c-2.2 4.988-5.389 9.506-9.298 13.236-3.907 3.732-8.531 6.674-13.523 8.605-4.99 1.939-10.34 2.855-15.645 2.726-5.307-0.122-10.556-1.288-15.358-3.419-4.805-2.125-9.158-5.202-12.749-8.973-3.594-3.769-6.424-8.228-8.28-13.037-1.863-4.808-2.74-9.958-2.612-15.071 0.122-5.114 1.25-10.164 3.305-14.783 2.049-4.622 5.015-8.81 8.648-12.263 3.631-3.456 7.925-6.175 12.551-7.955 4.625-1.787 9.575-2.626 14.496-2.498 4.922 0.122 9.771 1.211 14.209 3.191 4.439 1.973 8.461 4.828 11.777 8.323 3.318 3.493 5.926 7.621 7.63 12.064 1.711 4.443 2.511 9.193 2.383 13.922h0.022c-0.013 0.165-0.022 0.331-0.022 0.5 0 3.095 2.343 5.641 5.352 5.965-0.584 3.265-1.55 6.452-2.886 9.468z"></path>
</svg>
