<!-- Generated by IcoMoon.io -->
<svg version="1.1" xmlns="http://www.w3.org/2000/svg" width="96" height="96" viewBox="0 0 96 96">
<title>spinner6</title>
<path d="M36 12c0-6.627 5.373-12 12-12s12 5.373 12 12c0 6.627-5.373 12-12 12s-12-5.373-12-12zM74.156 48c0 0 0 0 0 0 0-5.437 4.407-9.844 9.844-9.844s9.844 4.407 9.844 9.844c0 0 0 0 0 0 0 5.437-4.407 9.844-9.844 9.844s-9.844-4.407-9.844-9.844zM64.54 73.456c0-4.924 3.992-8.916 8.916-8.916s8.916 3.992 8.916 8.916c0 4.924-3.992 8.916-8.916 8.916s-8.916-3.992-8.916-8.916zM39.925 84c0-4.46 3.615-8.075 8.075-8.075s8.075 3.615 8.075 8.075c0 4.46-3.615 8.075-8.075 8.075s-8.075-3.615-8.075-8.075zM15.23 73.456c0-4.040 3.275-7.314 7.314-7.314s7.314 3.275 7.314 7.314c0 4.039-3.275 7.314-7.314 7.314s-7.314-3.275-7.314-7.314zM5.375 48c0-3.659 2.966-6.625 6.625-6.625s6.625 2.966 6.625 6.625c0 3.659-2.966 6.625-6.625 6.625s-6.625-2.966-6.625-6.625zM16.544 22.544c0 0 0 0 0 0 0-3.314 2.686-6 6-6s6 2.686 6 6c0 0 0 0 0 0 0 3.314-2.686 6-6 6s-6-2.686-6-6zM84.325 22.544c0 6.002-4.866 10.869-10.869 10.869s-10.869-4.867-10.869-10.869c0-6.003 4.867-10.869 10.869-10.869s10.869 4.866 10.869 10.869z"></path>
</svg>
