<!-- Generated by IcoMoon.io -->
<svg version="1.1" xmlns="http://www.w3.org/2000/svg" width="96" height="96" viewBox="0 0 96 96">
<title>spinner3</title>
<path d="M48 28.415c-3.090 0-5.596-2.505-5.596-5.596v-16.787c0-3.090 2.505-5.596 5.596-5.596s5.596 2.505 5.596 5.596v16.787c0 3.090-2.506 5.596-5.596 5.596z"></path>
<path d="M48 93.465c-1.931 0-3.497-1.566-3.497-3.497v-16.787c0-1.931 1.566-3.497 3.497-3.497s3.497 1.566 3.497 3.497v16.787c0 1.931-1.566 3.497-3.497 3.497z"></path>
<path d="M35.415 31.44c-1.813 0-3.576-0.941-4.548-2.624l-8.393-14.538c-1.449-2.509-0.589-5.717 1.92-7.166s5.717-0.589 7.166 1.92l8.393 14.538c1.449 2.509 0.589 5.717-1.92 7.166-0.826 0.477-1.728 0.704-2.618 0.704z"></path>
<path d="M68.987 87.493c-1.088 0-2.146-0.565-2.729-1.574l-8.393-14.538c-0.869-1.505-0.353-3.43 1.152-4.3s3.43-0.353 4.3 1.152l8.394 14.538c0.869 1.505 0.353 3.43-1.152 4.3-0.496 0.286-1.037 0.422-1.571 0.422z"></path>
<path d="M26.188 40.307c-0.831 0-1.672-0.211-2.443-0.657l-14.538-8.393c-2.342-1.352-3.144-4.346-1.792-6.688s4.347-3.144 6.688-1.792l14.538 8.393c2.342 1.352 3.144 4.346 1.792 6.688-0.906 1.571-2.552 2.449-4.245 2.449z"></path>
<path d="M84.342 71.782c-0.475 0-0.956-0.121-1.396-0.375l-14.538-8.393c-1.338-0.773-1.797-2.484-1.024-3.822s2.484-1.797 3.822-1.024l14.538 8.394c1.338 0.772 1.797 2.484 1.024 3.822-0.518 0.898-1.459 1.4-2.426 1.4z"></path>
<path d="M22.82 52.546h-16.787c-2.511 0-4.546-2.035-4.546-4.546s2.035-4.546 4.546-4.546h16.787c2.511 0 4.547 2.035 4.547 4.546s-2.035 4.546-4.547 4.546z"></path>
<path d="M89.967 50.798c-0 0 0 0 0 0h-16.787c-1.545-0-2.798-1.253-2.798-2.798s1.253-2.798 2.798-2.798c0 0 0 0 0 0h16.787c1.545 0 2.798 1.253 2.798 2.798s-1.253 2.798-2.798 2.798z"></path>
<path d="M11.659 73.181c-1.45 0-2.861-0.753-3.638-2.099-1.159-2.007-0.471-4.574 1.536-5.733l14.538-8.394c2.007-1.16 4.574-0.471 5.733 1.536s0.471 4.574-1.536 5.733l-14.538 8.393c-0.661 0.382-1.383 0.563-2.094 0.563z"></path>
<path d="M69.809 38.208c-0.967 0-1.907-0.502-2.426-1.399-0.773-1.338-0.314-3.049 1.024-3.822l14.538-8.393c1.338-0.772 3.049-0.314 3.822 1.024s0.314 3.049-1.024 3.822l-14.538 8.393c-0.441 0.254-0.922 0.375-1.396 0.375z"></path>
<path d="M27.013 88.192c-0.653 0-1.314-0.166-1.92-0.516-1.84-1.062-2.47-3.415-1.408-5.255l8.393-14.538c1.062-1.84 3.415-2.471 5.255-1.408s2.47 3.415 1.408 5.255l-8.393 14.538c-0.712 1.234-2.005 1.924-3.335 1.924z"></path>
<path d="M60.587 28.991c-0.475 0-0.956-0.121-1.396-0.375-1.338-0.773-1.797-2.484-1.024-3.822l8.394-14.538c0.773-1.338 2.484-1.797 3.822-1.024s1.797 2.484 1.024 3.822l-8.394 14.538c-0.518 0.897-1.459 1.399-2.426 1.399z"></path>
</svg>
