<!-- Generated by IcoMoon.io -->
<svg version="1.1" xmlns="http://www.w3.org/2000/svg" width="96" height="96" viewBox="0 0 96 96">
<title>spinner10</title>
<path d="M0.004 48.152l-0.002 0c0 0 0.001 0.008 0.003 0.021 0.010 0.364 0.052 0.72 0.124 1.064 0.019 0.164 0.040 0.343 0.063 0.541 0.021 0.177 0.043 0.367 0.067 0.57 0.035 0.241 0.072 0.496 0.112 0.767 0.080 0.539 0.169 1.137 0.273 1.777 0.126 0.604 0.263 1.258 0.409 1.956 0.067 0.349 0.167 0.703 0.261 1.069 0.096 0.365 0.195 0.74 0.296 1.125 0.053 0.191 0.097 0.387 0.16 0.582 0.061 0.194 0.124 0.392 0.186 0.591 0.126 0.397 0.256 0.803 0.388 1.218 0.033 0.104 0.066 0.207 0.1 0.312 0.038 0.103 0.076 0.207 0.115 0.311 0.077 0.208 0.155 0.418 0.235 0.629 0.159 0.421 0.321 0.851 0.486 1.288 0.184 0.428 0.372 0.864 0.563 1.306 0.095 0.22 0.192 0.442 0.289 0.665 0.098 0.223 0.213 0.441 0.319 0.663 0.218 0.442 0.439 0.89 0.662 1.344 0.232 0.449 0.488 0.892 0.736 1.343 0.125 0.225 0.251 0.451 0.378 0.678 0.128 0.226 0.272 0.445 0.408 0.669 0.277 0.444 0.556 0.893 0.838 1.345 1.185 1.771 2.501 3.522 3.957 5.182 1.473 1.648 3.068 3.211 4.752 4.65 1.704 1.419 3.494 2.71 5.318 3.854 1.838 1.128 3.717 2.092 5.567 2.92 0.469 0.191 0.934 0.381 1.395 0.569 0.231 0.091 0.456 0.191 0.688 0.274 0.232 0.081 0.462 0.163 0.691 0.243 0.459 0.158 0.907 0.325 1.358 0.468 0.453 0.134 0.9 0.267 1.342 0.398 0.221 0.063 0.437 0.134 0.657 0.189 0.22 0.054 0.438 0.107 0.655 0.16 0.432 0.105 0.857 0.208 1.275 0.309 0.422 0.081 0.837 0.161 1.244 0.24 0.203 0.038 0.404 0.077 0.603 0.115 0.1 0.019 0.199 0.037 0.297 0.056 0.099 0.014 0.199 0.027 0.297 0.041 0.393 0.055 0.777 0.108 1.153 0.16 0.187 0.026 0.372 0.051 0.555 0.077 0.182 0.027 0.366 0.035 0.545 0.053 0.358 0.031 0.707 0.062 1.047 0.092 0.339 0.028 0.666 0.064 0.987 0.069 0.022 0.001 0.042 0.001 0.064 0.002 0.058 3.264 2.719 5.892 5.997 5.892 0.051 0 0.101-0.003 0.152-0.004v0.002c0 0 0.008-0.001 0.021-0.003 0.364-0.010 0.719-0.052 1.064-0.124 0.164-0.019 0.343-0.040 0.541-0.063 0.177-0.021 0.367-0.043 0.57-0.067 0.241-0.035 0.496-0.072 0.767-0.112 0.539-0.080 1.137-0.169 1.777-0.273 0.604-0.126 1.258-0.263 1.956-0.409 0.349-0.067 0.704-0.167 1.069-0.261 0.365-0.096 0.74-0.195 1.125-0.296 0.192-0.053 0.387-0.097 0.582-0.16 0.194-0.061 0.391-0.124 0.591-0.186 0.397-0.126 0.803-0.256 1.218-0.388 0.104-0.033 0.207-0.066 0.312-0.1 0.103-0.038 0.207-0.076 0.311-0.115 0.208-0.077 0.418-0.155 0.629-0.234 0.422-0.159 0.851-0.321 1.288-0.486 0.428-0.184 0.864-0.372 1.306-0.563 0.22-0.095 0.442-0.192 0.665-0.289 0.223-0.098 0.441-0.213 0.663-0.32 0.442-0.218 0.89-0.439 1.343-0.662 0.449-0.232 0.892-0.488 1.343-0.736 0.225-0.125 0.451-0.251 0.678-0.378 0.226-0.128 0.445-0.272 0.669-0.408 0.444-0.277 0.893-0.556 1.345-0.838 1.771-1.185 3.522-2.501 5.182-3.957 1.648-1.473 3.211-3.068 4.65-4.752 1.419-1.705 2.71-3.493 3.854-5.318 1.128-1.838 2.092-3.717 2.92-5.566 0.191-0.469 0.381-0.934 0.569-1.395 0.091-0.231 0.191-0.456 0.274-0.688 0.082-0.232 0.162-0.462 0.243-0.692 0.158-0.459 0.325-0.907 0.468-1.358 0.134-0.453 0.267-0.9 0.398-1.342 0.063-0.221 0.134-0.437 0.189-0.657 0.053-0.22 0.107-0.438 0.16-0.655 0.105-0.432 0.208-0.857 0.309-1.275 0.081-0.422 0.161-0.837 0.24-1.244 0.038-0.203 0.077-0.404 0.115-0.603 0.019-0.099 0.037-0.198 0.056-0.297 0.014-0.1 0.028-0.199 0.042-0.297 0.055-0.393 0.108-0.777 0.16-1.153 0.026-0.187 0.052-0.372 0.077-0.555 0.027-0.182 0.035-0.366 0.053-0.545 0.032-0.358 0.062-0.707 0.092-1.047 0.029-0.339 0.064-0.666 0.069-0.987 0.002-0.050 0.004-0.098 0.005-0.148 3.302-0.014 5.975-2.694 5.975-5.999 0-0.051-0.003-0.101-0.004-0.152h0.002c0 0-0.001-0.008-0.003-0.021-0.010-0.364-0.052-0.719-0.124-1.064-0.019-0.164-0.040-0.343-0.063-0.542-0.021-0.177-0.043-0.367-0.067-0.57-0.035-0.241-0.072-0.496-0.112-0.767-0.080-0.539-0.169-1.137-0.273-1.777-0.126-0.604-0.263-1.258-0.409-1.956-0.067-0.349-0.166-0.704-0.261-1.070-0.096-0.365-0.195-0.74-0.296-1.125-0.053-0.192-0.097-0.388-0.16-0.582-0.061-0.195-0.124-0.391-0.186-0.591-0.126-0.397-0.256-0.803-0.388-1.218-0.033-0.103-0.066-0.207-0.1-0.312-0.038-0.103-0.076-0.207-0.115-0.311-0.077-0.208-0.155-0.418-0.235-0.629-0.159-0.422-0.321-0.851-0.486-1.288-0.184-0.428-0.372-0.864-0.563-1.306-0.096-0.22-0.192-0.442-0.289-0.665-0.098-0.223-0.213-0.441-0.32-0.663-0.218-0.442-0.439-0.89-0.662-1.343-0.232-0.449-0.488-0.892-0.736-1.343-0.125-0.225-0.251-0.451-0.378-0.678-0.128-0.226-0.272-0.445-0.408-0.669-0.277-0.444-0.556-0.893-0.838-1.345-1.185-1.771-2.501-3.522-3.957-5.182-1.473-1.648-3.068-3.211-4.752-4.65-1.704-1.419-3.493-2.71-5.318-3.854-1.838-1.128-3.717-2.092-5.567-2.92-0.469-0.191-0.934-0.381-1.395-0.569-0.231-0.091-0.456-0.191-0.688-0.274-0.232-0.082-0.462-0.163-0.691-0.243-0.459-0.158-0.907-0.325-1.358-0.468-0.453-0.134-0.9-0.267-1.342-0.398-0.221-0.063-0.437-0.134-0.657-0.189-0.22-0.054-0.438-0.107-0.655-0.16-0.432-0.105-0.857-0.208-1.275-0.309-0.422-0.081-0.837-0.161-1.244-0.24-0.203-0.039-0.404-0.077-0.603-0.115-0.1-0.019-0.199-0.037-0.297-0.056-0.099-0.014-0.199-0.028-0.297-0.041-0.393-0.055-0.777-0.108-1.153-0.16-0.187-0.026-0.372-0.052-0.555-0.077-0.182-0.027-0.366-0.035-0.545-0.053-0.358-0.031-0.707-0.062-1.047-0.092-0.339-0.029-0.666-0.064-0.987-0.069-0.080-0.003-0.157-0.006-0.235-0.009-0.061-3.261-2.721-5.885-5.997-5.885-0.051 0-0.101 0.003-0.152 0.004l-0-0.002c0 0-0.008 0.001-0.021 0.003-0.364 0.010-0.72 0.052-1.064 0.124-0.164 0.019-0.343 0.040-0.542 0.063-0.177 0.021-0.367 0.043-0.57 0.067-0.241 0.035-0.496 0.072-0.766 0.112-0.539 0.080-1.137 0.169-1.777 0.273-0.604 0.126-1.258 0.263-1.956 0.409-0.349 0.067-0.703 0.167-1.069 0.261-0.365 0.096-0.74 0.195-1.125 0.296-0.192 0.053-0.387 0.098-0.582 0.16-0.194 0.062-0.391 0.124-0.591 0.186-0.397 0.126-0.803 0.256-1.218 0.388-0.103 0.033-0.207 0.066-0.312 0.1-0.103 0.038-0.207 0.076-0.311 0.115-0.208 0.077-0.418 0.155-0.629 0.234-0.422 0.159-0.851 0.321-1.288 0.486-0.428 0.184-0.864 0.372-1.306 0.563-0.22 0.095-0.442 0.192-0.665 0.289-0.223 0.098-0.441 0.213-0.663 0.32-0.442 0.218-0.89 0.439-1.343 0.662-0.449 0.232-0.892 0.488-1.343 0.736-0.225 0.125-0.451 0.251-0.678 0.378-0.226 0.128-0.445 0.272-0.669 0.408-0.444 0.277-0.893 0.556-1.345 0.838-1.771 1.185-3.522 2.501-5.182 3.957-1.648 1.473-3.211 3.068-4.65 4.752-1.419 1.705-2.71 3.494-3.854 5.318-1.128 1.838-2.092 3.717-2.92 5.566-0.191 0.469-0.381 0.934-0.569 1.395-0.091 0.231-0.191 0.456-0.274 0.688-0.082 0.232-0.162 0.462-0.243 0.691-0.158 0.459-0.325 0.907-0.468 1.358-0.134 0.453-0.267 0.9-0.397 1.342-0.063 0.221-0.134 0.437-0.189 0.657-0.053 0.22-0.107 0.438-0.16 0.655-0.105 0.432-0.208 0.857-0.309 1.275-0.081 0.422-0.161 0.837-0.24 1.244-0.038 0.203-0.077 0.404-0.115 0.603-0.019 0.099-0.037 0.198-0.056 0.297-0.014 0.1-0.028 0.199-0.042 0.297-0.055 0.393-0.108 0.777-0.16 1.153-0.026 0.187-0.052 0.372-0.077 0.555-0.027 0.182-0.035 0.366-0.053 0.545-0.031 0.358-0.062 0.707-0.092 1.047-0.029 0.339-0.064 0.666-0.069 0.987-0.002 0.051-0.004 0.101-0.005 0.152-3.223 0.104-5.803 2.747-5.803 5.995 0 0.051 0.003 0.101 0.004 0.152zM6.892 42.066c0.004-0.018 0.008-0.036 0.012-0.054 0.060-0.305 0.153-0.613 0.24-0.932 0.088-0.318 0.178-0.645 0.27-0.98 0.048-0.167 0.088-0.338 0.145-0.507 0.056-0.169 0.113-0.34 0.17-0.513 0.114-0.345 0.231-0.698 0.35-1.059 0.030-0.090 0.059-0.18 0.090-0.271 0.035-0.089 0.069-0.179 0.104-0.27 0.070-0.18 0.141-0.363 0.212-0.547 0.143-0.366 0.288-0.739 0.436-1.118 0.166-0.371 0.334-0.749 0.505-1.133 0.085-0.191 0.171-0.383 0.257-0.577s0.191-0.382 0.286-0.574c0.194-0.383 0.391-0.771 0.59-1.164 0.206-0.388 0.436-0.771 0.656-1.162 0.111-0.194 0.223-0.39 0.335-0.586 0.113-0.196 0.242-0.385 0.363-0.578 0.245-0.384 0.493-0.772 0.742-1.163 1.053-1.528 2.215-3.037 3.5-4.466 1.301-1.416 2.704-2.757 4.181-3.989 1.498-1.212 3.064-2.311 4.657-3.283 1.606-0.956 3.244-1.766 4.85-2.462 0.408-0.159 0.812-0.317 1.213-0.473 0.2-0.076 0.395-0.16 0.596-0.229 0.201-0.067 0.401-0.134 0.6-0.2 0.398-0.13 0.786-0.271 1.176-0.388 0.392-0.11 0.779-0.219 1.162-0.326 0.191-0.052 0.377-0.112 0.568-0.156 0.19-0.043 0.379-0.086 0.567-0.128 0.373-0.085 0.74-0.169 1.101-0.252 0.364-0.064 0.723-0.128 1.075-0.19 0.175-0.031 0.348-0.062 0.52-0.092 0.086-0.015 0.171-0.030 0.256-0.045 0.086-0.011 0.171-0.021 0.256-0.031 0.339-0.042 0.67-0.083 0.994-0.123 0.161-0.020 0.321-0.040 0.478-0.060 0.157-0.021 0.315-0.025 0.47-0.038 0.309-0.022 0.609-0.044 0.901-0.066s0.573-0.049 0.849-0.048c0.548-0.012 1.061-0.024 1.536-0.035 0.437 0.016 0.839 0.030 1.202 0.043 0.179 0.005 0.349 0.010 0.509 0.015 0.199 0.013 0.385 0.024 0.559 0.035 0.2 0.013 0.381 0.025 0.546 0.036 0.305 0.048 0.618 0.073 0.937 0.073 0.044 0 0.087-0.002 0.131-0.003 0.012 0.001 0.021 0.001 0.021 0.001v-0.002c2.919-0.073 5.32-2.23 5.771-5.039 0.051 0.011 0.1 0.022 0.151 0.033 0.304 0.060 0.613 0.153 0.932 0.24 0.317 0.088 0.645 0.178 0.98 0.27 0.167 0.048 0.338 0.088 0.507 0.145 0.169 0.056 0.34 0.113 0.514 0.17 0.345 0.114 0.698 0.231 1.059 0.35 0.090 0.030 0.18 0.059 0.271 0.090 0.090 0.035 0.179 0.069 0.27 0.104 0.181 0.070 0.363 0.141 0.547 0.212 0.366 0.143 0.739 0.288 1.119 0.436 0.371 0.166 0.749 0.334 1.133 0.505 0.191 0.085 0.383 0.171 0.577 0.257s0.382 0.191 0.574 0.286c0.383 0.194 0.771 0.391 1.163 0.59 0.388 0.206 0.771 0.436 1.162 0.656 0.194 0.111 0.39 0.223 0.587 0.335 0.196 0.113 0.385 0.242 0.578 0.363 0.384 0.245 0.772 0.493 1.163 0.742 1.528 1.053 3.037 2.215 4.466 3.5 1.416 1.301 2.757 2.704 3.989 4.181 1.212 1.498 2.311 3.064 3.283 4.657 0.956 1.606 1.766 3.244 2.462 4.85 0.159 0.408 0.317 0.812 0.473 1.212 0.076 0.2 0.16 0.395 0.229 0.596 0.067 0.201 0.134 0.401 0.2 0.6 0.13 0.398 0.271 0.786 0.388 1.176 0.11 0.392 0.218 0.78 0.326 1.162 0.052 0.191 0.112 0.377 0.156 0.568s0.086 0.379 0.128 0.567c0.085 0.373 0.169 0.74 0.252 1.101 0.064 0.364 0.128 0.723 0.19 1.075 0.031 0.175 0.061 0.348 0.092 0.52 0.015 0.086 0.030 0.171 0.045 0.256 0.010 0.086 0.021 0.171 0.031 0.256 0.042 0.339 0.083 0.67 0.123 0.994 0.020 0.161 0.040 0.321 0.060 0.478 0.021 0.157 0.025 0.315 0.038 0.47 0.022 0.309 0.044 0.609 0.066 0.901s0.049 0.573 0.048 0.849c0.012 0.548 0.024 1.061 0.035 1.536-0.016 0.437-0.030 0.839-0.043 1.202-0.005 0.179-0.010 0.349-0.015 0.509-0.013 0.199-0.024 0.385-0.035 0.559-0.013 0.2-0.025 0.381-0.036 0.546-0.047 0.305-0.072 0.618-0.072 0.937 0 0.044 0.002 0.087 0.003 0.131-0.001 0.012-0.001 0.021-0.001 0.021h0.002c0.072 2.884 2.178 5.262 4.939 5.753-0.006 0.028-0.012 0.055-0.019 0.083-0.060 0.305-0.153 0.613-0.24 0.932-0.088 0.318-0.178 0.645-0.27 0.98-0.048 0.167-0.088 0.338-0.145 0.507-0.056 0.169-0.113 0.34-0.17 0.513-0.114 0.345-0.231 0.698-0.35 1.059-0.030 0.090-0.059 0.18-0.090 0.271-0.035 0.089-0.069 0.179-0.104 0.27-0.070 0.18-0.141 0.363-0.212 0.547-0.143 0.366-0.288 0.739-0.436 1.118-0.166 0.371-0.334 0.749-0.506 1.133-0.085 0.191-0.171 0.383-0.257 0.577s-0.191 0.382-0.286 0.574c-0.194 0.383-0.391 0.771-0.59 1.164-0.206 0.388-0.436 0.771-0.656 1.162-0.111 0.194-0.223 0.39-0.335 0.587-0.113 0.196-0.242 0.385-0.363 0.578-0.245 0.384-0.493 0.772-0.742 1.163-1.053 1.528-2.215 3.037-3.5 4.466-1.301 1.416-2.704 2.757-4.181 3.989-1.498 1.212-3.064 2.311-4.657 3.283-1.606 0.956-3.244 1.766-4.85 2.462-0.408 0.159-0.812 0.317-1.213 0.473-0.2 0.076-0.395 0.16-0.596 0.229-0.201 0.067-0.401 0.134-0.6 0.2-0.398 0.13-0.786 0.271-1.176 0.388-0.392 0.11-0.779 0.219-1.162 0.326-0.191 0.052-0.377 0.112-0.568 0.156-0.19 0.043-0.379 0.086-0.567 0.128-0.373 0.085-0.74 0.169-1.101 0.252-0.364 0.064-0.723 0.127-1.075 0.19-0.175 0.031-0.348 0.062-0.52 0.092-0.086 0.015-0.171 0.030-0.256 0.045-0.086 0.010-0.171 0.021-0.256 0.031-0.339 0.042-0.67 0.083-0.994 0.123-0.161 0.020-0.321 0.040-0.478 0.060-0.157 0.021-0.315 0.025-0.47 0.038-0.309 0.022-0.609 0.044-0.901 0.066s-0.573 0.049-0.849 0.048c-0.548 0.012-1.061 0.024-1.536 0.035-0.437-0.016-0.839-0.030-1.202-0.043-0.179-0.005-0.349-0.010-0.509-0.015-0.199-0.013-0.385-0.024-0.559-0.035-0.2-0.013-0.381-0.025-0.546-0.036-0.305-0.048-0.618-0.073-0.937-0.073-0.044 0-0.087 0.002-0.131 0.003-0.012-0.001-0.021-0.001-0.021-0.001v0.002c-2.907 0.073-5.299 2.211-5.764 5.003-0.3-0.060-0.604-0.151-0.918-0.236-0.317-0.088-0.645-0.178-0.98-0.27-0.167-0.048-0.338-0.088-0.507-0.145s-0.34-0.113-0.514-0.17c-0.345-0.114-0.698-0.231-1.059-0.35-0.090-0.030-0.18-0.059-0.271-0.089-0.090-0.035-0.179-0.070-0.27-0.104-0.181-0.070-0.363-0.141-0.547-0.212-0.366-0.143-0.739-0.288-1.119-0.436-0.371-0.166-0.749-0.334-1.132-0.505-0.191-0.085-0.383-0.171-0.577-0.257-0.193-0.088-0.382-0.191-0.574-0.286-0.383-0.194-0.771-0.391-1.163-0.59-0.389-0.206-0.771-0.436-1.162-0.656-0.194-0.111-0.39-0.223-0.586-0.335-0.196-0.113-0.385-0.242-0.578-0.364-0.384-0.245-0.772-0.493-1.163-0.742-1.528-1.053-3.037-2.215-4.466-3.499-1.416-1.301-2.757-2.704-3.989-4.181-1.212-1.497-2.311-3.064-3.283-4.657-0.956-1.606-1.766-3.244-2.462-4.85-0.159-0.408-0.317-0.812-0.473-1.213-0.076-0.2-0.16-0.395-0.229-0.596-0.067-0.201-0.134-0.401-0.2-0.601-0.13-0.398-0.271-0.786-0.388-1.176-0.11-0.392-0.218-0.78-0.326-1.162-0.052-0.191-0.112-0.377-0.156-0.568s-0.086-0.379-0.128-0.566c-0.085-0.373-0.169-0.74-0.252-1.102-0.064-0.364-0.128-0.723-0.19-1.074-0.031-0.175-0.062-0.349-0.092-0.52-0.015-0.086-0.030-0.171-0.045-0.256-0.010-0.086-0.021-0.171-0.031-0.256-0.042-0.338-0.083-0.67-0.123-0.994-0.020-0.161-0.040-0.321-0.060-0.478-0.021-0.157-0.025-0.315-0.038-0.47-0.022-0.308-0.044-0.609-0.066-0.901s-0.049-0.573-0.048-0.849c-0.012-0.548-0.024-1.061-0.035-1.536 0.016-0.437 0.030-0.839 0.043-1.202 0.005-0.179 0.010-0.349 0.015-0.509 0.013-0.199 0.024-0.385 0.035-0.559 0.013-0.2 0.025-0.38 0.036-0.546 0.046-0.306 0.072-0.618 0.072-0.937 0-0.044-0.002-0.087-0.003-0.131 0.001-0.012 0.002-0.021 0.002-0.021h-0.002c-0.073-2.942-2.263-5.358-5.104-5.782z"></path>
</svg>
