<!-- Generated by IcoMoon.io -->
<svg version="1.1" xmlns="http://www.w3.org/2000/svg" width="96" height="96" viewBox="0 0 96 96">
<title>spinner</title>
<path d="M36 12c0-6.627 5.373-12 12-12s12 5.373 12 12c0 6.627-5.373 12-12 12s-12-5.373-12-12zM61.456 22.544c0-6.627 5.373-12 12-12s12 5.373 12 12c0 6.627-5.373 12-12 12s-12-5.373-12-12zM78 48c0-3.314 2.686-6 6-6s6 2.686 6 6c0 3.314-2.686 6-6 6s-6-2.686-6-6zM67.456 73.456c0-3.314 2.686-6 6-6s6 2.686 6 6c0 3.314-2.686 6-6 6s-6-2.686-6-6zM42 84c0 0 0 0 0 0 0-3.314 2.686-6 6-6s6 2.686 6 6c0 0 0 0 0 0 0 3.314-2.686 6-6 6s-6-2.686-6-6zM16.544 73.456c0 0 0 0 0 0 0-3.314 2.686-6 6-6s6 2.686 6 6c0 0 0 0 0 0 0 3.314-2.686 6-6 6s-6-2.686-6-6zM13.544 22.544c0 0 0 0 0 0 0-4.971 4.029-9 9-9s9 4.029 9 9c0 0 0 0 0 0 0 4.971-4.029 9-9 9s-9-4.029-9-9zM5.25 48c0-3.728 3.022-6.75 6.75-6.75s6.75 3.022 6.75 6.75c0 3.728-3.022 6.75-6.75 6.75s-6.75-3.022-6.75-6.75z"></path>
</svg>
