<!-- Generated by IcoMoon.io -->
<svg version="1.1" xmlns="http://www.w3.org/2000/svg" width="96" height="96" viewBox="0 0 96 96">
<title>spinner4</title>
<path d="M18 48c0-1.142 0.066-2.268 0.19-3.377l-17.342-5.635c-0.555 2.919-0.848 5.931-0.848 9.012 0 13.803 5.828 26.243 15.155 34.999l10.714-14.747c-4.887-5.337-7.869-12.446-7.869-20.253zM78 48c0 7.806-2.982 14.916-7.869 20.253l10.714 14.747c9.327-8.756 15.155-21.196 15.155-34.999 0-3.081-0.294-6.092-0.848-9.012l-17.342 5.635c0.124 1.109 0.19 2.235 0.19 3.377zM54 18.601c8.619 1.75 15.895 7.195 20.105 14.609l17.342-5.635c-6.862-14.571-20.835-25.131-37.446-27.202v18.228zM21.895 33.209c4.21-7.414 11.486-12.859 20.105-14.609v-18.228c-16.611 2.071-30.584 12.631-37.446 27.202l17.342 5.635zM60.427 75.312c-3.787 1.726-7.994 2.688-12.427 2.688s-8.641-0.962-12.427-2.688l-10.715 14.748c6.863 3.784 14.75 5.94 23.142 5.94s16.279-2.156 23.142-5.94l-10.715-14.748z"></path>
</svg>
