<!-- Generated by IcoMoon.io -->
<svg version="1.1" xmlns="http://www.w3.org/2000/svg" width="96" height="96" viewBox="0 0 96 96">
<title>spinner5</title>
<path d="M48 0c-26.51 0-48 21.49-48 48s21.49 48 48 48 48-21.49 48-48-21.49-48-48-48zM48 24c13.255 0 24 10.745 24 24s-10.745 24-24 24-24-10.745-24-24 10.745-24 24-24zM76.638 76.638c-7.649 7.649-17.82 11.862-28.638 11.862s-20.988-4.213-28.638-11.862-11.862-17.82-11.862-28.638c0-10.818 4.213-20.988 11.862-28.638l6.364 6.364c0 0 0 0 0 0-12.282 12.282-12.282 32.266 0 44.548 5.95 5.95 13.86 9.226 22.274 9.226s16.324-3.277 22.274-9.226c12.282-12.282 12.282-32.266 0-44.548l6.364-6.364c7.649 7.649 11.862 17.82 11.862 28.638s-4.213 20.988-11.862 28.638z"></path>
</svg>
