<!-- Generated by IcoMoon.io -->
<svg version="1.1" xmlns="http://www.w3.org/2000/svg" width="96" height="96" viewBox="0 0 96 96">
<title>spinner9</title>
<path d="M48 0c-26.133 0-47.387 20.884-47.986 46.873 0.555-22.675 17.797-40.873 38.986-40.873 21.539 0 39 18.804 39 42 0 4.971 4.029 9 9 9s9-4.029 9-9c0-26.51-21.49-48-48-48zM48 96c26.133 0 47.387-20.884 47.986-46.873-0.555 22.675-17.797 40.873-38.986 40.873-21.539 0-39-18.804-39-42 0-4.971-4.029-9-9-9s-9 4.029-9 9c0 26.51 21.49 48 48 48z"></path>
</svg>
