<!-- Generated by IcoMoon.io -->
<svg version="1.1" xmlns="http://www.w3.org/2000/svg" width="96" height="96" viewBox="0 0 96 96">
<title>spinner8</title>
<path d="M48 96c-12.821 0-24.875-4.993-33.941-14.059s-14.059-21.12-14.059-33.941c0-9.079 2.548-17.919 7.369-25.565 4.687-7.434 11.312-13.441 19.158-17.372l4.031 8.047c-6.379 3.195-11.765 8.080-15.577 14.125-3.914 6.207-5.982 13.387-5.982 20.765 0 21.505 17.495 39 39 39s39-17.495 39-39c0-7.377-2.069-14.558-5.982-20.765-3.812-6.045-9.198-10.93-15.577-14.125l4.031-8.047c7.846 3.931 14.471 9.938 19.158 17.372 4.821 7.646 7.369 16.486 7.369 25.565 0 12.821-4.993 24.875-14.059 33.941s-21.12 14.059-33.941 14.059z"></path>
</svg>
