<!-- Generated by IcoMoon.io -->
<svg version="1.1" xmlns="http://www.w3.org/2000/svg" width="96" height="96" viewBox="0 0 96 96">
<title>spoon-knife</title>
<path d="M21 0c-9.941 0-18 9.402-18 21 0 9.93 5.908 18.25 13.847 20.437l-2.98 48.574c-0.202 3.294 2.333 5.989 5.633 5.989h3c3.3 0 5.835-2.695 5.633-5.989l-2.98-48.574c7.939-2.187 13.847-10.507 13.847-20.437 0-11.598-8.059-21-18-21zM81.5 0l-5 30h-3.75l-2.5-30h-2.5l-2.5 30h-3.75l-5-30h-2.5v39c0 1.657 1.343 3 3 3h7.813l-2.946 48.011c-0.202 3.294 2.333 5.989 5.633 5.989h3c3.3 0 5.835-2.695 5.633-5.989l-2.946-48.011h7.813c1.657 0 3-1.343 3-3v-39h-2.5z"></path>
</svg>
