<!-- Generated by IcoMoon.io -->
<svg version="1.1" xmlns="http://www.w3.org/2000/svg" width="96" height="96" viewBox="0 0 96 96">
<title>spotify</title>
<path d="M48 0c-26.4 0-48 21.6-48 48s21.6 48 48 48 48-21.6 48-48-21.356-48-48-48zM70.088 69.356c-0.956 1.444-2.644 1.913-4.088 0.956-11.287-6.956-25.444-8.4-42.244-4.556-1.688 0.488-3.113-0.713-3.6-2.156-0.487-1.688 0.713-3.112 2.156-3.6 18.244-4.088 34.088-2.4 46.556 5.287 1.688 0.713 1.931 2.625 1.219 4.069zM75.844 56.156c-1.2 1.688-3.356 2.4-5.044 1.2-12.956-7.913-32.644-10.313-47.756-5.512-1.913 0.488-4.087-0.488-4.556-2.4-0.488-1.912 0.487-4.087 2.4-4.556 17.512-5.288 39.112-2.644 54 6.488 1.425 0.713 2.156 3.113 0.956 4.781zM76.313 42.713c-15.356-9.113-41.044-10.088-55.688-5.513-2.4 0.712-4.8-0.713-5.513-2.888-0.713-2.4 0.713-4.8 2.888-5.513 17.044-5.044 45.113-4.087 62.887 6.487 2.156 1.2 2.888 4.088 1.688 6.244-1.219 1.669-4.087 2.381-6.262 1.181z"></path>
</svg>
