<!-- Generated by IcoMoon.io -->
<svg version="1.1" xmlns="http://www.w3.org/2000/svg" width="96" height="96" viewBox="0 0 96 96">
<title>stats-bars2</title>
<path d="M27 36h-18c-1.65 0-3 1.35-3 3v54c0 1.65 1.35 3 3 3h18c1.65 0 3-1.35 3-3v-54c0-1.65-1.35-3-3-3zM27 90h-18v-24h18v24zM57 24h-18c-1.65 0-3 1.35-3 3v66c0 1.65 1.35 3 3 3h18c1.65 0 3-1.35 3-3v-66c0-1.65-1.35-3-3-3zM57 90h-18v-30h18v30zM87 12h-18c-1.65 0-3 1.35-3 3v78c0 1.65 1.35 3 3 3h18c1.65 0 3-1.35 3-3v-78c0-1.65-1.35-3-3-3zM87 90h-18v-36h18v36z"></path>
</svg>
