<!-- Generated by IcoMoon.io -->
<svg version="1.1" xmlns="http://www.w3.org/2000/svg" width="96" height="96" viewBox="0 0 96 96">
<title>stats-dots</title>
<path d="M12 84h84v12h-96v-96h12zM27 78c-4.971 0-9-4.029-9-9s4.029-9 9-9c0.265 0 0.527 0.014 0.786 0.036l9.674-16.124c-0.922-1.413-1.461-3.1-1.461-4.913 0-4.971 4.029-9 9-9s9 4.029 9 9c0 1.813-0.538 3.5-1.461 4.913l9.674 16.124c0.259-0.022 0.521-0.036 0.786-0.036 0.2 0 0.398 0.009 0.595 0.022l15.971-27.949c-0.988-1.445-1.566-3.191-1.566-5.073 0-4.971 4.029-9 9-9s9 4.029 9 9c0 4.971-4.029 9-9 9-0.201 0-0.398-0.009-0.595-0.022l-15.971 27.949c0.988 1.444 1.566 3.191 1.566 5.073 0 4.971-4.029 9-9 9s-9-4.029-9-9c0-1.813 0.538-3.5 1.46-4.913l-9.674-16.124c-0.259 0.022-0.521 0.036-0.786 0.036s-0.527-0.014-0.786-0.036l-9.674 16.124c0.922 1.413 1.461 3.099 1.461 4.912 0 4.971-4.029 9-9 9z"></path>
</svg>
