<!-- Generated by IcoMoon.io -->
<svg version="1.1" xmlns="http://www.w3.org/2000/svg" width="96" height="96" viewBox="0 0 96 96">
<title>steam2</title>
<path d="M28.493 78.376c2.545 0 5.042-1.231 6.56-3.508 2.413-3.619 1.435-8.508-2.184-10.921l-6.194-4.13c1.060-0.289 2.174-0.446 3.326-0.446 6.974 0 12.628 5.654 12.628 12.628s-5.654 12.628-12.628 12.628c-6.788 0-12.323-5.356-12.614-12.073l6.746 4.497c1.343 0.895 2.86 1.324 4.361 1.324zM80.001 0c8.801 0 15.999 7.201 15.999 16.002v63.996c0 8.806-7.198 16.002-15.999 16.002h-63.999c-8.801 0-16.002-7.195-16.002-16.001v-19.034l11.375 7.583c-1.092 5.923 0.65 12.265 5.231 16.846 7.397 7.397 19.39 7.397 26.788 0 4.544-4.544 6.295-10.822 5.257-16.703l23.349-20.905c4.336-0.622 8.514-2.601 11.849-5.936 8.201-8.201 8.201-21.497 0-29.698s-21.498-8.201-29.699 0c-3.335 3.335-5.314 7.514-5.936 11.849v0l-19.19 29.084c-2.986 0.153-5.942 1.009-8.599 2.568l-20.425-13.617v-26.033c0-8.801 7.201-16.002 16.002-16.002h63.999zM84 27c0-8.284-6.716-15-15-15s-15 6.716-15 15 6.716 15 15 15 15-6.716 15-15zM60 27c0-4.971 4.029-9 9-9s9 4.029 9 9-4.029 9-9 9-9-4.029-9-9z"></path>
</svg>
