<!-- Generated by IcoMoon.io -->
<svg version="1.1" xmlns="http://www.w3.org/2000/svg" width="96" height="96" viewBox="0 0 96 96">
<title>steam</title>
<path d="M66 27c0-4.971 4.029-9 9-9s9 4.029 9 9c0 4.971-4.029 9-9 9s-9-4.029-9-9zM89.849 12.151c-8.201-8.201-21.497-8.201-29.699 0-3.335 3.335-5.314 7.514-5.936 11.849v0l-19.19 29.084c-2.579 0.132-5.135 0.789-7.497 1.97l-14.802-11.571c-3.427-2.679-8.376-2.072-11.054 1.355s-2.072 8.376 1.354 11.054l14.619 11.427c-1.59 6.261 0.063 13.175 4.962 18.074 7.397 7.397 19.391 7.397 26.788 0 4.544-4.544 6.295-10.821 5.257-16.703l23.349-20.905c4.336-0.622 8.514-2.601 11.849-5.936 8.201-8.201 8.201-21.497 0-29.698zM36 84.628c-6.974 0-12.628-5.654-12.628-12.628 0-0.067 0.004-0.133 0.005-0.199l6.273 4.904c1.44 1.126 3.148 1.671 4.844 1.671 2.34 0 4.657-1.039 6.21-3.026 2.679-3.427 2.072-8.376-1.354-11.054l-5.953-4.653c0.84-0.176 1.711-0.27 2.603-0.27 6.974 0 12.628 5.654 12.628 12.628s-5.654 12.628-12.628 12.628zM75 42c-8.284 0-15-6.716-15-15s6.716-15 15-15 15 6.716 15 15-6.716 15-15 15z"></path>
</svg>
