<!-- Generated by IcoMoon.io -->
<svg version="1.1" xmlns="http://www.w3.org/2000/svg" width="96" height="96" viewBox="0 0 96 96">
<title>stopwatch</title>
<path d="M48 18.114v-6.114h12v-6c0-3.314-2.686-6-6-6h-18c-3.314 0-6 2.686-6 6v6h12v6.114c-20.137 1.532-36 18.356-36 38.886 0 21.539 17.461 39 39 39s39-17.461 39-39c0-20.53-15.863-37.355-36-38.886zM66.213 78.213c-5.666 5.666-13.2 8.787-21.213 8.787s-15.547-3.121-21.213-8.787c-5.666-5.666-8.787-13.2-8.787-21.213s3.121-15.547 8.787-21.213c5.441-5.441 12.604-8.533 20.261-8.77l-2.032 29.439c-0.174 2.465 1.169 3.544 2.985 3.544s3.159-1.079 2.985-3.544l-2.032-29.44c7.656 0.237 14.82 3.329 20.261 8.77 5.666 5.666 8.787 13.2 8.787 21.213s-3.121 15.547-8.787 21.213z"></path>
</svg>
