<!-- Generated by IcoMoon.io -->
<svg version="1.1" xmlns="http://www.w3.org/2000/svg" width="96" height="96" viewBox="0 0 96 96">
<title>strikethrough</title>
<path d="M96 48v6h-21.985c2.579 3.61 3.985 7.752 3.985 12 0 6.645-3.437 13.034-9.429 17.528-5.565 4.174-12.87 6.472-20.571 6.472s-15.006-2.299-20.571-6.472c-5.993-4.494-9.429-10.883-9.429-17.528h12c0 6.505 8.243 12 18 12s18-5.495 18-12c0-6.505-8.243-12-18-12h-48v-6h28.080c-0.219-0.155-0.436-0.312-0.65-0.472-5.993-4.494-9.429-10.883-9.429-17.528s3.437-13.034 9.429-17.528c5.565-4.174 12.87-6.472 20.571-6.472s15.006 2.299 20.571 6.472c5.992 4.494 9.429 10.883 9.429 17.528h-12c0-6.505-8.243-12-18-12s-18 5.495-18 12c0 6.505 8.243 12 18 12 7.404 0 14.443 2.126 19.92 6h28.080z"></path>
</svg>
