<!-- Generated by IcoMoon.io -->
<svg version="1.1" xmlns="http://www.w3.org/2000/svg" width="96" height="96" viewBox="0 0 96 96">
<title>stumbleupon</title>
<path d="M48 30c-3.3 0-6 2.7-6 6v24c0 9.919-8.081 18-18 18s-18-8.081-18-18v-12h12v12c0 3.3 2.7 6 6 6s6-2.7 6-6v-24c0-9.919 8.081-18 18-18s18 8.081 18 16.688v5.813l-7.688 2.25-4.313-2.25v-5.813c0-1.987-2.7-4.688-6-4.688z"></path>
<path d="M90 60c0 9.919-8.081 18-18 18s-18-8.081-18-19.313v-11.625l4.313 2.25 7.688-2.25v11.625c0 4.613 2.7 7.313 6 7.313s6-2.7 6-6v-12h12v12z"></path>
</svg>
