<!-- Generated by IcoMoon.io -->
<svg version="1.1" xmlns="http://www.w3.org/2000/svg" width="96" height="96" viewBox="0 0 96 96">
<title>stumbleupon2</title>
<path d="M79.875 0h-63.75c-8.869 0-16.125 7.256-16.125 16.125v63.75c0 8.869 7.256 16.125 16.125 16.125h63.75c8.869 0 16.125-7.256 16.125-16.125v-63.75c0-8.869-7.256-16.125-16.125-16.125zM48 30c-3.308 0-6 2.692-6 6v24c0 9.925-8.075 18-18 18s-18-8.075-18-18v-12h12v12c0 3.308 2.692 6 6 6s6-2.692 6-6v-24c0-9.925 8.075-18 18-18s18 8.075 18 16.688v5.813l-7.688 2.25-4.313-2.25v-5.813c0-1.996-2.692-4.688-6-4.688zM90 60c0 9.925-8.075 18-18 18s-18-8.075-18-19.313v-11.625l4.313 2.25 7.688-2.25v11.625c0 4.621 2.692 7.313 6 7.313s6-2.692 6-6v-12h12v12z"></path>
</svg>
