<!-- Generated by IcoMoon.io -->
<svg version="1.1" xmlns="http://www.w3.org/2000/svg" width="96" height="96" viewBox="0 0 96 96">
<title>superscript2</title>
<path d="M18.189 78l5.4-18h24.822l5.4 18h10.653l-18-60h-20.928l-18 60h10.653zM32.589 30h6.822l5.4 18h-17.622l5.4-18zM66 78l15-24 15 24h-30z"></path>
<path d="M81 12h-6c-1.654 0-3-1.346-3-3s1.346-3 3-3h12c1.657 0 3-1.343 3-3s-1.343-3-3-3h-12c-4.963 0-9 4.037-9 9 0 2.303 0.871 4.406 2.299 6 1.649 1.84 4.042 3 6.701 3h6c1.654 0 3 1.346 3 3s-1.346 3-3 3h-12c-1.657 0-3 1.343-3 3s1.343 3 3 3h12c4.963 0 9-4.037 9-9 0-2.303-0.871-4.406-2.299-6-1.649-1.84-4.041-3-6.701-3z"></path>
</svg>
