<!-- Generated by IcoMoon.io -->
<svg version="1.1" xmlns="http://www.w3.org/2000/svg" width="96" height="96" viewBox="0 0 96 96">
<title>svg</title>
<path d="M87 39c-2.665 0-5.059 1.159-6.707 3h-17.808l12.592-12.592c2.467 0.137 4.979-0.736 6.863-2.621 3.515-3.515 3.515-9.213 0-12.728s-9.213-3.515-12.728 0c-1.885 1.885-2.757 4.397-2.621 6.863l-12.592 12.592v-17.808c1.841-1.648 3-4.041 3-6.707 0-4.971-4.029-9-9-9s-9 4.029-9 9c0 2.665 1.159 5.059 3 6.707v17.808l-12.592-12.592c0.136-2.467-0.736-4.979-2.621-6.863-3.515-3.515-9.213-3.515-12.728 0s-3.515 9.213 0 12.728c1.885 1.885 4.397 2.757 6.864 2.621l12.593 12.592h-17.808c-1.648-1.841-4.041-3-6.706-3-4.971 0-9 4.029-9 9s4.029 9 9 9c2.665 0 5.059-1.159 6.706-3h17.808l-12.592 12.592c-2.467-0.136-4.979 0.736-6.864 2.621-3.515 3.515-3.515 9.213 0 12.728s9.213 3.515 12.728 0c1.885-1.885 2.757-4.397 2.621-6.863l12.592-12.592v17.808c-1.841 1.648-3 4.041-3 6.706 0 4.971 4.029 9 9 9s9-4.029 9-9c0-2.665-1.159-5.059-3-6.707v-17.808l12.592 12.592c-0.136 2.467 0.736 4.979 2.621 6.863 3.515 3.515 9.213 3.515 12.728 0s3.515-9.213 0-12.728c-1.885-1.885-4.397-2.757-6.863-2.621l-12.592-12.592h17.808c1.648 1.841 4.041 3 6.706 3 4.971 0 9-4.029 9-9s-4.030-9-9-9z"></path>
</svg>
