<!-- Generated by IcoMoon.io -->
<svg version="1.1" xmlns="http://www.w3.org/2000/svg" width="96" height="96" viewBox="0 0 96 96">
<title>switch</title>
<path d="M60 13.743v12.746c3.394 1.482 6.516 3.601 9.213 6.298 5.666 5.666 8.787 13.2 8.787 21.213s-3.121 15.547-8.787 21.213c-5.666 5.666-13.2 8.787-21.213 8.787s-15.547-3.121-21.213-8.787c-5.666-5.666-8.787-13.2-8.787-21.213s3.121-15.547 8.787-21.213c2.698-2.698 5.819-4.817 9.213-6.298v-12.746c-17.348 5.164-30 21.232-30 40.257 0 23.196 18.804 42 42 42s42-18.804 42-42c0-19.026-12.652-35.094-30-40.257zM42 0h12v48h-12z"></path>
</svg>
