<!-- Generated by IcoMoon.io -->
<svg version="1.1" xmlns="http://www.w3.org/2000/svg" width="96" height="96" viewBox="0 0 96 96">
<title>target</title>
<path d="M96 42h-9.462c-2.591-16.71-15.828-29.947-32.538-32.538v-9.462h-12v9.462c-16.71 2.591-29.947 15.828-32.538 32.538h-9.462v12h9.462c2.591 16.71 15.828 29.947 32.538 32.538v9.462h12v-9.462c16.71-2.591 29.947-15.828 32.538-32.538h9.462v-12zM74.327 42h-9.353c-1.808-5.114-5.86-9.167-10.974-10.974v-9.353c10.079 2.296 18.031 10.248 20.327 20.327zM48 54c-3.314 0-6-2.686-6-6s2.686-6 6-6c3.314 0 6 2.686 6 6s-2.686 6-6 6zM42 21.673v9.353c-5.114 1.808-9.167 5.86-10.974 10.974h-9.353c2.296-10.079 10.248-18.031 20.327-20.327zM21.673 54h9.353c1.808 5.114 5.86 9.167 10.974 10.974v9.353c-10.079-2.296-18.031-10.248-20.327-20.327zM54 74.327v-9.353c5.114-1.808 9.167-5.86 10.974-10.974h9.353c-2.296 10.079-10.248 18.031-20.327 20.327z"></path>
</svg>
