<!-- Generated by IcoMoon.io -->
<svg version="1.1" xmlns="http://www.w3.org/2000/svg" width="96" height="96" viewBox="0 0 96 96">
<title>telegram</title>
<path d="M48 0c-26.513 0-48 21.487-48 48s21.487 48 48 48 48-21.488 48-48-21.488-48-48-48zM71.588 32.906l-7.875 37.106c-0.544 2.644-2.138 3.263-4.35 2.044l-12-8.869-5.756 5.606c-0.675 0.656-1.2 1.2-2.4 1.2-1.556 0-1.294-0.581-1.819-2.063l-4.087-13.425-11.869-3.694c-2.569-0.787-2.587-2.55 0.581-3.806l46.237-17.85c2.1-0.956 4.144 0.506 3.338 3.75z"></path>
</svg>
