<!-- Generated by IcoMoon.io -->
<svg version="1.1" xmlns="http://www.w3.org/2000/svg" width="96" height="96" viewBox="0 0 96 96">
<title>ticket</title>
<path d="M54 30l12 12-23.999 23.999-12-12zM93.893 27.891l-6.892-6.892-3.001 3.001c-1.535 1.536-3.657 2.485-6 2.485-4.686 0-8.486-3.799-8.486-8.485 0-2.344 0.951-4.466 2.488-6.002l2.999-2.999-6.892-6.892c-2.809-2.809-7.407-2.809-10.216 0l-55.785 55.785c-2.809 2.809-2.809 7.407 0 10.217l6.893 6.892 2.996-2.997c1.536-1.538 3.659-2.489 6.004-2.489 4.686 0 8.485 3.799 8.485 8.485 0 2.344-0.951 4.466-2.488 6.002l-2.998 2.999 6.892 6.892c2.809 2.809 7.407 2.809 10.217 0l55.785-55.785c2.809-2.81 2.809-7.408 0-10.217zM42 78l-24-24 36-36 24 24-36 36z"></path>
</svg>
