<!-- Generated by IcoMoon.io -->
<svg version="1.1" xmlns="http://www.w3.org/2000/svg" width="96" height="96" viewBox="0 0 96 96">
<title>tree</title>
<path d="M91.5 72h-1.5v-19.5c0-5.79-4.71-10.5-10.5-10.5h-25.5v-12h1.5c2.475 0 4.5-2.025 4.5-4.5v-15c0-2.475-2.025-4.5-4.5-4.5h-15c-2.475 0-4.5 2.025-4.5 4.5v15c0 2.475 2.025 4.5 4.5 4.5h1.5v12h-25.5c-5.79 0-10.5 4.71-10.5 10.5v19.5h-1.5c-2.475 0-4.5 2.025-4.5 4.5v15c0 2.475 2.025 4.5 4.5 4.5h15c2.475 0 4.5-2.025 4.5-4.5v-15c0-2.475-2.025-4.5-4.5-4.5h-1.5v-18h24v18h-1.5c-2.475 0-4.5 2.025-4.5 4.5v15c0 2.475 2.025 4.5 4.5 4.5h15c2.475 0 4.5-2.025 4.5-4.5v-15c0-2.475-2.025-4.5-4.5-4.5h-1.5v-18h24v18h-1.5c-2.475 0-4.5 2.025-4.5 4.5v15c0 2.475 2.025 4.5 4.5 4.5h15c2.475 0 4.5-2.025 4.5-4.5v-15c0-2.475-2.025-4.5-4.5-4.5zM18 90h-12v-12h12v12zM54 90h-12v-12h12v12zM42 24v-12h12v12h-12zM90 90h-12v-12h12v12z"></path>
</svg>
