<!-- Generated by IcoMoon.io -->
<svg version="1.1" xmlns="http://www.w3.org/2000/svg" width="96" height="96" viewBox="0 0 96 96">
<title>tumblr</title>
<path d="M54.003 42l-0 21.955c0 5.57-0.072 8.78 0.518 10.359 0.586 1.571 2.055 3.201 3.655 4.144 2.127 1.274 4.551 1.91 7.285 1.91 4.861 0 7.732-0.642 12.538-3.801v14.432c-4.097 1.927-7.675 3.056-10.999 3.836-3.328 0.773-6.924 1.163-10.787 1.163-4.39 0-6.98-0.552-10.351-1.655-3.371-1.113-6.249-2.701-8.627-4.738-2.386-2.055-4.033-4.238-4.954-6.547-0.921-2.31-1.38-5.664-1.38-10.054v-33.666h-12.884v-13.594c3.77-1.223 7.984-2.98 10.667-5.264 2.696-2.292 4.853-5.035 6.479-8.245 1.63-3.201 2.751-7.286 3.363-12.236h15.477l-0 24h23.997v18h-23.997z"></path>
</svg>
