<!-- Generated by IcoMoon.io -->
<svg version="1.1" xmlns="http://www.w3.org/2000/svg" width="96" height="96" viewBox="0 0 96 96">
<title>tumblr2</title>
<path d="M87 0h-78c-4.95 0-9 4.050-9 9v78c0 4.95 4.050 9 9 9h78c4.95 0 9-4.050 9-9v-78c0-4.95-4.050-9-9-9zM68.606 77.306c-2.831 1.331-5.4 2.269-7.687 2.813-2.288 0.525-4.781 0.806-7.444 0.806-3.037 0-4.819-0.375-7.144-1.144s-4.313-1.856-5.962-3.262c-1.65-1.425-2.775-2.925-3.413-4.519s-0.956-3.9-0.956-6.938v-23.231h-9v-9.375c2.606-0.844 5.625-2.063 7.463-3.637 1.856-1.575 3.356-3.469 4.462-5.681 1.125-2.213 1.894-5.025 2.325-8.438h9.413v15.3h15.338v11.831h-15.319v16.987c0 3.844-0.056 6.056 0.356 7.144s1.425 2.213 2.531 2.85c1.463 0.881 3.15 1.313 5.025 1.313 3.356 0 6.694-1.088 10.012-3.262v10.444z"></path>
</svg>
