<!-- Generated by IcoMoon.io -->
<svg version="1.1" xmlns="http://www.w3.org/2000/svg" width="96" height="96" viewBox="0 0 96 96">
<title>tux</title>
<path d="M53.218 69.086c-7.682 3.574-14.827 3.536-19.626 3.189-5.724-0.413-10.327-1.98-12.351-3.35-1.247-0.844-2.942-0.518-3.787 0.73s-0.517 2.942 0.73 3.787c3.253 2.202 9.006 3.839 15.015 4.273 1.019 0.073 2.137 0.12 3.342 0.12 5.23 0 11.871-0.498 18.977-3.803 1.365-0.635 1.957-2.257 1.322-3.623s-2.257-1.957-3.623-1.323zM83.526 65.045c0.261-23.69 2.696-68.457-42.653-64.839-44.775 3.604-32.903 50.903-33.57 66.745-0.591 8.38-3.373 18.623-7.303 29.048h12.103c1.244-4.418 2.159-8.786 2.553-12.952 0.73 0.509 1.51 1.001 2.343 1.472 1.355 0.799 2.52 1.86 3.754 2.984 2.882 2.627 6.149 5.604 12.536 5.977 0.429 0.025 0.86 0.037 1.282 0.037 6.459 0 10.876-2.827 14.426-5.098 1.701-1.089 3.17-2.029 4.553-2.48 3.929-1.23 7.362-3.215 9.928-5.742 0.401-0.394 0.773-0.8 1.121-1.214 1.429 5.239 3.386 11.134 5.558 17.016h25.842c-6.204-9.584-12.603-18.973-12.474-30.955zM11.635 52.158c0-0.002 0-0.003-0-0.004-0.445-7.731 3.254-14.234 8.262-14.525s9.427 5.74 9.872 13.471c0 0.001 0 0.003 0 0.004 0.024 0.417 0.034 0.829 0.035 1.238-1.587 0.399-3.018 0.978-4.3 1.653-0.005-0.057-0.009-0.114-0.014-0.172 0-0.001 0-0.002 0-0.002-0.428-4.388-2.772-7.703-5.236-7.402s-4.114 4.102-3.685 8.49c0 0.001 0 0.002 0 0.002 0.187 1.913 0.738 3.622 1.504 4.917-0.191 0.15-0.73 0.545-1.351 0.999-0.466 0.341-1.033 0.755-1.717 1.259-1.864-2.446-3.141-5.961-3.369-9.927zM62.368 71.267c-0.178 4.086-5.523 7.93-10.461 9.473l-0.028 0.009c-2.053 0.666-3.884 1.838-5.822 3.078-3.256 2.084-6.623 4.238-11.486 4.238-0.319 0-0.646-0.010-0.968-0.028-4.455-0.26-6.538-2.159-9.176-4.563-1.391-1.268-2.83-2.579-4.685-3.668l-0.040-0.023c-4.004-2.26-6.489-5.070-6.648-7.518-0.079-1.217 0.463-2.27 1.611-3.131 2.497-1.872 4.17-3.096 5.277-3.905 1.229-0.899 1.6-1.17 1.875-1.431 0.197-0.186 0.409-0.393 0.638-0.615 2.292-2.229 6.128-5.959 12.014-5.959 3.6 0 7.584 1.387 11.828 4.116 1.999 1.301 3.739 1.902 5.942 2.662 1.515 0.523 3.231 1.116 5.53 2.1l0.037 0.015c2.145 0.882 4.678 2.49 4.562 5.15zM61.186 61.669c-0.413-0.208-0.841-0.405-1.289-0.589-2.072-0.887-3.734-1.488-5.113-1.969 0.761-1.49 1.234-3.349 1.277-5.366 0-0.001 0-0.002 0-0.003 0.106-4.91-2.371-8.897-5.531-8.904s-5.808 3.967-5.913 8.877c0 0.001 0 0.002 0 0.003-0.004 0.161-0.004 0.32-0.002 0.479-1.946-0.896-3.861-1.546-5.734-1.946-0.009-0.184-0.019-0.369-0.023-0.555 0-0.002 0-0.003 0-0.005-0.182-8.945 5.306-16.349 12.258-16.538s12.734 6.909 12.916 15.854c0 0.002 0 0.004 0 0.005 0.082 4.045-0.999 7.769-2.847 10.657z"></path>
</svg>
