<!-- Generated by IcoMoon.io -->
<svg version="1.1" xmlns="http://www.w3.org/2000/svg" width="96" height="96" viewBox="0 0 96 96">
<title>tv</title>
<path d="M91.986 27.010c-8.326-1.197-17.192-2.064-26.445-2.552l15.458-15.458-6-6-21.052 21.052c-1.969-0.035-3.952-0.052-5.948-0.052v0l-24-24-6 6 18.206 18.206c-11.336 0.398-22.157 1.362-32.192 2.804-2.581 10.099-4.013 21.258-4.013 32.99s1.432 22.891 4.013 32.99c13.466 1.936 28.344 3.010 43.987 3.010s30.52-1.074 43.986-3.010c2.581-10.099 4.014-21.258 4.014-32.99s-1.432-22.891-4.014-32.99zM80.99 81.993c-10.1 1.291-21.258 2.007-32.99 2.007s-22.891-0.716-32.99-2.007c-1.936-6.733-3.010-14.172-3.010-21.993s1.074-15.261 3.010-21.993c10.099-1.291 21.258-2.007 32.99-2.007s22.89 0.716 32.989 2.007c1.936 6.733 3.011 14.172 3.011 21.993s-1.074 15.26-3.010 21.993z"></path>
</svg>
