<!-- Generated by IcoMoon.io -->
<svg version="1.1" xmlns="http://www.w3.org/2000/svg" width="96" height="96" viewBox="0 0 96 96">
<title>twitter</title>
<path d="M96 21.225c-3.525 1.575-7.331 2.625-11.306 3.094 4.069-2.438 7.181-6.3 8.662-10.894-3.806 2.25-8.025 3.9-12.506 4.781-3.6-3.825-8.719-6.206-14.381-6.206-10.875 0-19.688 8.813-19.688 19.688 0 1.537 0.169 3.037 0.506 4.481-16.369-0.825-30.881-8.663-40.594-20.588-1.688 2.906-2.662 6.3-2.662 9.9 0 6.825 3.469 12.862 8.756 16.388-3.225-0.094-6.262-0.994-8.925-2.456 0 0.075 0 0.169 0 0.244 0 9.544 6.788 17.512 15.806 19.312-1.65 0.45-3.394 0.694-5.194 0.694-1.275 0-2.494-0.131-3.712-0.356 2.513 7.819 9.788 13.519 18.394 13.688-6.75 5.287-15.225 8.438-24.469 8.438-1.594 0-3.15-0.094-4.706-0.281 8.738 5.606 19.087 8.85 30.206 8.85 36.225 0 56.044-30.019 56.044-56.044 0-0.862-0.019-1.706-0.056-2.55 3.844-2.756 7.181-6.225 9.825-10.181z"></path>
</svg>
