<!-- Generated by IcoMoon.io -->
<svg version="1.1" xmlns="http://www.w3.org/2000/svg" width="96" height="96" viewBox="0 0 96 96">
<title>ungroup</title>
<path d="M36 43.5c0 2.475-2.025 4.5-4.5 4.5h-9c-2.475 0-4.5-2.025-4.5-4.5v-9c0-2.475 2.025-4.5 4.5-4.5h9c2.475 0 4.5 2.025 4.5 4.5v9z"></path>
<path d="M66 43.5c0 2.475-2.025 4.5-4.5 4.5h-9c-2.475 0-4.5-2.025-4.5-4.5v-9c0-2.475 2.025-4.5 4.5-4.5h9c2.475 0 4.5 2.025 4.5 4.5v9z"></path>
<path d="M36 73.5c0 2.475-2.025 4.5-4.5 4.5h-9c-2.475 0-4.5-2.025-4.5-4.5v-9c0-2.475 2.025-4.5 4.5-4.5h9c2.475 0 4.5 2.025 4.5 4.5v9z"></path>
<path d="M66 73.5c0 2.475-2.025 4.5-4.5 4.5h-9c-2.475 0-4.5-2.025-4.5-4.5v-9c0-2.475 2.025-4.5 4.5-4.5h9c2.475 0 4.5 2.025 4.5 4.5v9z"></path>
<path d="M85.508 15l10.492-10.492v-4.508h-4.508l-10.492 10.492-10.492-10.492h-4.508v4.508l10.492 10.492-10.492 10.492v4.508h4.508l10.492-10.492 10.492 10.492h4.508v-4.508z"></path>
<path d="M0 72h6v12h-6v-12z"></path>
<path d="M0 54h6v12h-6v-12z"></path>
<path d="M78 42h6v12h-6v-12z"></path>
<path d="M78 78h6v12h-6v-12z"></path>
<path d="M78 60h6v12h-6v-12z"></path>
<path d="M0 36h6v12h-6v-12z"></path>
<path d="M0 18h6v12h-6v-12z"></path>
<path d="M48 12h12v6h-12v-6z"></path>
<path d="M30 12h12v6h-12v-6z"></path>
<path d="M12 12h12v6h-12v-6z"></path>
<path d="M42 90h12v6h-12v-6z"></path>
<path d="M60 90h12v6h-12v-6z"></path>
<path d="M24 90h12v6h-12v-6z"></path>
<path d="M6 90h12v6h-12v-6z"></path>
</svg>
