<!-- Generated by IcoMoon.io -->
<svg version="1.1" xmlns="http://www.w3.org/2000/svg" width="96" height="96" viewBox="0 0 96 96">
<title>user-plus</title>
<path d="M36 69c0-14.178 8.988-26.296 21.566-30.956 1.526-3.425 2.434-7.234 2.434-11.044 0-14.912 0-27-18-27s-18 12.088-18 27c0 9.287 5.391 18.572 12 22.297v4.948c-20.353 1.664-36 11.664-36 23.755h37.247c-0.812-2.862-1.247-5.881-1.247-9z"></path>
<path d="M69 42c-14.912 0-27 12.088-27 27s12.088 27 27 27c14.912 0 27-12.088 27-27s-12.088-27-27-27zM84 72h-12v12h-6v-12h-12v-6h12v-12h6v12h12v6z"></path>
</svg>
