<!-- Generated by IcoMoon.io -->
<svg version="1.1" xmlns="http://www.w3.org/2000/svg" width="108" height="96" viewBox="0 0 108 96">
<title>users</title>
<path d="M72 72.245v-4.948c6.609-3.724 12-13.010 12-22.297 0-14.912 0-27-18-27s-18 12.088-18 27c0 9.287 5.391 18.572 12 22.297v4.948c-20.353 1.664-36 11.664-36 23.755h84c0-12.091-15.647-22.091-36-23.755z"></path>
<path d="M30.675 74.562c5.185-3.389 11.632-5.966 18.73-7.539-1.411-1.667-2.691-3.527-3.796-5.533-2.851-5.178-4.359-10.88-4.359-16.49 0-8.066 0-15.685 2.869-21.915 2.785-6.047 7.793-9.796 14.927-11.202-1.586-7.17-5.807-11.883-17.046-11.883-18 0-18 12.088-18 27 0 9.287 5.391 18.572 12 22.297v4.948c-20.353 1.664-36 11.664-36 23.755h26.157c1.361-1.21 2.868-2.36 4.518-3.438z"></path>
</svg>
