<!-- Generated by IcoMoon.io -->
<svg version="1.1" xmlns="http://www.w3.org/2000/svg" width="96" height="96" viewBox="0 0 96 96">
<title>vimeo2</title>
<path d="M87 0h-78c-4.95 0-9 4.050-9 9v78c0 4.95 4.050 9 9 9h78c4.95 0 9-4.050 9-9v-78c0-4.95-4.050-9-9-9zM80.775 31.875c-0.3 6.75-5.025 15.994-14.156 27.731-9.431 12.262-17.419 18.394-23.944 18.394-4.050 0-7.462-3.731-10.256-11.194-1.875-6.844-3.731-13.688-5.606-20.531-2.063-7.463-4.294-11.194-6.675-11.194-0.525 0-2.344 1.087-5.438 3.263l-3.262-4.2c3.431-3 6.806-6.019 10.125-9.019 4.575-3.938 7.987-6.019 10.275-6.225 5.4-0.525 8.719 3.169 9.975 11.062 1.35 8.531 2.287 13.819 2.813 15.9 1.556 7.069 3.263 10.594 5.137 10.594 1.444 0 3.637-2.288 6.544-6.881s4.463-8.081 4.669-10.481c0.413-3.956-1.144-5.944-4.669-5.944-1.669 0-3.375 0.375-5.137 1.144 3.413-11.156 9.919-16.594 19.538-16.275 7.125 0.206 10.481 4.819 10.069 13.856z"></path>
</svg>
