<!-- Generated by IcoMoon.io -->
<svg version="1.1" xmlns="http://www.w3.org/2000/svg" width="96" height="96" viewBox="0 0 96 96">
<title>vimeo</title>
<path d="M95.963 25.688c-0.431 9.338-6.956 22.144-19.575 38.381-13.050 16.95-24.094 25.444-33.131 25.444-5.587 0-10.331-5.156-14.194-15.487-2.588-9.469-5.156-18.938-7.744-28.406-2.869-10.331-5.944-15.487-9.244-15.487-0.713 0-3.225 1.519-7.538 4.519l-4.519-5.813c4.744-4.162 9.412-8.325 14.006-12.487 6.319-5.456 11.063-8.325 14.231-8.625 7.462-0.712 12.075 4.388 13.8 15.319 1.856 11.794 3.15 19.125 3.881 21.994 2.156 9.788 4.519 14.681 7.106 14.681 2.006 0 5.025-3.169 9.056-9.525 4.013-6.337 6.169-11.175 6.469-14.494 0.581-5.475-1.575-8.231-6.469-8.231-2.306 0-4.669 0.525-7.106 1.575 4.725-15.45 13.725-22.95 27.037-22.519 9.844 0.262 14.494 6.656 13.931 19.163z"></path>
</svg>
