<!-- Generated by IcoMoon.io -->
<svg version="1.1" xmlns="http://www.w3.org/2000/svg" width="96" height="96" viewBox="0 0 96 96">
<title>vine</title>
<path d="M90.075 47.719c-2.475 0.563-4.856 0.825-7.012 0.825-12.113 0-21.431-8.456-21.431-23.175 0-7.219 2.794-10.95 6.731-10.95 3.75 0 6.244 3.356 6.244 10.181 0 3.881-1.031 8.137-1.8 10.65 0 0 3.731 6.506 13.931 4.519 2.175-4.819 3.337-11.044 3.337-16.5 0-14.7-7.5-23.269-21.244-23.269-14.138 0-22.406 10.856-22.406 25.181 0 14.194 6.637 26.362 17.569 31.912-4.594 9.206-10.444 17.306-16.556 23.419-11.063-13.387-21.075-31.237-25.181-66.094h-16.331c7.556 58.050 30.037 76.537 36 80.081 3.356 2.025 6.262 1.931 9.337 0.188 4.837-2.738 19.331-17.25 27.375-34.219 3.375 0 7.425-0.394 11.456-1.313v-11.438z"></path>
</svg>
