<!-- Generated by IcoMoon.io -->
<svg version="1.1" xmlns="http://www.w3.org/2000/svg" width="96" height="96" viewBox="0 0 96 96">
<title>vk</title>
<path d="M87 0h-78c-4.95 0-9 4.050-9 9v78c0 4.95 4.050 9 9 9h78c4.95 0 9-4.050 9-9v-78c0-4.95-4.050-9-9-9zM77.756 67.2l-8.775 0.131c0 0-1.894 0.375-4.369-1.331-3.281-2.25-6.375-8.119-8.794-7.35-2.438 0.769-2.362 6.037-2.362 6.037s0.019 1.125-0.544 1.725c-0.6 0.656-1.8 0.787-1.8 0.787h-3.919c0 0-8.663 0.525-16.294-7.425-8.325-8.662-15.675-25.856-15.675-25.856s-0.431-1.125 0.037-1.669c0.525-0.619 1.931-0.656 1.931-0.656l9.394-0.056c0 0 0.881 0.15 1.519 0.619 0.525 0.375 0.806 1.106 0.806 1.106s1.519 3.844 3.525 7.313c3.919 6.769 5.756 8.25 7.087 7.538 1.931-1.050 1.35-9.581 1.35-9.581s0.038-3.094-0.975-4.463c-0.787-1.069-2.269-1.388-2.906-1.462-0.525-0.075 0.338-1.294 1.463-1.856 1.688-0.825 4.669-0.881 8.194-0.844 2.738 0.019 3.544 0.206 4.613 0.45 3.244 0.787 2.137 3.806 2.137 11.044 0 2.325-0.412 5.588 1.256 6.656 0.713 0.469 2.475 0.075 6.881-7.406 2.081-3.544 3.656-7.706 3.656-7.706s0.337-0.75 0.862-1.069c0.544-0.319 1.275-0.225 1.275-0.225l9.881-0.056c0 0 2.963-0.356 3.45 0.994 0.506 1.406-1.106 4.688-5.138 10.069-6.619 8.831-7.369 8.006-1.856 13.106 5.25 4.875 6.338 7.256 6.525 7.556 2.138 3.6-2.438 3.881-2.438 3.881z"></path>
</svg>
