<!-- Generated by IcoMoon.io -->
<svg version="1.1" xmlns="http://www.w3.org/2000/svg" width="96" height="96" viewBox="0 0 96 96">
<title>volume-medium</title>
<path d="M67.456 77.956c-1.152 0-2.303-0.439-3.182-1.318-1.757-1.757-1.757-4.606 0-6.364 12.282-12.282 12.282-32.266 0-44.548-1.757-1.757-1.757-4.607 0-6.364s4.607-1.757 6.364 0c7.649 7.649 11.862 17.819 11.862 28.637s-4.213 20.988-11.862 28.638c-0.879 0.879-2.030 1.318-3.182 1.318v0zM51.471 69.471c-1.152 0-2.303-0.439-3.182-1.318-1.757-1.757-1.757-4.606 0-6.364 7.603-7.603 7.603-19.974 0-27.577-1.757-1.757-1.757-4.607 0-6.364s4.606-1.757 6.364 0c11.112 11.112 11.112 29.193 0 40.305-0.879 0.878-2.030 1.318-3.182 1.318z"></path>
<path d="M39.001 90c-0.781 0-1.548-0.305-2.122-0.879l-23.121-23.121h-10.757c-1.657 0-3-1.343-3-3v-30c0-1.657 1.343-3 3-3h10.757l23.121-23.121c0.858-0.858 2.148-1.115 3.269-0.65s1.852 1.558 1.852 2.772v78c0 1.213-0.731 2.307-1.852 2.772-0.371 0.154-0.761 0.228-1.147 0.228z"></path>
</svg>
