<!-- Generated by IcoMoon.io -->
<svg version="1.1" xmlns="http://www.w3.org/2000/svg" width="96" height="96" viewBox="0 0 96 96">
<title>warning</title>
<path d="M48 8.698l40.228 80.177h-80.457l40.228-80.177zM48 0c-2.069 0-4.138 1.395-5.708 4.186l-40.976 81.667c-3.139 5.581-0.469 10.148 5.935 10.148h81.498c6.403 0 9.074-4.566 5.934-10.148h0l-40.976-81.667c-1.57-2.791-3.639-4.186-5.708-4.186v0z"></path>
<path d="M54 78c0 3.314-2.686 6-6 6s-6-2.686-6-6c0-3.314 2.686-6 6-6s6 2.686 6 6z"></path>
<path d="M48 66c-3.314 0-6-2.686-6-6v-18c0-3.314 2.686-6 6-6s6 2.686 6 6v18c0 3.314-2.686 6-6 6z"></path>
</svg>
