<!-- Generated by IcoMoon.io -->
<svg version="1.1" xmlns="http://www.w3.org/2000/svg" width="96" height="96" viewBox="0 0 96 96">
<title>whatsapp</title>
<path d="M81.844 13.95c-8.981-9-20.925-13.95-33.656-13.95-26.213 0-47.55 21.337-47.55 47.569 0 8.381 2.194 16.575 6.356 23.775l-6.75 24.656 25.219-6.619c6.956 3.787 14.775 5.794 22.725 5.794h0.019c0 0 0 0 0 0 26.212 0 47.569-21.338 47.569-47.569 0-12.712-4.95-24.656-13.931-33.656zM48.206 87.15v0c-7.106 0-14.063-1.912-20.138-5.513l-1.444-0.862-14.963 3.919 3.994-14.588-0.938-1.5c-3.975-6.281-6.056-13.556-6.056-21.037 0-21.806 17.737-39.544 39.563-39.544 10.556 0 20.494 4.125 27.956 11.588 7.463 7.481 11.569 17.4 11.569 27.975-0.019 21.825-17.756 39.563-39.544 39.563zM69.881 57.525c-1.181-0.6-7.031-3.469-8.119-3.863s-1.875-0.6-2.681 0.6c-0.788 1.181-3.075 3.863-3.769 4.669-0.694 0.787-1.387 0.9-2.569 0.3s-5.025-1.856-9.563-5.906c-3.525-3.15-5.925-7.050-6.619-8.231s-0.075-1.837 0.525-2.419c0.544-0.525 1.181-1.388 1.781-2.081s0.787-1.181 1.181-1.987c0.394-0.788 0.206-1.481-0.094-2.081s-2.681-6.45-3.656-8.831c-0.956-2.325-1.95-2.006-2.681-2.044-0.694-0.038-1.481-0.038-2.269-0.038s-2.081 0.3-3.169 1.481c-1.088 1.181-4.162 4.069-4.162 9.919s4.256 11.494 4.856 12.3c0.6 0.787 8.381 12.806 20.306 17.944 2.831 1.219 5.044 1.95 6.769 2.513 2.85 0.9 5.438 0.769 7.481 0.469 2.287-0.338 7.031-2.869 8.025-5.644s0.994-5.156 0.694-5.644c-0.281-0.525-1.069-0.825-2.269-1.425z"></path>
</svg>
