<!-- Generated by IcoMoon.io -->
<svg version="1.1" xmlns="http://www.w3.org/2000/svg" width="96" height="96" viewBox="0 0 96 96">
<title>wikipedia</title>
<path d="M90.637 21.9c0 0.3-0.094 0.581-0.281 0.844-0.188 0.244-0.394 0.375-0.637 0.375-1.875 0.188-3.412 0.788-4.594 1.8-1.2 1.012-2.419 2.981-3.675 5.85l-19.35 43.631c-0.131 0.412-0.487 0.6-1.069 0.6-0.45 0-0.806-0.206-1.069-0.6l-10.856-22.688-12.487 22.688c-0.263 0.412-0.6 0.6-1.069 0.6-0.563 0-0.919-0.206-1.106-0.6l-18.994-43.612c-1.181-2.7-2.438-4.594-3.75-5.663s-3.15-1.744-5.494-1.987c-0.206 0-0.394-0.112-0.563-0.319-0.188-0.206-0.262-0.45-0.262-0.731 0-0.713 0.206-1.069 0.6-1.069 1.687 0 3.469 0.075 5.325 0.225 1.725 0.15 3.338 0.225 4.856 0.225 1.538 0 3.375-0.075 5.475-0.225 2.194-0.15 4.144-0.225 5.85-0.225 0.412 0 0.6 0.356 0.6 1.069s-0.131 1.050-0.375 1.050c-1.688 0.131-3.037 0.563-4.012 1.294s-1.462 1.688-1.462 2.888c0 0.6 0.206 1.369 0.6 2.269l15.694 35.475 8.925-16.837-8.306-17.419c-1.5-3.112-2.719-5.119-3.675-6.019s-2.419-1.444-4.369-1.65c-0.188 0-0.337-0.113-0.506-0.319s-0.244-0.45-0.244-0.731c0-0.712 0.169-1.069 0.525-1.069 1.688 0 3.244 0.075 4.669 0.225 1.369 0.15 2.813 0.225 4.369 0.225 1.519 0 3.112-0.075 4.819-0.225 1.744-0.15 3.469-0.225 5.156-0.225 0.413 0 0.6 0.356 0.6 1.069s-0.113 1.050-0.375 1.050c-3.394 0.225-5.081 1.2-5.081 2.887 0 0.75 0.394 1.931 1.181 3.525l5.494 11.156 5.475-10.2c0.75-1.444 1.144-2.662 1.144-3.638 0-2.325-1.688-3.563-5.081-3.712-0.3 0-0.45-0.356-0.45-1.050 0-0.263 0.075-0.488 0.225-0.712s0.3-0.338 0.45-0.338c1.219 0 2.7 0.075 4.481 0.225 1.688 0.15 3.094 0.225 4.181 0.225 0.788 0 1.931-0.075 3.45-0.188 1.912-0.169 3.525-0.263 4.819-0.263 0.3 0 0.45 0.3 0.45 0.9 0 0.806-0.281 1.219-0.825 1.219-1.969 0.206-3.563 0.75-4.762 1.631s-2.7 2.888-4.5 6.038l-7.331 13.425 9.863 20.1 14.569-33.881c0.506-1.238 0.75-2.381 0.75-3.412 0-2.475-1.688-3.788-5.081-3.956-0.3 0-0.45-0.356-0.45-1.050 0-0.712 0.225-1.069 0.675-1.069 1.238 0 2.7 0.075 4.406 0.225 1.575 0.15 2.888 0.225 3.938 0.225 1.125 0 2.4-0.075 3.863-0.225 1.519-0.15 2.887-0.225 4.106-0.225 0.375 0 0.563 0.3 0.563 0.9z"></path>
</svg>
