<!-- Generated by IcoMoon.io -->
<svg version="1.1" xmlns="http://www.w3.org/2000/svg" width="96" height="96" viewBox="0 0 96 96">
<title>windows</title>
<path d="M38.647 47.992c-4.473-2.299-8.821-3.465-12.926-3.465-0.558 0-1.12 0.017-1.683 0.066-5.239 0.434-10.024 1.816-13.102 2.89-0.816 0.3-1.653 0.616-2.515 0.966l-8.421 29.193c5.785-2.141 10.902-3.182 15.588-3.182 7.579 0 13.081 2.832 17.624 5.747 2.153-7.305 7.317-24.946 8.858-30.218-1.12-0.683-2.257-1.366-3.423-1.999zM49.533 55.413l-8.479 29.451c2.516 1.441 10.978 6.005 17.457 6.005 5.231 0 11.086-1.34 17.891-4.106l8.096-28.31c-5.497 1.774-10.77 2.674-15.7 2.674-8.995 0-15.292-2.915-19.265-5.714zM27.452 34.574c7.23 0.075 12.577 2.832 17.008 5.672l8.696-29.751c-1.832-1.050-6.638-3.665-10.112-4.556-2.286-0.533-4.689-0.808-7.238-0.808-4.856 0.091-10.161 1.307-16.208 3.731l-8.291 29.118c6.076-2.291 11.31-3.407 16.133-3.407 0.004 0 0.013 0 0.013 0zM96 18.574c-5.514 2.14-10.894 3.231-16.034 3.231-8.596 0-14.934-2.981-19.040-5.847l-8.62 29.835c5.789 3.723 12.027 5.614 18.574 5.614 5.339 0 10.869-1.282 16.45-3.815l-0.017-0.208 0.35-0.083 8.338-28.727z"></path>
</svg>
