<!-- Generated by IcoMoon.io -->
<svg version="1.1" xmlns="http://www.w3.org/2000/svg" width="96" height="96" viewBox="0 0 96 96">
<title>wink</title>
<path d="M48 96c26.51 0 48-21.49 48-48s-21.49-48-48-48-48 21.49-48 48 21.49 48 48 48zM48 9c21.539 0 39 17.461 39 39s-17.461 39-39 39-39-17.461-39-39 17.461-39 39-39zM50.882 66.659c13.148-2.597 23.354-8.582 27.043-16.556-2.030 15.746-15.142 27.897-31.017 27.897-11.179 0-20.987-6.026-26.521-15.089 6.601 5.162 18.238 6.169 30.496 3.748zM60 33c0-4.971 2.686-9 6-9s6 4.029 6 9c0 4.971-2.686 9-6 9s-6-4.029-6-9zM33 34.828c-3.918 0-7.25 1.468-8.486 3.516-0.332-0.55-0.514-3.016-0.514-3.633 0-2.912 4.029-5.273 9-5.273s9 2.361 9 5.273c0 0.617-0.182 3.083-0.514 3.633-1.236-2.048-4.567-3.516-8.486-3.516z"></path>
</svg>
