<!-- Generated by IcoMoon.io -->
<svg version="1.1" xmlns="http://www.w3.org/2000/svg" width="96" height="96" viewBox="0 0 96 96">
<title>wink2</title>
<path d="M48 0c-26.51 0-48 21.49-48 48s21.49 48 48 48c26.51 0 48-21.49 48-48s-21.49-48-48-48zM66 24c3.314 0 6 4.029 6 9s-2.686 9-6 9-6-4.029-6-9 2.686-9 6-9zM33 29.256c5.592 0 9.563 2.094 9.563 5.37 0 0.694 0.357 4.031-0.016 4.649-1.39-2.304-5.138-3.955-9.547-3.955s-8.156 1.651-9.547 3.955c-0.373-0.619-0.016-3.956-0.016-4.649 0-3.277 3.971-5.37 9.562-5.37zM46.907 78c-11.179 0-20.987-6.026-26.521-15.089 6.601 5.162 18.238 6.17 30.496 3.748 13.148-2.597 23.354-8.582 27.043-16.556-2.030 15.746-15.142 27.897-31.017 27.897z"></path>
</svg>
