<!-- Generated by IcoMoon.io -->
<svg version="1.1" xmlns="http://www.w3.org/2000/svg" width="96" height="96" viewBox="0 0 96 96">
<title>woman</title>
<path d="M54 9c0 4.971-4.029 9-9 9s-9-4.029-9-9c0-4.971 4.029-9 9-9s9 4.029 9 9z"></path>
<path d="M67.406 48l4.594-3.328-12.496-19.323c-0.555-0.842-1.496-1.349-2.504-1.349h-24c-1.008 0-1.949 0.507-2.504 1.349l-12.496 19.323 4.594 3.328 10.373-13.462 3.605 8.413-12.572 23.049h11.5l2 30h6v-30h3v30h6l2-30h11.5l-12.572-23.049 3.605-8.413 10.373 13.462z"></path>
</svg>
