<!-- Generated by IcoMoon.io -->
<svg version="1.1" xmlns="http://www.w3.org/2000/svg" width="96" height="96" viewBox="0 0 96 96">
<title>wondering</title>
<path d="M48 96c26.51 0 48-21.49 48-48s-21.49-48-48-48-48 21.49-48 48 21.49 48 48 48zM48 9c21.539 0 39 17.461 39 39s-17.461 39-39 39-39-17.461-39-39 17.461-39 39-39zM69.913 56.402l2.108 7.198-40.969 12-2.108-7.198zM24 30c0-3.314 2.686-6 6-6s6 2.686 6 6c0 3.314-2.686 6-6 6s-6-2.686-6-6zM60 30c0-3.314 2.686-6 6-6s6 2.686 6 6c0 3.314-2.686 6-6 6s-6-2.686-6-6z"></path>
</svg>
