<!-- Generated by IcoMoon.io -->
<svg version="1.1" xmlns="http://www.w3.org/2000/svg" width="96" height="96" viewBox="0 0 96 96">
<title>wordpress</title>
<path d="M12 47.999c0 13.877 8.28 25.872 20.29 31.554l-17.173-45.824c-1.998 4.36-3.117 9.186-3.117 14.269zM72.303 46.231c0-4.334-1.599-7.335-2.968-9.67-1.824-2.889-3.536-5.334-3.536-8.223 0-3.223 2.509-6.223 6.046-6.223 0.16 0 0.311 0.019 0.467 0.028-6.405-5.716-14.938-9.206-24.31-9.206-12.578 0-23.642 6.286-30.079 15.803 0.845 0.026 1.641 0.043 2.317 0.043 3.764 0 9.594-0.446 9.594-0.446 1.94-0.111 2.169 2.666 0.23 2.89 0 0-1.951 0.222-4.12 0.333l13.109 37.979 7.879-23.011-5.608-14.967c-1.94-0.111-3.776-0.333-3.776-0.333-1.941-0.112-1.713-3 0.229-2.89 0 0 5.944 0.445 9.481 0.445 3.764 0 9.595-0.445 9.595-0.445 1.941-0.111 2.169 2.666 0.229 2.89 0 0-1.953 0.222-4.12 0.333l13.011 37.689 3.592-11.684c1.554-4.852 2.739-8.334 2.739-11.334zM48.632 51.066l-10.802 30.568c3.227 0.924 6.637 1.429 10.171 1.429 4.192 0 8.213-0.705 11.955-1.988-0.095-0.15-0.185-0.31-0.258-0.483l-11.065-29.526zM79.59 31.179c0.155 1.117 0.243 2.314 0.243 3.605 0 3.556-0.684 7.556-2.738 12.558l-10.996 30.963c10.703-6.078 17.9-17.371 17.9-30.305 0-6.097-1.599-11.828-4.41-16.821zM48 0c-26.51 0-48 21.49-48 48s21.49 48 48 48 48-21.49 48-48-21.49-48-48-48zM48 90c-23.196 0-42-18.804-42-42s18.804-42 42-42 42 18.804 42 42-18.804 42-42 42z"></path>
</svg>
