<!-- Generated by IcoMoon.io -->
<svg version="1.1" xmlns="http://www.w3.org/2000/svg" width="96" height="96" viewBox="0 0 96 96">
<title>wrench</title>
<path d="M94.025 76.676l-43.177-37.009c2.011-3.778 3.152-8.089 3.152-12.667 0-14.912-12.088-27-27-27-2.728 0-5.36 0.406-7.842 1.158l15.599 15.599c2.333 2.333 2.333 6.152 0 8.485l-9.515 9.515c-2.333 2.333-6.152 2.333-8.485 0l-15.599-15.599c-0.752 2.482-1.158 5.114-1.158 7.842 0 14.912 12.088 27 27 27 4.578 0 8.889-1.141 12.667-3.152l37.009 43.177c2.148 2.505 5.814 2.646 8.147 0.313l9.515-9.515c2.333-2.333 2.192-5.999-0.313-8.147z"></path>
</svg>
