<!-- Generated by IcoMoon.io -->
<svg version="1.1" xmlns="http://www.w3.org/2000/svg" width="96" height="96" viewBox="0 0 96 96">
<title>xing</title>
<path d="M87 0h-78c-4.95 0-9 4.050-9 9v78c0 4.95 4.050 9 9 9h78c4.95 0 9-4.050 9-9v-78c0-4.95-4.050-9-9-9zM29.306 62.438h-10.369c-0.619 0-1.088-0.281-1.35-0.713-0.281-0.45-0.281-1.012 0-1.594l11.025-19.462c0.019-0.019 0.019-0.038 0-0.056l-7.013-12.15c-0.281-0.581-0.337-1.144-0.056-1.594 0.263-0.431 0.788-0.656 1.425-0.656h10.387c1.594 0 2.381 1.031 2.888 1.95 0 0 7.087 12.375 7.144 12.45-0.413 0.75-11.212 19.819-11.212 19.819-0.563 0.975-1.313 2.006-2.869 2.006zM78.412 14.269l-22.987 40.65c-0.019 0.019-0.019 0.056 0 0.075l14.644 26.737c0.281 0.581 0.3 1.163 0.019 1.613-0.262 0.431-0.75 0.656-1.387 0.656h-10.369c-1.594 0-2.381-1.050-2.906-1.969 0 0-14.719-27-14.756-27.075 0.731-1.294 23.1-40.969 23.1-40.969 0.563-0.994 1.238-1.969 2.775-1.969h10.519c0.619 0 1.125 0.244 1.387 0.656 0.262 0.431 0.262 1.013-0.037 1.594z"></path>
</svg>
