<!-- Generated by IcoMoon.io -->
<svg version="1.1" xmlns="http://www.w3.org/2000/svg" width="96" height="96" viewBox="0 0 96 96">
<title>xing2</title>
<path d="M14.587 18.956c-0.825 0-1.537 0.3-1.894 0.863-0.356 0.6-0.3 1.35 0.075 2.119l9.356 16.2c0.019 0.038 0.019 0.056 0 0.075l-14.7 25.987c-0.375 0.769-0.356 1.538 0 2.119 0.356 0.563 0.975 0.938 1.8 0.938h13.838c2.063 0 3.075-1.406 3.769-2.681 0 0 14.381-25.444 14.944-26.437-0.056-0.094-9.525-16.594-9.525-16.594-0.694-1.219-1.725-2.587-3.862-2.587h-13.8z"></path>
<path d="M72.75 0c-2.063 0-2.963 1.294-3.713 2.644 0 0-29.831 52.894-30.806 54.638 0.056 0.094 19.669 36.094 19.669 36.094 0.694 1.219 1.744 2.644 3.863 2.644h13.837c0.825 0 1.481-0.319 1.838-0.881 0.375-0.6 0.356-1.369-0.037-2.137l-19.5-35.681c-0.019-0.037-0.019-0.056 0-0.094l30.656-54.206c0.375-0.769 0.394-1.537 0.037-2.138-0.356-0.563-1.012-0.881-1.838-0.881h-14.006z"></path>
</svg>
