<!-- Generated by IcoMoon.io -->
<svg version="1.1" xmlns="http://www.w3.org/2000/svg" width="96" height="96" viewBox="0 0 96 96">
<title>yahoo2</title>
<path d="M48.113 6.525c-16.969 0-33-2.231-48.113-6.525 0 33.919 0 87.488 0 96 15.131-4.294 31.162-6.525 48.113-6.525 16.762 0 32.756 2.175 47.887 6.525 0-32.662 0-60.919 0-96-15.131 4.35-31.106 6.525-47.887 6.525zM74.7 14.719l-0.581 0.919c-0.544 0.862-1.031 1.594-1.706 2.625-0.9 1.35-2.588 4.031-4.613 7.481-0.563 0.956-1.256 2.1-1.969 3.338-1.369 2.306-2.906 4.913-4.125 6.975-0.506 0.881-1.012 1.781-1.537 2.681-1.35 2.344-2.738 4.763-4.069 7.087-1.369 2.419-2.719 4.8-4.069 7.163v2.381c0 3.3 0.075 6.9 0.188 10.106 0.056 1.463 0.113 4.069 0.188 6.825 0.075 3.281 0.15 6.675 0.244 8.4l0.019 0.525v0.056l-0.563-0.15c-0.225-0.056-0.431-0.112-0.656-0.169-0.675-0.15-1.406-0.263-2.119-0.338-0.431-0.037-0.881-0.056-1.331-0.056 0 0 0 0 0 0s0 0 0 0c-0.45 0-0.9 0.019-1.331 0.056-0.712 0.075-1.444 0.188-2.119 0.338-0.225 0.056-0.45 0.112-0.656 0.169l-0.563 0.15v-0.056l0.019-0.525c0.075-1.706 0.169-5.119 0.244-8.4 0.056-2.756 0.131-5.363 0.188-6.825 0.131-3.225 0.188-6.806 0.188-10.106v-2.381c-1.35-2.381-2.7-4.744-4.069-7.163-1.331-2.344-2.719-4.744-4.050-7.087-0.525-0.9-1.031-1.8-1.537-2.681-1.2-2.081-2.756-4.688-4.125-6.975-0.731-1.219-1.425-2.381-1.969-3.338-2.025-3.45-3.713-6.113-4.612-7.481-0.675-1.031-1.163-1.763-1.706-2.625l-0.581-0.919 1.050 0.3c1.331 0.375 2.7 0.563 4.162 0.563s2.869-0.188 4.181-0.563l0.319-0.094 0.169 0.281c2.587 4.669 9.544 16.106 13.706 22.95 1.425 2.362 2.569 4.219 3.131 5.175 0 0 0 0 0-0.019 0 0 0 0 0 0.019 0.563-0.938 1.706-2.813 3.131-5.175 4.163-6.825 11.119-18.263 13.706-22.95l0.169-0.281 0.319 0.094c1.313 0.375 2.719 0.563 4.181 0.563s2.831-0.188 4.163-0.563l0.994-0.3z"></path>
</svg>
