<!-- Generated by IcoMoon.io -->
<svg version="1.1" xmlns="http://www.w3.org/2000/svg" width="96" height="96" viewBox="0 0 96 96">
<title>yahoo</title>
<path d="M53.269 55.219v0c10.556-18.525 27.994-48.75 32.775-55.219-2.1 1.406-5.325 2.119-8.287 2.794l-4.481-2.794c-3.6 6.712-16.875 28.406-25.331 42.3-8.569-14.194-18.712-30.581-25.331-42.3-5.25 1.125-7.425 1.181-12.656 0v0 0c0 0 0 0 0 0v0c10.387 15.638 27.019 45.431 32.681 55.219v0l-0.769 40.781 6.075-2.794v-0.075l6.075 2.869-0.75-40.781z"></path>
</svg>
