<!-- Generated by IcoMoon.io -->
<svg version="1.1" xmlns="http://www.w3.org/2000/svg" width="96" height="96" viewBox="0 0 96 96">
<title>yelp</title>
<path d="M57.082 61.263c-1.62 1.634-0.25 4.606-0.25 4.606l12.196 20.364c0 0 2.002 2.685 3.737 2.685 1.743 0 3.464-1.432 3.464-1.432l9.642-13.782c0 0 0.971-1.739 0.994-3.262 0.035-2.166-3.23-2.759-3.23-2.759l-22.827-7.331c-0 0-2.237-0.593-3.726 0.91zM55.925 50.999c1.168 1.981 4.39 1.404 4.39 1.404l22.775-6.657c0 0 3.104-1.262 3.547-2.945 0.435-1.683-0.512-3.715-0.512-3.715l-10.884-12.82c0 0-0.943-1.621-2.9-1.784-2.158-0.184-3.486 2.428-3.486 2.428l-12.869 20.251c0 0-1.138 2.017-0.061 3.839zM45.164 43.103c2.682-0.66 3.108-4.557 3.108-4.557l-0.182-32.425c0 0-0.404-4-2.202-5.084-2.819-1.71-3.655-0.817-4.462-0.698l-18.909 7.026c0 0-1.852 0.613-2.816 2.158-1.377 2.189 1.4 5.395 1.4 5.395l19.654 26.79c0 0 1.94 2.006 4.41 1.396zM40.495 56.225c0.068-2.501-3.003-4.003-3.003-4.003l-20.325-10.268c0 0-3.012-1.242-4.474-0.377-1.12 0.662-2.113 1.86-2.21 2.919l-1.324 16.295c0 0-0.198 2.823 0.533 4.108 1.036 1.823 4.446 0.553 4.446 0.553l23.728-5.245c0.922-0.62 2.538-0.675 2.627-3.983zM46.395 65.020c-2.037-1.046-4.474 1.12-4.474 1.12l-15.888 17.491c0 0-1.982 2.674-1.478 4.317 0.475 1.539 1.261 2.304 2.374 2.843l15.956 5.037c0 0 1.934 0.402 3.399-0.023 2.079-0.603 1.696-3.858 1.696-3.858l0.361-23.681c-0 0-0.081-2.281-1.945-3.246z"></path>
</svg>
