<!-- Generated by IcoMoon.io -->
<svg version="1.1" xmlns="http://www.w3.org/2000/svg" width="241" height="96" viewBox="0 0 241 96">
<title>youtube2</title>
<path d="M32.251 15.881c0.020-0.081 0.032-0.139 0.036-0.169l0.098-0.709-4.439-0.025c-4.011-0.023-5.238 0.001-5.348 0.102-0.053 0.048-1.437 5.309-3.905 14.838-1.177 4.545-2.168 8.176-2.202 8.067s-1.443-5.297-3.131-11.529c-1.688-6.233-3.104-11.367-3.145-11.409-0.058-0.058-5.436-0.084-9.789-0.047-0.631 0.005-0.982-1.229 5.627 19.794 0.915 2.91 2.285 7.031 3.044 9.157 0.875 2.451 1.499 4.343 1.925 5.922 0.754 3.006 0.78 4.89 0.615 7.090-0.19 2.541-0.218 20.479-0.032 20.779 0.142 0.23 8.552 0.336 9.348 0.119 0.127-0.035 0.212-0.159 0.269-0.837 0.199-0.583 0.214-2.903 0.214-12.538v-12.308l0.538-1.698c0.352-1.111 1.238-4.031 1.968-6.489s1.613-5.402 1.963-6.541c3.172-10.342 6.201-20.515 6.281-21.095l0.065-0.474z"></path>
<path d="M79.324 30.811l-0.002 0.641-0.1 0.001-0.056 17.718-0.054 17.178-1.375 1.4c-1.54 1.567-2.774 2.166-3.89 1.886-1.215-0.305-1.185 0.169-1.286-20.134l-0.094-18.689h-8.842v0.642h-0.102v20.277c0 21.725-0.001 21.712 1.102 23.895 0.878 1.738 2.157 2.584 4.349 2.875h0c2.887 0.384 6-0.923 8.885-3.732l1.254-1.221v2.104c0 1.818 0.052 2.119 0.382 2.211 0.54 0.15 7.235 0.16 7.958 0.012l0.6-0.123v-0.621l0.102-0.021v-46.415l-8.831 0.118z"></path>
<path d="M56.896 39.968c-0.838-3.594-2.407-6.011-4.991-7.682-4.058-2.625-8.692-2.902-12.992-0.777-3.134 1.548-5.152 4.117-6.194 7.883-0.124 0.449-0.215 0.826-0.284 1.389-0.265 1.33-0.297 3.314-0.365 12.558-0.105 14.243 0.058 15.938 1.842 19.173 1.75 3.173 5.382 5.499 9.335 5.98 1.19 0.144 3.603-0.080 4.99-0.465 3.153-0.874 6.175-3.366 7.511-6.195 0.577-1.222 0.926-2.071 1.136-3.624 0.391-2.12 0.419-5.548 0.419-14.285-0-11.145-0.036-12.362-0.407-13.954zM46.813 69c-0.741 0.565-2.038 0.811-3.092 0.586-0.812-0.173-1.907-1.446-2.244-2.606-0.42-1.447-0.452-21.561-0.089-25.506 0.598-1.974 2.268-3.005 4.091-2.514 1.421 0.383 2.148 1.273 2.563 3.137 0.308 1.383 0.344 3.106 0.279 13.243-0.043 6.722-0.067 10.007-0.287 11.771-0.223 1.113-0.592 1.411-1.22 1.889z"></path>
<path d="M215.661 50.075h4.272l-0.068-3.87c-0.066-3.55-0.118-3.956-0.593-4.919-0.748-1.52-1.852-2.194-3.604-2.194-2.105 0-3.439 1.017-4.068 3.107-0.268 0.889-0.55 7.002-0.348 7.529 0.113 0.295 0.724 0.347 4.408 0.347z"></path>
<path d="M187.106 41.272c-0.57-1.148-1.63-1.714-2.862-1.669-0.958 0.034-2.021 0.438-3.046 1.22l-0.763 0.579v27.806l0.763 0.579c1.728 1.317 3.626 1.597 4.933 0.722 0.517-0.346 0.855-0.823 1.117-1.581 0.342-0.987 0.372-2.25 0.327-13.947-0.046-12.192-0.073-12.91-0.47-13.709z"></path>
<path d="M240.082 28.747c-0.851-10.204-1.528-13.515-3.633-17.77-2.787-5.634-6.815-8.605-12.551-9.258-4.435-0.504-21.123-1.216-36.567-1.559-26.736-0.594-70.693 0.549-76.307 1.985-2.594 0.663-4.54 1.792-6.565 3.807-3.548 3.531-5.662 8.595-6.511 15.6-1.94 15.994-1.981 35.318-0.111 51.892 0.804 7.129 2.46 11.76 5.57 15.577 1.94 2.382 5.283 4.406 8.274 5.010 2.099 0.424 12.602 1.012 27.9 1.563 2.279 0.082 8.313 0.223 13.409 0.314 10.622 0.189 30.153 0.077 41.317-0.236 7.512-0.211 21.206-0.766 23.766-0.964 0.72-0.056 2.388-0.162 3.707-0.237 4.432-0.25 7.252-1.178 9.9-3.259 3.427-2.692 6.080-7.668 7.201-13.503 1.061-5.521 1.771-15.354 1.915-26.517 0.12-9.327-0.040-14.36-0.714-22.445zM133.619 25.049l-4.967 0.061-0.218 52.982-4.306 0.054c-3.33 0.046-4.341-0.004-4.422-0.218-0.058-0.152-0.127-12.096-0.157-26.546l-0.054-26.273-9.702-0.123v-8.279l28.671 0.116 0.123 8.163-4.967 0.061zM164.083 55.417v22.785h-7.849v-2.398c0-1.804-0.069-2.398-0.279-2.398-0.154 0-0.865 0.595-1.581 1.322-1.552 1.577-3.391 2.847-4.96 3.434-3.25 1.216-6.336 0.506-7.652-1.758-1.204-2.073-1.226-2.536-1.226-24.031v-19.739h7.842l0.061 18.587c0.058 18.264 0.067 18.599 0.504 19.344 0.58 0.986 1.463 1.251 2.868 0.865 0.827-0.227 1.391-0.629 2.732-1.962l1.69-1.683v-35.151h7.849v22.785zM194.696 74.945c-0.691 1.54-2.232 3.048-3.495 3.42-3.297 0.973-5.941 0.18-8.994-2.691-0.947-0.891-1.829-1.615-1.962-1.615-0.161 0-0.245 0.698-0.245 2.071v2.071h-7.849v-61.485h7.849v10.030c0 5.516 0.074 10.030 0.163 10.030s0.918-0.732 1.84-1.622c2.121-2.048 3.895-2.944 6.146-3.114 4.014-0.304 6.406 1.762 7.502 6.48 0.342 1.471 0.375 3.152 0.375 16.789-0 16.61-0.002 16.68-1.329 19.637zM227.905 65.828c-0.070 1.709-0.277 3.669-0.463 4.361-1.091 4.047-3.997 6.912-8.197 8.088-5.655 1.582-11.879-1.010-14.363-5.982-1.395-2.791-1.445-3.347-1.445-16.986 0-11.12 0.039-12.485 0.395-14.002 1.008-4.293 3.505-7.071 7.733-8.612 1.225-0.447 2.504-0.676 3.782-0.702 4.563-0.094 9.092 2.361 10.99 6.357 1.281 2.696 1.439 3.849 1.567 11.447l0.116 6.814-16.734 0.116-0.061 4.579c-0.087 6.459 0.348 8.446 2.092 9.621 1.467 0.988 3.72 0.914 4.947-0.164 1.15-1.010 1.474-2.094 1.587-5.26l0.102-2.78h8.081l-0.129 3.107z"></path>
</svg>
