<!-- Generated by IcoMoon.io -->
<svg version="1.1" xmlns="http://www.w3.org/2000/svg" width="96" height="96" viewBox="0 0 96 96">
<title>youtube</title>
<path d="M95.044 28.8c0 0-0.938-6.619-3.825-9.525-3.656-3.825-7.744-3.844-9.619-4.069-13.425-0.975-33.581-0.975-33.581-0.975h-0.038c0 0-20.156 0-33.581 0.975-1.875 0.225-5.963 0.244-9.619 4.069-2.888 2.906-3.806 9.525-3.806 9.525s-0.956 7.763-0.956 15.544v7.275c0 7.762 0.956 15.544 0.956 15.544s0.938 6.619 3.806 9.525c3.656 3.825 8.456 3.694 10.594 4.106 7.688 0.731 32.644 0.956 32.644 0.956s20.175-0.038 33.6-0.994c1.875-0.225 5.963-0.244 9.619-4.069 2.887-2.906 3.825-9.525 3.825-9.525s0.956-7.762 0.956-15.544v-7.275c-0.019-7.763-0.975-15.544-0.975-15.544zM38.081 60.45v-26.981l25.931 13.538-25.931 13.444z"></path>
</svg>
