<!-- Generated by IcoMoon.io -->
<svg version="1.1" xmlns="http://www.w3.org/2000/svg" width="96" height="96" viewBox="0 0 96 96">
<title>zoom-in</title>
<path d="M93.025 81.693l-22.739-19.34c-2.351-2.116-4.865-3.087-6.895-2.993 5.368-6.288 8.61-14.445 8.61-23.36 0-19.882-16.118-36-36-36s-36 16.118-36 36 16.118 36 36 36c8.915 0 17.073-3.242 23.36-8.61-0.094 2.031 0.877 4.545 2.993 6.895l19.34 22.739c3.311 3.679 8.721 3.989 12.021 0.69s2.99-8.709-0.689-12.021zM36 60c-13.255 0-24-10.745-24-24s10.745-24 24-24 24 10.745 24 24-10.745 24-24 24zM42 18h-12v12h-12v12h12v12h12v-12h12v-12h-12z"></path>
</svg>
